<?xml version="1.0" standalone="no"?>
<!DOCTYPE svg PUBLIC "-//W3C//DTD SVG 1.1//EN" "http://www.w3.org/Graphics/SVG/1.1/DTD/svg11.dtd" >
<svg xmlns="http://www.w3.org/2000/svg" xmlns:xlink="http://www.w3.org/1999/xlink" version="1.1">
<metadata>
Created by FontForge 20170731 at Fri Aug 14 13:48:11 2020
 By Aleksey,,,
Copyright (c) 2018 by Alexander Slobzheninov. All rights reserved.
</metadata>
<defs>
<font id="ObjectSans-Slanted" horiz-adv-x="1239" >
  <font-face 
    font-family="Object Sans Slanted"
    font-weight="402"
    font-style="oblique"
    font-stretch="normal"
    units-per-em="2048"
    panose-1="0 0 5 0 0 0 0 0 0 0"
    ascent="1638"
    descent="-410"
    x-height="1034"
    cap-height="1444"
    bbox="-483 -549 2910.79 1960"
    underline-thickness="102"
    underline-position="-255"
    unicode-range="U+000D-F6C3"
  />
<missing-glyph horiz-adv-x="0" 
 />
    <glyph glyph-name=".notdef" horiz-adv-x="0" 
 />
    <glyph glyph-name=".null" horiz-adv-x="0" 
 />
    <glyph glyph-name="nonmarkingreturn" horiz-adv-x="682" 
 />
    <glyph glyph-name="NULL" horiz-adv-x="1509" 
d="M104 0l254 1444h1119l-254 -1444h-1119zM283 137h809l204 1172h-809z" />
    <glyph glyph-name="NULL" horiz-adv-x="1509" 
d="M104 0l254 1444h1119l-254 -1444h-1119zM283 137h809l204 1172h-809z" />
    <glyph glyph-name="CR" unicode="&#xd;" horiz-adv-x="61" 
 />
    <glyph glyph-name="space" unicode=" " horiz-adv-x="512" 
 />
    <glyph glyph-name="exclam" unicode="!" horiz-adv-x="522" 
d="M195 442l69 623l68 379h188l-67 -379l-152 -623h-106zM176 -27q-54 0 -82.5 35.5t-19.5 89.5q9 44 43 72.5t78 28.5q54 0 82.5 -35t19.5 -88q-7 -46 -41 -74.5t-80 -28.5z" />
    <glyph glyph-name="quotedbl" unicode="&#x22;" horiz-adv-x="677" 
d="M166 786l49 373l51 285h150l-51 -285l-80 -373h-119zM489 786l50 373l51 285h149l-51 -285l-80 -373h-119z" />
    <glyph glyph-name="numbersign" unicode="#" horiz-adv-x="1947" 
d="M336 0l223 500h-459l23 125h489l136 301h-469l22 127h500l200 454h154l-201 -454h344l201 454h154l-201 -454h485l-22 -127h-520l-131 -301h497l-24 -125h-531l-219 -500h-151l221 500h-348l-222 -500h-151zM766 625h344l135 301h-348z" />
    <glyph glyph-name="dollar" unicode="$" horiz-adv-x="1404" 
d="M1341 999l-180 11q31 154 -53.5 237.5t-265.5 83.5q-177 0 -287.5 -72t-132.5 -196q-10 -53 6.5 -93.5t42.5 -63.5t84 -42.5t98 -27.5t119 -21q98 -16 159.5 -30t141.5 -46.5t121.5 -75t64.5 -115.5t7 -169q-34 -191 -186 -305t-392 -123l-35 -197h-174l37 203
q-227 31 -334.5 167.5t-72.5 350.5l184 -12q-29 -167 64 -258.5t292 -91.5q180 0 294 74t136 202q10 55 -6.5 96.5t-40.5 65t-84.5 43.5t-97 27.5t-120.5 21.5q-3 1 -5.5 1.5t-5.5 0.5q-90 14 -155.5 29.5t-139.5 48t-116.5 76t-64 115t-5.5 163.5q33 181 175.5 292
t370.5 124l33 186h174l-33 -190q216 -28 318 -157.5t65 -332.5z" />
    <glyph glyph-name="percent" unicode="%" horiz-adv-x="2082" 
d="M561 700q-189 0 -285.5 118t-64.5 306q32 180 163 291t310 111q189 0 286.5 -118t63.5 -306q-31 -180 -162 -291t-311 -111zM315 0l1323 1505h211l-1321 -1505h-213zM569 874q112 0 193 69.5t100 180.5q19 102 -32.5 165t-153.5 63q-111 0 -193.5 -70t-101.5 -180
q-19 -101 34 -164.5t154 -63.5zM1481 -20q-187 0 -283.5 117.5t-64.5 305.5q32 180 163.5 292t309.5 112q188 0 285 -118.5t63 -307.5q-31 -180 -162 -290.5t-311 -110.5zM1491 156q111 0 192.5 68.5t100.5 178.5q19 103 -33.5 166.5t-155.5 63.5q-108 0 -190 -70.5
t-102 -181.5q-19 -101 33.5 -163t154.5 -62z" />
    <glyph glyph-name="ampersand" unicode="&#x26;" horiz-adv-x="1589" 
d="M504 -51q-212 0 -328.5 120t-85.5 306q14 79 48 143.5t87 112.5t109 82.5t131 68.5q-115 170 -82 340q28 156 158.5 257.5t302.5 101.5q186 0 289.5 -116t72.5 -288l-176 10q17 101 -38.5 165.5t-155.5 64.5q-104 0 -183 -65t-96 -165q-25 -139 100 -276l400 -422
q125 131 215 313l176 -12q-123 -243 -291 -411l258 -279h-246l-147 154q-257 -205 -518 -205zM537 113q188 0 383 155l-353 389q-127 -44 -201.5 -115t-93.5 -186q-20 -107 54.5 -175t210.5 -68z" />
    <glyph glyph-name="quotesingle" unicode="'" horiz-adv-x="356" 
d="M166 786l51 373l49 285h150l-49 -285l-82 -373h-119z" />
    <glyph glyph-name="parenleft" unicode="(" horiz-adv-x="632" 
d="M281 -365q-122 147 -167.5 405t3.5 542q47 273 180.5 528.5t304.5 402.5l182 -8q-189 -158 -329 -412t-189 -534q-50 -280 -1.5 -530t181.5 -402z" />
    <glyph glyph-name="parenright" unicode=")" horiz-adv-x="630" 
d="M47 -373l-182 8q188 154 328 407.5t192 539.5q47 275 -0.5 525t-179.5 406l166 -8q121 -148 166 -405t-5 -541q-47 -274 -180 -530t-305 -402z" />
    <glyph glyph-name="asterisk" unicode="*" horiz-adv-x="1052" 
d="M467 543l68 350l-330 -178l-45 108l334 170l-277 172l82 109l270 -178l58 348h127l-68 -348l330 178l45 -109l-334 -172l277 -170l-82 -108l-271 178l-57 -350h-127z" />
    <glyph glyph-name="plus" unicode="+" horiz-adv-x="1171" 
d="M457 285l69 383h-395l27 153h395l63 365h177l-66 -365h393l-26 -153h-394l-67 -383h-176z" />
    <glyph glyph-name="comma" unicode="," horiz-adv-x="436" 
d="M47 -283l-86 21l143 239q-38 9 -58 42.5t-13 78.5q7 44 41 72.5t78 28.5q55 0 83.5 -35t20.5 -88q-6 -34 -35 -82z" />
    <glyph glyph-name="hyphen" unicode="-" horiz-adv-x="1048" 
d="M113 561l26 154h840l-27 -154h-839z" />
    <glyph glyph-name="period" unicode="." horiz-adv-x="432" 
d="M131 -27q-54 0 -82.5 35.5t-19.5 89.5q8 44 41.5 72.5t79.5 28.5q54 0 82.5 -35t19.5 -88q-9 -46 -43 -74.5t-78 -28.5z" />
    <glyph glyph-name="slash" unicode="/" horiz-adv-x="835" 
d="M-150 -471l955 1915h172l-954 -1915h-173z" />
    <glyph glyph-name="zero" unicode="0" horiz-adv-x="1492" 
d="M657 -51q-187 0 -312.5 100.5t-172 278.5t-6.5 405q39 222 144 394.5t261 270t338 97.5q186 0 312 -100.5t173 -278.5t7 -405q-40 -221 -145.5 -394t-261.5 -270.5t-337 -97.5zM666 113q199 0 351 173.5t202 446.5q28 178 2 310.5t-109.5 210t-210.5 77.5
q-201 0 -353 -173t-200 -447q-25 -131 -13.5 -240.5t51 -189t112 -124t168.5 -44.5z" />
    <glyph glyph-name="one" unicode="1" horiz-adv-x="815" 
d="M344 0l209 1186h-18l-379 -254l37 219l442 293h151l-256 -1444h-186z" />
    <glyph glyph-name="two" unicode="2" horiz-adv-x="1230" 
d="M35 0l16 100l705 584q134 109 178 156q95 99 113 202q22 124 -48.5 206.5t-195.5 82.5q-145 0 -263 -106t-153 -267l-178 13q40 230 209 377t391 147q217 0 337 -131t85 -332q-21 -117 -110.5 -226t-274.5 -259l-459 -363l-4 -20h672l-31 -164h-989z" />
    <glyph glyph-name="three" unicode="3" horiz-adv-x="1236" 
d="M535 -51q-151 0 -264 70t-164.5 194t-30.5 276l186 -12q-28 -159 51 -261.5t226 -102.5q151 0 266 90.5t141 228.5q22 132 -56.5 217.5t-223.5 85.5q-84 0 -150 -28l-37 139l457 414l6 20h-645l29 164h929l-20 -125l-485 -434q95 -9 172.5 -48t128.5 -101t71.5 -147
t3.5 -181q-34 -200 -200.5 -329.5t-390.5 -129.5z" />
    <glyph glyph-name="four" unicode="4" horiz-adv-x="1251" 
d="M686 0l57 319h-712l18 119l793 1006h286l-170 -961h179l-29 -164h-178l-58 -319h-186zM287 483h483l137 772h-18z" />
    <glyph glyph-name="five" unicode="5" horiz-adv-x="1286" 
d="M565 -51q-151 0 -264 70t-164.5 194t-30.5 276l187 -12q-28 -159 50.5 -261.5t225.5 -102.5q151 0 267 92t141 231q24 140 -60 228t-260 88h-383l199 692h748l-29 -164h-596l-102 -365h200q248 0 374 -140t87 -359q-35 -202 -202.5 -334.5t-387.5 -132.5z" />
    <glyph glyph-name="six" unicode="6" horiz-adv-x="1298" 
d="M561 -51q-158 0 -275.5 65.5t-169 176t-28.5 241.5q33 191 221 393l588 619h229l-534 -559q63 26 156 26q224 0 346.5 -137t85.5 -346q-37 -210 -211.5 -344.5t-407.5 -134.5zM573 113q158 1 277.5 98t144.5 242q25 132 -56.5 216.5t-229.5 84.5q-164 1 -287 -92
t-148 -236q-25 -137 59.5 -225.5t239.5 -87.5z" />
    <glyph glyph-name="seven" unicode="7" horiz-adv-x="1060" 
d="M160 0l768 1280h-752l29 164h977l-17 -111l-800 -1333h-205z" />
    <glyph glyph-name="eight" unicode="8" horiz-adv-x="1353" 
d="M590 -49q-161 0 -280 56t-173.5 157t-32.5 227q25 135 124.5 237.5t236.5 133.5l12 20q-95 35 -149 129.5t-33 208.5q19 109 95.5 195t194 134t255.5 48q218 0 338.5 -111.5t89.5 -287.5q-20 -106 -102.5 -195.5t-186.5 -124.5l-14 -20q126 -31 193.5 -139.5t41.5 -249.5
q-32 -184 -203.5 -301t-406.5 -117zM725 844q133 0 234 74t120 184q19 101 -51.5 166t-196.5 65q-135 0 -235.5 -72t-120.5 -182q-17 -103 53 -169t197 -66zM596 115q154 0 270 84t138 211q22 118 -60 194t-227 76q-155 0 -270.5 -83.5t-137.5 -209.5q-22 -120 59 -196
t228 -76z" />
    <glyph glyph-name="nine" unicode="9" horiz-adv-x="1296" 
d="M809 1497q159 0 276 -64.5t168.5 -174.5t28.5 -242q-32 -184 -221 -393l-586 -621h-231l534 563q-68 -30 -155 -30q-224 0 -347 137t-86 348q37 209 212 343t407 134zM797 1333q-158 -2 -278 -97t-146 -241q-23 -132 59 -217.5t230 -85.5q164 -1 286.5 92t147.5 236
q23 137 -60.5 225.5t-238.5 87.5z" />
    <glyph glyph-name="colon" unicode=":" horiz-adv-x="432" 
d="M272 760q-55 0 -83.5 35t-20.5 90q9 44 43 72t78 28q54 0 82.5 -35t19.5 -88q-7 -45 -40.5 -73.5t-78.5 -28.5zM133 -27q-54 0 -82.5 35.5t-19.5 89.5q8 44 41.5 72.5t79.5 28.5q54 0 82.5 -35t17.5 -88q-7 -45 -40.5 -74t-78.5 -29z" />
    <glyph glyph-name="semicolon" unicode=";" horiz-adv-x="436" 
d="M272 760q-54 0 -82.5 35.5t-17.5 89.5q8 44 40.5 72t78.5 28q54 0 82.5 -35t19.5 -88q-7 -46 -41 -74t-80 -28zM49 -283l-86 21l143 239q-39 9 -59.5 42.5t-13.5 78.5q9 44 43 72.5t78 28.5q54 0 82.5 -35t19.5 -88q-5 -32 -33 -82z" />
    <glyph glyph-name="less" unicode="&#x3c;" horiz-adv-x="894" 
d="M735 203l-690 415l33 201l837 418l-28 -170l-694 -338l-7 -18l576 -338z" />
    <glyph glyph-name="equal" unicode="=" horiz-adv-x="1171" 
d="M168 881l27 153h962l-27 -153h-962zM78 367l26 153h963l-27 -153h-962z" />
    <glyph glyph-name="greater" unicode="&#x3e;" horiz-adv-x="890" 
d="M51 203l27 170l694 338l6 18l-575 338l28 170l687 -418l-33 -201z" />
    <glyph glyph-name="question" unicode="?" horiz-adv-x="1167" 
d="M446 377q19 111 59 192.5t89.5 131t128.5 102.5q107 62 170.5 124.5t79.5 151.5q22 108 -43.5 180t-184.5 72q-139 0 -241.5 -96t-126.5 -242l-187 11q40 217 197.5 354t370.5 137q203 0 317 -124t82 -308q-22 -120 -101.5 -210t-211.5 -173q-104 -58 -155.5 -125.5
t-72.5 -187.5zM477 -29q-54 0 -82.5 35.5t-17.5 89.5q7 44 41 72.5t78 28.5q54 0 82.5 -35t19.5 -88q-7 -46 -41 -74.5t-80 -28.5z" />
    <glyph glyph-name="at" unicode="@" horiz-adv-x="2070" 
d="M834 -373q-189 0 -341.5 69.5t-248 190.5t-132 291.5t-1.5 366.5q44 252 197.5 452.5t383 313t492.5 112.5q201 0 364 -68t265.5 -187t143.5 -287t7 -361q-46 -262 -158 -398t-286 -136q-114 0 -173 54.5t-61 152.5l-20 -13q-70 -102 -179.5 -157.5t-240.5 -55.5
q-170 0 -261.5 89t-66.5 229t157.5 225.5t362.5 110.5l295 32l8 54q21 118 -36 169.5t-189 51.5q-265 0 -299 -209l-170 12q29 163 154.5 256.5t316.5 93.5q208 0 315.5 -106t75.5 -285l-75 -422q-24 -145 94 -145q198 0 272 422q37 210 -29.5 377.5t-221 261.5t-369.5 94
q-165 0 -319 -57t-273.5 -157t-203 -241t-112.5 -303q-38 -214 21.5 -384.5t202 -265.5t342.5 -95q84 0 172 20.5t145 50.5l-18 -157q-136 -62 -303 -62zM881 109q154 0 270.5 92t140.5 225l17 92l-283 -31q-155 -18 -241.5 -77t-100.5 -144q-13 -75 42.5 -116t154.5 -41z
" />
    <glyph glyph-name="A" unicode="A" horiz-adv-x="1460" 
d="M-31 0l799 1444h254l287 -1444h-179l-65 324h-735l-180 -324h-181zM412 477h626l-159 803h-19z" />
    <glyph glyph-name="B" unicode="B" horiz-adv-x="1427" 
d="M102 0l254 1444h625q198 0 310 -113.5t81 -286.5q-17 -98 -88 -178.5t-168 -109.5l-14 -21q105 -31 160.5 -126.5t35.5 -215.5q-31 -171 -189 -282t-374 -111h-633zM434 823h416q128 0 225.5 68t114.5 172q17 95 -53 156t-197 61h-426zM319 164h408q148 0 259.5 74.5
t133.5 187.5q17 103 -64.5 168t-230.5 65h-419z" />
    <glyph glyph-name="C" unicode="C" horiz-adv-x="1644" 
d="M766 -51q-217 0 -373.5 101t-222.5 280t-27 403q30 163 110.5 305t195 242t261 157.5t304.5 57.5q249 0 418.5 -150.5t183.5 -379.5l-180 -13q-12 165 -133 272t-293 107q-165 0 -310.5 -80t-244 -221.5t-129.5 -318.5q-29 -171 17 -307.5t158 -213.5t269 -77
q179 0 343.5 107.5t238.5 268.5l174 -47q-92 -215 -307 -354t-453 -139z" />
    <glyph glyph-name="D" unicode="D" horiz-adv-x="1595" 
d="M102 0l254 1444h461q185 0 331 -52.5t238.5 -147.5t129.5 -232t8 -301q-59 -323 -318.5 -517t-634.5 -194h-469zM319 164h271q292 0 499.5 154.5t251.5 414.5q45 253 -103.5 400t-440.5 147h-281z" />
    <glyph glyph-name="E" unicode="E" horiz-adv-x="1308" 
d="M102 0l256 1444h992l-29 -164h-805l-80 -451h721l-29 -163h-720l-86 -502h823l-31 -164h-1012z" />
    <glyph glyph-name="F" unicode="F" horiz-adv-x="1179" 
d="M104 0l254 1444h920l-29 -164h-733l-80 -451h651l-28 -163h-651l-117 -666h-187z" />
    <glyph glyph-name="G" unicode="G" horiz-adv-x="1744" 
d="M795 -51q-226 0 -389 101t-233 280t-30 403q38 218 168 392.5t323 272t413 97.5q229 0 396 -121t195 -303l-176 -45q-22 134 -141 219.5t-283 85.5q-264 0 -463 -174t-249 -446q-29 -171 21.5 -307.5t169.5 -213.5t286 -77q237 0 429 150t238 370l-718 -4l28 166l903 -7
q-26 -243 -148.5 -434.5t-316 -298t-423.5 -106.5z" />
    <glyph glyph-name="H" unicode="H" horiz-adv-x="1540" 
d="M102 0l254 1444h187l-107 -608h781l106 608h186l-254 -1444h-186l119 672h-780l-119 -672h-187z" />
    <glyph glyph-name="I" unicode="I" horiz-adv-x="575" 
d="M102 0l254 1444h189l-254 -1444h-189z" />
    <glyph glyph-name="J" unicode="J" horiz-adv-x="968" 
d="M256 -41q-129 0 -260 43l16 156q126 -35 213 -35q134 0 233.5 87t123.5 230l178 1004h186l-180 -1016q-36 -211 -178.5 -340t-331.5 -129z" />
    <glyph glyph-name="K" unicode="K" horiz-adv-x="1296" 
d="M102 0l256 1444h187l-111 -631h19l708 631h238l-799 -699l559 -745h-231l-496 678h-22l-119 -678h-189z" />
    <glyph glyph-name="L" unicode="L" horiz-adv-x="1171" 
d="M102 0l254 1444h189l-226 -1280h728l-29 -164h-916z" />
    <glyph glyph-name="M" unicode="M" horiz-adv-x="1951" 
d="M102 0l254 1444h293l269 -1184h20l686 1184h295l-254 -1444h-186l213 1208h-19l-700 -1208h-178l-273 1206h-20l-213 -1206h-187z" />
    <glyph glyph-name="N" unicode="N" horiz-adv-x="1546" 
d="M102 0l256 1444h267l471 -1198h22l211 1198h187l-256 -1444h-265l-471 1198h-22l-211 -1198h-189z" />
    <glyph glyph-name="O" unicode="O" horiz-adv-x="1769" 
d="M795 -51q-171 0 -307.5 58.5t-222.5 161t-119 248.5t-3 316q39 220 167 394t320.5 271t416.5 97q171 0 307.5 -58.5t222.5 -161t119.5 -248.5t3.5 -316q-40 -222 -168 -395.5t-320.5 -270t-416.5 -96.5zM803 113q173 0 325 79.5t254.5 221t133.5 319.5q46 263 -88 430.5
t-390 167.5q-174 0 -325.5 -79.5t-253.5 -221t-133 -319.5q-30 -172 19.5 -308.5t169 -213t288.5 -76.5z" />
    <glyph glyph-name="P" unicode="P" horiz-adv-x="1374" 
d="M102 0l256 1444h570q238 0 360 -122t86 -331q-38 -199 -199.5 -315.5t-392.5 -116.5h-399l-98 -559h-183zM414 725h387q158 0 263 78t128 211q22 123 -52.5 194.5t-228.5 71.5h-399z" />
    <glyph glyph-name="Q" unicode="Q" horiz-adv-x="1771" 
d="M795 -51q-171 0 -307.5 58.5t-222 161t-119 248.5t-3.5 316q40 220 168 394t320.5 271t415.5 97q171 0 308.5 -58.5t223 -161t118.5 -248.5t3 -316q-56 -307 -275 -510l191 -201h-236l-88 94q-227 -145 -497 -145zM803 113q201 0 371 106l-410 434h235l312 -325
q167 177 205 405q31 173 -19 309.5t-170 212.5t-289 76q-263 0 -462.5 -174.5t-249.5 -445.5q-44 -262 89.5 -430t387.5 -168z" />
    <glyph glyph-name="R" unicode="R" horiz-adv-x="1452" 
d="M102 0l254 1444h627q234 0 356.5 -124t85.5 -327q-32 -179 -178 -294t-348 -124h-33l422 -575h-229l-402 565h-268l-98 -565h-189zM418 729h436q157 0 263 78t128 209q23 123 -52 193.5t-230 70.5h-447z" />
    <glyph glyph-name="S" unicode="S" horiz-adv-x="1404" 
d="M641 -51q-288 0 -430.5 142t-101.5 384l184 -12q-29 -167 64 -258.5t292 -91.5q180 0 294 74t136 202q10 55 -6.5 96.5t-40.5 65t-84.5 43.5t-97 27.5t-120.5 21.5q-3 1 -5.5 1.5t-5.5 0.5q-90 14 -155.5 29.5t-139.5 48t-116.5 76t-64 115t-5.5 163.5
q34 193 194.5 305.5t415.5 112.5q269 0 401.5 -133.5t91.5 -362.5l-178 11q29 154 -55.5 237.5t-265.5 83.5q-178 0 -288.5 -72.5t-131.5 -195.5q-10 -53 6.5 -93.5t42.5 -63.5t84 -42.5t98 -27.5t119 -21q98 -16 159.5 -30t141.5 -46.5t121.5 -75t64 -115.5t5.5 -169
q-34 -200 -199 -315t-424 -115z" />
    <glyph glyph-name="T" unicode="T" horiz-adv-x="1191" 
d="M412 0l225 1280h-479l28 164h1145l-28 -164h-480l-225 -1280h-186z" />
    <glyph glyph-name="U" unicode="U" horiz-adv-x="1550" 
d="M686 -51q-172 0 -296.5 79t-177 219t-22.5 314l156 883h186l-157 -895q-34 -192 56 -314t263 -122q181 0 320.5 127t173.5 321l155 883h187l-158 -895q-46 -263 -239 -431.5t-447 -168.5z" />
    <glyph glyph-name="V" unicode="V" horiz-adv-x="1437" 
d="M483 0l-258 1444h187l229 -1305h21l688 1305h194l-770 -1444h-291z" />
    <glyph glyph-name="W" unicode="W" horiz-adv-x="2228" 
d="M428 0l-164 1444h176l142 -1286h20l555 1286h242l98 -1286h21l596 1286h182l-674 -1444h-287l-86 1219h-20l-514 -1219h-287z" />
    <glyph glyph-name="X" unicode="X" horiz-adv-x="1456" 
d="M-14 0l657 764l-377 680h207l299 -572h21l514 572h215l-635 -680l395 -764h-205l-321 641h-21l-536 -641h-213z" />
    <glyph glyph-name="Y" unicode="Y" horiz-adv-x="1351" 
d="M494 0l94 528l-361 916h193l280 -737h19l532 737h205l-682 -916l-94 -528h-186z" />
    <glyph glyph-name="Z" unicode="Z" horiz-adv-x="1343" 
d="M8 0l15 86l1054 1174l6 20h-827l29 164h1101l-14 -84l-1055 -1176l-4 -20h869l-31 -164h-1143z" />
    <glyph glyph-name="bracketleft" unicode="[" horiz-adv-x="888" 
d="M39 -369l330 1874h667l-22 -127h-504l-285 -1622h504l-22 -125h-668z" />
    <glyph glyph-name="backslash" unicode="\" horiz-adv-x="833" 
d="M633 -471h-164l-279 1915h164z" />
    <glyph glyph-name="bracketright" unicode="]" horiz-adv-x="886" 
d="M539 -369h-668l20 125h504l287 1622h-504l23 127h667z" />
    <glyph glyph-name="asciicircum" unicode="^" horiz-adv-x="1169" 
d="M152 819l495 625h201l274 -625h-166l-215 514h-20l-393 -514h-176z" />
    <glyph glyph-name="underscore" unicode="_" horiz-adv-x="1024" 
d="M-117 -143l25 143h1024l-25 -143h-1024z" />
    <glyph glyph-name="grave" unicode="`" horiz-adv-x="618" 
d="M463 1214l-182 291h188l168 -291h-174z" />
    <glyph glyph-name="a" unicode="a" horiz-adv-x="1372" 
d="M549 -41q-154 0 -265.5 73.5t-158.5 203.5t-19 292q20 117 77 219t138.5 174t186 113t217.5 41q246 0 358 -215l23 6l31 168h170l-185 -1034h-170l31 170l-16 -6q-177 -205 -418 -205zM575 113q171 0 304.5 118t164.5 297q31 172 -54.5 283t-248.5 111
q-172 0 -305 -117.5t-164 -298.5q-31 -170 54.5 -281.5t248.5 -111.5z" />
    <glyph glyph-name="b" unicode="b" horiz-adv-x="1363" 
d="M635 -41q-126 0 -216 54.5t-132 150.5l-23 -4l-28 -160h-170l266 1505h170l-111 -624l17 6q72 92 178 140t229 48q230 0 357 -161.5t85 -407.5q-27 -156 -118 -281.5t-223.5 -195.5t-280.5 -70zM623 113q170 0 304 119t165 296q29 168 -56.5 281t-247.5 113
q-169 0 -303.5 -120t-165.5 -296q-31 -167 55.5 -280t248.5 -113z" />
    <glyph glyph-name="c" unicode="c" horiz-adv-x="1253" 
d="M555 -41q-156 0 -269 73.5t-161 203.5t-19 292q27 156 117 281.5t223 195.5t285 70q193 0 320 -110.5t125 -276.5l-164 -10q-7 111 -87 177.5t-198 66.5q-163 0 -293.5 -117.5t-163.5 -298.5q-29 -173 53 -283t236 -110q126 0 235.5 71t159.5 181l164 -35
q-63 -163 -221.5 -267t-341.5 -104z" />
    <glyph glyph-name="d" unicode="d" horiz-adv-x="1363" 
d="M551 -41q-230 0 -358.5 162.5t-86.5 406.5q41 236 219 391.5t402 155.5q127 0 219.5 -52.5t130.5 -145.5l25 4l110 624h170l-266 -1505h-170l29 160l-19 -6q-72 -94 -176.5 -144.5t-228.5 -50.5zM575 113q171 0 305.5 119.5t163.5 295.5q31 168 -55 281t-248 113
q-169 0 -303.5 -120t-165.5 -296q-31 -169 55.5 -281t247.5 -112z" />
    <glyph glyph-name="e" unicode="e" horiz-adv-x="1300" 
d="M573 -41q-121 0 -218.5 44t-159 121t-85 185.5t-1.5 233.5q40 232 218 382t414 150q158 0 271.5 -71.5t162.5 -199.5t21 -288q-5 -33 -12 -61h-918q-8 -157 78 -249.5t240 -92.5q118 0 225 56t172 150l133 -81q-86 -132 -229 -205.5t-312 -73.5zM297 604l737 12
q3 140 -80 223t-227 83q-145 0 -264.5 -89t-165.5 -229z" />
    <glyph glyph-name="f" unicode="f" horiz-adv-x="763" 
d="M160 0l159 899h-167l22 135h168l37 213q25 138 111 218.5t206 80.5q84 0 160 -26l-16 -144q-56 17 -103 17q-72 0 -125 -48.5t-67 -123.5l-33 -187h260l-22 -135h-261l-159 -899h-170z" />
    <glyph glyph-name="g" unicode="g" horiz-adv-x="1363" 
d="M487 -512q-203 0 -330 94t-149 256l174 51q20 -120 102 -183.5t216 -63.5q174 0 297 104.5t155 278.5l23 133l-19 -4q-175 -181 -401 -181q-117 0 -211 41.5t-153.5 114.5t-82.5 176.5t-2 222.5q41 236 216.5 390.5t404.5 154.5q242 0 354 -190l25 4l27 147h167
l-180 -1022q-43 -241 -214.5 -382.5t-418.5 -141.5zM578 123q172 0 304.5 115t161.5 290q31 172 -54.5 283t-248.5 111q-172 0 -304.5 -117.5t-164.5 -298.5q-31 -166 56 -274.5t250 -108.5z" />
    <glyph glyph-name="h" unicode="h" horiz-adv-x="1241" 
d="M68 0l264 1505h170l-105 -602l17 4q142 168 348 168q197 0 295.5 -130t64.5 -329l-110 -616h-170l112 627q22 135 -35 215t-184 80q-137 0 -252.5 -94t-138.5 -230l-106 -598h-170z" />
    <glyph glyph-name="i" unicode="i" horiz-adv-x="518" 
d="M395 1231q-58 0 -88.5 37t-19.5 96q9 50 44.5 79.5t86.5 29.5q57 0 88 -37.5t22 -94.5q-9 -49 -46 -79.5t-87 -30.5zM84 0l182 1034h170l-182 -1034h-170z" />
    <glyph glyph-name="j" unicode="j" horiz-adv-x="540" 
d="M397 1231q-57 0 -86.5 37.5t-19.5 95.5q7 49 43 79t86 30q58 0 88.5 -37.5t21.5 -94.5q-9 -50 -45.5 -80t-87.5 -30zM-92 -461q-98 0 -180 29l14 141q49 -16 125 -16q73 0 128.5 48t67.5 122l207 1171h170l-209 -1181q-26 -138 -116 -226t-207 -88z" />
    <glyph glyph-name="k" unicode="k" horiz-adv-x="1030" 
d="M68 0l264 1505h170l-160 -913h18l521 442h229l-600 -495l424 -539h-223l-367 481h-20l-86 -481h-170z" />
    <glyph glyph-name="l" unicode="l" horiz-adv-x="483" 
d="M66 0l266 1505h170l-266 -1505h-170z" />
    <glyph glyph-name="m" unicode="m" horiz-adv-x="1900" 
d="M66 0l184 1034h164l-25 -137l17 6q60 81 144.5 126.5t182.5 45.5q109 0 193 -57.5t112 -149.5l23 13q68 92 164 142t209 50q186 0 283.5 -131t62.5 -332l-109 -610h-170l111 625q23 131 -34.5 214t-170.5 83q-127 0 -226 -88t-122 -222l-109 -612h-170l111 625
q23 136 -31 216.5t-170 80.5q-130 0 -226.5 -86.5t-119.5 -223.5l-108 -612h-170z" />
    <glyph glyph-name="n" unicode="n" 
d="M68 0l182 1034h170l-25 -141l19 6q68 85 157.5 129.5t188.5 44.5q198 0 297 -130.5t63 -330.5l-108 -612h-170l110 623q24 134 -34 215.5t-185 81.5q-136 0 -251 -94t-138 -228l-106 -598h-170z" />
    <glyph glyph-name="o" unicode="o" horiz-adv-x="1314" 
d="M567 -41q-246 0 -376.5 160t-86.5 409q43 242 221.5 394.5t419.5 152.5q246 0 377 -159.5t88 -409.5q-43 -242 -222.5 -394.5t-420.5 -152.5zM573 113q172 0 305 117.5t164 297.5q31 172 -54.5 283t-248.5 111q-172 0 -304.5 -117.5t-164.5 -298.5q-31 -172 54 -282.5
t249 -110.5z" />
    <glyph glyph-name="p" unicode="p" horiz-adv-x="1363" 
d="M813 1075q151 0 262.5 -73t161.5 -203.5t23 -292.5q-43 -237 -220.5 -392t-402.5 -155q-127 0 -218.5 53.5t-131.5 147.5l-23 -6l-110 -625h-170l266 1505h170l-29 -157l17 6q151 192 405 192zM788 922q-169 0 -303.5 -120t-165.5 -296q-31 -167 55.5 -280t248.5 -113
q171 0 305.5 119.5t163.5 295.5q31 169 -56 281.5t-248 112.5z" />
    <glyph glyph-name="q" unicode="q" horiz-adv-x="1363" 
d="M729 1075q128 0 217.5 -54.5t130.5 -150.5l25 7l28 157h170l-266 -1505h-170l111 625l-19 -7q-71 -91 -177 -139.5t-230 -48.5q-151 0 -262 73t-160 204t-21 292q41 236 219.5 391.5t403.5 155.5zM741 922q-170 0 -304 -119t-165 -297q-31 -167 55 -280t248 -113
q171 0 305.5 119.5t163.5 295.5q31 168 -55 281t-248 113z" />
    <glyph glyph-name="r" unicode="r" horiz-adv-x="806" 
d="M68 0l182 1034h166l-27 -139l19 4q47 70 130 113t167 43q72 0 124 -31l-16 -152q-64 29 -141 29q-121 0 -215.5 -98t-120.5 -252l-98 -551h-170z" />
    <glyph glyph-name="s" unicode="s" horiz-adv-x="1116" 
d="M494 -41q-225 0 -333.5 106t-76.5 291l162 -12q-19 -111 49.5 -176.5t208.5 -65.5q122 0 203 50t96 137q6 33 -2 57.5t-25.5 39t-48.5 24.5t-61 15.5t-72 11.5q-11 1 -17 2l-15 2.5t-17 2.5q-32 3 -59.5 7t-59 10.5t-57 14.5t-53 19t-47 25t-40 32t-31.5 39t-21 47.5
t-8.5 57.5t5.5 68q26 145 151.5 228t309.5 83q199 0 304.5 -97.5t76.5 -258.5l-164 12q15 94 -45.5 147.5t-177.5 53.5q-118 0 -200 -51.5t-95 -135.5q-7 -40 6 -66.5t46.5 -40.5t69.5 -21t91 -14q27 -3 41 -5q68 -8 119.5 -19t108.5 -35t91 -57.5t50.5 -89.5t3.5 -129
q-26 -148 -149 -228.5t-318 -80.5z" />
    <glyph glyph-name="t" unicode="t" horiz-adv-x="800" 
d="M446 -39q-134 0 -199 86t-42 225l112 627h-167l22 135h168l96 334h135l-61 -334h264l-22 -135h-265l-112 -631q-14 -75 18 -119.5t101 -44.5q61 0 133 21l-17 -139q-77 -25 -164 -25z" />
    <glyph glyph-name="u" unicode="u" 
d="M1174 1034l-185 -1034h-170l27 141l-19 -6q-68 -84 -158 -128t-188 -44q-200 0 -298 130t-62 331l106 610h170l-108 -622q-25 -134 33 -214.5t186 -80.5q136 0 250 93t139 228l107 596h170z" />
    <glyph glyph-name="v" unicode="v" horiz-adv-x="1077" 
d="M328 0l-211 1034h172l170 -899h20l490 899h176l-576 -1034h-241z" />
    <glyph glyph-name="w" unicode="w" horiz-adv-x="1720" 
d="M301 0l-164 1034h166l135 -866h19l385 866h217l84 -868h18l436 868h170l-528 -1034h-244l-67 838h-21l-364 -838h-242z" />
    <glyph glyph-name="x" unicode="x" horiz-adv-x="1048" 
d="M-66 0l488 539l-279 495h179l215 -385h18l352 385h187l-459 -495l291 -539h-185l-223 422h-18l-373 -422h-193z" />
    <glyph glyph-name="y" unicode="y" horiz-adv-x="1091" 
d="M96 -459q-85 0 -164 35l19 145q64 -28 125 -28q39 0 74 14.5t59.5 33.5t54 56.5t45 62.5t45 74.5t43.5 71.5l-276 1028h174l211 -809h18l449 809h184l-596 -1057l-1 -1v-1l-1 -1v-1l-1 -1v-1l-1 -1l-1 -1v-1l-1 -1q-108 -189 -167 -263q-122 -152 -268 -162
q-12 -1 -24 -1z" />
    <glyph glyph-name="z" unicode="z" horiz-adv-x="1064" 
d="M-27 0l13 74l774 788l6 19h-614l26 153h893l-12 -73l-772 -787l-6 -20h653l-27 -154h-934z" />
    <glyph glyph-name="braceleft" unicode="{" horiz-adv-x="710" 
d="M336 -369q-103 0 -158.5 68t-36.5 172l86 496q11 60 -15.5 93.5t-84.5 33.5h-27l31 170h16q58 0 103.5 39t54.5 98l84 477q19 104 91.5 165.5t176.5 61.5h203l-22 -127h-115q-66 0 -116 -43.5t-62 -109.5l-82 -453q-13 -82 -67.5 -130t-135.5 -54l-16 -19q80 -5 122 -58
t27 -136l-84 -475q-11 -66 20 -105t97 -39h127l-25 -125h-192z" />
    <glyph glyph-name="bar" unicode="|" horiz-adv-x="550" 
d="M20 -471l349 1976h161l-348 -1976h-162z" />
    <glyph glyph-name="braceright" unicode="}" horiz-adv-x="708" 
d="M72 -369h-203l20 125h117q65 0 116.5 44t61.5 110l84 475q13 82 68.5 130.5t136.5 53.5l16 19q-81 6 -123.5 60t-27.5 136l80 453q11 66 -20 103.5t-97 37.5h-123l21 127h192q104 0 160 -67.5t37 -171.5l-86 -478q-9 -59 17.5 -91.5t84.5 -32.5h27l-29 -170h-16
q-58 0 -103 -39.5t-57 -98.5l-86 -495q-19 -104 -92 -167t-176 -63z" />
    <glyph glyph-name="asciitilde" unicode="~" horiz-adv-x="1355" 
d="M946 442q-55 0 -112 24t-104.5 58.5t-94 69t-96.5 58.5t-95 24q-64 0 -133 -38.5t-125 -100.5l-61 112q66 79 161.5 127.5t176.5 48.5q55 0 112.5 -24t105 -58.5t93.5 -68.5t95 -58t92 -24q64 0 131 38t118 99l64 -113q-65 -79 -157.5 -126.5t-170.5 -47.5z" />
    <glyph glyph-name="exclamdown" unicode="&#xa1;" horiz-adv-x="522" 
d="M317 776q-54 0 -82.5 34.5t-19.5 88.5q9 45 42.5 72.5t78.5 27.5q54 0 82 -35t18 -90q-8 -43 -41 -70.5t-78 -27.5zM-8 -471l65 379l154 622h104l-69 -622l-66 -379h-188z" />
    <glyph glyph-name="cent" unicode="&#xa2;" horiz-adv-x="1253" 
d="M727 922q-163 0 -293 -117.5t-162 -298.5q-30 -173 51.5 -283t235.5 -110q126 0 235.5 71t159.5 181l164 -33q-56 -146 -189 -245.5t-296 -121.5l-33 -188h-172l33 190q-196 31 -295.5 186t-59.5 375q38 217 191.5 367.5t359.5 175.5l31 176h172l-31 -180
q156 -28 252 -131.5t95 -247.5l-164 -10q-7 111 -87 177.5t-198 66.5z" />
    <glyph glyph-name="sterling" unicode="&#xa3;" horiz-adv-x="1253" 
d="M12 0l29 197q42 8 75 21.5t70 44.5t65 77.5t53.5 123.5t43.5 179l-201 -6l27 154h205l51 305q32 176 161 287.5t298 111.5q180 0 278.5 -125t73.5 -317l-162 10q17 127 -37.5 206t-156.5 79q-103 0 -181.5 -75.5t-99.5 -189.5l-51 -292h510l-27 -154l-518 -6
q-25 -115 -56.5 -196.5t-70.5 -131.5t-77 -78.5t-91 -52.5l-10 -18h866l-26 -154h-1041z" />
    <glyph glyph-name="currency" unicode="&#xa4;" horiz-adv-x="1499" 
d="M109 -96l-93 108l230 183q-82 145 -49 333q30 182 157 318l-155 176l120 111l162 -183q154 101 350 101q194 0 330 -107l234 186l86 -110l-228 -182q83 -143 50 -332q-36 -188 -160 -318l162 -176l-119 -108l-164 182q-161 -100 -356 -100q-201 0 -326 106zM668 123
q173 0 304.5 114t162.5 291q31 169 -55.5 277t-250.5 108q-169 0 -301 -115.5t-163 -291.5q-29 -168 55 -275.5t248 -107.5z" />
    <glyph glyph-name="yen" unicode="&#xa5;" horiz-adv-x="1415" 
d="M524 0l29 164h-483l24 137h484l30 160h-485l22 135h441l-338 848h207l274 -746h21l532 748l217 -2l-635 -848h434l-22 -135h-481l-29 -160h479l-24 -137h-482l-28 -164h-187z" />
    <glyph glyph-name="brokenbar" unicode="&#xa6;" horiz-adv-x="546" 
d="M221 668l146 837h161l-147 -837h-160zM18 -471l148 838h162l-148 -838h-162z" />
    <glyph glyph-name="section" unicode="&#xa7;" horiz-adv-x="1228" 
d="M485 -317q-197 0 -307.5 111.5t-81.5 279.5l168 -11q-15 -96 50.5 -156.5t183.5 -60.5q113 0 196.5 57t98.5 144q8 44 -6.5 77.5t-34.5 52.5t-72 35t-80.5 22t-98.5 17q-3 1 -5 1q-70 12 -120.5 24t-106.5 35.5t-88 54.5t-48.5 81t-5.5 114q15 93 95 165.5t196 94.5
q-75 25 -115 105t-22 178q28 149 160 244.5t307 95.5q191 0 296.5 -110.5t81.5 -278.5l-170 12q17 95 -44 154t-175 59q-110 0 -191 -51.5t-93 -128.5q-7 -38 5 -67.5t33 -47.5t63.5 -34.5t76 -25t91.5 -21.5q15 -3 23 -5q78 -15 122.5 -26t106.5 -35.5t93 -54.5t49 -80
t6 -115q-15 -93 -97.5 -164.5t-201.5 -93.5q82 -25 127.5 -104.5t28.5 -178.5q-29 -158 -168.5 -261t-325.5 -103zM629 385q126 6 214.5 61.5t102.5 135.5q7 42 -7.5 73t-39 48.5t-65.5 29.5t-73.5 17t-76.5 10q-4 0 -5.5 0.5t-4.5 0.5t-5.5 0.5t-4.5 0.5q-12 1 -32.5 3.5
t-25.5 2.5q-119 -6 -207 -63.5t-100 -129.5q-8 -41 4 -72t35.5 -49t61.5 -30.5t72 -18.5t78 -12q11 -1 17 -2q13 0 34.5 -3t27.5 -3z" />
    <glyph glyph-name="dieresis" unicode="&#xa8;" horiz-adv-x="923" 
d="M352 1231q-54 0 -82.5 35t-17.5 88q6 44 39.5 71t79.5 27q54 0 82.5 -34t19.5 -87q-9 -45 -42.5 -72.5t-78.5 -27.5zM844 1231q-55 0 -83.5 35t-19.5 88q7 44 40.5 71t78.5 27q54 0 83.5 -34t21.5 -87q-9 -44 -43 -72t-78 -28z" />
    <glyph glyph-name="copyright" unicode="&#xa9;" horiz-adv-x="1900" 
d="M815 -311q-185 0 -333 62.5t-241 172.5t-129 266.5t-3 339.5q42 233 179.5 419.5t346 292.5t448.5 106q248 0 424.5 -107t251.5 -298.5t33 -434.5q-42 -238 -181 -424.5t-347 -290.5t-449 -104zM815 -197q209 0 391.5 93t304 259t158.5 375q36 199 -25.5 359t-207 251
t-349.5 91q-210 0 -393 -94t-304.5 -259t-158.5 -370q-37 -204 24.5 -365t207.5 -250.5t352 -89.5zM877 -35q-244 0 -373 158.5t-86 404.5q27 157 117 280.5t226 193t292 69.5q181 0 303.5 -107.5t130.5 -269.5l-119 -12q-12 119 -102 192.5t-219 73.5q-182 0 -321.5 -124.5
t-174.5 -317.5q-32 -185 59.5 -303.5t268.5 -118.5q142 0 269 85.5t181 215.5l103 -39q-64 -168 -220.5 -274.5t-334.5 -106.5z" />
    <glyph glyph-name="guillemotleft" unicode="&#xab;" horiz-adv-x="1302" 
d="M420 0l-322 518l500 516h207l-508 -516l321 -518h-198zM905 0l-319 518l497 516h209l-508 -516l320 -518h-199z" />
    <glyph glyph-name="logicalnot" unicode="&#xac;" horiz-adv-x="1320" 
d="M997 143l76 443h-956l26 143h1092l-105 -586h-133z" />
    <glyph glyph-name="registered" unicode="&#xae;" horiz-adv-x="1900" 
d="M815 -311q-185 0 -333 62.5t-241 173t-129 267t-3 338.5q42 234 180 420.5t346 292t448 105.5q248 0 424.5 -107t251.5 -298.5t33 -434.5q-42 -238 -181 -424.5t-347 -290.5t-449 -104zM815 -197q209 0 391.5 93t304 259t158.5 375q36 199 -25.5 359t-207 251t-349.5 91
q-210 0 -393 -93.5t-304.5 -258.5t-158.5 -371q-37 -204 24.5 -365t207.5 -250.5t352 -89.5zM518 20l178 1016h441q142 0 222.5 -92t55.5 -229q-23 -125 -128.5 -205t-246.5 -80h-14l256 -410h-162l-239 406h-158l-72 -406h-133zM741 537h289q95 0 168 55.5t90 146.5
q13 83 -37 133t-143 50h-299z" />
    <glyph glyph-name="macron" unicode="&#xaf;" horiz-adv-x="841" 
d="M229 1233l27 135h635l-27 -135h-635z" />
    <glyph glyph-name="degree" unicode="&#xb0;" horiz-adv-x="1030" 
d="M561 711q-190 0 -286 113t-64 296q31 175 158.5 281t310.5 106q188 0 284 -113.5t64 -297.5q-31 -173 -159 -279t-308 -106zM561 831q129 0 223 80t117 209q20 122 -40 194t-181 72q-131 0 -225 -80t-117 -210q-22 -120 39 -192.5t184 -72.5z" />
    <glyph glyph-name="plusminus" unicode="&#xb1;" horiz-adv-x="1167" 
d="M508 582l43 256h-391l28 157h392l43 240h174l-41 -240h391l-29 -157h-391l-43 -256h-176zM53 227l27 158h958l-26 -158h-959z" />
    <glyph glyph-name="acute" unicode="&#xb4;" horiz-adv-x="616" 
d="M406 1214h-183l271 291h196z" />
    <glyph glyph-name="uni00B5" unicode="&#xb5;" horiz-adv-x="1204" 
d="M-2 -381l250 1415h170l-107 -602q-24 -138 33 -212.5t178 -74.5q114 0 216 83t126 214l107 592h170l-185 -1034h-165l30 147q-61 -75 -143 -113t-170 -38t-152.5 36t-91.5 109l-96 -522h-170z" />
    <glyph glyph-name="paragraph" unicode="&#xb6;" horiz-adv-x="1470" 
d="M389 -455l203 1119q-208 0 -316.5 110.5t-74.5 290.5q32 172 173 275.5t345 103.5h751l-22 -131h-191l-313 -1768h-153l313 1768h-250l-311 -1768h-154z" />
    <glyph glyph-name="periodcentered" unicode="&#xb7;" horiz-adv-x="434" 
d="M219 473q-54 0 -82.5 35t-17.5 88q7 44 40.5 71t78.5 27q54 0 83 -34t21 -87q-9 -44 -43 -72t-80 -28z" />
    <glyph glyph-name="cedilla" unicode="&#xb8;" horiz-adv-x="638" 
d="M160 -475q-88 0 -144.5 44t-58.5 109l109 15q0 -38 24 -59t64 -21q49 0 86 30.5t45 75.5q7 41 -23 67t-86 26h-110l71 229h125l-51 -141q92 0 143.5 -57.5t36.5 -143.5q-14 -77 -77.5 -125.5t-153.5 -48.5z" />
    <glyph glyph-name="guillemotright" unicode="&#xbb;" horiz-adv-x="1300" 
d="M10 0l510 518l-321 516h196l322 -516l-500 -518h-207zM498 0l508 518l-322 516h199l319 -516l-497 -518h-207z" />
    <glyph glyph-name="questiondown" unicode="&#xbf;" horiz-adv-x="1058" 
d="M623 825q-55 0 -83.5 35t-19.5 88q7 44 41 72.5t78 28.5q54 0 82.5 -34.5t19.5 -88.5q-8 -44 -41 -72.5t-77 -28.5zM352 -475q-203 0 -317 125t-82 309q22 120 101.5 210t211.5 173q104 58 155.5 125.5t72.5 187.5l170 -10q-27 -163 -92 -254.5t-185 -171.5
q-106 -61 -169.5 -124t-80.5 -154q-22 -107 43.5 -178.5t184.5 -71.5q139 0 241.5 96t126.5 242l187 -11q-40 -218 -197.5 -355.5t-370.5 -137.5z" />
    <glyph glyph-name="Agrave" unicode="&#xc0;" horiz-adv-x="1460" 
d="M1020 1614h-199l-182 231h207zM-31 0l799 1444h254l287 -1444h-179l-65 324h-735l-180 -324h-181zM412 477h626l-159 803h-19z" />
    <glyph glyph-name="Aacute" unicode="&#xc1;" horiz-adv-x="1460" 
d="M827 1614l256 231h215l-264 -231h-207zM-31 0l799 1444h254l287 -1444h-179l-65 324h-735l-180 -324h-181zM412 477h626l-159 803h-19z" />
    <glyph glyph-name="Acircumflex" unicode="&#xc2;" horiz-adv-x="1460" 
d="M866 1845h201l197 -231h-170l-131 127h-21l-174 -127h-178zM-31 0l799 1444h254l287 -1444h-179l-65 324h-735l-180 -324h-181zM412 477h626l-159 803h-19z" />
    <glyph glyph-name="Atilde" unicode="&#xc3;" horiz-adv-x="1460" 
d="M1069 1634q-54 0 -95.5 18.5t-62 40t-47 40t-55.5 18.5q-41 0 -81 -27t-71 -71l-84 76q40 63 104 99t136 36q51 0 91.5 -18.5t62 -40t50.5 -40t60 -18.5q44 0 85 28t69 72l84 -75q-40 -64 -105 -101t-141 -37zM-31 0l799 1444h254l287 -1444h-179l-65 324h-735l-180 -324
h-181zM412 477h626l-159 803h-19z" />
    <glyph glyph-name="Adieresis" unicode="&#xc4;" horiz-adv-x="1460" 
d="M700 1618q-58 0 -87.5 37t-20.5 96q9 50 44.5 79.5t86.5 29.5q57 0 87.5 -37t20.5 -94q-7 -49 -44 -80t-87 -31zM1174 1618q-58 0 -89 37t-20 96q7 49 43 79t86 30q59 0 90 -37t21 -94q-9 -50 -45.5 -80.5t-85.5 -30.5zM-31 0l799 1444h254l287 -1444h-179l-65 324h-735
l-180 -324h-181zM412 477h626l-159 803h-19z" />
    <glyph glyph-name="Aring" unicode="&#xc5;" horiz-adv-x="1460" 
d="M930 1575q-93 0 -143 57.5t-35 147.5q14 80 76.5 130t148.5 50q92 0 141.5 -58t34.5 -147q-14 -78 -76.5 -129t-146.5 -51zM924 1657q52 0 92 35t49 88q9 44 -14.5 71t-67.5 27q-54 0 -94 -34.5t-49 -88.5q-8 -43 15.5 -70.5t68.5 -27.5zM-31 0l799 1444h254l287 -1444
h-179l-65 324h-735l-180 -324h-181zM412 477h626l-159 803h-19z" />
    <glyph glyph-name="AE" unicode="&#xc6;" horiz-adv-x="1904" 
d="M-33 0l989 1444h1008l-29 -164h-669l-82 -459h590l-27 -153h-590l-88 -504h688l-28 -164h-875l49 291h-522l-201 -291h-213zM483 444h447l149 854h-16z" />
    <glyph glyph-name="Ccedilla" unicode="&#xc7;" horiz-adv-x="1644" 
d="M772 113q177 0 341.5 107.5t238.5 268.5l174 -47q-89 -207 -292.5 -344.5t-434.5 -148.5l-21 -49q93 0 146.5 -57.5t38.5 -143.5q-14 -77 -79 -125.5t-157 -48.5q-87 0 -144 44t-59 109l111 15q0 -38 23.5 -59t62.5 -21q50 0 87.5 30.5t45.5 75.5q6 41 -24 67t-85 26
h-110l45 141q-193 20 -327.5 125t-190 276t-17.5 379q39 218 163.5 392t310 272t397.5 98q246 0 416.5 -151t185.5 -379l-182 -13q-10 165 -131.5 272t-294.5 107q-165 0 -310 -80t-243 -221.5t-129 -318.5q-30 -171 15.5 -307.5t157.5 -213.5t271 -77z" />
    <glyph glyph-name="Egrave" unicode="&#xc8;" horiz-adv-x="1308" 
d="M983 1614h-199l-184 231h207zM104 0l254 1444h992l-29 -164h-805l-80 -451h723l-29 -163h-722l-86 -502h823l-31 -164h-1010z" />
    <glyph glyph-name="Eacute" unicode="&#xc9;" horiz-adv-x="1308" 
d="M791 1614l253 231h216l-265 -231h-204zM104 0l254 1444h992l-29 -164h-805l-80 -451h723l-29 -163h-722l-86 -502h823l-31 -164h-1010z" />
    <glyph glyph-name="Ecircumflex" unicode="&#xca;" horiz-adv-x="1308" 
d="M827 1845h201l197 -231h-168l-133 127h-19l-176 -127h-176zM104 0l254 1444h992l-29 -164h-805l-80 -451h723l-29 -163h-722l-86 -502h823l-31 -164h-1010z" />
    <glyph glyph-name="Edieresis" unicode="&#xcb;" horiz-adv-x="1308" 
d="M662 1618q-57 0 -87.5 37t-21.5 96q9 49 45 79t86 30q58 0 89 -37t22 -94q-9 -50 -45.5 -80.5t-87.5 -30.5zM1135 1618q-58 0 -89 37t-20 96q9 50 44.5 79.5t86.5 29.5q57 0 88 -37t21 -94q-7 -49 -44 -80t-87 -31zM104 0l254 1444h992l-29 -164h-805l-80 -451h723
l-29 -163h-722l-86 -502h823l-31 -164h-1010z" />
    <glyph glyph-name="Igrave" unicode="&#xcc;" horiz-adv-x="575" 
d="M575 1614h-196l-184 231h206zM104 0l254 1444h187l-254 -1444h-187z" />
    <glyph glyph-name="Iacute" unicode="&#xcd;" horiz-adv-x="575" 
d="M385 1614l254 231h215l-264 -231h-205zM104 0l254 1444h187l-254 -1444h-187z" />
    <glyph glyph-name="Icircumflex" unicode="&#xce;" horiz-adv-x="575" 
d="M420 1845h201l196 -231h-168l-133 127h-18l-176 -127h-177zM104 0l254 1444h187l-254 -1444h-187z" />
    <glyph glyph-name="Idieresis" unicode="&#xcf;" horiz-adv-x="575" 
d="M256 1618q-58 0 -88 37t-21 96q9 49 45.5 79t86.5 30q58 0 88.5 -37t21.5 -94q-9 -49 -46 -80t-87 -31zM729 1618q-58 0 -88.5 37t-19.5 96q9 49 44 79t85 30q58 0 89.5 -37t20.5 -94q-7 -49 -44 -80t-87 -31zM104 0l254 1444h187l-254 -1444h-187z" />
    <glyph glyph-name="Ntilde" unicode="&#xd1;" horiz-adv-x="1546" 
d="M1151 1634q-54 0 -95.5 18.5t-62 40t-47 40t-55.5 18.5q-41 0 -81 -27t-71 -71l-82 76q38 63 102 99t136 36q51 0 91.5 -18.5t62 -40t50.5 -40t60 -18.5q44 0 85 28t69 72l86 -75q-42 -64 -107.5 -101t-140.5 -37zM102 0l256 1444h267l471 -1198h22l211 1198h187
l-256 -1444h-265l-471 1198h-22l-211 -1198h-189z" />
    <glyph glyph-name="Ograve" unicode="&#xd2;" horiz-adv-x="1769" 
d="M1171 1614h-196l-184 231h206zM795 -51q-171 0 -307.5 58.5t-222.5 161t-119 248.5t-3 316q39 220 167 394t320.5 271t416.5 97q171 0 307.5 -58.5t222.5 -161t119.5 -248.5t3.5 -316q-40 -222 -168 -395.5t-320.5 -270t-416.5 -96.5zM803 113q173 0 325 79.5t254.5 221
t133.5 319.5q46 263 -88 430.5t-390 167.5q-174 0 -325.5 -79.5t-253.5 -221t-133 -319.5q-30 -172 19.5 -308.5t169 -213t288.5 -76.5z" />
    <glyph glyph-name="Oacute" unicode="&#xd3;" horiz-adv-x="1769" 
d="M981 1614l254 231h215l-264 -231h-205zM795 -51q-171 0 -307.5 58.5t-222.5 161t-119 248.5t-3 316q39 220 167 394t320.5 271t416.5 97q171 0 307.5 -58.5t222.5 -161t119.5 -248.5t3.5 -316q-40 -222 -168 -395.5t-320.5 -270t-416.5 -96.5zM803 113q173 0 325 79.5
t254.5 221t133.5 319.5q46 263 -88 430.5t-390 167.5q-174 0 -325.5 -79.5t-253.5 -221t-133 -319.5q-30 -172 19.5 -308.5t169 -213t288.5 -76.5z" />
    <glyph glyph-name="Ocircumflex" unicode="&#xd4;" horiz-adv-x="1769" 
d="M1018 1845h201l196 -231h-170l-131 127h-18l-176 -127h-179zM795 -51q-171 0 -307.5 58.5t-222.5 161t-119 248.5t-3 316q39 220 167 394t320.5 271t416.5 97q171 0 307.5 -58.5t222.5 -161t119.5 -248.5t3.5 -316q-40 -222 -168 -395.5t-320.5 -270t-416.5 -96.5z
M803 113q173 0 325 79.5t254.5 221t133.5 319.5q46 263 -88 430.5t-390 167.5q-174 0 -325.5 -79.5t-253.5 -221t-133 -319.5q-30 -172 19.5 -308.5t169 -213t288.5 -76.5z" />
    <glyph glyph-name="Otilde" unicode="&#xd5;" horiz-adv-x="1769" 
d="M1221 1634q-54 0 -95.5 18.5t-62 40t-47 40t-55.5 18.5q-41 0 -81 -27t-71 -71l-82 76q38 63 102 99t136 36q51 0 91.5 -18.5t62 -40t50.5 -40t60 -18.5q44 0 84.5 28t68.5 72l86 -75q-42 -64 -107 -101t-140 -37zM795 -51q-171 0 -307.5 58.5t-222.5 161t-119 248.5
t-3 316q39 220 167 394t320.5 271t416.5 97q171 0 307.5 -58.5t222.5 -161t119.5 -248.5t3.5 -316q-40 -222 -168 -395.5t-320.5 -270t-416.5 -96.5zM803 113q173 0 325 79.5t254.5 221t133.5 319.5q46 263 -88 430.5t-390 167.5q-174 0 -325.5 -79.5t-253.5 -221
t-133 -319.5q-30 -172 19.5 -308.5t169 -213t288.5 -76.5z" />
    <glyph glyph-name="Odieresis" unicode="&#xd6;" horiz-adv-x="1769" 
d="M852 1618q-58 0 -88 37t-21 96q9 49 45 79t86 30q58 0 89 -37t22 -94q-9 -49 -46 -80t-87 -31zM1325 1618q-58 0 -88.5 37t-19.5 96q9 49 44 79t85 30q58 0 89.5 -37t20.5 -94q-7 -49 -44 -80t-87 -31zM795 -51q-171 0 -307.5 58.5t-222.5 161t-119 248.5t-3 316
q39 220 167 394t320.5 271t416.5 97q171 0 307.5 -58.5t222.5 -161t119.5 -248.5t3.5 -316q-40 -222 -168 -395.5t-320.5 -270t-416.5 -96.5zM803 113q173 0 325 79.5t254.5 221t133.5 319.5q46 263 -88 430.5t-390 167.5q-174 0 -325.5 -79.5t-253.5 -221t-133 -319.5
q-30 -172 19.5 -308.5t169 -213t288.5 -76.5z" />
    <glyph glyph-name="multiply" unicode="&#xd7;" horiz-adv-x="817" 
d="M190 403l-88 103l244 219l-166 221l117 103l164 -218l237 218l90 -103l-243 -221l166 -219l-117 -103l-164 218z" />
    <glyph glyph-name="Oslash" unicode="&#xd8;" horiz-adv-x="1730" 
d="M150 -287l237 344q-150 99 -216.5 276.5t-27.5 399.5q29 163 110 305t197.5 242t266 157.5t309.5 57.5q163 0 289 -57l225 323h178l-274 -397q135 -102 193.5 -273t21.5 -380q-29 -163 -110.5 -305t-197.5 -242t-266 -157.5t-311 -57.5q-136 0 -254 43l-192 -279h-178z
M481 207l746 1083q-96 41 -207 41q-168 0 -315.5 -80t-247.5 -221.5t-131 -318.5q-28 -161 13 -292.5t142 -211.5zM782 113q254 0 450.5 175.5t242.5 444.5q27 150 -7 274t-120 207l-738 -1075q79 -26 172 -26z" />
    <glyph glyph-name="Ugrave" unicode="&#xd9;" horiz-adv-x="1550" 
d="M1067 1614h-199l-184 231h207zM688 -51q-173 0 -297 79t-176.5 219t-21.5 314l155 883h187l-160 -895q-32 -192 57.5 -314t263.5 -122q180 0 319.5 127t174.5 321l153 883h187l-158 -895q-46 -264 -238 -432t-446 -168z" />
    <glyph glyph-name="Uacute" unicode="&#xda;" horiz-adv-x="1550" 
d="M874 1614l256 231h216l-267 -231h-205zM688 -51q-173 0 -297 79t-176.5 219t-21.5 314l155 883h187l-160 -895q-32 -192 57.5 -314t263.5 -122q180 0 319.5 127t174.5 321l153 883h187l-158 -895q-46 -264 -238 -432t-446 -168z" />
    <glyph glyph-name="Ucircumflex" unicode="&#xdb;" horiz-adv-x="1550" 
d="M913 1845h199l197 -231h-168l-131 127h-21l-176 -127h-176zM688 -51q-173 0 -297 79t-176.5 219t-21.5 314l155 883h187l-160 -895q-32 -192 57.5 -314t263.5 -122q180 0 319.5 127t174.5 321l153 883h187l-158 -895q-46 -264 -238 -432t-446 -168z" />
    <glyph glyph-name="Udieresis" unicode="&#xdc;" horiz-adv-x="1550" 
d="M748 1618q-58 0 -89 37t-20 96q7 49 43 79t86 30q59 0 90 -37t21 -94q-9 -50 -45.5 -80.5t-85.5 -30.5zM1219 1618q-58 0 -88 37t-21 96q9 49 45 79t86 30q57 0 88.5 -37t22.5 -94q-9 -49 -46 -80t-87 -31zM688 -51q-173 0 -297 79t-176.5 219t-21.5 314l155 883h187
l-160 -895q-32 -192 57.5 -314t263.5 -122q180 0 319.5 127t174.5 321l153 883h187l-158 -895q-46 -264 -238 -432t-446 -168z" />
    <glyph glyph-name="Yacute" unicode="&#xdd;" horiz-adv-x="1351" 
d="M774 1614l256 231h213l-264 -231h-205zM494 0l94 528l-361 916h193l280 -737h19l532 737h205l-682 -916l-94 -528h-186z" />
    <glyph glyph-name="germandbls" unicode="&#xdf;" horiz-adv-x="1359" 
d="M727 -51q-135 0 -272 55l20 172q51 -29 118.5 -47t127.5 -18q131 0 224.5 79t119.5 213q21 130 -48.5 209.5t-236.5 79.5h-96l31 152h84q94 0 167.5 66.5t90.5 166.5q20 106 -46.5 173t-189.5 67q-142 0 -248.5 -99.5t-134.5 -259.5l-170 -958h-186l174 989
q38 217 199 354.5t376 137.5q210 0 327 -117t85 -295q-17 -103 -81 -179t-154 -104l-15 -18q133 -27 204.5 -140t45.5 -266q-21 -116 -96 -211t-186 -148.5t-234 -53.5z" />
    <glyph glyph-name="agrave" unicode="&#xe0;" horiz-adv-x="1372" 
d="M717 1214l-182 291h188l168 -291h-174zM549 -41q-154 0 -265.5 73.5t-158.5 203.5t-19 292q20 117 77 219t138.5 174t186 113t217.5 41q246 0 358 -215l23 6l31 168h170l-185 -1034h-170l31 170l-16 -6q-177 -205 -418 -205zM575 113q171 0 304.5 118t164.5 297
q31 172 -54.5 283t-248.5 111q-172 0 -305 -117.5t-164 -298.5q-31 -170 54.5 -281.5t248.5 -111.5z" />
    <glyph glyph-name="aacute" unicode="&#xe1;" horiz-adv-x="1372" 
d="M881 1214h-183l271 291h196zM549 -41q-154 0 -265.5 73.5t-158.5 203.5t-19 292q20 117 77 219t138.5 174t186 113t217.5 41q246 0 358 -215l23 6l31 168h170l-185 -1034h-170l31 170l-16 -6q-177 -205 -418 -205zM575 113q171 0 304.5 118t164.5 297q31 172 -54.5 283
t-248.5 111q-172 0 -305 -117.5t-164 -298.5q-31 -170 54.5 -281.5t248.5 -111.5z" />
    <glyph glyph-name="acircumflex" unicode="&#xe2;" horiz-adv-x="1372" 
d="M469 1214l285 291h190l182 -291h-161l-121 177h-21l-186 -177h-168zM549 -41q-154 0 -265.5 73.5t-158.5 203.5t-19 292q20 117 77 219t138.5 174t186 113t217.5 41q246 0 358 -215l23 6l31 168h170l-185 -1034h-170l31 170l-16 -6q-177 -205 -418 -205zM575 113
q171 0 304.5 118t164.5 297q31 172 -54.5 283t-248.5 111q-172 0 -305 -117.5t-164 -298.5q-31 -170 54.5 -281.5t248.5 -111.5z" />
    <glyph glyph-name="atilde" unicode="&#xe3;" horiz-adv-x="1372" 
d="M940 1214q-53 0 -94.5 18.5t-62.5 40t-49.5 40t-59.5 18.5q-41 0 -79.5 -22t-62.5 -56l-83 76q41 63 106 99t135 36q50 0 90 -18.5t62 -40.5t52.5 -40.5t61.5 -18.5q44 0 84.5 24t63.5 60l84 -78q-40 -64 -105.5 -101t-142.5 -37zM549 -41q-154 0 -265.5 73.5
t-158.5 203.5t-19 292q20 117 77 219t138.5 174t186 113t217.5 41q246 0 358 -215l23 6l31 168h170l-185 -1034h-170l31 170l-16 -6q-177 -205 -418 -205zM575 113q171 0 304.5 118t164.5 297q31 172 -54.5 283t-248.5 111q-172 0 -305 -117.5t-164 -298.5
q-31 -170 54.5 -281.5t248.5 -111.5z" />
    <glyph glyph-name="adieresis" unicode="&#xe4;" horiz-adv-x="1372" 
d="M565 1231q-54 0 -82.5 35t-19.5 88q8 44 41 71t80 27q53 0 81.5 -34.5t18.5 -86.5q-8 -44 -40.5 -72t-78.5 -28zM1057 1231q-55 0 -84.5 35t-20.5 88q9 44 42 71t79 27q53 0 82.5 -34.5t20.5 -86.5q-7 -44 -41 -72t-78 -28zM549 -41q-154 0 -265.5 73.5t-158.5 203.5
t-19 292q20 117 77 219t138.5 174t186 113t217.5 41q246 0 358 -215l23 6l31 168h170l-185 -1034h-170l31 170l-16 -6q-177 -205 -418 -205zM575 113q171 0 304.5 118t164.5 297q31 172 -54.5 283t-248.5 111q-172 0 -305 -117.5t-164 -298.5q-31 -170 54.5 -281.5
t248.5 -111.5z" />
    <glyph glyph-name="aring" unicode="&#xe5;" horiz-adv-x="1372" 
d="M805 1204q-103 0 -157.5 64t-37.5 162q15 89 84.5 144.5t165.5 55.5q101 0 155.5 -63.5t37.5 -161.5q-15 -88 -84.5 -144.5t-163.5 -56.5zM799 1286q61 0 109 41t59 103q9 54 -19 86t-82 32q-63 0 -110.5 -40t-57.5 -103q-9 -53 18.5 -86t82.5 -33zM549 -41
q-154 0 -265.5 73.5t-158.5 203.5t-19 292q20 117 77 219t138.5 174t186 113t217.5 41q246 0 358 -215l23 6l31 168h170l-185 -1034h-170l31 170l-16 -6q-177 -205 -418 -205zM575 113q171 0 304.5 118t164.5 297q31 172 -54.5 283t-248.5 111q-172 0 -305 -117.5
t-164 -298.5q-31 -170 54.5 -281.5t248.5 -111.5z" />
    <glyph glyph-name="ae" unicode="&#xe6;" horiz-adv-x="1949" 
d="M639 1079q142 0 240 -55.5t131 -146.5q182 198 426 198q147 0 251 -72t146 -199.5t14 -287.5q-4 -29 -12 -59h-831q-7 -157 67.5 -250.5t206.5 -93.5q101 0 194 54t158 150l131 -81q-79 -124 -209.5 -200.5t-267.5 -76.5q-154 0 -261.5 82.5t-137.5 212.5
q-65 -132 -203.5 -209.5t-304.5 -77.5q-179 0 -274 88t-70 230q26 138 160.5 224.5t363.5 111.5l299 30l8 54q19 105 -42.5 163t-186.5 58q-115 0 -201 -59.5t-100 -147.5l-170 10q28 155 161 252.5t314 97.5zM1421 922q-130 0 -234.5 -89t-152.5 -231l652 12
q5 140 -66.5 224t-198.5 84zM545 485q-154 -17 -242 -76.5t-104 -144.5q-12 -74 44.5 -116t155.5 -42q157 0 274.5 93.5t141.5 226.5l16 92z" />
    <glyph glyph-name="ccedilla" unicode="&#xe7;" horiz-adv-x="1253" 
d="M727 922q-163 0 -293 -117.5t-162 -298.5q-30 -173 51.5 -283t235.5 -110q126 0 235.5 71t159.5 181l164 -33q-60 -156 -206.5 -258t-319.5 -113l-23 -61q91 0 144.5 -57.5t38.5 -143.5q-14 -77 -79 -125.5t-155 -48.5q-87 0 -144 44t-59 109l111 15q0 -37 23 -58.5
t61 -21.5q50 0 88 30.5t47 75.5q6 42 -24 67.5t-86 25.5h-111l47 153q-200 28 -302.5 184t-62.5 379q27 156 117 281.5t223 195.5t285 70q193 0 320 -110.5t125 -276.5l-164 -10q-7 111 -87 177.5t-198 66.5z" />
    <glyph glyph-name="egrave" unicode="&#xe8;" horiz-adv-x="1300" 
d="M694 1214l-182 291h188l168 -291h-174zM573 -41q-161 0 -277.5 75t-166 208.5t-20.5 300.5q41 232 219 382t415 150q117 0 212 -42t155 -115.5t84 -177.5t4 -224q-5 -35 -14 -61h-916q-9 -157 76.5 -249.5t239.5 -92.5q118 0 225 56t174 150l131 -81
q-86 -133 -228.5 -206t-312.5 -73zM297 604l737 12q4 139 -79 222.5t-226 83.5q-146 0 -265 -88.5t-167 -229.5z" />
    <glyph glyph-name="eacute" unicode="&#xe9;" horiz-adv-x="1300" 
d="M858 1214h-182l272 291h195zM573 -41q-161 0 -277.5 75t-166 208.5t-20.5 300.5q41 232 219 382t415 150q117 0 212 -42t155 -115.5t84 -177.5t4 -224q-5 -35 -14 -61h-916q-9 -157 76.5 -249.5t239.5 -92.5q118 0 225 56t174 150l131 -81q-86 -133 -228.5 -206
t-312.5 -73zM297 604l737 12q4 139 -79 222.5t-226 83.5q-146 0 -265 -88.5t-167 -229.5z" />
    <glyph glyph-name="ecircumflex" unicode="&#xea;" horiz-adv-x="1300" 
d="M446 1214l285 291h191l184 -291h-164l-121 177h-18l-189 -177h-168zM573 -41q-161 0 -277.5 75t-166 208.5t-20.5 300.5q41 232 219 382t415 150q117 0 212 -42t155 -115.5t84 -177.5t4 -224q-5 -35 -14 -61h-916q-9 -157 76.5 -249.5t239.5 -92.5q118 0 225 56t174 150
l131 -81q-86 -133 -228.5 -206t-312.5 -73zM297 604l737 12q4 139 -79 222.5t-226 83.5q-146 0 -265 -88.5t-167 -229.5z" />
    <glyph glyph-name="edieresis" unicode="&#xeb;" horiz-adv-x="1300" 
d="M543 1231q-54 0 -83 35t-20 88q9 44 42 71t79 27q53 0 82 -34.5t19 -86.5q-6 -44 -39.5 -72t-79.5 -28zM1034 1231q-54 0 -82.5 35t-19.5 88q8 44 41 71t80 27q53 0 81.5 -34.5t18.5 -86.5q-7 -44 -41 -72t-78 -28zM573 -41q-161 0 -277.5 75t-166 208.5t-20.5 300.5
q41 232 219 382t415 150q117 0 212 -42t155 -115.5t84 -177.5t4 -224q-5 -35 -14 -61h-916q-9 -157 76.5 -249.5t239.5 -92.5q118 0 225 56t174 150l131 -81q-86 -133 -228.5 -206t-312.5 -73zM297 604l737 12q4 139 -79 222.5t-226 83.5q-146 0 -265 -88.5t-167 -229.5z
" />
    <glyph glyph-name="igrave" unicode="&#xec;" horiz-adv-x="481" 
d="M285 1214l-183 291h189l168 -291h-174zM66 0l182 1034h170l-182 -1034h-170z" />
    <glyph glyph-name="iacute" unicode="&#xed;" horiz-adv-x="481" 
d="M449 1214h-183l273 291h196zM66 0l182 1034h170l-182 -1034h-170z" />
    <glyph glyph-name="icircumflex" unicode="&#xee;" horiz-adv-x="481" 
d="M37 1214l285 291h190l184 -291h-164l-120 177h-19l-188 -177h-168zM66 0l182 1034h170l-182 -1034h-170z" />
    <glyph glyph-name="idieresis" unicode="&#xef;" horiz-adv-x="481" 
d="M133 1231q-54 0 -82.5 35t-19.5 88q9 44 42 71t79 27q53 0 82 -34.5t20 -86.5q-7 -44 -41 -72t-80 -28zM625 1231q-54 0 -83 35t-20 88q8 44 41 71t80 27q53 0 81.5 -34.5t18.5 -86.5q-8 -44 -40 -72t-78 -28zM66 0l182 1034h170l-182 -1034h-170z" />
    <glyph glyph-name="ntilde" unicode="&#xf1;" 
d="M922 1214q-53 0 -95 18.5t-63 40t-49.5 40t-59.5 18.5q-40 0 -77.5 -22t-61.5 -56l-84 76q39 62 104.5 98.5t135.5 36.5q50 0 90.5 -18.5t62.5 -40.5t52 -40.5t61 -18.5q44 0 84 24t63 60l86 -78q-42 -64 -107 -101t-142 -37zM68 0l182 1034h170l-25 -141l19 6
q68 85 157.5 129.5t188.5 44.5q198 0 297 -130.5t63 -330.5l-108 -612h-170l110 623q24 134 -34 215.5t-185 81.5q-136 0 -251 -94t-138 -228l-106 -598h-170z" />
    <glyph glyph-name="ograve" unicode="&#xf2;" horiz-adv-x="1314" 
d="M698 1214l-182 291h191l165 -291h-174zM567 -41q-247 0 -377 160t-86 409q43 242 221.5 394.5t419.5 152.5q246 0 377 -159.5t88 -409.5q-43 -242 -222.5 -394.5t-420.5 -152.5zM573 113q172 0 305 117.5t164 297.5q31 172 -54.5 283t-248.5 111q-172 0 -304.5 -117.5
t-164.5 -298.5q-31 -172 54.5 -282.5t248.5 -110.5z" />
    <glyph glyph-name="oacute" unicode="&#xf3;" horiz-adv-x="1314" 
d="M862 1214h-180l270 291h197zM567 -41q-247 0 -377 160t-86 409q43 242 221.5 394.5t419.5 152.5q246 0 377 -159.5t88 -409.5q-43 -242 -222.5 -394.5t-420.5 -152.5zM573 113q172 0 305 117.5t164 297.5q31 172 -54.5 283t-248.5 111q-172 0 -304.5 -117.5
t-164.5 -298.5q-31 -172 54.5 -282.5t248.5 -110.5z" />
    <glyph glyph-name="ocircumflex" unicode="&#xf4;" horiz-adv-x="1314" 
d="M451 1214l286 291h191l182 -291h-162l-121 177h-20l-186 -177h-170zM567 -41q-247 0 -377 160t-86 409q43 242 221.5 394.5t419.5 152.5q246 0 377 -159.5t88 -409.5q-43 -242 -222.5 -394.5t-420.5 -152.5zM573 113q172 0 305 117.5t164 297.5q31 172 -54.5 283
t-248.5 111q-172 0 -304.5 -117.5t-164.5 -298.5q-31 -172 54.5 -282.5t248.5 -110.5z" />
    <glyph glyph-name="otilde" unicode="&#xf5;" horiz-adv-x="1314" 
d="M924 1214q-53 0 -95 18.5t-63 40t-49.5 40t-59.5 18.5q-41 0 -78.5 -22t-62.5 -56l-84 76q39 62 105 98.5t137 36.5q49 0 89 -18.5t62.5 -40.5t53 -40.5t61.5 -18.5q44 0 84 24t63 60l84 -78q-40 -64 -105.5 -101t-141.5 -37zM567 -41q-247 0 -377 160t-86 409
q43 242 221.5 394.5t419.5 152.5q246 0 377 -159.5t88 -409.5q-43 -242 -222.5 -394.5t-420.5 -152.5zM573 113q172 0 305 117.5t164 297.5q31 172 -54.5 283t-248.5 111q-172 0 -304.5 -117.5t-164.5 -298.5q-31 -172 54.5 -282.5t248.5 -110.5z" />
    <glyph glyph-name="odieresis" unicode="&#xf6;" horiz-adv-x="1314" 
d="M549 1231q-54 0 -83.5 35t-21.5 88q9 44 42.5 71t80.5 27q53 0 82 -34.5t19 -86.5q-7 -44 -41 -72t-78 -28zM1038 1231q-54 0 -82.5 35t-19.5 88q9 44 42 71t79 27q53 0 81.5 -34.5t18.5 -86.5q-6 -44 -39.5 -72t-79.5 -28zM567 -41q-247 0 -377 160t-86 409
q43 242 221.5 394.5t419.5 152.5q246 0 377 -159.5t88 -409.5q-43 -242 -222.5 -394.5t-420.5 -152.5zM573 113q172 0 305 117.5t164 297.5q31 172 -54.5 283t-248.5 111q-172 0 -304.5 -117.5t-164.5 -298.5q-31 -172 54.5 -282.5t248.5 -110.5z" />
    <glyph glyph-name="divide" unicode="&#xf7;" horiz-adv-x="1130" 
d="M662 1001q-51 0 -76.5 31.5t-16.5 81.5q6 38 36 62t71 24q47 0 73.5 -31.5t18.5 -78.5q-6 -39 -36 -64t-70 -25zM127 637l27 154h921l-26 -154h-922zM520 195q-51 0 -76.5 31t-17.5 81q8 39 36.5 62.5t69.5 23.5q48 0 75 -31.5t18 -78.5q-6 -39 -35.5 -63.5t-69.5 -24.5z
" />
    <glyph glyph-name="oslash" unicode="&#xf8;" horiz-adv-x="1327" 
d="M752 1075q115 0 202 -35l131 189h166l-180 -256q96 -74 136.5 -195t13.5 -272q-41 -241 -222.5 -394t-423.5 -153q-92 0 -165 25l-103 -148h-166l146 203q-112 72 -161 199t-20 290q41 241 222.5 394t423.5 153zM750 944q-183 0 -322.5 -123.5t-173.5 -314.5
q-19 -110 7.5 -200.5t94.5 -147.5l529 764q-59 22 -135 22zM578 90q181 0 320 123.5t173 314.5q35 201 -80 322l-514 -750q44 -10 101 -10z" />
    <glyph glyph-name="ugrave" unicode="&#xf9;" 
d="M647 1214l-182 291h188l168 -291h-174zM1174 1034l-185 -1034h-170l27 141l-19 -6q-68 -84 -158 -128t-188 -44q-200 0 -298 130t-62 331l106 610h170l-108 -622q-25 -134 33 -214.5t186 -80.5q136 0 250 93t139 228l107 596h170z" />
    <glyph glyph-name="uacute" unicode="&#xfa;" 
d="M811 1214h-182l270 291h197zM1174 1034l-185 -1034h-170l27 141l-19 -6q-68 -84 -158 -128t-188 -44q-200 0 -298 130t-62 331l106 610h170l-108 -622q-25 -134 33 -214.5t186 -80.5q136 0 250 93t139 228l107 596h170z" />
    <glyph glyph-name="ucircumflex" unicode="&#xfb;" 
d="M399 1214l285 291h190l183 -291h-162l-121 177h-20l-187 -177h-168zM1174 1034l-185 -1034h-170l27 141l-19 -6q-68 -84 -158 -128t-188 -44q-200 0 -298 130t-62 331l106 610h170l-108 -622q-25 -134 33 -214.5t186 -80.5q136 0 250 93t139 228l107 596h170z" />
    <glyph glyph-name="udieresis" unicode="&#xfc;" 
d="M496 1231q-54 0 -83 35t-20 88q8 44 41 71t80 27q53 0 81.5 -34.5t18.5 -86.5q-8 -44 -40 -72t-78 -28zM987 1231q-55 0 -83.5 35t-20.5 88q9 44 42 71t79 27q54 0 82.5 -34t19.5 -87q-7 -44 -41 -72t-78 -28zM1174 1034l-185 -1034h-170l27 141l-19 -6
q-68 -84 -158 -128t-188 -44q-200 0 -298 130t-62 331l106 610h170l-108 -622q-25 -134 33 -214.5t186 -80.5q136 0 250 93t139 228l107 596h170z" />
    <glyph glyph-name="yacute" unicode="&#xfd;" horiz-adv-x="1091" 
d="M772 1214h-182l272 291h197zM96 -459q-85 0 -164 35l19 145q64 -28 125 -28q39 0 74 14.5t59.5 33.5t54 56.5t45 62.5t45 74.5t43.5 71.5l-276 1028h174l211 -809h18l449 809h184l-596 -1057l-1 -1v-1l-1 -1v-1l-1 -1v-1l-1 -1l-1 -1v-1l-1 -1q-108 -189 -167 -263
q-122 -152 -268 -162q-12 -1 -24 -1z" />
    <glyph glyph-name="ydieresis" unicode="&#xff;" horiz-adv-x="1091" 
d="M457 1231q-54 0 -83 35t-20 88q9 44 42 71t79 27q53 0 81.5 -34.5t18.5 -86.5q-6 -44 -39 -72t-79 -28zM948 1231q-54 0 -82.5 35t-19.5 88q8 44 41 71t80 27q53 0 81.5 -34.5t18.5 -86.5q-8 -44 -40.5 -72t-78.5 -28zM96 -459q-85 0 -164 35l19 145q64 -28 125 -28
q39 0 74 14.5t59.5 33.5t54 56.5t45 62.5t45 74.5t43.5 71.5l-276 1028h174l211 -809h18l449 809h184l-596 -1057l-1 -1v-1l-1 -1v-1l-1 -1v-1l-1 -1l-1 -1v-1l-1 -1q-108 -189 -167 -263q-122 -152 -268 -162q-12 -1 -24 -1z" />
    <glyph glyph-name="Amacron" unicode="&#x100;" horiz-adv-x="1460" 
d="M612 1642l25 136h635l-25 -136h-635zM-31 0l799 1444h254l287 -1444h-179l-65 324h-735l-180 -324h-181zM412 477h626l-159 803h-19z" />
    <glyph glyph-name="amacron" unicode="&#x101;" horiz-adv-x="1372" 
d="M483 1233l25 135h635l-27 -135h-633zM549 -41q-154 0 -265.5 73.5t-158.5 203.5t-19 292q20 117 77 219t138.5 174t186 113t217.5 41q246 0 358 -215l23 6l31 168h170l-185 -1034h-170l31 170l-16 -6q-177 -205 -418 -205zM575 113q171 0 304.5 118t164.5 297
q31 172 -54.5 283t-248.5 111q-172 0 -305 -117.5t-164 -298.5q-31 -170 54.5 -281.5t248.5 -111.5z" />
    <glyph glyph-name="Abreve" unicode="&#x102;" horiz-adv-x="1460" 
d="M934 1593q-137 0 -215.5 74.5t-59.5 183.5l168 -10q-10 -58 18 -87.5t89 -29.5q69 0 116 35t58 92l164 -10q-19 -110 -113 -179t-225 -69zM-31 0l799 1444h254l287 -1444h-179l-65 324h-735l-180 -324h-181zM412 477h626l-159 803h-19z" />
    <glyph glyph-name="abreve" unicode="&#x103;" horiz-adv-x="1372" 
d="M811 1231q-124 0 -191 80t-45 200l142 -10q-12 -67 12 -106t82 -39q64 0 111 44t59 111l139 -10q-22 -120 -108.5 -195t-200.5 -75zM549 -41q-154 0 -265.5 73.5t-158.5 203.5t-19 292q20 117 77 219t138.5 174t186 113t217.5 41q246 0 358 -215l23 6l31 168h170
l-185 -1034h-170l31 170l-16 -6q-177 -205 -418 -205zM575 113q171 0 304.5 118t164.5 297q31 172 -54.5 283t-248.5 111q-172 0 -305 -117.5t-164 -298.5q-31 -170 54.5 -281.5t248.5 -111.5z" />
    <glyph glyph-name="Aogonek" unicode="&#x104;" horiz-adv-x="1460" 
d="M1278 -2q-126 -51 -200.5 -113t-84.5 -125q-6 -34 11 -52.5t55 -18.5q56 0 133 45l-8 -105q-73 -39 -152 -39q-73 0 -112 47t-25 121q22 137 233 252l-63 314h-735l-180 -324h-181l799 1444h254l287 -1444h-33zM412 477h626l-159 803h-19z" />
    <glyph glyph-name="aogonek" unicode="&#x105;" horiz-adv-x="1372" 
d="M1307 1034l-185 -1034h-20l2 -2q-126 -51 -200.5 -113t-84.5 -125q-7 -34 10.5 -52.5t55.5 -18.5q56 0 133 45l-8 -105q-76 -39 -152 -39q-73 0 -112 47t-25 121q22 140 233 252l29 160l-16 -6q-177 -205 -418 -205q-154 0 -265.5 73.5t-158.5 203.5t-19 292
q20 117 77 219t138.5 174t186 113t217.5 41q246 0 358 -215l23 6l31 168h170zM575 113q171 0 304.5 118t164.5 297q31 172 -54.5 283t-248.5 111q-172 0 -305 -117.5t-164 -298.5q-31 -170 54.5 -281.5t248.5 -111.5z" />
    <glyph glyph-name="Cacute" unicode="&#x106;" horiz-adv-x="1644" 
d="M954 1640l258 232h215l-268 -232h-205zM766 -51q-217 0 -373.5 101t-222 280.5t-25.5 402.5q39 218 163.5 392t310 272t397.5 98q246 0 416.5 -151t185.5 -379l-182 -13q-10 165 -131.5 272t-294.5 107q-165 0 -310 -80t-243 -221.5t-129 -318.5q-30 -171 15.5 -307.5
t157.5 -213.5t271 -77q177 0 341.5 107.5t238.5 268.5l174 -47q-92 -215 -306.5 -354t-453.5 -139z" />
    <glyph glyph-name="cacute" unicode="&#x107;" horiz-adv-x="1253" 
d="M850 1214h-182l272 291h197zM553 -41q-155 0 -268 73.5t-160.5 203.5t-18.5 292q27 156 117 281.5t223 195.5t285 70q193 0 320 -110.5t125 -276.5l-164 -10q-7 111 -87 177.5t-198 66.5q-163 0 -293 -117.5t-162 -298.5q-30 -173 51.5 -283t235.5 -110q126 0 235.5 71
t159.5 181l164 -33q-63 -165 -222 -269t-343 -104z" />
    <glyph glyph-name="Ccircumflex" unicode="&#x108;" horiz-adv-x="1644" 
d="M993 1872h201l195 -232h-168l-131 127h-21l-176 -127h-176zM766 -51q-217 0 -373.5 101t-222 280.5t-25.5 402.5q39 218 163.5 392t310 272t397.5 98q246 0 416.5 -151t185.5 -379l-182 -13q-10 165 -131.5 272t-294.5 107q-165 0 -310 -80t-243 -221.5t-129 -318.5
q-30 -171 15.5 -307.5t157.5 -213.5t271 -77q177 0 341.5 107.5t238.5 268.5l174 -47q-92 -215 -306.5 -354t-453.5 -139z" />
    <glyph glyph-name="ccircumflex" unicode="&#x109;" horiz-adv-x="1253" 
d="M438 1214l285 291h190l185 -291h-162l-121 177h-20l-187 -177h-170zM553 -41q-155 0 -268 73.5t-160.5 203.5t-18.5 292q27 156 117 281.5t223 195.5t285 70q193 0 320 -110.5t125 -276.5l-164 -10q-7 111 -87 177.5t-198 66.5q-163 0 -293 -117.5t-162 -298.5
q-30 -173 51.5 -283t235.5 -110q126 0 235.5 71t159.5 181l164 -33q-63 -165 -222 -269t-343 -104z" />
    <glyph glyph-name="Cdotaccent" unicode="&#x10a;" horiz-adv-x="1644" 
d="M1065 1645q-59 0 -90 37.5t-21 95.5q9 48 45 78t88 30q56 0 86.5 -37t20.5 -94q-7 -50 -43 -80t-86 -30zM766 -51q-217 0 -373.5 101t-222 280.5t-25.5 402.5q39 218 163.5 392t310 272t397.5 98q246 0 416.5 -151t185.5 -379l-182 -13q-10 165 -131.5 272t-294.5 107
q-165 0 -310 -80t-243 -221.5t-129 -318.5q-30 -171 15.5 -307.5t157.5 -213.5t271 -77q177 0 341.5 107.5t238.5 268.5l174 -47q-92 -215 -306.5 -354t-453.5 -139z" />
    <glyph glyph-name="cdotaccent" unicode="&#x10b;" horiz-adv-x="1253" 
d="M780 1231q-57 0 -87.5 37.5t-20.5 95.5q7 49 43.5 79t87.5 30q57 0 87.5 -37.5t20.5 -94.5q-9 -50 -44.5 -80t-86.5 -30zM553 -41q-155 0 -268 73.5t-160.5 203.5t-18.5 292q27 156 117 281.5t223 195.5t285 70q193 0 320 -110.5t125 -276.5l-164 -10q-7 111 -87 177.5
t-198 66.5q-163 0 -293 -117.5t-162 -298.5q-30 -173 51.5 -283t235.5 -110q126 0 235.5 71t159.5 181l164 -33q-63 -165 -222 -269t-343 -104z" />
    <glyph glyph-name="Ccaron" unicode="&#x10c;" horiz-adv-x="1644" 
d="M954 1640l-194 232h170l129 -127h22l174 127h179l-281 -232h-199zM766 -51q-217 0 -373.5 101t-222 280.5t-25.5 402.5q39 218 163.5 392t310 272t397.5 98q246 0 416.5 -151t185.5 -379l-182 -13q-10 165 -131.5 272t-294.5 107q-165 0 -310 -80t-243 -221.5
t-129 -318.5q-30 -171 15.5 -307.5t157.5 -213.5t271 -77q177 0 341.5 107.5t238.5 268.5l174 -47q-92 -215 -306.5 -354t-453.5 -139z" />
    <glyph glyph-name="ccaron" unicode="&#x10d;" horiz-adv-x="1253" 
d="M489 1505h160l125 -174h21l182 174h170l-287 -291h-190zM553 -41q-155 0 -268 73.5t-160.5 203.5t-18.5 292q27 156 117 281.5t223 195.5t285 70q193 0 320 -110.5t125 -276.5l-164 -10q-7 111 -87 177.5t-198 66.5q-163 0 -293 -117.5t-162 -298.5q-30 -173 51.5 -283
t235.5 -110q126 0 235.5 71t159.5 181l164 -33q-63 -165 -222 -269t-343 -104z" />
    <glyph glyph-name="Dcaron" unicode="&#x10e;" horiz-adv-x="1595" 
d="M877 1614l-197 231h170l131 -127h20l177 127h176l-279 -231h-198zM104 0l254 1444h459q247 0 421 -90.5t250 -257.5t38 -385q-59 -323 -319.5 -517t-635.5 -194h-467zM322 164h270q192 0 351.5 68.5t264.5 198.5t135 302q44 253 -104 400t-440 147h-283z" />
    <glyph glyph-name="dcaron" unicode="&#x10f;" horiz-adv-x="1380" 
d="M1569 1139l-70 20l109 152q-45 3 -72 36t-20 80q8 43 41.5 71t78.5 28q53 0 81.5 -34.5t19.5 -86.5q-8 -48 -33 -82zM551 -41q-230 0 -358.5 162.5t-86.5 406.5q41 236 219 391.5t402 155.5q127 0 219.5 -52.5t130.5 -145.5l25 4l110 624h170l-266 -1505h-170l29 160
l-19 -6q-72 -94 -176.5 -144.5t-228.5 -50.5zM575 113q171 0 305.5 119.5t163.5 295.5q31 168 -55 281t-248 113q-169 0 -303.5 -120t-165.5 -296q-31 -169 55.5 -281t247.5 -112z" />
    <glyph glyph-name="Dcroat" unicode="&#x110;" horiz-adv-x="1689" 
d="M911 1444q186 0 332 -52.5t238.5 -147.5t129 -232t7.5 -301q-38 -213 -167.5 -374.5t-332 -249t-450.5 -87.5h-469l131 750h-228l29 153h227l95 541h458zM1438 733q45 253 -104.5 400t-440.5 147h-283l-65 -377h508l-29 -153h-508l-102 -586h270q193 0 353 68.5
t265.5 198.5t135.5 302z" />
    <glyph glyph-name="dcroat" unicode="&#x111;" horiz-adv-x="1361" 
d="M1542 1374l-20 -125h-187l-221 -1249h-170l29 160l-19 -6q-72 -94 -176.5 -144.5t-228.5 -50.5q-230 0 -358.5 162.5t-86.5 406.5q41 236 219 391.5t402 155.5q127 0 219.5 -52.5t130.5 -145.5l25 4l65 368h-426l21 125h428l22 131h170l-22 -131h184zM1042 528
q31 168 -55 281t-248 113q-169 0 -303.5 -120t-165.5 -296q-31 -169 55.5 -281t247.5 -112q171 0 305.5 119.5t163.5 295.5z" />
    <glyph glyph-name="Emacron" unicode="&#x112;" horiz-adv-x="1308" 
d="M575 1642l25 136h635l-25 -136h-635zM104 0l254 1444h992l-29 -164h-805l-80 -451h723l-29 -163h-722l-86 -502h823l-31 -164h-1010z" />
    <glyph glyph-name="emacron" unicode="&#x113;" horiz-adv-x="1300" 
d="M461 1233l24 135h635l-24 -135h-635zM573 -41q-161 0 -277.5 75t-166 208.5t-20.5 300.5q41 232 219 382t415 150q117 0 212 -42t155 -115.5t84 -177.5t4 -224q-5 -35 -14 -61h-916q-9 -157 76.5 -249.5t239.5 -92.5q118 0 225 56t174 150l131 -81q-86 -133 -228.5 -206
t-312.5 -73zM297 604l737 12q4 139 -79 222.5t-226 83.5q-146 0 -265 -88.5t-167 -229.5z" />
    <glyph glyph-name="Ebreve" unicode="&#x114;" horiz-adv-x="1308" 
d="M895 1593q-137 0 -214.5 74.5t-57.5 183.5l165 -10q-10 -58 18 -87.5t89 -29.5q70 0 117.5 35t58.5 92l164 -10q-20 -110 -114.5 -179t-225.5 -69zM104 0l254 1444h992l-29 -164h-805l-80 -451h723l-29 -163h-722l-86 -502h823l-31 -164h-1010z" />
    <glyph glyph-name="ebreve" unicode="&#x115;" horiz-adv-x="1300" 
d="M788 1231q-124 0 -189.5 79.5t-43.5 200.5l139 -10q-12 -67 13 -106t81 -39q64 0 111 44t59 111l142 -10q-22 -119 -109.5 -194.5t-202.5 -75.5zM573 -41q-161 0 -277.5 75t-166 208.5t-20.5 300.5q41 232 219 382t415 150q117 0 212 -42t155 -115.5t84 -177.5t4 -224
q-5 -35 -14 -61h-916q-9 -157 76.5 -249.5t239.5 -92.5q118 0 225 56t174 150l131 -81q-86 -133 -228.5 -206t-312.5 -73zM297 604l737 12q4 139 -79 222.5t-226 83.5q-146 0 -265 -88.5t-167 -229.5z" />
    <glyph glyph-name="Edotaccent" unicode="&#x116;" horiz-adv-x="1308" 
d="M899 1618q-58 0 -88.5 37t-19.5 96q9 49 44 79t85 30q58 0 89.5 -37t20.5 -94q-7 -49 -44 -80t-87 -31zM104 0l254 1444h992l-29 -164h-805l-80 -451h723l-29 -163h-722l-86 -502h823l-31 -164h-1010z" />
    <glyph glyph-name="edotaccent" unicode="&#x117;" horiz-adv-x="1300" 
d="M788 1231q-58 0 -88.5 37t-21.5 96q9 49 45.5 79t87.5 30q57 0 87.5 -37.5t21.5 -94.5q-9 -49 -45.5 -79.5t-86.5 -30.5zM573 -41q-161 0 -277.5 75t-166 208.5t-20.5 300.5q41 232 219 382t415 150q117 0 212 -42t155 -115.5t84 -177.5t4 -224q-5 -35 -14 -61h-916
q-9 -157 76.5 -249.5t239.5 -92.5q118 0 225 56t174 150l131 -81q-86 -133 -228.5 -206t-312.5 -73zM297 604l737 12q4 139 -79 222.5t-226 83.5q-146 0 -265 -88.5t-167 -229.5z" />
    <glyph glyph-name="Eogonek" unicode="&#x118;" horiz-adv-x="1308" 
d="M1321 1280h-805l-80 -451h723l-29 -163h-722l-86 -502h823l-31 -164h-57l2 -2q-126 -51 -200.5 -113t-84.5 -125q-6 -34 11 -52.5t55 -18.5q56 0 133 45l-8 -105q-73 -39 -152 -39q-73 0 -112 47t-25 121q22 133 215 242h-787l254 1444h992z" />
    <glyph glyph-name="eogonek" unicode="&#x119;" horiz-adv-x="1300" 
d="M743 1075q117 0 212 -42t155 -115.5t84 -177.5t4 -224q-5 -35 -14 -61h-916q-9 -157 76.5 -249.5t239.5 -92.5q118 0 225 56t174 150l131 -81q-63 -98 -158 -164t-211 -94q-106 -47 -169 -104.5t-72 -115.5q-6 -34 10.5 -52.5t54.5 -18.5q56 0 133 45l-8 -105
q-76 -39 -151 -39q-73 0 -112 47t-25 121q19 110 149 201q-156 4 -267.5 80t-159 208t-19.5 296q41 232 219 382t415 150zM1034 616q4 139 -79 222.5t-226 83.5q-146 0 -265 -88.5t-167 -229.5z" />
    <glyph glyph-name="Ecaron" unicode="&#x11a;" horiz-adv-x="1308" 
d="M791 1614l-197 231h170l129 -127h22l175 127h178l-279 -231h-198zM104 0l254 1444h992l-29 -164h-805l-80 -451h723l-29 -163h-722l-86 -502h823l-31 -164h-1010z" />
    <glyph glyph-name="ecaron" unicode="&#x11b;" horiz-adv-x="1300" 
d="M496 1505h161l125 -174h19l184 174h170l-287 -291h-190zM573 -41q-161 0 -277.5 75t-166 208.5t-20.5 300.5q41 232 219 382t415 150q117 0 212 -42t155 -115.5t84 -177.5t4 -224q-5 -35 -14 -61h-916q-9 -157 76.5 -249.5t239.5 -92.5q118 0 225 56t174 150l131 -81
q-86 -133 -228.5 -206t-312.5 -73zM297 604l737 12q4 139 -79 222.5t-226 83.5q-146 0 -265 -88.5t-167 -229.5z" />
    <glyph glyph-name="Gcircumflex" unicode="&#x11c;" horiz-adv-x="1744" 
d="M1020 1845h201l196 -231h-170l-131 127h-18l-176 -127h-179zM797 -51q-226 0 -389 101t-233 280t-30 403q39 218 167.5 392t321.5 272t415 98q228 0 395 -121t196 -303l-178 -43q-20 133 -139.5 218t-282.5 85q-264 0 -464.5 -174.5t-247.5 -445.5q-30 -171 19.5 -307.5
t169 -213.5t288.5 -77q236 0 427.5 150t237.5 370l-718 -4l30 166l904 -7q-20 -182 -97 -338t-193.5 -266t-271.5 -172.5t-327 -62.5z" />
    <glyph glyph-name="gcircumflex" unicode="&#x11d;" horiz-adv-x="1363" 
d="M453 1214l284 291h191l182 -291h-162l-121 177h-20l-186 -177h-168zM487 -512q-203 0 -330 94t-149 256l174 51q20 -120 102 -183.5t216 -63.5q174 0 297 104.5t155 278.5l23 133l-19 -4q-175 -181 -401 -181q-117 0 -211 41.5t-153.5 114.5t-82.5 176.5t-2 222.5
q41 236 216.5 390.5t404.5 154.5q242 0 354 -190l25 4l27 147h167l-180 -1022q-43 -241 -214.5 -382.5t-418.5 -141.5zM578 123q172 0 304.5 115t161.5 290q31 172 -54.5 283t-248.5 111q-172 0 -304.5 -117.5t-164.5 -298.5q-31 -165 56.5 -274t249.5 -109z" />
    <glyph glyph-name="Gbreve" unicode="&#x11e;" horiz-adv-x="1744" 
d="M1087 1593q-137 0 -214.5 74.5t-57.5 183.5l166 -10q-10 -58 17.5 -87.5t88.5 -29.5q70 0 117 35t58 92l165 -10q-20 -110 -114.5 -179t-225.5 -69zM797 -51q-226 0 -389 101t-233 280t-30 403q39 218 167.5 392t321.5 272t415 98q228 0 395 -121t196 -303l-178 -43
q-20 133 -139.5 218t-282.5 85q-264 0 -464.5 -174.5t-247.5 -445.5q-30 -171 19.5 -307.5t169 -213.5t288.5 -77q236 0 427.5 150t237.5 370l-718 -4l30 166l904 -7q-20 -182 -97 -338t-193.5 -266t-271.5 -172.5t-327 -62.5z" />
    <glyph glyph-name="gbreve" unicode="&#x11f;" horiz-adv-x="1363" 
d="M795 1231q-124 0 -191 80t-45 200l141 -10q-12 -67 12.5 -106t82.5 -39q64 0 111 44t59 111l139 -10q-22 -120 -108.5 -195t-200.5 -75zM487 -512q-203 0 -330 94t-149 256l174 51q20 -120 102 -183.5t216 -63.5q174 0 297 104.5t155 278.5l23 133l-19 -4
q-175 -181 -401 -181q-117 0 -211 41.5t-153.5 114.5t-82.5 176.5t-2 222.5q41 236 216.5 390.5t404.5 154.5q242 0 354 -190l25 4l27 147h167l-180 -1022q-43 -241 -214.5 -382.5t-418.5 -141.5zM578 123q172 0 304.5 115t161.5 290q31 172 -54.5 283t-248.5 111
q-172 0 -304.5 -117.5t-164.5 -298.5q-31 -165 56.5 -274t249.5 -109z" />
    <glyph glyph-name="Gdotaccent" unicode="&#x120;" horiz-adv-x="1744" 
d="M1092 1618q-58 0 -89 37t-20 96q7 49 43 79t86 30q59 0 90 -37t21 -94q-9 -50 -45.5 -80.5t-85.5 -30.5zM797 -51q-226 0 -389 101t-233 280t-30 403q39 218 167.5 392t321.5 272t415 98q228 0 395 -121t196 -303l-178 -43q-20 133 -139.5 218t-282.5 85
q-264 0 -464.5 -174.5t-247.5 -445.5q-30 -171 19.5 -307.5t169 -213.5t288.5 -77q236 0 427.5 150t237.5 370l-718 -4l30 166l904 -7q-20 -182 -97 -338t-193.5 -266t-271.5 -172.5t-327 -62.5z" />
    <glyph glyph-name="gdotaccent" unicode="&#x121;" horiz-adv-x="1363" 
d="M795 1231q-59 0 -90 37.5t-21 95.5q9 50 44.5 79.5t86.5 29.5q57 0 88 -37.5t21 -94.5q-7 -49 -43 -79.5t-86 -30.5zM487 -512q-203 0 -330 94t-149 256l174 51q20 -120 102 -183.5t216 -63.5q174 0 297 104.5t155 278.5l23 133l-19 -4q-175 -181 -401 -181
q-117 0 -211 41.5t-153.5 114.5t-82.5 176.5t-2 222.5q41 236 216.5 390.5t404.5 154.5q242 0 354 -190l25 4l27 147h167l-180 -1022q-43 -241 -214.5 -382.5t-418.5 -141.5zM578 123q172 0 304.5 115t161.5 290q31 172 -54.5 283t-248.5 111q-172 0 -304.5 -117.5
t-164.5 -298.5q-31 -165 56.5 -274t249.5 -109z" />
    <glyph glyph-name="Gcommaaccent" unicode="&#x122;" horiz-adv-x="1744" 
d="M797 -51q-226 0 -389 101t-233 280t-30 403q39 218 167.5 392t321.5 272t415 98q228 0 395 -121t196 -303l-178 -43q-20 133 -139.5 218t-282.5 85q-264 0 -464.5 -174.5t-247.5 -445.5q-30 -171 19.5 -307.5t169 -213.5t288.5 -77q236 0 427.5 150t237.5 370l-718 -4
l30 166l904 -7q-20 -182 -97 -338t-193.5 -266t-271.5 -172.5t-327 -62.5zM692 -549l-71 21l110 151q-46 3 -73.5 37.5t-18.5 79.5q8 44 40.5 72t78.5 28q54 0 82.5 -35t17.5 -88q-8 -46 -33 -82z" />
    <glyph glyph-name="gcommaaccent" unicode="&#x123;" horiz-adv-x="1363" 
d="M854 1583l72 -20l-113 -152q47 -3 74 -36.5t20 -80.5q-8 -43 -41.5 -70.5t-79.5 -27.5q-54 0 -81.5 34t-18.5 87q7 41 33 82zM487 -512q-203 0 -330 94t-149 256l174 51q20 -120 102 -183.5t216 -63.5q174 0 297 104.5t155 278.5l23 133l-19 -4q-175 -181 -401 -181
q-117 0 -211 41.5t-153.5 114.5t-82.5 176.5t-2 222.5q41 236 216.5 390.5t404.5 154.5q242 0 354 -190l25 4l27 147h167l-180 -1022q-43 -241 -214.5 -382.5t-418.5 -141.5zM578 123q172 0 304.5 115t161.5 290q31 172 -54.5 283t-248.5 111q-172 0 -304.5 -117.5
t-164.5 -298.5q-31 -165 56.5 -274t249.5 -109z" />
    <glyph glyph-name="Itilde" unicode="&#x128;" horiz-adv-x="575" 
d="M625 1634q-54 0 -95.5 18.5t-62 40t-47 40t-55.5 18.5q-41 0 -81 -27t-71 -71l-82 76q38 63 102 99t136 36q51 0 91.5 -18.5t62 -40t50.5 -40t60 -18.5q44 0 84.5 28t70.5 72l84 -75q-42 -64 -107 -101t-140 -37zM104 0l254 1444h187l-254 -1444h-187z" />
    <glyph glyph-name="itilde" unicode="&#x129;" horiz-adv-x="481" 
d="M510 1214q-54 0 -95.5 18.5t-62.5 40t-49 40t-59 18.5q-41 0 -79.5 -22t-62.5 -56l-84 76q39 62 105 98.5t137 36.5q49 0 89 -18.5t62.5 -40.5t53 -40.5t61.5 -18.5q43 0 84 24.5t64 59.5l84 -78q-40 -64 -106 -101t-142 -37zM66 0l182 1034h170l-182 -1034h-170z" />
    <glyph glyph-name="Imacron" unicode="&#x12a;" horiz-adv-x="575" 
d="M168 1642l27 136h634l-26 -136h-635zM104 0l254 1444h187l-254 -1444h-187z" />
    <glyph glyph-name="imacron" unicode="&#x12b;" horiz-adv-x="481" 
d="M51 1233l25 135h635l-25 -135h-635zM66 0l182 1034h170l-182 -1034h-170z" />
    <glyph glyph-name="Iogonek" unicode="&#x12e;" horiz-adv-x="575" 
d="M545 1444l-254 -1444h-37l2 -2q-126 -51 -200.5 -113t-84.5 -125q-7 -34 10.5 -52.5t55.5 -18.5q56 0 133 45l-8 -105q-76 -39 -152 -39q-73 0 -112 47t-25 121q22 140 233 252l252 1434h187z" />
    <glyph glyph-name="iogonek" unicode="&#x12f;" horiz-adv-x="518" 
d="M420 1473q56 0 86.5 -37.5t21.5 -94.5q-9 -49 -45 -79.5t-86 -30.5q-58 0 -88.5 37t-21.5 96q9 50 45 79.5t88 29.5zM84 8l182 1026h170l-184 -1034h-16l2 -2q-126 -51 -200.5 -113t-84.5 -125q-6 -34 10.5 -52.5t54.5 -18.5q57 0 134 45l-9 -105q-73 -39 -151 -39
q-73 0 -112 47t-25 121q22 134 229 250z" />
    <glyph glyph-name="Idotaccent" unicode="&#x130;" horiz-adv-x="575" 
d="M494 1618q-58 0 -89 37t-20 96q7 49 43 79t86 30q59 0 90 -37t21 -94q-9 -50 -45.5 -80.5t-85.5 -30.5zM104 0l254 1444h187l-254 -1444h-187z" />
    <glyph glyph-name="dotlessi" unicode="&#x131;" horiz-adv-x="481" 
d="M66 0l182 1034h170l-182 -1034h-170z" />
    <glyph glyph-name="IJ" unicode="&#x132;" horiz-adv-x="1466" 
d="M104 0l254 1444h187l-254 -1444h-187zM754 -41q-129 0 -260 43l16 156q126 -35 213 -35q133 0 232 87t124 230l178 1004h187l-178 -1016q-38 -211 -180.5 -340t-331.5 -129z" />
    <glyph glyph-name="ij" unicode="&#x133;" horiz-adv-x="1058" 
d="M397 1231q-58 0 -88.5 37t-21.5 96q9 50 45 79.5t88 29.5q56 0 86.5 -37.5t21.5 -94.5q-9 -49 -45 -79.5t-86 -30.5zM920 1231q-59 0 -90 37.5t-21 95.5q9 50 44.5 79.5t86.5 29.5q57 0 88 -37.5t21 -94.5q-7 -49 -43 -79.5t-86 -30.5zM82 0l184 1034h170l-184 -1034
h-170zM426 -461q-102 0 -180 29l14 141q49 -16 127 -16q73 0 128 48t67 122l209 1171h170l-211 -1181q-23 -137 -114.5 -225.5t-209.5 -88.5z" />
    <glyph glyph-name="Kcommaaccent" unicode="&#x136;" horiz-adv-x="1296" 
d="M102 0l256 1444h187l-111 -631h19l708 631h238l-799 -699l559 -745h-231l-496 678h-22l-119 -678h-189zM520 -549l-71 21l112 151q-46 3 -73.5 37.5t-18.5 79.5q6 44 39.5 72t79.5 28q54 0 82.5 -35t17.5 -88q-7 -39 -33 -82z" />
    <glyph glyph-name="kcommaaccent" unicode="&#x137;" horiz-adv-x="1030" 
d="M68 0l264 1505h170l-160 -913h18l521 442h229l-600 -495l424 -539h-223l-367 481h-20l-86 -481h-170zM369 -549l-72 21l111 151q-46 3 -73 37t-20 80q7 44 41 72t78 28q55 0 83.5 -35t19.5 -88q-7 -39 -33 -82z" />
    <glyph glyph-name="Lacute" unicode="&#x139;" horiz-adv-x="1171" 
d="M387 1614l254 231h215l-264 -231h-205zM104 0l254 1444h187l-223 -1280h727l-31 -164h-914z" />
    <glyph glyph-name="lacute" unicode="&#x13a;" horiz-adv-x="483" 
d="M338 1614l256 231h215l-264 -231h-207zM66 0l266 1505h170l-266 -1505h-170z" />
    <glyph glyph-name="Lcommaaccent" unicode="&#x13b;" horiz-adv-x="1171" 
d="M104 0l254 1444h187l-223 -1280h727l-31 -164h-914zM496 -549l-72 21l111 151q-46 3 -73 37t-20 80q7 44 41 72t78 28q55 0 83.5 -35t19.5 -88q-7 -39 -33 -82z" />
    <glyph glyph-name="lcommaaccent" unicode="&#x13c;" horiz-adv-x="483" 
d="M66 0l266 1505h170l-266 -1505h-170zM45 -549l-72 21l113 151q-46 3 -73.5 37.5t-18.5 79.5q8 44 40.5 72t78.5 28q54 0 82.5 -35t17.5 -88q-8 -46 -33 -82z" />
    <glyph glyph-name="Lcaron" unicode="&#x13d;" horiz-adv-x="1171" 
d="M805 1077l-72 21l113 151q-47 3 -74 36.5t-20 80.5q8 43 41 70.5t79 27.5q54 0 82.5 -34.5t18.5 -86.5q-6 -40 -33 -81zM104 0l254 1444h187l-223 -1280h727l-31 -164h-914z" />
    <glyph glyph-name="lcaron" unicode="&#x13e;" horiz-adv-x="483" 
d="M686 1139l-70 20l111 152q-46 3 -73.5 36t-20.5 80q8 43 41.5 71t79.5 28q54 0 82.5 -34t19.5 -87q-7 -41 -33 -82zM66 0l266 1505h170l-266 -1505h-170z" />
    <glyph glyph-name="Lslash" unicode="&#x141;" horiz-adv-x="1261" 
d="M492 618l-80 -454h727l-29 -164h-913l88 504l-248 -135l26 161l250 138l138 776h186l-117 -664l625 342l-27 -161z" />
    <glyph glyph-name="lslash" unicode="&#x142;" horiz-adv-x="833" 
d="M922 1124l-27 -161l-358 -207l-134 -756h-170l115 647l-338 -194l27 161l340 197l123 694h170l-105 -585z" />
    <glyph glyph-name="Nacute" unicode="&#x143;" horiz-adv-x="1546" 
d="M911 1614l254 231h215l-264 -231h-205zM102 0l256 1444h267l471 -1198h22l211 1198h187l-256 -1444h-265l-471 1198h-22l-211 -1198h-189z" />
    <glyph glyph-name="nacute" unicode="&#x144;" 
d="M862 1214h-182l272 291h195zM68 0l182 1034h170l-25 -141l19 6q68 85 157.5 129.5t188.5 44.5q198 0 297 -130.5t63 -330.5l-108 -612h-170l110 623q24 134 -34 215.5t-185 81.5q-136 0 -251 -94t-138 -228l-106 -598h-170z" />
    <glyph glyph-name="Ncommaaccent" unicode="&#x145;" horiz-adv-x="1546" 
d="M102 0l256 1444h267l471 -1198h22l211 1198h187l-256 -1444h-265l-471 1198h-22l-211 -1198h-189zM618 -549l-71 21l110 151q-46 3 -73.5 37.5t-18.5 79.5q7 44 41 72t78 28q54 0 82.5 -35t17.5 -88q-4 -41 -32 -82z" />
    <glyph glyph-name="ncommaaccent" unicode="&#x146;" 
d="M68 0l182 1034h170l-25 -141l19 6q68 85 157.5 129.5t188.5 44.5q198 0 297 -130.5t63 -330.5l-108 -612h-170l110 623q24 134 -34 215.5t-185 81.5q-136 0 -251 -94t-138 -228l-106 -598h-170zM438 -549l-71 21l112 151q-46 3 -73.5 37.5t-18.5 79.5q6 44 39.5 72
t79.5 28q54 0 82.5 -35t17.5 -88q-8 -46 -33 -82z" />
    <glyph glyph-name="Ncaron" unicode="&#x147;" horiz-adv-x="1546" 
d="M909 1614l-194 231h170l129 -127h22l174 127h179l-279 -231h-201zM102 0l256 1444h267l471 -1198h22l211 1198h187l-256 -1444h-265l-471 1198h-22l-211 -1198h-189z" />
    <glyph glyph-name="ncaron" unicode="&#x148;" 
d="M500 1505h162l124 -174h19l184 174h170l-287 -291h-190zM68 0l182 1034h170l-25 -141l19 6q68 85 157.5 129.5t188.5 44.5q198 0 297 -130.5t63 -330.5l-108 -612h-170l110 623q24 134 -34 215.5t-185 81.5q-136 0 -251 -94t-138 -228l-106 -598h-170z" />
    <glyph glyph-name="Omacron" unicode="&#x14c;" horiz-adv-x="1769" 
d="M764 1642l27 136h634l-26 -136h-635zM795 -51q-171 0 -307.5 58.5t-222.5 161t-119 248.5t-3 316q39 220 167 394t320.5 271t416.5 97q171 0 307.5 -58.5t222.5 -161t119.5 -248.5t3.5 -316q-40 -222 -168 -395.5t-320.5 -270t-416.5 -96.5zM803 113q173 0 325 79.5
t254.5 221t133.5 319.5q46 263 -88 430.5t-390 167.5q-174 0 -325.5 -79.5t-253.5 -221t-133 -319.5q-30 -172 19.5 -308.5t169 -213t288.5 -76.5z" />
    <glyph glyph-name="omacron" unicode="&#x14d;" horiz-adv-x="1314" 
d="M465 1233l27 135h634l-26 -135h-635zM567 -41q-247 0 -377 160t-86 409q43 242 221.5 394.5t419.5 152.5q246 0 377 -159.5t88 -409.5q-43 -242 -222.5 -394.5t-420.5 -152.5zM573 113q172 0 305 117.5t164 297.5q31 172 -54.5 283t-248.5 111q-172 0 -304.5 -117.5
t-164.5 -298.5q-31 -172 54.5 -282.5t248.5 -110.5z" />
    <glyph glyph-name="Obreve" unicode="&#x14e;" horiz-adv-x="1769" 
d="M1085 1593q-137 0 -214.5 74.5t-57.5 183.5l166 -10q-10 -58 17.5 -87.5t88.5 -29.5q70 0 117 35t58 92l165 -10q-20 -110 -114.5 -179t-225.5 -69zM795 -51q-171 0 -307.5 58.5t-222.5 161t-119 248.5t-3 316q39 220 167 394t320.5 271t416.5 97q171 0 307.5 -58.5
t222.5 -161t119.5 -248.5t3.5 -316q-40 -222 -168 -395.5t-320.5 -270t-416.5 -96.5zM803 113q173 0 325 79.5t254.5 221t133.5 319.5q46 263 -88 430.5t-390 167.5q-174 0 -325.5 -79.5t-253.5 -221t-133 -319.5q-30 -172 19.5 -308.5t169 -213t288.5 -76.5z" />
    <glyph glyph-name="obreve" unicode="&#x14f;" horiz-adv-x="1314" 
d="M795 1231q-124 0 -191 80t-45 200l141 -10q-12 -67 12.5 -106t82.5 -39q63 0 109.5 43.5t60.5 111.5l139 -10q-22 -120 -108.5 -195t-200.5 -75zM567 -41q-247 0 -377 160t-86 409q43 242 221.5 394.5t419.5 152.5q246 0 377 -159.5t88 -409.5q-43 -242 -222.5 -394.5
t-420.5 -152.5zM573 113q172 0 305 117.5t164 297.5q31 172 -54.5 283t-248.5 111q-172 0 -304.5 -117.5t-164.5 -298.5q-31 -172 54.5 -282.5t248.5 -110.5z" />
    <glyph glyph-name="Ohungarumlaut" unicode="&#x150;" horiz-adv-x="1769" 
d="M815 1616l232 231h208l-260 -231h-180zM1135 1616l243 231h207l-270 -231h-180zM795 -51q-171 0 -307.5 58.5t-222.5 161t-119 248.5t-3 316q39 220 167 394t320.5 271t416.5 97q171 0 307.5 -58.5t222.5 -161t119.5 -248.5t3.5 -316q-40 -222 -168 -395.5t-320.5 -270
t-416.5 -96.5zM803 113q173 0 325 79.5t254.5 221t133.5 319.5q46 263 -88 430.5t-390 167.5q-174 0 -325.5 -79.5t-253.5 -221t-133 -319.5q-30 -172 19.5 -308.5t169 -213t288.5 -76.5z" />
    <glyph glyph-name="ohungarumlaut" unicode="&#x151;" horiz-adv-x="1314" 
d="M537 1214l256 281h188l-283 -281h-161zM1028 1214h-164l271 281h184zM567 -41q-247 0 -377 160t-86 409q43 242 221.5 394.5t419.5 152.5q246 0 377 -159.5t88 -409.5q-43 -242 -222.5 -394.5t-420.5 -152.5zM573 113q172 0 305 117.5t164 297.5q31 172 -54.5 283
t-248.5 111q-172 0 -304.5 -117.5t-164.5 -298.5q-31 -172 54.5 -282.5t248.5 -110.5z" />
    <glyph glyph-name="OE" unicode="&#x152;" horiz-adv-x="2140" 
d="M778 -33q-220 0 -378 96.5t-226 271.5t-29 398q29 163 109 302t195.5 236t263.5 151.5t309 54.5q144 0 254 -35l922 2l-29 -164h-737l-82 -469h653l-29 -156h-653l-86 -491h758l-31 -164l-930 -2q-115 -31 -254 -31zM778 133q159 0 264 37l207 1106q-75 35 -223 35
q-258 0 -454.5 -167.5t-243.5 -432.5q-24 -128 -0.5 -234.5t82 -183t154 -118.5t214.5 -42z" />
    <glyph glyph-name="oe" unicode="&#x153;" horiz-adv-x="2240" 
d="M1681 1075q241 0 370.5 -158t86.5 -401q-4 -12 -12 -61h-916q-10 -156 76 -249t240 -93q118 0 225 56t172 150l131 -81q-84 -133 -226 -206t-312 -73q-152 0 -265 67t-168 185q-90 -118 -224.5 -185t-289.5 -67q-248 0 -377.5 159.5t-85.5 409.5q41 241 220 394t419 153
q154 0 266 -64.5t167 -181.5q89 115 220.5 180.5t282.5 65.5zM575 113q172 0 304.5 117.5t164.5 297.5q31 172 -55.5 283t-249.5 111q-172 0 -304.5 -117.5t-164.5 -298.5q-31 -172 55 -282.5t250 -110.5zM1976 616q3 139 -80.5 222.5t-226.5 83.5q-146 0 -264 -88.5
t-166 -229.5z" />
    <glyph glyph-name="Racute" unicode="&#x154;" horiz-adv-x="1452" 
d="M848 1614l256 231h215l-266 -231h-205zM104 0l254 1444h625q234 0 356.5 -124t87.5 -327q-32 -179 -179 -294t-349 -124h-33l422 -575h-229l-402 565h-268l-98 -565h-187zM420 729h436q156 0 262 78t129 209q22 123 -52.5 193.5t-229.5 70.5h-449z" />
    <glyph glyph-name="racute" unicode="&#x155;" horiz-adv-x="806" 
d="M659 1214h-182l273 291h196zM68 0l182 1034h166l-27 -139l19 4q47 70 130 113t167 43q76 0 124 -31l-16 -152q-64 29 -141 29q-121 0 -215.5 -98t-120.5 -252l-98 -551h-170z" />
    <glyph glyph-name="Rcommaaccent" unicode="&#x156;" horiz-adv-x="1452" 
d="M104 0l254 1444h625q234 0 356.5 -124t87.5 -327q-32 -179 -179 -294t-349 -124h-33l422 -575h-229l-402 565h-268l-98 -565h-187zM420 729h436q156 0 262 78t129 209q22 123 -52.5 193.5t-229.5 70.5h-449zM610 -549l-69 21l110 151q-46 3 -73.5 37.5t-18.5 79.5
q8 44 40.5 72t78.5 28q54 0 82.5 -35t17.5 -88q-8 -46 -33 -82z" />
    <glyph glyph-name="rcommaaccent" unicode="&#x157;" horiz-adv-x="806" 
d="M68 0l182 1034h166l-27 -139l19 4q47 70 130 113t167 43q76 0 124 -31l-16 -152q-64 29 -141 29q-121 0 -215.5 -98t-120.5 -252l-98 -551h-170zM55 -549l-71 21l110 151q-46 3 -72.5 37t-19.5 80q7 44 41 72t78 28q55 0 83 -35t19 -88q-7 -39 -33 -82z" />
    <glyph glyph-name="Rcaron" unicode="&#x158;" horiz-adv-x="1452" 
d="M848 1614l-197 231h170l129 -127h23l174 127h178l-278 -231h-199zM104 0l254 1444h625q234 0 356.5 -124t87.5 -327q-32 -179 -179 -294t-349 -124h-33l422 -575h-229l-402 565h-268l-98 -565h-187zM420 729h436q156 0 262 78t129 209q22 123 -52.5 193.5t-229.5 70.5
h-449z" />
    <glyph glyph-name="rcaron" unicode="&#x159;" horiz-adv-x="806" 
d="M299 1505h160l125 -174h18l184 174h170l-286 -291h-191zM68 0l182 1034h166l-27 -139l19 4q47 70 130 113t167 43q76 0 124 -31l-16 -152q-64 29 -141 29q-121 0 -215.5 -98t-120.5 -252l-98 -551h-170z" />
    <glyph glyph-name="Sacute" unicode="&#x15a;" horiz-adv-x="1404" 
d="M799 1614l256 231h215l-264 -231h-207zM641 -51q-288 0 -430 142t-102 384l184 -12q-29 -167 64 -258.5t292 -91.5q180 0 294 74t136 202q10 55 -6.5 96.5t-40.5 65t-84.5 43.5t-97 27.5t-120.5 21.5q-3 1 -5.5 1.5t-5.5 0.5q-90 14 -155.5 29.5t-139.5 48t-116.5 76
t-64 115t-5.5 163.5q34 193 194.5 305.5t415.5 112.5q269 0 401.5 -133.5t91.5 -362.5l-180 11q31 154 -53.5 237.5t-265.5 83.5q-177 0 -287.5 -72t-132.5 -196q-10 -53 6.5 -93.5t42.5 -63.5t84 -42.5t98 -27.5t119 -21q98 -16 159.5 -30t141.5 -46.5t121.5 -75
t64.5 -115.5t7 -169q-36 -200 -201 -315t-424 -115z" />
    <glyph glyph-name="sacute" unicode="&#x15b;" horiz-adv-x="1116" 
d="M756 1214h-181l271 291h196zM494 -41q-225 0 -333.5 106t-76.5 291l162 -12q-17 -112 51 -177t209 -65q121 0 202.5 50t96.5 137q6 33 -2.5 57.5t-26.5 39t-47.5 24.5t-61.5 15.5t-71 11.5q-33 4 -49 7q-32 3 -59.5 7t-59 10.5t-57 14.5t-53 19t-47 25t-40 32t-31.5 39
t-21 47.5t-8.5 57.5t5.5 68q26 145 151 228t310 83q198 0 303 -98t76 -258l-164 12q17 94 -44 147.5t-179 53.5q-116 0 -198 -51.5t-97 -135.5q-6 -32 2.5 -55.5t27.5 -37.5t48.5 -23.5t63 -15t73.5 -10.5q27 -3 41 -5q68 -8 119.5 -19t108 -35t90.5 -57.5t50.5 -89.5
t4.5 -129q-28 -149 -150.5 -229t-318.5 -80z" />
    <glyph glyph-name="Scircumflex" unicode="&#x15c;" horiz-adv-x="1404" 
d="M838 1845h198l199 -231h-170l-131 127h-21l-174 -127h-178zM641 -51q-288 0 -430 142t-102 384l184 -12q-29 -167 64 -258.5t292 -91.5q180 0 294 74t136 202q10 55 -6.5 96.5t-40.5 65t-84.5 43.5t-97 27.5t-120.5 21.5q-3 1 -5.5 1.5t-5.5 0.5q-90 14 -155.5 29.5
t-139.5 48t-116.5 76t-64 115t-5.5 163.5q34 193 194.5 305.5t415.5 112.5q269 0 401.5 -133.5t91.5 -362.5l-180 11q31 154 -53.5 237.5t-265.5 83.5q-177 0 -287.5 -72t-132.5 -196q-10 -53 6.5 -93.5t42.5 -63.5t84 -42.5t98 -27.5t119 -21q98 -16 159.5 -30t141.5 -46.5
t121.5 -75t64.5 -115.5t7 -169q-36 -200 -201 -315t-424 -115z" />
    <glyph glyph-name="scircumflex" unicode="&#x15d;" horiz-adv-x="1116" 
d="M344 1214l287 291h190l183 -291h-162l-121 177h-21l-186 -177h-170zM494 -41q-225 0 -333.5 106t-76.5 291l162 -12q-17 -112 51 -177t209 -65q121 0 202.5 50t96.5 137q6 33 -2.5 57.5t-26.5 39t-47.5 24.5t-61.5 15.5t-71 11.5q-33 4 -49 7q-32 3 -59.5 7t-59 10.5
t-57 14.5t-53 19t-47 25t-40 32t-31.5 39t-21 47.5t-8.5 57.5t5.5 68q26 145 151 228t310 83q198 0 303 -98t76 -258l-164 12q17 94 -44 147.5t-179 53.5q-116 0 -198 -51.5t-97 -135.5q-6 -32 2.5 -55.5t27.5 -37.5t48.5 -23.5t63 -15t73.5 -10.5q27 -3 41 -5
q68 -8 119.5 -19t108 -35t90.5 -57.5t50.5 -89.5t4.5 -129q-28 -149 -150.5 -229t-318.5 -80z" />
    <glyph glyph-name="Scedilla" unicode="&#x15e;" horiz-adv-x="1404" 
d="M1341 999l-180 11q31 154 -53.5 237.5t-265.5 83.5q-177 0 -287.5 -72t-132.5 -196q-10 -53 6.5 -93.5t42.5 -63.5t84 -42.5t98 -27.5t119 -21q98 -16 159.5 -30t141.5 -46.5t121.5 -75t64.5 -115.5t7 -169q-34 -195 -192.5 -309.5t-407.5 -120.5l-19 -49q93 0 146 -57.5
t38 -143.5q-14 -77 -78.5 -125.5t-156.5 -48.5q-86 0 -143.5 44t-59.5 109l113 15q0 -37 23 -58.5t61 -21.5q50 0 87.5 30.5t45.5 75.5q8 41 -22 67t-87 26h-110l45 141q-244 23 -360.5 161.5t-79.5 360.5l184 -12q-29 -167 64 -258.5t292 -91.5q180 0 294 74t136 202
q10 55 -6.5 96.5t-40.5 65t-84.5 43.5t-97 27.5t-120.5 21.5q-3 1 -5.5 1.5t-5.5 0.5q-90 14 -155.5 29.5t-139.5 48t-116.5 76t-64 115t-5.5 163.5q34 193 194.5 305.5t415.5 112.5q269 0 401.5 -133.5t91.5 -362.5z" />
    <glyph glyph-name="scedilla" unicode="&#x15f;" horiz-adv-x="1116" 
d="M1016 719l-164 12q17 94 -44 147.5t-179 53.5q-116 0 -198 -51.5t-97 -135.5q-6 -32 2.5 -55.5t27.5 -37.5t48.5 -23.5t63 -15t73.5 -10.5q27 -3 41 -5q68 -8 119.5 -19t108 -35t90.5 -57.5t50.5 -89.5t4.5 -129q-28 -147 -148 -227t-313 -82l-23 -59q93 0 145.5 -57.5
t37.5 -143.5q-14 -77 -78 -125.5t-156 -48.5q-87 0 -144 44t-59 109l111 15q0 -37 23 -58.5t61 -21.5q50 0 88 30.5t47 75.5q6 42 -24 67.5t-87 25.5h-110l49 155q-170 25 -248.5 127t-50.5 262l162 -12q-17 -112 51 -177t209 -65q121 0 202.5 50t96.5 137q6 33 -2.5 57.5
t-26.5 39t-47.5 24.5t-61.5 15.5t-71 11.5q-33 4 -49 7q-32 3 -59.5 7t-59 10.5t-57 14.5t-53 19t-47 25t-40 32t-31.5 39t-21 47.5t-8.5 57.5t5.5 68q26 145 151 228t310 83q198 0 303 -98t76 -258z" />
    <glyph glyph-name="Scaron" unicode="&#x160;" horiz-adv-x="1404" 
d="M799 1614l-195 231h168l131 -127h21l176 127h176l-277 -231h-200zM641 -51q-288 0 -430 142t-102 384l184 -12q-29 -167 64 -258.5t292 -91.5q180 0 294 74t136 202q10 55 -6.5 96.5t-40.5 65t-84.5 43.5t-97 27.5t-120.5 21.5q-3 1 -5.5 1.5t-5.5 0.5
q-90 14 -155.5 29.5t-139.5 48t-116.5 76t-64 115t-5.5 163.5q34 193 194.5 305.5t415.5 112.5q269 0 401.5 -133.5t91.5 -362.5l-180 11q31 154 -53.5 237.5t-265.5 83.5q-177 0 -287.5 -72t-132.5 -196q-10 -53 6.5 -93.5t42.5 -63.5t84 -42.5t98 -27.5t119 -21
q98 -16 159.5 -30t141.5 -46.5t121.5 -75t64.5 -115.5t7 -169q-36 -200 -201 -315t-424 -115z" />
    <glyph glyph-name="scaron" unicode="&#x161;" horiz-adv-x="1116" 
d="M395 1505h160l125 -174h20l183 174h172l-287 -291h-190zM494 -41q-225 0 -333.5 106t-76.5 291l162 -12q-17 -112 51 -177t209 -65q121 0 202.5 50t96.5 137q6 33 -2.5 57.5t-26.5 39t-47.5 24.5t-61.5 15.5t-71 11.5q-33 4 -49 7q-32 3 -59.5 7t-59 10.5t-57 14.5
t-53 19t-47 25t-40 32t-31.5 39t-21 47.5t-8.5 57.5t5.5 68q26 145 151 228t310 83q198 0 303 -98t76 -258l-164 12q17 94 -44 147.5t-179 53.5q-116 0 -198 -51.5t-97 -135.5q-6 -32 2.5 -55.5t27.5 -37.5t48.5 -23.5t63 -15t73.5 -10.5q27 -3 41 -5q68 -8 119.5 -19
t108 -35t90.5 -57.5t50.5 -89.5t4.5 -129q-28 -149 -150.5 -229t-318.5 -80z" />
    <glyph glyph-name="uni0162" unicode="&#x162;" horiz-adv-x="1191" 
d="M412 0l227 1280h-479l28 164h1145l-28 -164h-480l-227 -1280h-186zM401 -549l-71 21l112 151q-46 3 -73.5 37.5t-18.5 79.5q6 44 39.5 72t79.5 28q54 0 82.5 -35t17.5 -88q-7 -41 -32 -82z" />
    <glyph glyph-name="uni0163" unicode="&#x163;" horiz-adv-x="800" 
d="M446 -39q-133 0 -198.5 86t-42.5 225l112 627h-167l24 135h166l96 334h135l-59 -334h264l-24 -135h-265l-112 -631q-14 -76 18 -120t103 -44q59 0 131 21l-15 -139q-80 -25 -166 -25zM313 -549l-71 21l110 151q-46 3 -73.5 37.5t-18.5 79.5q7 44 41 72t78 28
q54 0 82.5 -35t19.5 -88q-7 -41 -32 -82z" />
    <glyph glyph-name="Tcaron" unicode="&#x164;" horiz-adv-x="1191" 
d="M694 1614l-196 231h170l131 -127h20l176 127h176l-276 -231h-201zM412 0l227 1280h-479l28 164h1145l-28 -164h-480l-227 -1280h-186z" />
    <glyph glyph-name="tcaron" unicode="&#x165;" horiz-adv-x="800" 
d="M702 1128l-69 19l108 151q-45 5 -73 39t-19 80q8 43 41.5 71t77.5 28q54 0 82.5 -34.5t19.5 -88.5q-4 -42 -32 -80zM446 -39q-133 0 -198.5 86t-42.5 225l112 627h-167l24 135h166l96 334h135l-59 -334h264l-24 -135h-265l-112 -631q-14 -76 18 -120t103 -44q59 0 131 21
l-15 -139q-80 -25 -166 -25z" />
    <glyph glyph-name="Utilde" unicode="&#x168;" horiz-adv-x="1550" 
d="M1114 1634q-54 0 -95.5 18.5t-61.5 40t-46.5 40t-54.5 18.5q-81 0 -154 -98l-81 76q38 63 102.5 99t136.5 36q50 0 90 -18.5t61.5 -40t50.5 -40t60 -18.5q44 0 85 28t71 72l84 -75q-40 -64 -106 -101t-142 -37zM688 -51q-173 0 -297 79t-176.5 219t-21.5 314l155 883h187
l-160 -895q-32 -192 57.5 -314t263.5 -122q180 0 319.5 127t174.5 321l153 883h187l-158 -895q-46 -264 -238 -432t-446 -168z" />
    <glyph glyph-name="utilde" unicode="&#x169;" 
d="M870 1214q-53 0 -94.5 18.5t-62.5 40t-49.5 40t-59.5 18.5q-41 0 -78.5 -22t-62.5 -56l-82 76q39 62 104.5 98.5t135.5 36.5q50 0 90 -18.5t62 -40.5t52.5 -40.5t61.5 -18.5q44 0 84 24t63 60l84 -78q-40 -64 -105.5 -101t-142.5 -37zM1174 1034l-185 -1034h-170l27 141
l-19 -6q-68 -84 -158 -128t-188 -44q-200 0 -298 130t-62 331l106 610h170l-108 -622q-25 -134 33 -214.5t186 -80.5q136 0 250 93t139 228l107 596h170z" />
    <glyph glyph-name="Umacron" unicode="&#x16a;" horiz-adv-x="1550" 
d="M659 1642l25 136h635l-25 -136h-635zM688 -51q-173 0 -297 79t-176.5 219t-21.5 314l155 883h187l-160 -895q-32 -192 57.5 -314t263.5 -122q180 0 319.5 127t174.5 321l153 883h187l-158 -895q-46 -264 -238 -432t-446 -168z" />
    <glyph glyph-name="umacron" unicode="&#x16b;" 
d="M414 1233l24 135h635l-24 -135h-635zM1174 1034l-185 -1034h-170l27 141l-19 -6q-68 -84 -158 -128t-188 -44q-200 0 -298 130t-62 331l106 610h170l-108 -622q-25 -134 33 -214.5t186 -80.5q136 0 250 93t139 228l107 596h170z" />
    <glyph glyph-name="Ubreve" unicode="&#x16c;" horiz-adv-x="1550" 
d="M981 1593q-139 0 -216.5 74.5t-57.5 183.5l165 -10q-10 -58 18.5 -87.5t90.5 -29.5q69 0 116 35t58 92l164 -10q-20 -110 -114.5 -179t-223.5 -69zM688 -51q-173 0 -297 79t-176.5 219t-21.5 314l155 883h187l-160 -895q-32 -192 57.5 -314t263.5 -122q180 0 319.5 127
t174.5 321l153 883h187l-158 -895q-46 -264 -238 -432t-446 -168z" />
    <glyph glyph-name="ubreve" unicode="&#x16d;" 
d="M741 1231q-124 0 -189.5 79.5t-45.5 200.5l141 -10q-12 -67 12 -106t82 -39q64 0 111 44t59 111l140 -10q-20 -119 -107.5 -194.5t-202.5 -75.5zM1174 1034l-185 -1034h-170l27 141l-19 -6q-68 -84 -158 -128t-188 -44q-200 0 -298 130t-62 331l106 610h170l-108 -622
q-25 -134 33 -214.5t186 -80.5q136 0 250 93t139 228l107 596h170z" />
    <glyph glyph-name="Uring" unicode="&#x16e;" horiz-adv-x="1550" 
d="M977 1575q-94 0 -144.5 58t-35.5 147q13 79 76.5 129.5t148.5 50.5q93 0 142 -57.5t34 -147.5q-14 -79 -75.5 -129.5t-145.5 -50.5zM969 1657q52 0 93 35t50 88q7 44 -16 71t-66 27q-54 0 -94 -34.5t-49 -88.5q-8 -43 15 -70.5t67 -27.5zM688 -51q-173 0 -297 79
t-176.5 219t-21.5 314l155 883h187l-160 -895q-32 -192 57.5 -314t263.5 -122q180 0 319.5 127t174.5 321l153 883h187l-158 -895q-46 -264 -238 -432t-446 -168z" />
    <glyph glyph-name="uring" unicode="&#x16f;" 
d="M735 1204q-101 0 -156 64t-38 162q15 89 85.5 144.5t164.5 55.5q102 0 155.5 -63t36.5 -162q-15 -88 -84 -144.5t-164 -56.5zM729 1286q61 0 109 41t59 103q9 54 -18.5 86t-81.5 32q-63 0 -110.5 -40t-57.5 -103q-9 -53 18.5 -86t81.5 -33zM1174 1034l-185 -1034h-170
l27 141l-19 -6q-68 -84 -158 -128t-188 -44q-200 0 -298 130t-62 331l106 610h170l-108 -622q-25 -134 33 -214.5t186 -80.5q136 0 250 93t139 228l107 596h170z" />
    <glyph glyph-name="Uhungarumlaut" unicode="&#x170;" horiz-adv-x="1550" 
d="M709 1616l231 231h209l-258 -231h-182zM1028 1616l244 231h207l-271 -231h-180zM688 -51q-173 0 -297 79t-176.5 219t-21.5 314l155 883h187l-160 -895q-32 -192 57.5 -314t263.5 -122q180 0 319.5 127t174.5 321l153 883h187l-158 -895q-46 -264 -238 -432t-446 -168z
" />
    <glyph glyph-name="uhungarumlaut" unicode="&#x171;" 
d="M483 1214l256 281h189l-283 -281h-162zM975 1214h-162l268 281h185zM1174 1034l-185 -1034h-170l27 141l-19 -6q-68 -84 -158 -128t-188 -44q-200 0 -298 130t-62 331l106 610h170l-108 -622q-25 -134 33 -214.5t186 -80.5q136 0 250 93t139 228l107 596h170z" />
    <glyph glyph-name="Uogonek" unicode="&#x172;" horiz-adv-x="1550" 
d="M1343 1444h187l-158 -895q-36 -207 -165 -358.5t-314 -210.5q-107 -47 -171 -105t-73 -115q-7 -34 10.5 -52.5t55.5 -18.5q56 0 133 45l-8 -105q-76 -39 -152 -39q-73 0 -112 47t-25 121q15 100 135 191q-172 0 -295.5 79t-176 219t-21.5 314l155 883h187l-160 -895
q-32 -192 57.5 -314t263.5 -122q180 0 319.5 127t174.5 321z" />
    <glyph glyph-name="uogonek" unicode="&#x173;" 
d="M1174 1034l-185 -1034h-33l2 -2q-126 -51 -199.5 -113t-84.5 -125q-6 -34 10.5 -52.5t54.5 -18.5q56 0 133 45l-8 -105q-73 -39 -151 -39q-74 0 -112.5 47.5t-25.5 120.5q22 142 248 258l23 125l-19 -6q-68 -84 -158 -128t-188 -44q-200 0 -298 130t-62 331l106 610h170
l-108 -622q-25 -134 33 -214.5t186 -80.5q136 0 250 93t139 228l107 596h170z" />
    <glyph glyph-name="Wcircumflex" unicode="&#x174;" horiz-adv-x="2228" 
d="M1251 1845h201l197 -231h-170l-131 127h-21l-174 -127h-178zM428 0l-164 1444h176l142 -1286h20l555 1286h242l98 -1286h21l596 1286h182l-674 -1444h-287l-86 1219h-20l-514 -1219h-287z" />
    <glyph glyph-name="wcircumflex" unicode="&#x175;" horiz-adv-x="1720" 
d="M657 1214l285 291h191l184 -291h-164l-121 177h-18l-189 -177h-168zM301 0l-164 1034h166l135 -866h19l385 866h217l84 -868h18l436 868h170l-528 -1034h-244l-67 838h-21l-364 -838h-242z" />
    <glyph glyph-name="Ycircumflex" unicode="&#x176;" horiz-adv-x="1351" 
d="M811 1845h201l196 -231h-168l-133 127h-18l-176 -127h-176zM494 0l94 528l-361 916h193l280 -737h19l532 737h205l-682 -916l-94 -528h-186z" />
    <glyph glyph-name="ycircumflex" unicode="&#x177;" horiz-adv-x="1091" 
d="M360 1214l285 291h191l184 -291h-164l-121 177h-18l-189 -177h-168zM96 -459q-85 0 -164 35l19 145q64 -28 125 -28q39 0 74 14.5t59.5 33.5t54 56.5t45 62.5t45 74.5t43.5 71.5l-276 1028h174l211 -809h18l449 809h184l-596 -1057l-1 -1v-1l-1 -1v-1l-1 -1v-1l-1 -1
l-1 -1v-1l-1 -1q-108 -189 -167 -263q-122 -152 -268 -162q-12 -1 -24 -1z" />
    <glyph glyph-name="Ydieresis" unicode="&#x178;" horiz-adv-x="1351" 
d="M645 1618q-57 0 -87 37t-21 96q9 49 45 79t86 30q58 0 88.5 -37t21.5 -94q-9 -50 -45.5 -80.5t-87.5 -30.5zM1118 1618q-58 0 -88.5 37t-19.5 96q9 50 44.5 79.5t86.5 29.5q57 0 87.5 -37t20.5 -94q-7 -49 -44 -80t-87 -31zM494 0l94 528l-361 916h193l280 -737h19
l532 737h205l-682 -916l-94 -528h-186z" />
    <glyph glyph-name="Zacute" unicode="&#x179;" horiz-adv-x="1343" 
d="M807 1614l254 231h215l-264 -231h-205zM8 0l15 86l1054 1174l6 20h-827l29 164h1101l-14 -84l-1055 -1176l-4 -20h869l-31 -164h-1143z" />
    <glyph glyph-name="zacute" unicode="&#x17a;" horiz-adv-x="1064" 
d="M776 1214h-182l270 291h197zM-27 0l13 74l774 788l6 19h-614l26 153h893l-12 -73l-772 -787l-6 -20h653l-27 -154h-934z" />
    <glyph glyph-name="Zdotaccent" unicode="&#x17b;" horiz-adv-x="1343" 
d="M915 1618q-58 0 -88.5 37t-19.5 96q7 49 43 79t86 30q59 0 90 -37t21 -94q-9 -49 -45.5 -80t-86.5 -31zM8 0l15 86l1054 1174l6 20h-827l29 164h1101l-14 -84l-1055 -1176l-4 -20h869l-31 -164h-1143z" />
    <glyph glyph-name="zdotaccent" unicode="&#x17c;" horiz-adv-x="1064" 
d="M707 1231q-59 0 -90 37.5t-21 95.5q9 50 44.5 79.5t86.5 29.5q57 0 88 -37.5t21 -94.5q-7 -49 -43 -79.5t-86 -30.5zM-27 0l13 74l774 788l6 19h-614l26 153h893l-12 -73l-772 -787l-6 -20h653l-27 -154h-934z" />
    <glyph glyph-name="Zcaron" unicode="&#x17d;" horiz-adv-x="1343" 
d="M807 1614l-197 231h170l129 -127h23l174 127h178l-278 -231h-199zM8 0l15 86l1054 1174l6 20h-827l29 164h1101l-14 -84l-1055 -1176l-4 -20h869l-31 -164h-1143z" />
    <glyph glyph-name="zcaron" unicode="&#x17e;" horiz-adv-x="1064" 
d="M414 1505h161l123 -174h21l184 174h170l-287 -291h-190zM-27 0l13 74l774 788l6 19h-614l26 153h893l-12 -73l-772 -787l-6 -20h653l-27 -154h-934z" />
    <glyph glyph-name="AEacute" unicode="&#x1fc;" horiz-adv-x="1904" 
d="M1122 1614l256 231h215l-266 -231h-205zM-33 0l989 1444h1008l-29 -164h-669l-82 -459h590l-27 -153h-590l-88 -504h688l-28 -164h-877l51 291h-522l-203 -291h-211zM483 444h447l149 854h-16z" />
    <glyph glyph-name="aeacute" unicode="&#x1fd;" horiz-adv-x="1949" 
d="M1167 1214h-182l272 291h197zM639 1079q142 0 240 -55.5t131 -146.5q182 198 426 198q147 0 251 -72t146 -199.5t14 -287.5q-4 -29 -12 -59h-831q-7 -157 67.5 -250.5t206.5 -93.5q101 0 194 54t158 150l131 -81q-79 -124 -209.5 -200.5t-267.5 -76.5q-154 0 -261.5 82.5
t-137.5 212.5q-65 -132 -203.5 -209.5t-304.5 -77.5q-179 0 -274 88t-70 230q26 138 160.5 224.5t363.5 111.5l299 30l8 54q19 105 -42.5 163t-186.5 58q-115 0 -201 -59.5t-100 -147.5l-170 10q28 155 161 252.5t314 97.5zM1421 922q-130 0 -234.5 -89t-152.5 -231l652 12
q5 140 -66.5 224t-198.5 84zM545 485q-154 -17 -242 -76.5t-104 -144.5q-12 -74 44.5 -116t155.5 -42q157 0 274.5 93.5t141.5 226.5l16 92z" />
    <glyph glyph-name="Oslashacute" unicode="&#x1fe;" horiz-adv-x="1730" 
d="M885 1614l254 231h215l-264 -231h-205zM152 -287l237 344q-151 98 -217 275.5t-27 400.5q39 218 165 392t314.5 272t403.5 98q164 0 287 -57l225 323h178l-272 -397q135 -102 193 -272.5t22 -380.5q-40 -218 -166.5 -392t-315 -272t-403.5 -98q-138 0 -256 43l-190 -279
h-178zM481 207l746 1083q-93 41 -207 41q-167 0 -314.5 -80t-247 -221.5t-130.5 -318.5q-29 -161 11.5 -292.5t141.5 -211.5zM784 113q166 0 313.5 79.5t248 221.5t131.5 319q26 151 -8 274.5t-121 206.5l-738 -1075q79 -26 174 -26z" />
    <glyph glyph-name="oslashacute" unicode="&#x1ff;" horiz-adv-x="1327" 
d="M829 1214h-182l271 291h196zM141 -164l144 203q-111 72 -159.5 199t-19.5 290q41 241 222.5 394t423.5 153q115 0 202 -35l131 189h166l-178 -254q95 -75 135 -197t13 -272q-41 -241 -222.5 -394t-423.5 -153q-88 0 -165 23l-103 -146h-166zM356 158l529 764
q-59 22 -135 22q-183 0 -322.5 -123.5t-173.5 -314.5q-19 -109 8 -199.5t94 -148.5zM578 90q181 0 320 123.5t173 314.5q34 196 -78 324l-516 -752q44 -10 101 -10z" />
    <glyph glyph-name="Scommaaccent" unicode="&#x218;" horiz-adv-x="1404" 
d="M641 -51q-288 0 -430 142t-102 384l184 -12q-29 -167 64 -258.5t292 -91.5q180 0 294 74t136 202q10 55 -6.5 96.5t-40.5 65t-84.5 43.5t-97 27.5t-120.5 21.5q-3 1 -5.5 1.5t-5.5 0.5q-90 14 -155.5 29.5t-139.5 48t-116.5 76t-64 115t-5.5 163.5q34 193 194.5 305.5
t415.5 112.5q269 0 401.5 -133.5t91.5 -362.5l-180 11q31 154 -53.5 237.5t-265.5 83.5q-177 0 -287.5 -72t-132.5 -196q-10 -53 6.5 -93.5t42.5 -63.5t84 -42.5t98 -27.5t119 -21q98 -16 159.5 -30t141.5 -46.5t121.5 -75t64.5 -115.5t7 -169q-36 -200 -201 -315t-424 -115
zM526 -549l-69 21l110 151q-46 3 -73.5 37.5t-18.5 79.5q8 44 40.5 72t78.5 28q54 0 82.5 -35t17.5 -88q-8 -48 -32 -82z" />
    <glyph glyph-name="scommaaccent" unicode="&#x219;" horiz-adv-x="1116" 
d="M494 -41q-225 0 -333.5 106t-76.5 291l162 -12q-17 -112 51 -177t209 -65q121 0 202.5 50t96.5 137q6 33 -2.5 57.5t-26.5 39t-47.5 24.5t-61.5 15.5t-71 11.5q-33 4 -49 7q-32 3 -59.5 7t-59 10.5t-57 14.5t-53 19t-47 25t-40 32t-31.5 39t-21 47.5t-8.5 57.5t5.5 68
q26 145 151 228t310 83q198 0 303 -98t76 -258l-164 12q17 94 -44 147.5t-179 53.5q-116 0 -198 -51.5t-97 -135.5q-6 -32 2.5 -55.5t27.5 -37.5t48.5 -23.5t63 -15t73.5 -10.5q27 -3 41 -5q68 -8 119.5 -19t108 -35t90.5 -57.5t50.5 -89.5t4.5 -129q-28 -149 -150.5 -229
t-318.5 -80zM358 -549l-71 21l110 151q-46 3 -73.5 37.5t-18.5 79.5q7 44 41 72t78 28q54 0 82.5 -35t17.5 -88q-4 -41 -32 -82z" />
    <glyph glyph-name="uni021A" unicode="&#x21a;" horiz-adv-x="1191" 
d="M412 0l227 1280h-479l28 164h1145l-28 -164h-480l-227 -1280h-186zM401 -549l-71 21l112 151q-46 3 -73.5 37.5t-18.5 79.5q6 44 39.5 72t79.5 28q54 0 82.5 -35t17.5 -88q-7 -41 -32 -82z" />
    <glyph glyph-name="uni021B" unicode="&#x21b;" horiz-adv-x="800" 
d="M446 -39q-133 0 -198.5 86t-42.5 225l112 627h-167l24 135h166l96 334h135l-59 -334h264l-24 -135h-265l-112 -631q-14 -76 18 -120t103 -44q59 0 131 21l-15 -139q-80 -25 -166 -25zM313 -549l-71 21l110 151q-46 3 -73.5 37.5t-18.5 79.5q7 44 41 72t78 28
q54 0 82.5 -35t19.5 -88q-7 -41 -32 -82z" />
    <glyph glyph-name="circumflex" unicode="&#x2c6;" horiz-adv-x="866" 
d="M225 1214l285 291h190l183 -291h-162l-123 177h-18l-187 -177h-168z" />
    <glyph glyph-name="caron" unicode="&#x2c7;" horiz-adv-x="866" 
d="M281 1505h159l123 -174h21l184 174h172l-289 -291h-190z" />
    <glyph glyph-name="breve" unicode="&#x2d8;" horiz-adv-x="753" 
d="M512 1231q-122 0 -187.5 79.5t-45.5 200.5l141 -10q-12 -67 13 -106t81 -39q65 0 111.5 44t58.5 111l139 -10q-22 -120 -108 -195t-203 -75z" />
    <glyph glyph-name="dotaccent" unicode="&#x2d9;" horiz-adv-x="450" 
d="M362 1231q-58 0 -88.5 37t-19.5 96q7 49 43 79t86 30q58 0 90 -37.5t21 -94.5q-9 -49 -45.5 -79.5t-86.5 -30.5z" />
    <glyph glyph-name="ring" unicode="&#x2da;" horiz-adv-x="653" 
d="M461 1204q-103 0 -158.5 64t-38.5 162q15 89 84.5 144.5t163.5 55.5q103 0 157.5 -63.5t35.5 -161.5q-14 -88 -82 -144.5t-162 -56.5zM453 1286q60 0 107 41t58 103q10 54 -17 86t-81 32q-62 0 -110 -40t-58 -103q-9 -53 18.5 -86t82.5 -33z" />
    <glyph glyph-name="ogonek" unicode="&#x2db;" horiz-adv-x="542" 
d="M106 -410q-73 0 -111 47t-26 121q14 83 102 161.5t248 143.5l33 -65q-124 -51 -198 -113t-86 -125q-9 -71 67 -71q56 0 133 45l-10 -105q-73 -39 -152 -39z" />
    <glyph glyph-name="tilde" unicode="&#x2dc;" horiz-adv-x="935" 
d="M735 1214q-53 0 -94.5 18.5t-62.5 40t-49.5 40t-59.5 18.5q-41 0 -78.5 -22t-62.5 -56l-84 76q41 63 106 99t135 36q41 0 74.5 -12t56 -29.5t42.5 -35t44 -29.5t50 -12q44 0 84 24t63 60l84 -78q-40 -64 -105.5 -101t-142.5 -37z" />
    <glyph glyph-name="hungarumlaut" unicode="&#x2dd;" horiz-adv-x="935" 
d="M225 1214l256 281h189l-283 -281h-162zM715 1214h-162l268 281h187z" />
    <glyph glyph-name="uni0401" unicode="&#x401;" horiz-adv-x="1308" 
d="M662 1618q-57 0 -87.5 37t-21.5 96q9 49 45 79t86 30q58 0 89 -37t22 -94q-9 -50 -45.5 -80.5t-87.5 -30.5zM1135 1618q-58 0 -89 37t-20 96q9 50 44.5 79.5t86.5 29.5q57 0 88 -37t21 -94q-7 -49 -44 -80t-87 -31zM104 0l254 1444h992l-29 -164h-805l-80 -451h723
l-29 -163h-722l-86 -502h823l-31 -164h-1010z" />
    <glyph glyph-name="uni0402" unicode="&#x402;" horiz-adv-x="1415" 
d="M758 -35q-101 0 -176 23l16 139q57 -14 129 -14q143 0 240.5 81t124.5 236l24 127q30 181 -40 273t-230 92q-171 0 -302.5 -106t-162.5 -290l-94 -526h-170l229 1290h-184l26 154h543l-26 -154h-189l-78 -436l17 6q70 112 182 163.5t237 51.5q233 0 343 -140.5t67 -389.5
l-22 -131q-40 -219 -174.5 -334t-329.5 -115z" />
    <glyph glyph-name="uni0403" unicode="&#x403;" horiz-adv-x="1234" 
d="M721 1614l256 231h215l-264 -231h-207zM102 0l254 1444h969l-29 -164h-782l-225 -1280h-187z" />
    <glyph glyph-name="uni0404" unicode="&#x404;" horiz-adv-x="1683" 
d="M791 -51q-168 0 -304 59t-221 162.5t-119 249.5t-4 313q39 218 167 392.5t319.5 272t410.5 97.5q133 0 248 -43t195 -117.5t124.5 -176t43.5 -216.5l-174 -10q-6 172 -129.5 285.5t-309.5 113.5q-241 0 -433.5 -148t-258.5 -382l840 6l-29 -166l-842 -4
q-15 -233 119.5 -378.5t368.5 -145.5q196 0 366 116t234 285l170 -37q-76 -227 -296.5 -377.5t-485.5 -150.5z" />
    <glyph glyph-name="uni0405" unicode="&#x405;" horiz-adv-x="1404" 
d="M641 -51q-288 0 -430 142t-102 384l184 -12q-29 -167 64 -258.5t292 -91.5q180 0 294 74t136 202q10 55 -6.5 96.5t-40.5 65t-84.5 43.5t-97 27.5t-120.5 21.5q-3 1 -5.5 1.5t-5.5 0.5q-90 14 -155.5 29.5t-139.5 48t-116.5 76t-64 115t-5.5 163.5q34 193 194.5 305.5
t415.5 112.5q269 0 401.5 -133.5t91.5 -362.5l-180 11q31 154 -53.5 237.5t-265.5 83.5q-177 0 -287.5 -72t-132.5 -196q-10 -53 6.5 -93.5t42.5 -63.5t84 -42.5t98 -27.5t119 -21q98 -16 159.5 -30t141.5 -46.5t121.5 -75t64.5 -115.5t7 -169q-36 -200 -201 -315t-424 -115
z" />
    <glyph glyph-name="uni0406" unicode="&#x406;" horiz-adv-x="575" 
d="M102 0l254 1444h189l-254 -1444h-189z" />
    <glyph glyph-name="uni0407" unicode="&#x407;" horiz-adv-x="577" 
d="M258 1618q-57 0 -87.5 37.5t-20.5 95.5q7 49 43.5 79t87.5 30q57 0 87 -37t21 -94q-9 -50 -44.5 -80.5t-86.5 -30.5zM731 1618q-59 0 -89.5 37.5t-20.5 95.5q9 50 44.5 79.5t86.5 29.5q57 0 87.5 -37t20.5 -94q-7 -49 -43 -80t-86 -31zM104 0l256 1444h187l-256 -1444
h-187z" />
    <glyph glyph-name="uni0408" unicode="&#x408;" horiz-adv-x="978" 
d="M256 -41q-129 0 -260 43l16 156q126 -35 213 -35q134 0 233.5 87t123.5 230l178 1004h186l-180 -1016q-36 -211 -178.5 -340t-331.5 -129z" />
    <glyph glyph-name="uni0409" unicode="&#x409;" horiz-adv-x="2308" 
d="M-25 0l19 164q154 0 244 90t145 299l244 891h901l-107 -596h383q135 0 234.5 -55.5t144.5 -154.5t23 -222q-32 -183 -183.5 -299.5t-357.5 -116.5h-580l228 1280h-547l-227 -827q-61 -224 -204.5 -338.5t-359.5 -114.5zM1305 164h348q138 0 243 76t127 192
q19 110 -55.5 180t-212.5 70h-360z" />
    <glyph glyph-name="uni040A" unicode="&#x40a;" horiz-adv-x="2152" 
d="M102 0l254 1444h187l-107 -604h645l109 604h186l-106 -604h383q203 0 317 -121.5t80 -306.5q-32 -182 -181 -297t-353 -115h-582l119 674h-645l-119 -674h-187zM1153 164h350q137 0 240 74.5t125 189.5q19 109 -54.5 177.5t-209.5 68.5h-361z" />
    <glyph glyph-name="uni040B" unicode="&#x40b;" horiz-adv-x="1415" 
d="M117 0l229 1290h-184l26 154h543l-26 -154h-189l-78 -436l17 6q70 112 182 163.5t237 51.5q233 0 343 -140.5t67 -389.5l-96 -539h-170l98 551q30 181 -40 273t-230 92q-171 0 -302.5 -106t-162.5 -290l-94 -526h-170z" />
    <glyph glyph-name="uni040C" unicode="&#x40c;" horiz-adv-x="1296" 
d="M815 1614l256 231h215l-264 -231h-207zM102 0l256 1444h187l-111 -631h19l708 631h238l-799 -699l559 -745h-231l-496 678h-22l-119 -678h-189z" />
    <glyph glyph-name="uni040E" unicode="&#x40e;" horiz-adv-x="1374" 
d="M907 1593q-137 0 -215 74.5t-59 183.5l166 -10q-10 -58 18 -87.5t90 -29.5q69 0 116 35t58 92l164 -10q-19 -110 -113.5 -179t-224.5 -69zM217 -41q-119 0 -186 29l20 159q55 -22 139 -22q108 0 198 64.5t206 242.5l39 55l-395 957h194l313 -764h21l514 764h199
l-693 -1036q-123 -184 -208 -277t-167.5 -132.5t-193.5 -39.5z" />
    <glyph glyph-name="uni040F" unicode="&#x40f;" horiz-adv-x="1540" 
d="M530 -307l54 307h-482l254 1444h187l-224 -1280h779l225 1280h186l-254 -1444h-485l-53 -307h-187z" />
    <glyph glyph-name="uni0410" unicode="&#x410;" horiz-adv-x="1460" 
d="M-31 0l799 1444h254l287 -1444h-179l-65 324h-735l-180 -324h-181zM412 477h626l-159 803h-19z" />
    <glyph glyph-name="uni0411" unicode="&#x411;" horiz-adv-x="1384" 
d="M102 0l254 1444h1004l-29 -162h-817l-68 -393h402q241 0 358 -122t80 -333q-37 -202 -196 -318t-404 -116h-584zM319 164h355q174 0 289.5 80t138.5 213q23 122 -58.5 195t-246.5 73h-379z" />
    <glyph glyph-name="uni0412" unicode="&#x412;" horiz-adv-x="1427" 
d="M102 0l256 1444h623q198 0 310 -113.5t81 -286.5q-17 -98 -88 -178.5t-166 -109.5l-16 -21q107 -31 162.5 -126.5t33.5 -215.5q-19 -112 -97.5 -202t-201 -140.5t-264.5 -50.5h-633zM434 823h416q128 0 225.5 68t116.5 172q15 96 -54.5 156.5t-197.5 60.5h-426zM319 164
h410q148 0 259.5 74.5t131.5 187.5q19 103 -63.5 168t-231.5 65h-419z" />
    <glyph glyph-name="uni0413" unicode="&#x413;" horiz-adv-x="1222" 
d="M102 0l254 1444h969l-29 -164h-782l-225 -1280h-187z" />
    <glyph glyph-name="uni0414" unicode="&#x414;" horiz-adv-x="1718" 
d="M-104 -307l84 471l137 4q110 73 187.5 185t127.5 276l252 815h920l-226 -1280h219l-84 -471h-170l56 307h-1282l-54 -307h-167zM334 164h858l197 1116h-566l-221 -698q-43 -140 -108 -235t-156 -167z" />
    <glyph glyph-name="uni0415" unicode="&#x415;" horiz-adv-x="1308" 
d="M104 0l254 1444h992l-29 -164h-805l-80 -451h723l-29 -163h-722l-86 -502h823l-31 -164h-1010z" />
    <glyph glyph-name="uni0416" unicode="&#x416;" horiz-adv-x="2025" 
d="M-33 0l815 745l-536 699h229l475 -637h21l112 637h187l-113 -637h19l700 637h235l-786 -699l547 -745h-230l-483 684h-22l-121 -684h-187l121 684h-18l-727 -684h-238z" />
    <glyph glyph-name="uni0417" unicode="&#x417;" horiz-adv-x="1327" 
d="M600 -51q-263 0 -401.5 154t-96.5 389l181 -11q-28 -164 59.5 -266t261.5 -102q160 0 282.5 83.5t145.5 211.5q20 116 -62 189t-233 73h-186l29 164h186q127 0 225 74t117 184q20 106 -60 172.5t-219 66.5q-163 0 -280.5 -94t-142.5 -238l-183 13q38 215 207.5 349
t407.5 134q225 0 354.5 -116.5t97.5 -297.5q-20 -117 -99 -200t-196 -113l-16 -20q125 -25 191.5 -131t41.5 -248q-32 -182 -206.5 -301t-405.5 -119z" />
    <glyph glyph-name="uni0418" unicode="&#x418;" horiz-adv-x="1546" 
d="M1257 0h-186l213 1198h-18l-895 -1198h-269l254 1444h187l-211 -1198h18l895 1198h268z" />
    <glyph glyph-name="uni0419" unicode="&#x419;" horiz-adv-x="1546" 
d="M1016 1593q-137 0 -215 74.5t-58 183.5l166 -10q-10 -58 18 -87.5t89 -29.5q70 0 116.5 34.5t57.5 92.5l166 -10q-20 -110 -114.5 -179t-225.5 -69zM358 1444h187l-211 -1198h18l895 1198h269l-256 -1444h-187l213 1200h-18l-895 -1200h-271z" />
    <glyph glyph-name="uni041A" unicode="&#x41a;" horiz-adv-x="1296" 
d="M102 0l256 1444h187l-111 -631h19l708 631h238l-799 -699l559 -745h-231l-496 678h-22l-119 -678h-189z" />
    <glyph glyph-name="uni041B" unicode="&#x41b;" horiz-adv-x="1556" 
d="M-25 0l19 164q154 0 244 90t145 299l244 891h901l-256 -1444h-187l228 1280h-547l-227 -827q-61 -224 -204.5 -338.5t-359.5 -114.5z" />
    <glyph glyph-name="uni041C" unicode="&#x41c;" horiz-adv-x="1951" 
d="M102 0l254 1444h293l269 -1184h20l686 1184h295l-254 -1444h-186l213 1208h-19l-700 -1208h-178l-273 1206h-20l-213 -1206h-187z" />
    <glyph glyph-name="uni041D" unicode="&#x41d;" horiz-adv-x="1540" 
d="M102 0l254 1444h187l-107 -608h781l106 608h186l-254 -1444h-186l119 672h-780l-119 -672h-187z" />
    <glyph glyph-name="uni041E" unicode="&#x41e;" horiz-adv-x="1769" 
d="M795 -51q-171 0 -307.5 58.5t-222.5 161t-119 248.5t-3 316q39 220 167 394t320.5 271t416.5 97q171 0 307.5 -58.5t222.5 -161t119.5 -248.5t3.5 -316q-40 -222 -168 -395.5t-320.5 -270t-416.5 -96.5zM803 113q173 0 325 79.5t254.5 221t133.5 319.5q46 263 -88 430.5
t-390 167.5q-174 0 -325.5 -79.5t-253.5 -221t-133 -319.5q-30 -172 19.5 -308.5t169 -213t288.5 -76.5z" />
    <glyph glyph-name="uni041F" unicode="&#x41f;" horiz-adv-x="1533" 
d="M102 0l254 1444h1149l-256 -1444h-186l229 1290h-776l-227 -1290h-187z" />
    <glyph glyph-name="uni0420" unicode="&#x420;" horiz-adv-x="1374" 
d="M102 0l256 1444h570q238 0 360 -122t86 -331q-38 -199 -199.5 -315.5t-392.5 -116.5h-399l-98 -559h-183zM414 725h387q158 0 263 78t128 211q22 123 -52.5 194.5t-228.5 71.5h-399z" />
    <glyph glyph-name="uni0421" unicode="&#x421;" horiz-adv-x="1644" 
d="M766 -51q-217 0 -373.5 101t-222 280.5t-25.5 402.5q39 218 163.5 392t310 272t397.5 98q246 0 416.5 -151t185.5 -379l-182 -13q-10 165 -131.5 272t-294.5 107q-165 0 -310 -80t-243 -221.5t-129 -318.5q-30 -171 15.5 -307.5t157.5 -213.5t271 -77q177 0 341.5 107.5
t238.5 268.5l174 -47q-92 -215 -306.5 -354t-453.5 -139z" />
    <glyph glyph-name="uni0422" unicode="&#x422;" horiz-adv-x="1191" 
d="M412 0l227 1280h-479l28 164h1145l-28 -164h-480l-227 -1280h-186z" />
    <glyph glyph-name="uni0423" unicode="&#x423;" horiz-adv-x="1374" 
d="M217 -41q-119 0 -186 29l20 159q55 -22 139 -22q108 0 198 64.5t206 242.5l39 55l-395 957h194l313 -764h21l514 764h199l-693 -1036q-123 -184 -208 -277t-167.5 -132.5t-193.5 -39.5z" />
    <glyph glyph-name="uni0424" unicode="&#x424;" horiz-adv-x="1701" 
d="M653 -61l37 170q-199 7 -339.5 93.5t-198.5 227t-29 309.5q22 124 88.5 234t166 192.5t234.5 132.5t287 54l33 153h186l-33 -153q151 -2 270 -52.5t191 -136t101 -200.5t6 -246q-30 -168 -134 -304.5t-272.5 -218.5t-369.5 -85l-37 -170h-187zM709 272l172 914
q-217 -6 -379 -142.5t-197 -324.5q-20 -116 21.5 -215.5t142 -163t240.5 -68.5zM895 272q143 0 268 65t204.5 171.5t102.5 232.5q16 89 -4.5 170t-72 142t-136 97t-190.5 36z" />
    <glyph glyph-name="uni0425" unicode="&#x425;" horiz-adv-x="1456" 
d="M-14 0l657 764l-377 680h207l299 -572h21l514 572h215l-635 -680l395 -764h-205l-321 641h-21l-536 -641h-213z" />
    <glyph glyph-name="uni0426" unicode="&#x426;" horiz-adv-x="1638" 
d="M1247 -309l53 309h-1198l254 1444h187l-226 -1282h781l227 1282h186l-227 -1282h232l-82 -471h-187z" />
    <glyph glyph-name="uni0427" unicode="&#x427;" horiz-adv-x="1433" 
d="M963 0l116 645q-76 -86 -195 -135t-237 -49q-112 0 -201 33t-149.5 96t-83 162t-0.5 223l82 469h186l-82 -459q-32 -188 51 -279.5t246 -91.5q107 0 225 65t187 161l109 604h186l-254 -1444h-186z" />
    <glyph glyph-name="uni0428" unicode="&#x428;" horiz-adv-x="2029" 
d="M102 0l254 1444h187l-224 -1280h541l225 1280h187l-225 -1280h540l225 1280h187l-256 -1444h-1641z" />
    <glyph glyph-name="uni0429" unicode="&#x429;" horiz-adv-x="2142" 
d="M1751 -307l53 307h-1702l254 1444h187l-224 -1280h541l225 1280h187l-225 -1280h540l225 1280h187l-225 -1280h247l-84 -471h-186z" />
    <glyph glyph-name="uni042A" unicode="&#x42a;" horiz-adv-x="1525" 
d="M233 0l228 1286h-264l28 158h451l-88 -506h413q148 0 255.5 -65t153 -175t22.5 -241q-34 -194 -198 -325.5t-386 -131.5h-615zM455 164h381q155 0 271.5 89t141.5 226q22 128 -60.5 210.5t-236.5 82.5h-391z" />
    <glyph glyph-name="uni042B" unicode="&#x42b;" horiz-adv-x="1943" 
d="M102 0l254 1444h187l-88 -506h411q147 0 254 -65t152 -175t22 -241q-17 -94 -68.5 -177.5t-127 -145.5t-176.5 -98t-211 -36h-609zM1473 0l256 1444h186l-256 -1444h-186zM319 164h379q155 0 273 90t141 225q22 128 -60.5 210.5t-236.5 82.5h-389z" />
    <glyph glyph-name="uni042C" unicode="&#x42c;" horiz-adv-x="1390" 
d="M102 0l254 1444h187l-88 -506h411q147 0 254 -65t152 -175t22 -241q-17 -94 -68.5 -177.5t-127 -145.5t-176.5 -98t-211 -36h-609zM319 164h379q155 0 273 90t141 225q22 128 -60.5 210.5t-236.5 82.5h-389z" />
    <glyph glyph-name="uni042D" unicode="&#x42d;" horiz-adv-x="1683" 
d="M719 -51q-136 0 -252.5 42t-197 114t-125.5 172t-44 212l174 13q6 -168 131 -278.5t316 -110.5q240 0 432 151t256 383l-840 -6l29 166l842 6q17 231 -117.5 374.5t-366.5 143.5q-194 0 -364.5 -118t-237.5 -291l-170 32q79 233 300 387t485 154q168 0 303.5 -59
t220 -162t118 -249t3.5 -314q-39 -218 -167 -392.5t-319 -272t-409 -97.5z" />
    <glyph glyph-name="uni042E" unicode="&#x42e;" horiz-adv-x="2113" 
d="M1214 -49q-295 0 -457.5 191.5t-131.5 504.5l-224 -4l-112 -643h-187l254 1444h187l-113 -637l223 6q78 310 301 496t512 186q155 0 277.5 -55.5t198.5 -158t105 -247.5t-3 -323q-40 -228 -160 -401.5t-294 -266t-376 -92.5zM1223 115q233 0 410.5 169t226.5 449
q49 273 -63.5 435.5t-338.5 162.5q-233 0 -411.5 -169.5t-227.5 -450.5q-47 -271 66 -433.5t338 -162.5z" />
    <glyph glyph-name="uni042F" unicode="&#x42f;" horiz-adv-x="1452" 
d="M1163 0h-186l100 565h-264l-600 -565h-238l625 575h-16q-201 9 -310.5 132t-76.5 309q34 195 194 311.5t393 116.5h635zM1108 729l96 551h-436q-155 0 -261.5 -78t-129.5 -209q-22 -122 53 -193t229 -71h449z" />
    <glyph glyph-name="uni0430" unicode="&#x430;" horiz-adv-x="1372" 
d="M549 -41q-154 0 -265.5 73.5t-158.5 203.5t-19 292q20 117 77 219t138.5 174t186 113t217.5 41q246 0 358 -215l23 6l31 168h170l-185 -1034h-170l31 170l-16 -6q-177 -205 -418 -205zM575 113q171 0 304.5 118t164.5 297q31 172 -54.5 283t-248.5 111
q-172 0 -305 -117.5t-164 -298.5q-31 -170 54.5 -281.5t248.5 -111.5z" />
    <glyph glyph-name="uni0431" unicode="&#x431;" horiz-adv-x="1267" 
d="M563 -49q-231 0 -352 148.5t-80 381.5q34 194 69.5 333.5t81.5 250t99.5 179.5t127.5 114.5t161 63.5t204 18q128 0 190 24t71 78l147 -12q-23 -131 -120 -190.5t-281 -59.5q-231 0 -340 -99.5t-172 -367.5l20 12q128 168 363 168q150 0 251.5 -70t140 -191t11.5 -275
q-40 -223 -205.5 -364.5t-386.5 -141.5zM569 104q153 0 272 108t148 273q28 157 -47 256t-221 99q-156 0 -275.5 -104.5t-148.5 -272.5q-28 -157 47.5 -258t224.5 -101z" />
    <glyph glyph-name="uni0432" unicode="&#x432;" horiz-adv-x="1110" 
d="M66 0l182 1034h514q140 0 219 -76.5t57 -193.5q-12 -75 -65 -132t-125 -81l-12 -21q82 -18 124.5 -81t24.5 -162q-22 -127 -130 -207t-257 -80h-532zM344 614h324q74 0 133 42.5t69 105.5q9 53 -31 90t-112 37h-336zM262 145h322q88 0 156.5 53t82.5 126q9 63 -37.5 103
t-134.5 40h-334z" />
    <glyph glyph-name="uni0433" unicode="&#x433;" horiz-adv-x="937" 
d="M66 0l182 1034h721l-27 -153h-551l-155 -881h-170z" />
    <glyph glyph-name="uni0434" unicode="&#x434;" horiz-adv-x="1357" 
d="M-104 -307l79 461l134 4q72 45 122.5 135t98.5 254l141 487h723l-156 -880h174l-82 -461h-151l53 307h-932l-53 -307h-151zM289 154h579l129 727h-405l-123 -416q-34 -116 -71.5 -180.5t-102.5 -114.5z" />
    <glyph glyph-name="uni0435" unicode="&#x435;" horiz-adv-x="1300" 
d="M573 -41q-161 0 -277.5 75t-166 208.5t-20.5 300.5q41 232 219 382t415 150q117 0 212 -42t155 -115.5t84 -177.5t4 -224q-5 -35 -14 -61h-916q-9 -157 76.5 -249.5t239.5 -92.5q118 0 225 56t174 150l131 -81q-86 -133 -228.5 -206t-312.5 -73zM297 604l737 12
q4 139 -79 222.5t-226 83.5q-146 0 -265 -88.5t-167 -229.5z" />
    <glyph glyph-name="uni0436" unicode="&#x436;" horiz-adv-x="1427" 
d="M-86 0l547 539l-338 495h190l308 -448h20l82 448h170l-82 -448h18l467 448h199l-518 -495l352 -539h-199l-315 489h-20l-86 -489h-170l86 489h-19l-485 -489h-207z" />
    <glyph glyph-name="uni0437" unicode="&#x437;" horiz-adv-x="1056" 
d="M467 -41q-200 0 -311 112.5t-82 282.5l168 -12q-19 -102 45.5 -165.5t183.5 -63.5q116 0 198 55t97 143q13 73 -36.5 110.5t-143.5 37.5h-193l27 153h184q82 0 144.5 44.5t74.5 111.5q12 69 -44 111.5t-156 42.5q-119 0 -204 -58t-102 -147l-161 12q26 154 158 250
t317 96q179 0 279.5 -89t74.5 -230q-27 -163 -199 -205l-14 -21q91 -21 134 -88.5t24 -167.5q-25 -141 -153.5 -228t-309.5 -87z" />
    <glyph glyph-name="uni0438" unicode="&#x438;" horiz-adv-x="1259" 
d="M66 0l182 1034h170l-139 -792h18l690 792h209l-184 -1034h-170l139 791h-18l-689 -791h-208z" />
    <glyph glyph-name="uni0439" unicode="&#x439;" horiz-adv-x="1259" 
d="M760 1231q-124 0 -190 79.5t-44 200.5l140 -10q-12 -67 13 -106t81 -39q65 0 111.5 44t58.5 111l141 -10q-22 -120 -108.5 -195t-202.5 -75zM66 0l182 1034h170l-139 -792h18l690 792h209l-184 -1034h-170l139 791h-18l-689 -791h-208z" />
    <glyph glyph-name="uni043A" unicode="&#x43a;" horiz-adv-x="1030" 
d="M68 0l182 1034h170l-78 -442h18l521 442h229l-600 -495l424 -539h-223l-367 481h-20l-86 -481h-170z" />
    <glyph glyph-name="uni043B" unicode="&#x43b;" horiz-adv-x="1157" 
d="M-63 0l14 143q103 0 160.5 72.5t105.5 230.5l176 588h699l-183 -1034h-170l156 881h-375l-172 -545q-109 -336 -411 -336z" />
    <glyph glyph-name="uni043C" unicode="&#x43c;" horiz-adv-x="1581" 
d="M66 0l182 1034h246l229 -821h20l525 821h248l-183 -1034h-170l142 797h-19l-510 -797h-151l-228 797h-20l-141 -797h-170z" />
    <glyph glyph-name="uni043D" unicode="&#x43d;" horiz-adv-x="1257" 
d="M66 0l182 1034h170l-76 -434h604l78 434h170l-184 -1034h-170l78 446h-605l-77 -446h-170z" />
    <glyph glyph-name="uni043E" unicode="&#x43e;" horiz-adv-x="1314" 
d="M567 -41q-247 0 -377 160t-86 409q43 242 221.5 394.5t419.5 152.5q246 0 377 -159.5t88 -409.5q-43 -242 -222.5 -394.5t-420.5 -152.5zM573 113q172 0 305 117.5t164 297.5q31 172 -54.5 283t-248.5 111q-172 0 -304.5 -117.5t-164.5 -298.5q-31 -172 54.5 -282.5
t248.5 -110.5z" />
    <glyph glyph-name="uni043F" unicode="&#x43f;" horiz-adv-x="1277" 
d="M66 0l182 1034h964l-184 -1034h-170l158 881h-625l-155 -881h-170z" />
    <glyph glyph-name="uni0440" unicode="&#x440;" horiz-adv-x="1363" 
d="M813 1075q151 0 262.5 -73t161.5 -203.5t23 -292.5q-43 -237 -220.5 -392t-402.5 -155q-127 0 -218.5 53.5t-131.5 147.5l-23 -6l-110 -625h-170l266 1505h170l-29 -157l17 6q151 192 405 192zM788 922q-169 0 -303.5 -120t-165.5 -296q-31 -167 55.5 -280t248.5 -113
q171 0 305.5 119.5t163.5 295.5q31 169 -56 281.5t-248 112.5z" />
    <glyph glyph-name="uni0441" unicode="&#x441;" horiz-adv-x="1253" 
d="M553 -41q-155 0 -268 73.5t-160.5 203.5t-18.5 292q27 156 117 281.5t223 195.5t285 70q193 0 320 -110.5t125 -276.5l-164 -10q-7 111 -87 177.5t-198 66.5q-163 0 -293 -117.5t-162 -298.5q-30 -173 51.5 -283t235.5 -110q126 0 235.5 71t159.5 181l164 -33
q-63 -165 -222 -269t-343 -104z" />
    <glyph glyph-name="uni0442" unicode="&#x442;" horiz-adv-x="1005" 
d="M328 0l157 881h-374l26 153h918l-27 -153h-373l-157 -881h-170z" />
    <glyph glyph-name="uni0443" unicode="&#x443;" horiz-adv-x="1091" 
d="M96 -459q-85 0 -164 35l19 145q64 -28 125 -28q39 0 74 14.5t59.5 33.5t54 56.5t45 62.5t45 74.5t43.5 71.5l-276 1028h174l211 -809h18l449 809h184l-596 -1057l-1 -1v-1l-1 -1v-1l-1 -1v-1l-1 -1l-1 -1v-1l-1 -1q-108 -189 -167 -263q-122 -152 -268 -162
q-12 -1 -24 -1z" />
    <glyph glyph-name="uni0444" unicode="&#x444;" horiz-adv-x="1536" 
d="M510 -473l82 432q-250 9 -389.5 171t-98.5 402q40 226 230 380t442 163l82 432h170l-82 -432q248 -9 387.5 -170t98.5 -395q-40 -231 -229.5 -386.5t-440.5 -164.5l-82 -432h-170zM606 113l154 809q-174 -8 -316.5 -127.5t-173.5 -284.5q-29 -162 68 -275.5t268 -121.5z
M776 113q174 8 316.5 129t173.5 290q28 157 -69 269t-267 121z" />
    <glyph glyph-name="uni0445" unicode="&#x445;" horiz-adv-x="1048" 
d="M-66 0l488 539l-279 495h179l215 -385h18l352 385h187l-459 -495l291 -539h-185l-223 422h-18l-373 -422h-193z" />
    <glyph glyph-name="uni0446" unicode="&#x446;" horiz-adv-x="1320" 
d="M958 -307l54 307h-946l182 1034h170l-156 -880h584l158 880h170l-158 -880h176l-80 -461h-154z" />
    <glyph glyph-name="uni0447" unicode="&#x447;" horiz-adv-x="1146" 
d="M733 0l86 459q-64 -70 -168.5 -114t-206.5 -44q-172 0 -263 117t-58 307l55 309h170l-57 -321q-22 -126 28 -191t168 -65q104 0 200.5 48.5t150.5 123.5l73 403h170l-182 -1032h-166z" />
    <glyph glyph-name="uni0448" unicode="&#x448;" horiz-adv-x="1730" 
d="M66 0l182 1034h170l-156 -880h453l157 880h170l-157 -880h454l158 880h170l-184 -1034h-1417z" />
    <glyph glyph-name="uni0449" unicode="&#x449;" horiz-adv-x="1814" 
d="M1452 -307l53 307h-1439l182 1034h170l-156 -880h453l157 880h170l-157 -880h454l158 880h170l-158 -880h177l-80 -461h-154z" />
    <glyph glyph-name="uni044A" unicode="&#x44a;" horiz-adv-x="1222" 
d="M182 0l156 881h-252l27 153h422l-58 -317h283q188 0 285.5 -101.5t68.5 -267.5q-29 -160 -156.5 -254t-314.5 -94h-461zM381 154h281q112 0 191.5 59t96.5 156q15 89 -41 141.5t-166 52.5h-290z" />
    <glyph glyph-name="uni044B" unicode="&#x44b;" horiz-adv-x="1439" 
d="M66 0l182 1034h170l-58 -317h218q189 0 287 -101.5t69 -267.5q-29 -160 -157 -254t-316 -94h-395zM1020 0l184 1034h170l-184 -1034h-170zM262 154h217q113 0 192.5 59t96.5 156q15 89 -41 141.5t-166 52.5h-227z" />
    <glyph glyph-name="uni044C" unicode="&#x44c;" horiz-adv-x="1105" 
d="M66 0l182 1034h170l-58 -317h281q189 0 287 -101.5t69 -267.5q-29 -160 -157 -254t-314 -94h-460zM262 154h281q112 0 191.5 59t96.5 156q15 89 -40.5 141.5t-165.5 52.5h-291z" />
    <glyph glyph-name="uni044D" unicode="&#x44d;" horiz-adv-x="1251" 
d="M522 -41q-188 0 -315 109t-133 274l164 10q12 -108 91.5 -173.5t198.5 -65.5q144 0 265 95t168 245l-527 -7l27 144l528 6q4 149 -77.5 237.5t-219.5 88.5q-123 0 -234 -72t-161 -182l-160 32q57 165 215 270t346 105q156 0 268.5 -73t160.5 -203t20 -293
q-41 -238 -217.5 -392.5t-407.5 -154.5z" />
    <glyph glyph-name="uni044E" unicode="&#x44e;" horiz-adv-x="1624" 
d="M920 -43q-212 0 -329 134t-97 353l-181 -6l-77 -440h-170l182 1036h170l-78 -442l176 6q62 216 220 346.5t362 130.5q228 0 346.5 -161t75.5 -412q-43 -242 -210 -393.5t-390 -151.5zM926 111q165 0 279.5 112t148.5 301q31 181 -38 289.5t-224 108.5
q-163 0 -280.5 -115.5t-149.5 -304.5q-34 -180 37 -285.5t227 -105.5z" />
    <glyph glyph-name="uni044F" unicode="&#x44f;" horiz-adv-x="1126" 
d="M10 0l404 383q-154 14 -226 109.5t-49 228.5q26 141 151 227t308 86h465l-184 -1034h-170l67 381h-178l-377 -381h-211zM510 535h293l63 346h-284q-108 0 -185 -50.5t-92 -134.5q-12 -74 42.5 -117.5t162.5 -43.5z" />
    <glyph glyph-name="uni0451" unicode="&#x451;" horiz-adv-x="1300" 
d="M543 1231q-54 0 -83 35t-20 88q9 44 42 71t79 27q53 0 82 -34.5t19 -86.5q-6 -44 -39.5 -72t-79.5 -28zM1034 1231q-54 0 -82.5 35t-19.5 88q8 44 41 71t80 27q53 0 81.5 -34.5t18.5 -86.5q-7 -44 -41 -72t-78 -28zM573 -41q-161 0 -277.5 75t-166 208.5t-20.5 300.5
q41 232 219 382t415 150q117 0 212 -42t155 -115.5t84 -177.5t4 -224q-5 -35 -14 -61h-916q-9 -157 76.5 -249.5t239.5 -92.5q118 0 225 56t174 150l131 -81q-86 -133 -228.5 -206t-312.5 -73zM297 604l737 12q4 139 -79 222.5t-226 83.5q-146 0 -265 -88.5t-167 -229.5z
" />
    <glyph glyph-name="uni0452" unicode="&#x452;" horiz-adv-x="1236" 
d="M539 -270q-88 0 -174 22l14 139q57 -14 131 -14q141 0 239 80.5t125 232.5l78 437q22 135 -35 215t-184 80q-137 0 -252.5 -94t-138.5 -230l-106 -598h-170l213 1208h-185l27 154h184l27 143h170l-27 -143h268l-28 -154h-266l-56 -311l19 6q68 83 157.5 127.5t190.5 44.5
q197 0 295.5 -130t64.5 -329l-80 -442q-37 -216 -170.5 -330t-330.5 -114z" />
    <glyph glyph-name="uni0453" unicode="&#x453;" horiz-adv-x="901" 
d="M524 1214l273 291h196l-286 -291h-183zM66 0l182 1034h721l-27 -153h-551l-155 -881h-170z" />
    <glyph glyph-name="uni0454" unicode="&#x454;" horiz-adv-x="1251" 
d="M551 -41q-155 0 -267.5 73.5t-160 203.5t-19.5 292q27 156 117 281.5t223 195.5t285 70q193 0 320 -110.5t125 -276.5l-164 -10q-7 110 -88 177t-197 67q-147 0 -267.5 -94t-166.5 -244l526 6l-26 -144l-527 -6q-6 -148 75.5 -237.5t217.5 -89.5q126 0 235.5 71
t159.5 181l164 -33q-63 -165 -222 -269t-343 -104z" />
    <glyph glyph-name="uni0455" unicode="&#x455;" horiz-adv-x="1116" 
d="M494 -41q-225 0 -333.5 106t-76.5 291l162 -12q-17 -112 51 -177t209 -65q121 0 202.5 50t96.5 137q6 33 -2.5 57.5t-26.5 39t-47.5 24.5t-61.5 15.5t-71 11.5q-33 4 -49 7q-32 3 -59.5 7t-59 10.5t-57 14.5t-53 19t-47 25t-40 32t-31.5 39t-21 47.5t-8.5 57.5t5.5 68
q26 145 151 228t310 83q198 0 303 -98t76 -258l-164 12q17 94 -44 147.5t-179 53.5q-116 0 -198 -51.5t-97 -135.5q-6 -32 2.5 -55.5t27.5 -37.5t48.5 -23.5t63 -15t73.5 -10.5q27 -3 41 -5q68 -8 119.5 -19t108 -35t90.5 -57.5t50.5 -89.5t4.5 -129q-28 -149 -150.5 -229
t-318.5 -80z" />
    <glyph glyph-name="uni0456" unicode="&#x456;" horiz-adv-x="555" 
d="M414 1231q-58 0 -89 37t-20 96q9 50 44.5 79.5t86.5 29.5q57 0 88 -37.5t21 -94.5q-7 -49 -44 -79.5t-87 -30.5zM102 0l183 1034h170l-183 -1034h-170z" />
    <glyph glyph-name="uni0457" unicode="&#x457;" horiz-adv-x="485" 
d="M133 1231q-53 0 -81.5 35t-20.5 88q7 44 40.5 71t78.5 27q55 0 83.5 -34t20.5 -87q-9 -44 -43 -72t-78 -28zM623 1231q-54 0 -83 35t-18 88q7 44 40 71t79 27q54 0 82.5 -34t19.5 -87q-8 -44 -41 -72t-79 -28zM66 0l182 1034h170l-182 -1034h-170z" />
    <glyph glyph-name="uni0458" unicode="&#x458;" horiz-adv-x="540" 
d="M397 1231q-57 0 -86.5 37.5t-19.5 95.5q7 49 43 79t86 30q58 0 88.5 -37.5t21.5 -94.5q-9 -50 -45.5 -80t-87.5 -30zM-92 -461q-98 0 -180 29l14 141q49 -16 125 -16q73 0 128.5 48t67.5 122l207 1171h170l-209 -1181q-26 -138 -116 -226t-207 -88z" />
    <glyph glyph-name="uni0459" unicode="&#x459;" horiz-adv-x="1636" 
d="M-63 0l14 143q103 0 160.5 72.5t105.5 230.5l176 588h643l-75 -432h247q155 0 241.5 -89t63.5 -224q-22 -128 -134 -208.5t-267 -80.5h-430l160 893h-320l-176 -557q-104 -336 -409 -336zM879 154h251q82 0 145 45t75 112q11 62 -32.5 100t-125.5 38h-258z" />
    <glyph glyph-name="uni045A" unicode="&#x45a;" horiz-adv-x="1622" 
d="M66 0l182 1034h170l-76 -432h436l76 432h170l-76 -432h248q155 0 241.5 -89t61.5 -224q-22 -128 -133 -208.5t-266 -80.5h-430l80 449h-435l-79 -449h-170zM866 154h250q83 0 146 44.5t75 112.5q9 62 -34 100t-125 38h-258z" />
    <glyph glyph-name="uni045B" unicode="&#x45b;" horiz-adv-x="1236" 
d="M66 0l213 1208h-185l27 154h184l27 143h170l-27 -143h268l-28 -154h-266l-56 -311l19 6q68 83 157.5 127.5t190.5 44.5q197 0 295.5 -130t64.5 -329l-110 -616h-170l112 627q22 135 -35 215t-184 80q-137 0 -252.5 -94t-138.5 -230l-106 -598h-170z" />
    <glyph glyph-name="uni045C" unicode="&#x45c;" horiz-adv-x="1030" 
d="M563 1214l273 291h196l-287 -291h-182zM66 0l182 1034h170l-78 -442h18l521 442h229l-600 -495l426 -539h-225l-367 481h-20l-86 -481h-170z" />
    <glyph glyph-name="uni045E" unicode="&#x45e;" horiz-adv-x="1091" 
d="M702 1231q-124 0 -189.5 79.5t-43.5 200.5l139 -10q-12 -67 13 -106t81 -39q65 0 111.5 44t58.5 111l142 -10q-22 -119 -109.5 -194.5t-202.5 -75.5zM96 -459q-85 0 -164 35l19 145q64 -28 125 -28q39 0 74 14.5t59.5 33.5t54 56.5t45 62.5t45 74.5t43.5 71.5l-276 1028
h174l211 -809h18l449 809h184l-596 -1057l-1 -1v-1l-1 -1v-1l-1 -1v-1l-1 -1l-1 -1v-1l-1 -1q-108 -189 -167 -263q-122 -152 -268 -162q-12 -1 -24 -1z" />
    <glyph glyph-name="uni045F" unicode="&#x45f;" horiz-adv-x="1265" 
d="M401 -307l54 307h-389l182 1034h170l-156 -880h612l156 880h170l-182 -1034h-393l-54 -307h-170z" />
    <glyph glyph-name="uni0490" unicode="&#x490;" horiz-adv-x="1290" 
d="M102 0l254 1444h875l41 233h160l-68 -387h-848l-227 -1290h-187z" />
    <glyph glyph-name="uni0491" unicode="&#x491;" horiz-adv-x="901" 
d="M66 0l182 1034h567l31 176h153l-57 -329h-551l-155 -881h-170z" />
    <glyph glyph-name="Wgrave" unicode="&#x1e80;" horiz-adv-x="2228" 
d="M1405 1614h-199l-184 231h209zM428 0l-164 1444h176l142 -1286h20l555 1286h242l98 -1286h21l596 1286h182l-674 -1444h-287l-86 1219h-20l-514 -1219h-287z" />
    <glyph glyph-name="wgrave" unicode="&#x1e81;" horiz-adv-x="1720" 
d="M905 1214l-182 291h188l168 -291h-174zM301 0l-164 1034h166l135 -866h19l385 866h217l84 -868h18l436 868h170l-528 -1034h-244l-67 838h-21l-364 -838h-242z" />
    <glyph glyph-name="Wacute" unicode="&#x1e82;" horiz-adv-x="2228" 
d="M1212 1614l256 231h215l-264 -231h-207zM428 0l-164 1444h176l142 -1286h20l555 1286h242l98 -1286h21l596 1286h182l-674 -1444h-287l-86 1219h-20l-514 -1219h-287z" />
    <glyph glyph-name="wacute" unicode="&#x1e83;" horiz-adv-x="1720" 
d="M1069 1214h-182l270 291h197zM301 0l-164 1034h166l135 -866h19l385 866h217l84 -868h18l436 868h170l-528 -1034h-244l-67 838h-21l-364 -838h-242z" />
    <glyph glyph-name="Wdieresis" unicode="&#x1e84;" horiz-adv-x="2228" 
d="M1085 1618q-58 0 -88.5 37t-19.5 96q9 50 44.5 79.5t86.5 29.5q57 0 88 -37t21 -94q-7 -49 -44.5 -80t-87.5 -31zM1559 1618q-58 0 -89 37t-20 96q7 49 43 79t86 30q59 0 90 -37t21 -94q-9 -50 -45.5 -80.5t-85.5 -30.5zM428 0l-164 1444h176l142 -1286h20l555 1286h242
l98 -1286h21l596 1286h182l-674 -1444h-287l-86 1219h-20l-514 -1219h-287z" />
    <glyph glyph-name="wdieresis" unicode="&#x1e85;" horiz-adv-x="1720" 
d="M754 1231q-54 0 -83 35t-20 88q9 45 41.5 71.5t79.5 26.5q53 0 81.5 -34.5t18.5 -86.5q-8 -44 -40 -72t-78 -28zM1245 1231q-54 0 -83 35t-21 88q9 44 42 71t79 27q54 0 82.5 -34t19.5 -87q-7 -44 -41 -72t-78 -28zM301 0l-164 1034h166l135 -866h19l385 866h217l84 -868
h18l436 868h170l-528 -1034h-244l-67 838h-21l-364 -838h-242z" />
    <glyph glyph-name="uni1E9E" unicode="&#x1e9e;" horiz-adv-x="1359" 
d="M727 -51q-135 0 -272 55l20 172q51 -29 118.5 -47t127.5 -18q131 0 224.5 79t119.5 213q21 130 -48.5 209.5t-236.5 79.5h-96l31 152h84q94 0 167.5 66.5t90.5 166.5q20 106 -46.5 173t-189.5 67q-142 0 -248.5 -99.5t-134.5 -259.5l-170 -958h-186l174 989
q38 217 199 354.5t376 137.5q210 0 327 -117t85 -295q-17 -103 -81 -179t-154 -104l-15 -18q133 -27 204.5 -140t45.5 -266q-21 -116 -96 -211t-186 -148.5t-234 -53.5z" />
    <glyph glyph-name="Ygrave" unicode="&#x1ef2;" horiz-adv-x="1351" 
d="M967 1614h-199l-184 231h207zM494 0l94 528l-361 916h193l280 -737h19l532 737h205l-682 -916l-94 -528h-186z" />
    <glyph glyph-name="ygrave" unicode="&#x1ef3;" horiz-adv-x="1091" 
d="M608 1214l-182 291h188l168 -291h-174zM96 -459q-85 0 -164 35l19 145q64 -28 125 -28q39 0 74 14.5t59.5 33.5t54 56.5t45 62.5t45 74.5t43.5 71.5l-276 1028h174l211 -809h18l449 809h184l-596 -1057l-1 -1v-1l-1 -1v-1l-1 -1v-1l-1 -1l-1 -1v-1l-1 -1
q-108 -189 -167 -263q-122 -152 -268 -162q-12 -1 -24 -1z" />
    <glyph glyph-name="endash" unicode="&#x2013;" horiz-adv-x="1372" 
d="M111 561l26 154h1168l-27 -154h-1167z" />
    <glyph glyph-name="emdash" unicode="&#x2014;" horiz-adv-x="1781" 
d="M111 561l26 154h1577l-26 -154h-1577z" />
    <glyph glyph-name="quoteleft" unicode="&#x2018;" horiz-adv-x="436" 
d="M422 1516l86 -21l-143 -240q39 -9 59.5 -42t13.5 -78q-9 -44 -43 -72.5t-78 -28.5q-54 0 -82.5 35t-19.5 88q5 27 33 82z" />
    <glyph glyph-name="quoteright" unicode="&#x2019;" horiz-adv-x="436" 
d="M279 1030l-84 21l143 239q-39 9 -60 42.5t-12 78.5q8 44 40.5 72t78.5 28q54 0 82.5 -34.5t19.5 -87.5q-6 -32 -34 -82z" />
    <glyph glyph-name="quotesinglbase" unicode="&#x201a;" horiz-adv-x="436" 
d="M49 -283l-86 21l143 239q-38 9 -58.5 42.5t-14.5 78.5q9 44 43 72.5t78 28.5q55 0 83 -35t19 -88q-5 -32 -33 -82z" />
    <glyph glyph-name="quotedblleft" unicode="&#x201c;" horiz-adv-x="772" 
d="M422 1516l86 -21l-143 -240q39 -9 59.5 -42t13.5 -78q-9 -44 -43 -72.5t-78 -28.5q-54 0 -82.5 35t-19.5 88q5 27 33 82zM758 1516l86 -21l-144 -240q39 -9 60 -42t14 -78q-9 -44 -43 -72.5t-78 -28.5q-55 0 -83 35t-19 88q5 27 33 82z" />
    <glyph glyph-name="quotedblright" unicode="&#x201d;" horiz-adv-x="770" 
d="M279 1030l-84 21l143 239q-39 9 -60 42.5t-12 78.5q8 44 40.5 72t78.5 28q54 0 82.5 -34.5t19.5 -87.5q-6 -32 -34 -82zM612 1030l-84 21l144 239q-39 9 -60 42.5t-12 78.5q6 44 39.5 72t79.5 28q54 0 82.5 -34.5t19.5 -87.5q-5 -30 -35 -82z" />
    <glyph glyph-name="quotedblbase" unicode="&#x201e;" horiz-adv-x="772" 
d="M47 -283l-84 21l141 239q-38 9 -58 42.5t-13 78.5q9 44 43 72.5t78 28.5q54 0 82.5 -35t19.5 -88q-5 -32 -33 -82zM383 -283l-84 21l141 239q-38 9 -58 42.5t-11 78.5q8 44 41 72.5t77 28.5q54 0 83 -35t20 -88q-5 -32 -33 -82z" />
    <glyph glyph-name="dagger" unicode="&#x2020;" horiz-adv-x="1044" 
d="M274 -461l181 1032h-342l24 144h342l139 782h152l-137 -782h344l-25 -144h-344l-180 -1032h-154z" />
    <glyph glyph-name="daggerdbl" unicode="&#x2021;" horiz-adv-x="1167" 
d="M334 -471l137 786h-403l24 138h404l67 381h-405l24 137h404l96 534h152l-95 -534h406l-25 -137h-403l-68 -381h406l-25 -138h-405l-140 -786h-151z" />
    <glyph glyph-name="bullet" unicode="&#x2022;" horiz-adv-x="479" 
d="M248 504q-63 0 -97 40t-24 103q11 53 50.5 86t94.5 33q63 0 97 -40t24 -103q-11 -53 -50.5 -86t-94.5 -33z" />
    <glyph glyph-name="ellipsis" unicode="&#x2026;" horiz-adv-x="1132" 
d="M131 -27q-54 0 -82.5 35.5t-19.5 89.5q8 44 41.5 72.5t79.5 28.5q54 0 82.5 -35t17.5 -88q-7 -45 -40.5 -74t-78.5 -29zM481 -27q-54 0 -82.5 35.5t-19.5 89.5q9 45 42.5 73t78.5 28q54 0 82.5 -35t17.5 -88q-6 -45 -39.5 -74t-79.5 -29zM831 -27q-54 0 -82.5 35.5
t-19.5 89.5q9 44 43 72.5t78 28.5q54 0 82.5 -35t19.5 -88q-7 -46 -41 -74.5t-80 -28.5z" />
    <glyph glyph-name="perthousand" unicode="&#x2030;" horiz-adv-x="3031" 
d="M561 700q-189 0 -285.5 118t-64.5 306q32 180 163 291t310 111q189 0 286.5 -118t63.5 -306q-31 -180 -162 -291t-311 -111zM315 0l1323 1505h211l-1323 -1505h-211zM567 874q113 0 194.5 69.5t100.5 180.5q19 103 -33 165.5t-155 62.5q-110 0 -192 -70t-101 -180
q-19 -101 33 -164.5t153 -63.5zM1481 -20q-187 0 -283.5 117.5t-64.5 305.5q32 180 163.5 292t309.5 112q188 0 285 -118.5t63 -307.5q-31 -180 -162 -290.5t-311 -110.5zM2429 -20q-189 0 -285.5 117.5t-64.5 305.5q32 180 162.5 291t310.5 111q189 0 286.5 -118t63.5 -306
q-31 -180 -162 -290.5t-311 -110.5zM1489 156q113 0 194.5 68.5t100.5 178.5q19 103 -33.5 166.5t-155.5 63.5q-108 0 -190 -70.5t-102 -181.5q-19 -101 32.5 -163t153.5 -62zM2437 156q112 0 193 68.5t100 178.5q19 103 -32.5 166.5t-155.5 63.5q-110 0 -192 -71t-101 -181
q-19 -101 33 -163t155 -62z" />
    <glyph glyph-name="guilsinglleft" unicode="&#x2039;" horiz-adv-x="743" 
d="M346 0l-319 518l499 516h207l-510 -516l322 -518h-199z" />
    <glyph glyph-name="guilsinglright" unicode="&#x203a;" horiz-adv-x="739" 
d="M215 0h-207l510 518l-321 516h198l320 -516z" />
    <glyph glyph-name="lira" unicode="&#x20a4;" horiz-adv-x="1253" 
d="M12 0l27 184q53 8 96 33.5t89 91.5t79 170l-190 -6l18 113l207 6q16 49 27 121l-213 -6l22 118h209l47 269q32 176 161 287.5t298 111.5q180 0 277.5 -125t74.5 -317l-162 10q17 127 -37.5 206t-156.5 79q-103 0 -182 -75t-99 -190l-45 -256h510l-22 -118l-508 -5
q-5 -25 -14.5 -66.5t-12.5 -55.5l514 6l-22 -119l-531 -4q-45 -137 -106 -207t-152 -106l-8 -19h868l-22 -131h-1041z" />
    <glyph glyph-name="Euro" unicode="&#x20ac;" horiz-adv-x="1853" 
d="M983 113q178 0 342 107.5t238 268.5l172 -47q-91 -215 -305.5 -354t-454.5 -139q-276 0 -448 158.5t-187 418.5h-234l23 125h215q2 21 10 82q5 32 15 70h-215l22 125h234q102 256 324 411.5t493 155.5q247 0 416.5 -151t183.5 -379l-182 -13q-10 165 -131 272t-295 107
q-194 0 -358 -109.5t-253 -293.5h598l-20 -125h-627q-9 -34 -20 -92q-6 -30 -9 -60h629l-20 -125h-611q17 -188 139.5 -300.5t315.5 -112.5z" />
    <glyph glyph-name="uni20BD" unicode="&#x20bd;" horiz-adv-x="1497" 
d="M1051 1444q239 0 361.5 -122t84.5 -331q-38 -199 -199.5 -315.5t-392.5 -116.5h-399l-27 -153h416l-31 -166h-413l-43 -240h-181l43 240h-217l31 166h215l27 153h-217l30 166h217l127 719h568zM1317 1014q20 123 -54 194.5t-229 71.5h-399l-98 -555h389q156 0 261 78
t130 211z" />
    <glyph glyph-name="uni2116" unicode="&#x2116;" horiz-adv-x="1906" 
d="M102 0l254 1444h248l359 -1178h20l209 1178h174l-254 -1444h-250l-356 1178h-21l-209 -1178h-174zM1575 545q-103 0 -158.5 66t-38.5 169q15 91 86.5 151t167.5 60q104 0 159 -66.5t38 -168.5q-15 -92 -87 -151.5t-167 -59.5zM1577 662q53 0 92.5 33.5t46.5 84.5
q8 40 -15.5 67t-66.5 27q-54 0 -95 -33.5t-48 -84.5q-8 -40 16.5 -67t69.5 -27zM1284 305l21 121h483l-21 -121h-483z" />
    <glyph glyph-name="trademark" unicode="&#x2122;" horiz-adv-x="2256" 
d="M291 307l178 1006h-305l22 131h760l-22 -131h-308l-178 -1006h-147zM903 307l201 1137h229l166 -924h21l489 924h238l-201 -1137h-143l163 924h-18l-504 -924h-135l-178 924h-23l-161 -924h-144z" />
    <glyph glyph-name="arrowleft" unicode="&#x2190;" horiz-adv-x="1310" 
d="M438 102l-336 416l480 416h225l-399 -332l-5 -8h820l-27 -152h-819l-2 -8l282 -332h-219z" />
    <glyph glyph-name="arrowup" unicode="&#x2191;" horiz-adv-x="1036" 
d="M350 0l144 819h-7l-391 -342l37 223l485 408l347 -408l-37 -223l-271 342h-10l-143 -819h-154z" />
    <glyph glyph-name="arrowright" unicode="&#x2192;" horiz-adv-x="1310" 
d="M504 102l399 332l4 8h-817l27 152h817l2 8l-281 332h217l336 -416l-479 -416h-225z" />
    <glyph glyph-name="arrowdown" unicode="&#x2193;" horiz-adv-x="1036" 
d="M430 0l-346 408l37 221l270 -340h10l146 819h151l-143 -819h6l391 340l-37 -221z" />
    <glyph glyph-name="uni2196" unicode="&#x2196;" horiz-adv-x="1048" 
d="M768 109l-475 577l-10 -4l-76 -477l-129 160l106 581l580 6l133 -157l-473 8l-8 -6l477 -580z" />
    <glyph glyph-name="uni2197" unicode="&#x2197;" horiz-adv-x="1048" 
d="M143 109l-94 108l682 580l-2 6l-481 -8l184 157l584 -6l-94 -581l-187 -160l92 477l-4 4z" />
    <glyph glyph-name="uni2198" unicode="&#x2198;" horiz-adv-x="1048" 
d="M297 156l-131 157l471 -8l8 6l-477 580l125 108l477 -577l8 2l78 479l127 -160l-106 -581z" />
    <glyph glyph-name="uni2199" unicode="&#x2199;" horiz-adv-x="1048" 
d="M629 156l-584 6l94 581l187 160l-90 -479l2 -2l682 577l92 -108l-680 -580v-6l483 8z" />
    <glyph glyph-name="minus" unicode="&#x2212;" horiz-adv-x="1048" 
d="M131 668l27 153h839l-26 -153h-840z" />
    <glyph glyph-name="notequal" unicode="&#x2260;" horiz-adv-x="1169" 
d="M156 0l213 389h-287l27 154h344l200 358h-481l27 154h538l183 329h155l-180 -329h266l-26 -154h-326l-199 -358h461l-27 -154h-518l-213 -389h-157z" />
    <glyph glyph-name="lessequal" unicode="&#x2264;" horiz-adv-x="927" 
d="M807 410l-668 317l31 184l780 322l-26 -168l-613 -234l-6 -20l531 -238zM39 164l29 153h725l-29 -153h-725z" />
    <glyph glyph-name="greaterequal" unicode="&#x2265;" horiz-adv-x="927" 
d="M84 410l29 163l612 238l6 20l-530 234l26 168l668 -322l-31 -184zM764 164h-725l29 153h725z" />
    <glyph glyph-name="uniF6C3" unicode="&#xf6c3;" horiz-adv-x="0" 
d="M-414 -549l-69 21l108 151q-45 3 -72 37.5t-20 79.5q7 44 41 72t80 28q53 0 81.5 -35t20.5 -88q-7 -41 -32 -82z" />
    <glyph glyph-name="a.alt1" horiz-adv-x="1132" 
d="M360 -33q-172 0 -262 84.5t-65 222.5q24 135 155 224.5t361 115.5l299 35l8 45q19 106 -38.5 166t-180.5 60q-122 0 -206 -57.5t-97 -153.5l-170 12q28 163 158 257.5t323 94.5q203 0 306.5 -107.5t72.5 -285.5l-121 -680h-170l27 152l-17 -7q-141 -178 -383 -178z
M389 109q161 0 277.5 88.5t140.5 220.5l14 86l-284 -33q-156 -19 -240.5 -77.5t-97.5 -139.5q-12 -69 38 -107t152 -38z" />
    <glyph glyph-name="agrave.alt1" horiz-adv-x="1132" 
d="M600 1214l-182 291h188l168 -291h-174zM360 -33q-172 0 -262 84.5t-65 222.5q24 135 155 224.5t361 115.5l299 35l8 45q19 106 -38.5 166t-180.5 60q-122 0 -206 -57.5t-97 -153.5l-170 12q28 163 158 257.5t323 94.5q203 0 306.5 -107.5t72.5 -285.5l-121 -680h-170
l27 152l-17 -7q-141 -178 -383 -178zM389 109q161 0 277.5 88.5t140.5 220.5l14 86l-284 -33q-156 -19 -240.5 -77.5t-97.5 -139.5q-12 -69 38 -107t152 -38z" />
    <glyph glyph-name="aacute.alt1" horiz-adv-x="1132" 
d="M764 1214h-182l270 291h197zM360 -33q-172 0 -262 84.5t-65 222.5q24 135 155 224.5t361 115.5l299 35l8 45q19 106 -38.5 166t-180.5 60q-122 0 -206 -57.5t-97 -153.5l-170 12q28 163 158 257.5t323 94.5q203 0 306.5 -107.5t72.5 -285.5l-121 -680h-170l27 152l-17 -7
q-141 -178 -383 -178zM389 109q161 0 277.5 88.5t140.5 220.5l14 86l-284 -33q-156 -19 -240.5 -77.5t-97.5 -139.5q-12 -69 38 -107t152 -38z" />
    <glyph glyph-name="atilde.alt1" horiz-adv-x="1132" 
d="M823 1214q-53 0 -94.5 18.5t-62.5 40t-49.5 40t-59.5 18.5q-41 0 -78.5 -22t-62.5 -56l-84 76q41 63 106 99t135 36q41 0 74.5 -12t56 -29.5t42.5 -35t44 -29.5t50 -12q44 0 84 24t63 60l84 -78q-40 -64 -105.5 -101t-142.5 -37zM360 -33q-172 0 -262 84.5t-65 222.5
q24 135 155 224.5t361 115.5l299 35l8 45q19 106 -38.5 166t-180.5 60q-122 0 -206 -57.5t-97 -153.5l-170 12q28 163 158 257.5t323 94.5q203 0 306.5 -107.5t72.5 -285.5l-121 -680h-170l27 152l-17 -7q-141 -178 -383 -178zM389 109q161 0 277.5 88.5t140.5 220.5l14 86
l-284 -33q-156 -19 -240.5 -77.5t-97.5 -139.5q-12 -69 38 -107t152 -38z" />
    <glyph glyph-name="adieresis.alt1" horiz-adv-x="1132" 
d="M449 1231q-54 0 -83 35t-20 88q8 44 41 71t80 27q53 0 81.5 -34.5t18.5 -86.5q-8 -44 -40 -72t-78 -28zM940 1231q-55 0 -83.5 35t-20.5 88q9 44 41.5 71t78.5 27q54 0 83 -34t20 -87q-7 -44 -41 -72t-78 -28zM360 -33q-172 0 -262 84.5t-65 222.5q24 135 155 224.5
t361 115.5l299 35l8 45q19 106 -38.5 166t-180.5 60q-122 0 -206 -57.5t-97 -153.5l-170 12q28 163 158 257.5t323 94.5q203 0 306.5 -107.5t72.5 -285.5l-121 -680h-170l27 152l-17 -7q-141 -178 -383 -178zM389 109q161 0 277.5 88.5t140.5 220.5l14 86l-284 -33
q-156 -19 -240.5 -77.5t-97.5 -139.5q-12 -69 38 -107t152 -38z" />
    <glyph glyph-name="aring.alt1" horiz-adv-x="1132" 
d="M688 1204q-101 0 -156 64t-38 162q15 89 85 144.5t164 55.5q101 0 155.5 -63.5t37.5 -161.5q-15 -88 -84.5 -144.5t-163.5 -56.5zM682 1286q61 0 109 41t59 103q9 54 -18.5 86t-81.5 32q-63 0 -110.5 -40t-57.5 -103q-9 -53 18 -86t82 -33zM360 -33q-172 0 -262 84.5
t-65 222.5q24 135 155 224.5t361 115.5l299 35l8 45q19 106 -38.5 166t-180.5 60q-122 0 -206 -57.5t-97 -153.5l-170 12q28 163 158 257.5t323 94.5q203 0 306.5 -107.5t72.5 -285.5l-121 -680h-170l27 152l-17 -7q-141 -178 -383 -178zM389 109q161 0 277.5 88.5
t140.5 220.5l14 86l-284 -33q-156 -19 -240.5 -77.5t-97.5 -139.5q-12 -69 38 -107t152 -38z" />
    <glyph glyph-name="amacron.alt1" horiz-adv-x="1132" 
d="M367 1233l24 135h635l-27 -135h-632zM360 -33q-172 0 -262 84.5t-65 222.5q24 135 155 224.5t361 115.5l299 35l8 45q19 106 -38.5 166t-180.5 60q-122 0 -206 -57.5t-97 -153.5l-170 12q28 163 158 257.5t323 94.5q203 0 306.5 -107.5t72.5 -285.5l-121 -680h-170
l27 152l-17 -7q-141 -178 -383 -178zM389 109q161 0 277.5 88.5t140.5 220.5l14 86l-284 -33q-156 -19 -240.5 -77.5t-97.5 -139.5q-12 -69 38 -107t152 -38z" />
    <glyph glyph-name="abreve.alt1" horiz-adv-x="1132" 
d="M694 1231q-124 0 -190.5 80t-44.5 200l141 -10q-12 -67 12 -106t82 -39q64 0 111 44t59 111l140 -10q-22 -120 -109 -195t-201 -75zM360 -33q-172 0 -262 84.5t-65 222.5q24 135 155 224.5t361 115.5l299 35l8 45q19 106 -38.5 166t-180.5 60q-122 0 -206 -57.5
t-97 -153.5l-170 12q28 163 158 257.5t323 94.5q203 0 306.5 -107.5t72.5 -285.5l-121 -680h-170l27 152l-17 -7q-141 -178 -383 -178zM389 109q161 0 277.5 88.5t140.5 220.5l14 86l-284 -33q-156 -19 -240.5 -77.5t-97.5 -139.5q-12 -69 38 -107t152 -38z" />
    <glyph glyph-name="aogonek.alt1" horiz-adv-x="1132" 
d="M645 1073q203 0 306.5 -107.5t72.5 -285.5l-121 -680h-12l2 -2q-126 -51 -200.5 -113t-84.5 -125q-6 -34 11 -52.5t55 -18.5q56 0 133 45l-8 -105q-76 -39 -152 -39q-73 0 -112 47t-25 121q22 137 223 248l27 146l-17 -7q-141 -178 -383 -178q-172 0 -262 84.5t-65 222.5
q24 135 155 224.5t361 115.5l299 35l8 45q19 106 -38.5 166t-180.5 60q-122 0 -206 -57.5t-97 -153.5l-170 12q28 163 158 257.5t323 94.5zM389 109q161 0 277.5 88.5t140.5 220.5l14 86l-284 -33q-156 -19 -240.5 -77.5t-97.5 -139.5q-12 -69 38 -107t152 -38z" />
    <glyph glyph-name="acircumflex.alt1" horiz-adv-x="1132" 
d="M352 1214l285 291h190l183 -291h-162l-121 177h-20l-187 -177h-168zM360 -33q-172 0 -262 84.5t-65 222.5q24 135 155 224.5t361 115.5l299 35l8 45q19 106 -38.5 166t-180.5 60q-122 0 -206 -57.5t-97 -153.5l-170 12q28 163 158 257.5t323 94.5q203 0 306.5 -107.5
t72.5 -285.5l-121 -680h-170l27 152l-17 -7q-141 -178 -383 -178zM389 109q161 0 277.5 88.5t140.5 220.5l14 86l-284 -33q-156 -19 -240.5 -77.5t-97.5 -139.5q-12 -69 38 -107t152 -38z" />
    <glyph glyph-name="IJacute" horiz-adv-x="1433" 
d="M371 1614l256 231h215l-264 -231h-207zM1229 1614l254 231h215l-264 -231h-205zM102 0l254 1444h187l-252 -1444h-189zM731 -41q-135 0 -262 43l16 156q126 -35 213 -35q132 0 232.5 87t124.5 230l178 1004h186l-180 -1016q-36 -210 -178 -339.5t-330 -129.5z" />
    <glyph glyph-name="ijacute" horiz-adv-x="995" 
d="M276 1212l269 293h196l-282 -293h-183zM774 1212l268 293h197l-285 -293h-180zM80 0l184 1034h170l-184 -1034h-170zM410 -451q-103 0 -181 29l13 125q55 -18 125 -14q74 0 128 47.5t68 120.5l207 1177h170l-211 -1194q-23 -132 -110.5 -211.5t-208.5 -79.5z" />
    <glyph glyph-name="acute.case" horiz-adv-x="632" 
d="M295 1614l256 231h215l-266 -231h-205z" />
    <glyph glyph-name="breve.case" horiz-adv-x="821" 
d="M614 1593q-139 0 -216.5 74.5t-57.5 183.5l166 -10q-10 -58 18 -87.5t90 -29.5q69 0 116 35t58 92l164 -10q-20 -110 -114.5 -179t-223.5 -69z" />
    <glyph glyph-name="caron.case" horiz-adv-x="880" 
d="M537 1614l-197 231h170l129 -127h23l174 127h178l-279 -231h-198z" />
    <glyph glyph-name="caron.alt1" horiz-adv-x="434" 
d="M307 1077l-69 21l108 151q-45 3 -72 36.5t-20 80.5q8 43 41.5 70.5t79.5 27.5q53 0 81.5 -34t20.5 -87q-6 -40 -33 -81z" />
    <glyph glyph-name="circumflex.case" horiz-adv-x="880" 
d="M571 1845h201l195 -231h-168l-131 127h-21l-176 -127h-176z" />
    <glyph glyph-name="dieresis.case" horiz-adv-x="923" 
d="M430 1618q-57 0 -88.5 37.5t-22.5 95.5q9 49 46 79t88 30q57 0 87 -37t21 -94q-9 -50 -44.5 -80.5t-86.5 -30.5zM903 1618q-59 0 -89.5 37.5t-20.5 95.5q9 50 44.5 79.5t86.5 29.5q57 0 87.5 -37t20.5 -94q-7 -49 -43 -80t-86 -31z" />
    <glyph glyph-name="dotaccent.case" horiz-adv-x="450" 
d="M430 1618q-58 0 -89 37t-22 96q9 49 46 79t88 30q57 0 87 -37t21 -94q-9 -50 -44.5 -80.5t-86.5 -30.5z" />
    <glyph glyph-name="grave.case" horiz-adv-x="630" 
d="M721 1614h-199l-184 231h207z" />
    <glyph glyph-name="hungarumlaut.case" horiz-adv-x="933" 
d="M295 1614l233 231h209l-258 -231h-184zM616 1614l244 231h207l-272 -231h-179z" />
    <glyph glyph-name="ring.case" horiz-adv-x="612" 
d="M504 1575q-93 0 -143 57.5t-35 147.5q14 80 76.5 130t148.5 50q92 0 141.5 -58t34.5 -147q-14 -78 -76.5 -129t-146.5 -51zM498 1657q51 0 91.5 35.5t49.5 87.5q9 44 -14 71t-66 27q-54 0 -95 -34.5t-50 -88.5q-8 -43 15.5 -70.5t68.5 -27.5z" />
    <glyph glyph-name="tilde.case" horiz-adv-x="935" 
d="M811 1634q-55 0 -96.5 18.5t-61.5 40t-46.5 40t-55.5 18.5q-81 0 -154 -98l-84 76q41 63 105.5 99t136.5 36q51 0 91 -18.5t61 -40t50 -40t60 -18.5q44 0 86 28.5t70 71.5l82 -75q-39 -64 -103.5 -101t-140.5 -37z" />
    <glyph glyph-name="uni0430.alt1" horiz-adv-x="1132" 
d="M360 -33q-172 0 -262 84.5t-65 222.5q24 135 155 224.5t361 115.5l299 35l8 45q19 106 -38.5 166t-180.5 60q-122 0 -206 -57.5t-97 -153.5l-170 12q28 163 158 257.5t323 94.5q203 0 306.5 -107.5t72.5 -285.5l-121 -680h-170l27 152l-17 -7q-141 -178 -383 -178z
M389 109q161 0 277.5 88.5t140.5 220.5l14 86l-284 -33q-156 -19 -240.5 -77.5t-97.5 -139.5q-12 -69 38 -107t152 -38z" />
    <glyph glyph-name="uni0432.alt1" horiz-adv-x="1216" 
d="M545 -41q-222 0 -339.5 137.5t-80.5 349.5l111 623q37 210 182.5 340.5t343.5 130.5q173 0 268.5 -96t69.5 -242q-17 -103 -96 -202t-185 -152q150 -32 228 -151.5t47 -295.5q-35 -198 -188 -320t-361 -122zM354 813q532 136 576 387q15 87 -33.5 136.5t-142.5 49.5
q-130 0 -227 -87t-119 -222zM549 113q142 0 249 88t132 229q25 138 -50 229.5t-218 90.5l-326 -103l-43 -215q-26 -143 44.5 -231t211.5 -88z" />
    <glyph glyph-name="uni0433.alt" horiz-adv-x="1116" 
d="M444 -41q-201 0 -300.5 87.5t-71.5 244.5q9 50 30 92t46.5 71t64 52.5t72.5 38t82 26.5t83 18t85 13q51 5 80 9t71.5 11.5t67.5 19t51 28.5t40.5 42t20.5 58q15 74 -44 118t-169 44q-123 0 -210 -58t-107 -155l-164 12q29 159 161 251.5t324 92.5q191 0 292.5 -91
t74.5 -245q-9 -48 -29 -87.5t-45.5 -67.5t-62.5 -51t-72 -37t-81.5 -25.5t-83 -18t-85.5 -12.5q-48 -5 -69.5 -8t-62.5 -10t-61.5 -14t-50 -20t-45 -29t-29.5 -40t-20 -53q-12 -78 45.5 -121t173.5 -43q145 0 243.5 71t119.5 183l164 -12q-32 -183 -170.5 -284t-358.5 -101z
" />
    <glyph glyph-name="uni0414.alt1" horiz-adv-x="1714" 
d="M-98 -307l84 471h198l705 1280h280l246 -1280h189l-84 -471h-168l53 307h-1280l-53 -307h-170zM381 164h840l-209 1116h-21z" />
    <glyph glyph-name="uni0434.alt1" horiz-adv-x="1363" 
d="M487 -512q-203 0 -330 94t-149 256l174 51q20 -120 102 -183.5t216 -63.5q174 0 297 104.5t155 278.5l23 133l-19 -4q-175 -181 -401 -181q-117 0 -211 41.5t-153.5 114.5t-82.5 176.5t-2 222.5q41 236 216.5 390.5t404.5 154.5q242 0 354 -190l25 4l27 147h167
l-180 -1022q-43 -241 -214.5 -382.5t-418.5 -141.5zM578 123q172 0 304.5 115t161.5 290q31 172 -54.5 283t-248.5 111q-172 0 -304.5 -117.5t-164.5 -298.5q-31 -165 56.5 -274t249.5 -109z" />
    <glyph glyph-name="uni0437.alt1" horiz-adv-x="1085" 
d="M352 -512q-216 0 -338 124.5t-90 313.5l168 -12q-21 -126 52 -199t204 -73q149 0 256.5 90t132.5 231q23 122 -36.5 194t-176.5 72h-243l26 154h236q104 0 186.5 77.5t104.5 194.5q20 119 -43.5 193t-186.5 74q-128 0 -227.5 -76.5t-118.5 -190.5l-166 13q30 173 177 290
t343 117q198 0 308 -118.5t77 -303.5q-20 -120 -93.5 -210t-176.5 -124l-14 -20q104 -31 157 -138.5t29 -246.5q-32 -188 -185 -307t-362 -119z" />
    <glyph glyph-name="uni0436.alt" horiz-adv-x="1427" 
d="M-86 0l549 539l-340 495h190l308 -448h22l162 919h170l-162 -919h16l467 448h199l-518 -495l352 -539h-199l-315 487h-20l-86 -487h-170l86 487h-19l-485 -487h-207z" />
    <glyph glyph-name="uni0438.alt1" 
d="M1174 1034l-185 -1034h-170l27 141l-19 -6q-68 -84 -158 -128t-188 -44q-200 0 -298 130t-62 331l106 610h170l-108 -622q-25 -134 33 -214.5t186 -80.5q136 0 250 93t139 228l107 596h170z" />
    <glyph glyph-name="uni0439.alt1" 
d="M741 1231q-124 0 -189.5 79.5t-45.5 200.5l141 -10q-12 -67 12 -106t82 -39q64 0 111 44t59 111l140 -10q-20 -119 -107.5 -194.5t-202.5 -75.5zM1174 1034l-185 -1034h-170l27 141l-19 -6q-68 -84 -158 -128t-188 -44q-200 0 -298 130t-62 331l106 610h170l-108 -622
q-25 -134 33 -214.5t186 -80.5q136 0 250 93t139 228l107 596h170z" />
    <glyph glyph-name="uni043A.alt1" horiz-adv-x="1030" 
d="M68 0l264 1505h170l-160 -913h18l521 442h229l-600 -495l424 -539h-223l-367 481h-20l-86 -481h-170z" />
    <glyph glyph-name="uni041B.alt1" horiz-adv-x="1458" 
d="M-31 0l789 1444h278l271 -1444h-195l-233 1280h-19l-692 -1280h-199z" />
    <glyph glyph-name="uni043B.alt1" horiz-adv-x="1122" 
d="M-66 0l586 1034h262l224 -1034h-179l-186 901h-20l-500 -901h-187z" />
    <glyph glyph-name="uni0442.alt1" horiz-adv-x="1900" 
d="M66 0l184 1034h164l-25 -137l17 6q60 81 144.5 126.5t182.5 45.5q109 0 193 -57.5t112 -149.5l23 13q68 92 164 142t209 50q186 0 283.5 -131t62.5 -332l-109 -610h-170l111 625q23 131 -34.5 214t-170.5 83q-127 0 -226 -88t-122 -222l-109 -612h-170l111 625
q23 136 -31 216.5t-170 80.5q-130 0 -226.5 -86.5t-119.5 -223.5l-108 -612h-170z" />
    <glyph glyph-name="uni043F.alt1" 
d="M68 0l182 1034h170l-25 -141l19 6q68 85 157.5 129.5t188.5 44.5q198 0 297 -130.5t63 -330.5l-108 -612h-170l110 623q24 134 -34 215.5t-185 81.5q-136 0 -251 -94t-138 -228l-106 -598h-170z" />
    <glyph glyph-name="uni0446.alt1" horiz-adv-x="1292" 
d="M969 -307l53 307h-205l27 137l-19 -6q-69 -81 -159 -124.5t-187 -43.5q-199 0 -296.5 130t-61.5 331l106 614h170l-108 -626q-25 -134 32 -214.5t183 -80.5q138 0 252 93t139 228l106 596h170l-157 -880h188l-82 -461h-151z" />
    <glyph glyph-name="uni0448.alt1" horiz-adv-x="1900" 
d="M1835 1034l-182 -1034h-166l26 139l-18 -6q-60 -81 -145 -127.5t-181 -46.5q-111 0 -195 57.5t-112 149.5l-20 -10q-70 -93 -166.5 -144t-208.5 -51q-186 0 -283.5 131.5t-62.5 331.5l108 610h170l-110 -622q-23 -133 34.5 -216t170.5 -83q128 0 226.5 88t121.5 221
l108 612h170l-110 -622q-23 -137 31 -218t169 -81q130 0 226.5 86t119.5 223l109 612h170z" />
    <glyph glyph-name="uni0449.alt1" horiz-adv-x="1955" 
d="M1630 -307l53 307h-198l26 139l-18 -6q-60 -81 -145 -127.5t-181 -46.5q-112 0 -198.5 58t-112.5 149l-22 -10q-148 -195 -367 -195q-187 0 -285 131.5t-63 331.5l108 610h170l-110 -622q-23 -133 34.5 -216t170.5 -83q128 0 226.5 88t121.5 221l108 612h170l-110 -622
q-23 -137 31 -218t171 -81q130 0 225.5 86t118.5 223l111 612h170l-158 -880h187l-80 -461h-154z" />
    <glyph glyph-name="uni044A.alt1" horiz-adv-x="1128" 
d="M594 0q-176 0 -272 103t-70 259l92 519h-252l27 153h424l-60 -317h222q171 0 266 -105t67 -264q-28 -152 -153 -250t-291 -98zM600 154q101 0 177 60.5t95 154.5q14 87 -35.5 140.5t-148.5 53.5h-231l-35 -215q-17 -87 33 -140.5t145 -53.5z" />
    <glyph glyph-name="uni044C.alt1" horiz-adv-x="985" 
d="M451 0q-176 0 -273 103t-69 259l118 672h170l-57 -317h221q170 0 266 -105.5t68 -263.5q-28 -152 -153 -250t-291 -98zM455 154q102 0 178.5 60.5t95.5 154.5q14 87 -36 140.5t-150 53.5h-230l-37 -215q-15 -87 35.5 -140.5t143.5 -53.5z" />
    <glyph glyph-name="uni044E.alt1" horiz-adv-x="1624" 
d="M909 -47q-212 0 -334 140t-102 358l-160 -7l-77 -454h-170l266 1515h170l-164 -917l158 4q60 215 223 347t366 132q152 0 261 -72t155.5 -202t18.5 -295q-43 -242 -215 -395.5t-396 -153.5zM915 106q166 0 290.5 115.5t156.5 302.5q32 178 -46.5 286t-236.5 108
q-165 0 -286.5 -114.5t-155.5 -301.5q-32 -179 44.5 -287.5t233.5 -108.5z" />
    <glyph glyph-name="uni0424.alt1" horiz-adv-x="1794" 
d="M688 -131l27 125q-149 9 -268.5 68t-196 155t-105.5 229.5t-2 286.5q34 200 151 360t291.5 253t377.5 104l24 106h187l-25 -106q200 -8 343.5 -103.5t205.5 -261.5t26 -374q-37 -202 -153.5 -363t-291 -253.5t-378.5 -100.5l-27 -125h-186zM735 160l209 1126
q-149 -9 -279.5 -84t-220.5 -203.5t-118 -287.5q-43 -232 72 -384.5t337 -166.5zM922 160q226 8 401 167t219 406q42 240 -72 392t-337 161z" />
    </font>
</defs>
</svg>
