<?xml version="1.0" standalone="no"?>
<!DOCTYPE svg PUBLIC "-//W3C//DTD SVG 1.1//EN" "http://www.w3.org/Graphics/SVG/1.1/DTD/svg11.dtd" >
<svg xmlns="http://www.w3.org/2000/svg" xmlns:xlink="http://www.w3.org/1999/xlink" version="1.1">
<metadata>
Created by FontForge 20170731 at Fri Aug 14 13:48:12 2020
 By Aleksey,,,
Copyright (c) 2018 by Alexander Slobzheninov. All rights reserved.
</metadata>
<defs>
<font id="ObjectSans-HeavySlanted" horiz-adv-x="1241" >
  <font-face 
    font-family="Object Sans Heavy"
    font-weight="802"
    font-style="oblique"
    font-stretch="normal"
    units-per-em="2048"
    panose-1="0 0 9 0 0 0 0 0 0 0"
    ascent="1638"
    descent="-410"
    x-height="1057"
    cap-height="1466"
    bbox="-518 -631 3148.69 1966"
    underline-thickness="102"
    underline-position="-255"
    unicode-range="U+000D-F6C3"
  />
<missing-glyph horiz-adv-x="0" 
 />
    <glyph glyph-name=".notdef" horiz-adv-x="0" 
 />
    <glyph glyph-name=".null" horiz-adv-x="0" 
 />
    <glyph glyph-name="nonmarkingreturn" horiz-adv-x="682" 
 />
    <glyph glyph-name="NULL" horiz-adv-x="1462" 
d="M25 0l258 1466h1226l-258 -1466h-1226zM412 287h555l155 893h-555z" />
    <glyph glyph-name="NULL" horiz-adv-x="1462" 
d="M25 0l258 1466h1226l-258 -1466h-1226zM412 287h555l155 893h-555z" />
    <glyph glyph-name="CR" unicode="&#xd;" horiz-adv-x="61" 
 />
    <glyph glyph-name="space" unicode=" " horiz-adv-x="497" 
 />
    <glyph glyph-name="exclam" unicode="!" horiz-adv-x="636" 
d="M221 508l-14 528l76 430h405l-78 -430l-200 -528h-189zM223 -23q-94 0 -144.5 59.5t-33.5 151.5q15 89 85 146t161 57q95 0 146 -59t36 -150q-17 -91 -86.5 -148t-163.5 -57z" />
    <glyph glyph-name="quotedbl" unicode="&#x22;" horiz-adv-x="796" 
d="M129 723l31 457l51 286h278l-51 -286l-129 -457h-180zM557 723l31 457l51 286h279l-52 -286l-129 -457h-180z" />
    <glyph glyph-name="numbersign" unicode="#" horiz-adv-x="1832" 
d="M143 0l185 408h-301l43 256h370l97 213h-326l45 256h395l174 395h326l-176 -395h254l174 395h328l-177 -395h340l-47 -256h-407l-97 -213h365l-45 -256h-432l-182 -408h-324l182 408h-254l-182 -408h-328zM764 664h254l96 213h-254z" />
    <glyph glyph-name="dollar" unicode="$" horiz-adv-x="1458" 
d="M1442 981l-391 4q18 95 -38 148t-167 53q-102 0 -169.5 -40t-78.5 -104q-5 -31 7 -54t36.5 -37.5t61.5 -25t79.5 -17.5t92.5 -14h3.5t3 -0.5t3.5 -0.5q97 -15 155.5 -27t145 -44.5t131 -76t71 -121.5t9.5 -180q-32 -177 -181 -298t-376 -160l-41 -236h-400l43 238
q-210 44 -313.5 177t-71.5 320l406 -4q-15 -93 47.5 -146.5t191.5 -53.5q107 0 177 38.5t82 106.5q4 25 -1 45.5t-22 35t-36 24.5t-51.5 18t-60 13t-69.5 11q-12 2 -36 5q-102 14 -158.5 24.5t-147.5 41.5t-135.5 73.5t-72.5 120t-9 180.5q32 181 177 303.5t366 159.5
l34 198h400l-37 -211q189 -50 280.5 -179t59.5 -308z" />
    <glyph glyph-name="percent" unicode="%" horiz-adv-x="2217" 
d="M524 641q-200 0 -306 129t-71 328q35 197 184 323.5t347 126.5t304.5 -129t72.5 -329q-35 -196 -184.5 -322.5t-346.5 -126.5zM332 0l1300 1528h334l-1298 -1528h-336zM569 940q70 0 121.5 44t65.5 114q11 66 -24 107.5t-101 41.5q-69 0 -121 -43.5t-64 -113.5
q-12 -66 22.5 -108t100.5 -42zM1624 -20q-200 0 -306 128.5t-69 327.5q34 198 183 324.5t346 126.5q199 0 305 -128.5t71 -328.5q-35 -197 -184.5 -323.5t-345.5 -126.5zM1669 279q70 0 122 44t64 113q12 68 -21.5 110t-100.5 42q-69 0 -122 -44.5t-65 -113.5
q-11 -68 23 -109.5t100 -41.5z" />
    <glyph glyph-name="ampersand" unicode="&#x26;" horiz-adv-x="1712" 
d="M530 -31q-161 0 -278 56t-171 157.5t-32 231.5q24 133 113.5 226.5t243.5 158.5q-72 141 -48 280q21 118 100.5 212.5t199 147t257.5 52.5q222 0 345.5 -130t89.5 -321l-332 4q12 68 -25 116t-110 48q-69 0 -121 -41.5t-64 -109.5q-16 -106 84 -215l330 -355
q80 83 141 211l342 -4q-98 -213 -299 -407l263 -287h-424l-93 98q-109 -58 -249 -93.5t-263 -35.5zM639 246q105 0 207 57l-277 293q-62 -23 -103.5 -68.5t-51.5 -109.5q-15 -79 46.5 -125.5t178.5 -46.5z" />
    <glyph glyph-name="quotesingle" unicode="'" horiz-adv-x="368" 
d="M129 723l33 457l49 286h278l-51 -286l-129 -457h-180z" />
    <glyph glyph-name="parenleft" unicode="(" horiz-adv-x="741" 
d="M229 -367q-122 147 -165.5 404t6.5 547q51 284 184.5 541t306.5 403l350 -2q-186 -175 -324.5 -432t-183.5 -519q-46 -262 0.5 -517t169.5 -429z" />
    <glyph glyph-name="parenright" unicode=")" horiz-adv-x="741" 
d="M197 -371l-349 4q185 174 323 430.5t183 520.5q46 262 0 516t-170 428l344 -2q123 -149 167 -405t-7 -546q-49 -284 -183 -540.5t-308 -405.5z" />
    <glyph glyph-name="asterisk" unicode="*" horiz-adv-x="1001" 
d="M381 565l59 256l-237 -141l-90 221l249 115l-208 114l165 222l191 -144l29 258h256l-62 -258l238 144l90 -222l-250 -114l209 -115l-166 -221l-190 141l-29 -256h-254z" />
    <glyph glyph-name="plus" unicode="+" horiz-adv-x="1056" 
d="M305 272l55 314h-303l49 278h304l55 310h356l-55 -310h303l-49 -278h-301l-57 -314h-357z" />
    <glyph glyph-name="comma" unicode="," horiz-adv-x="522" 
d="M59 -358l-120 49l180 293q-72 14 -109 70t-22 134q15 89 84 146t161 57q95 0 146.5 -59t36.5 -150q-11 -76 -84 -170z" />
    <glyph glyph-name="hyphen" unicode="-" horiz-adv-x="946" 
d="M45 481l53 307h840l-53 -307h-840z" />
    <glyph glyph-name="period" unicode="." horiz-adv-x="520" 
d="M166 -23q-94 0 -145.5 59.5t-34.5 151.5q15 89 84.5 146t162.5 57q95 0 146.5 -59t34.5 -150t-86.5 -148t-161.5 -57z" />
    <glyph glyph-name="slash" unicode="/" horiz-adv-x="993" 
d="M-170 -471l991 1937h332l-989 -1937h-334z" />
    <glyph glyph-name="zero" unicode="0" horiz-adv-x="1511" 
d="M659 -31q-201 0 -341.5 96t-197 271.5t-16.5 400.5q38 223 156 396t291 267.5t373 94.5t340.5 -95.5t198 -270.5t18.5 -400q-40 -223 -158.5 -396.5t-291.5 -268.5t-372 -95zM719 338q116 0 207 108.5t123 290.5q32 179 -19 285t-166 106q-116 0 -206.5 -108.5
t-122.5 -290.5q-32 -179 18.5 -285t165.5 -106z" />
    <glyph glyph-name="one" unicode="1" horiz-adv-x="925" 
d="M299 0l176 999h-22l-371 -241l72 405l456 303h365l-258 -1466h-418z" />
    <glyph glyph-name="two" unicode="2" horiz-adv-x="1292" 
d="M-27 0l43 246l699 508q105 75 153 124t58 109q13 75 -28.5 122.5t-119.5 47.5q-94 0 -166.5 -68.5t-95.5 -185.5l-379 4q24 169 122.5 303.5t250.5 209.5t330 75q246 0 382 -134t101 -341q-11 -65 -41.5 -125t-79 -114.5t-104 -101.5t-129.5 -99l-359 -248l-4 -21h555
l-55 -311h-1133z" />
    <glyph glyph-name="three" unicode="3" horiz-adv-x="1292" 
d="M553 -31q-126 0 -230.5 43t-172 118.5t-98 180.5t-13.5 226l391 -5q-19 -102 30 -169.5t142 -67.5q89 0 157 57.5t83 145.5q15 85 -31.5 139.5t-132.5 54.5q-70 0 -123 -24l-45 225l295 242l2 20h-561l55 311h1057l-43 -241l-373 -307q158 -34 242.5 -164t52.5 -299
q-37 -212 -230 -349t-454 -137z" />
    <glyph glyph-name="four" unicode="4" horiz-adv-x="1351" 
d="M614 0l52 295h-686l38 223l684 948h603l-152 -862h166l-55 -309h-164l-53 -295h-433zM422 604h299l92 529h-18z" />
    <glyph glyph-name="five" unicode="5" horiz-adv-x="1296" 
d="M551 -31q-170 0 -295.5 71.5t-184 197.5t-36.5 284l389 -4q-15 -94 34 -158.5t140 -64.5q89 0 158 58t84 143q15 87 -40 136.5t-163 49.5h-465l197 784h936l-56 -311h-631l-53 -205h248q223 0 342 -135t82 -342q-25 -146 -122 -261.5t-245 -179t-319 -63.5z" />
    <glyph glyph-name="six" unicode="6" horiz-adv-x="1339" 
d="M563 -31q-276 0 -420.5 146t-103.5 383q31 160 205 364l528 604h471l-455 -503q55 14 127 14q203 0 308.5 -129.5t68.5 -339.5q-44 -245 -244.5 -392t-484.5 -147zM631 309q87 0 149.5 55.5t79.5 151.5q15 90 -27 143.5t-124 53.5q-89 0 -154 -56t-80 -149
q-17 -92 26.5 -145.5t129.5 -53.5z" />
    <glyph glyph-name="seven" unicode="7" horiz-adv-x="1136" 
d="M86 0l653 1126h-606l60 340h1081l-43 -249l-699 -1217h-446z" />
    <glyph glyph-name="eight" unicode="8" horiz-adv-x="1355" 
d="M584 -29q-290 0 -438 119t-113 320q24 134 116.5 224.5t221.5 117.5l6 20q-204 94 -162 318q32 188 202.5 297.5t428.5 109.5q254 0 390 -117t103 -299q-39 -216 -270 -309l-6 -20q120 -29 181 -121.5t36 -229.5q-34 -196 -223 -313t-473 -117zM737 879q77 0 134 41.5
t69 107.5q10 64 -30.5 103.5t-114.5 39.5q-78 0 -134.5 -41.5t-68.5 -109.5q-12 -63 29 -102t116 -39zM635 295q82 0 144 47.5t75 120.5q12 73 -32 117.5t-124 44.5q-83 0 -144.5 -46.5t-74.5 -121.5q-12 -72 32 -117t124 -45z" />
    <glyph glyph-name="nine" unicode="9" horiz-adv-x="1339" 
d="M848 1497q276 0 420.5 -145.5t103.5 -382.5q-27 -156 -205 -365l-528 -604h-471l457 506q-57 -17 -127 -17q-203 0 -308.5 129.5t-68.5 339.5q43 245 243 392t484 147zM782 1157q-87 0 -150.5 -55.5t-80.5 -151.5q-15 -90 26.5 -143t124.5 -53q89 0 154 55.5t80 148.5
q17 94 -25.5 146.5t-128.5 52.5z" />
    <glyph glyph-name="colon" unicode=":" horiz-adv-x="522" 
d="M283 641q-94 0 -145 59.5t-36 151.5q17 89 87 147t161 58q95 0 146 -60t34 -151q-15 -91 -84 -148t-163 -57zM166 -23q-94 0 -145.5 59.5t-34.5 151.5q17 89 86 146t161 57q95 0 146.5 -59t34.5 -150q-15 -91 -84.5 -148t-163.5 -57z" />
    <glyph glyph-name="semicolon" unicode=";" horiz-adv-x="522" 
d="M285 641q-94 0 -146 59.5t-35 151.5q15 89 85 147t161 58q95 0 146 -60t36 -151t-84 -148t-163 -57zM61 -358l-120 49l180 293q-72 14 -109 70t-24 134q17 89 86.5 146t161.5 57q95 0 146 -59t34 -150q-11 -74 -82 -170z" />
    <glyph glyph-name="less" unicode="&#x3c;" horiz-adv-x="847" 
d="M739 174l-725 348l68 393l850 347l-62 -342l-551 -191l-4 -20l486 -193z" />
    <glyph glyph-name="equal" unicode="=" horiz-adv-x="1056" 
d="M102 836l52 292h962l-51 -292h-963zM8 309l53 293h963l-53 -293h-963z" />
    <glyph glyph-name="greater" unicode="&#x3e;" horiz-adv-x="845" 
d="M-16 174l59 342l551 193l4 20l-483 191l59 342l727 -347l-67 -393z" />
    <glyph glyph-name="question" unicode="?" horiz-adv-x="1269" 
d="M434 487q26 148 84 225.5t184 153.5q37 20 60.5 35t52 37.5t45 47.5t21.5 54q9 57 -25.5 94t-97.5 37q-77 0 -132 -56t-69 -144l-418 4q40 227 236 373.5t459 146.5q156 0 271 -54.5t167.5 -152t30.5 -219.5q-38 -222 -306 -356q-104 -48 -137 -75q-66 -51 -84 -155z
M528 -23q-95 0 -146 59.5t-36 151.5q17 89 86.5 146t161.5 57q95 0 146 -59.5t34 -151.5q-15 -89 -84.5 -146t-161.5 -57z" />
    <glyph glyph-name="at" unicode="@" horiz-adv-x="2084" 
d="M743 -362q-240 0 -412 114.5t-244 315.5t-28 450q34 196 137 365t253 287.5t343.5 185.5t403.5 67q211 0 382.5 -67.5t280.5 -186t153.5 -286t10.5 -361.5q-46 -263 -190 -409t-358 -146q-113 0 -185.5 51.5t-93.5 139.5l-20 -4q-67 -87 -183 -140t-237 -53
q-158 0 -244 87.5t-61 221.5q25 146 171 244t406 131l189 25l8 43q12 63 -19.5 96t-97.5 33q-68 0 -113 -37t-55 -103l-371 5q31 171 192 278t388 107q232 0 360 -110.5t97 -287.5l-76 -426q-7 -46 10.5 -73t54.5 -27q70 0 129 102.5t86 257.5q27 152 -7.5 283.5t-119 224
t-217.5 145t-297 52.5q-222 0 -415 -91.5t-321.5 -257t-164.5 -376.5q-34 -192 18.5 -348t182 -246t311.5 -90q83 0 178.5 18.5t155.5 46.5l-33 -192q-62 -28 -155.5 -43.5t-182.5 -15.5zM938 207q86 0 151.5 55t79.5 137l13 70l-172 -23q-83 -12 -129 -47.5t-54 -85.5
q-9 -49 21.5 -77.5t89.5 -28.5z" />
    <glyph glyph-name="A" unicode="A" horiz-adv-x="1595" 
d="M-74 0l721 1466h633l203 -1466h-447l-28 223h-527l-108 -223h-447zM621 530h358l-70 570h-20z" />
    <glyph glyph-name="B" unicode="B" horiz-adv-x="1507" 
d="M23 0l258 1466h751q257 0 385.5 -110.5t95.5 -296.5q-21 -111 -94 -191t-172 -110l-6 -21q106 -32 162 -125t33 -221q-34 -186 -197.5 -288.5t-421.5 -102.5h-794zM610 879h236q83 0 142.5 39.5t70.5 101.5q11 60 -34 97.5t-128 37.5h-238zM510 311h264q86 0 152 44
t78 110q10 64 -39.5 105.5t-135.5 41.5h-266z" />
    <glyph glyph-name="C" unicode="C" horiz-adv-x="1671" 
d="M762 -31q-173 0 -311.5 56t-226.5 156t-123 243.5t-5 312.5q39 223 172.5 396.5t330.5 267.5t425 94q298 0 479.5 -161.5t169.5 -418.5l-405 -38q-4 116 -85 191t-200 75q-171 0 -297 -114t-158 -300q-32 -182 51.5 -293.5t249.5 -111.5q120 0 229.5 75.5t155.5 190.5
l398 -51q-48 -168 -173 -298t-301.5 -201t-375.5 -71z" />
    <glyph glyph-name="D" unicode="D" horiz-adv-x="1615" 
d="M25 0l258 1466h598q249 0 424 -91.5t250 -259t36 -386.5q-59 -329 -323.5 -529t-642.5 -200h-600zM500 326h178q184 0 316.5 112t164.5 299q34 184 -58 294t-276 110h-182z" />
    <glyph glyph-name="E" unicode="E" horiz-adv-x="1325" 
d="M23 0l260 1466h1128l-59 -340h-711l-43 -245h672l-49 -281h-674l-45 -260h731l-59 -340h-1151z" />
    <glyph glyph-name="F" unicode="F" horiz-adv-x="1288" 
d="M23 0l260 1466h1122l-66 -368h-690l-43 -246h594l-55 -324h-596l-94 -528h-432z" />
    <glyph glyph-name="G" unicode="G" horiz-adv-x="1728" 
d="M786 -37q-237 0 -408 97.5t-246 274.5t-36 402q30 167 116.5 309t212 240.5t287 153.5t337.5 55q173 0 313.5 -60t223.5 -167t93 -242l-409 -72q-12 83 -90.5 136t-186.5 53q-171 0 -302 -115.5t-163 -298.5q-32 -180 60.5 -296t267.5 -116q141 0 258 79t148 194h-500
l45 254l911 -2q-14 -192 -91.5 -356t-200 -279t-288 -179.5t-352.5 -64.5z" />
    <glyph glyph-name="H" unicode="H" horiz-adv-x="1599" 
d="M23 0l258 1466h432l-95 -540h502l97 540h432l-260 -1466h-433l105 588h-502l-104 -588h-432z" />
    <glyph glyph-name="I" unicode="I" horiz-adv-x="665" 
d="M25 0l258 1466h432l-258 -1466h-432z" />
    <glyph glyph-name="J" unicode="J" horiz-adv-x="991" 
d="M264 -27q-178 0 -299 41l53 318q93 -19 177 -19q97 0 169 65t89 169l163 919h433l-175 -979q-39 -228 -210.5 -371t-399.5 -143z" />
    <glyph glyph-name="K" unicode="K" horiz-adv-x="1501" 
d="M23 0l260 1466h432l-101 -571h19l506 571h510l-664 -698l410 -768h-510l-299 625h-21l-110 -625h-432z" />
    <glyph glyph-name="L" unicode="L" horiz-adv-x="1228" 
d="M25 0l258 1466h432l-195 -1097h633l-66 -369h-1062z" />
    <glyph glyph-name="M" unicode="M" horiz-adv-x="2068" 
d="M23 0l258 1466h573l166 -950h20l492 950h584l-261 -1466h-417l155 881h-20l-467 -881h-334l-156 879h-20l-156 -879h-417z" />
    <glyph glyph-name="N" unicode="N" horiz-adv-x="1601" 
d="M23 0l260 1466h460l322 -909h20l160 909h406l-260 -1466h-461l-322 907h-20l-162 -907h-403z" />
    <glyph glyph-name="O" unicode="O" horiz-adv-x="1765" 
d="M786 -31q-244 0 -414.5 93.5t-243 268.5t-32.5 406q40 229 173.5 401.5t335.5 264.5t444 92q371 0 562 -208.5t130 -557.5q-41 -230 -174.5 -402.5t-335.5 -265t-445 -92.5zM842 324q176 0 304.5 113t162.5 300q32 182 -56 294t-260 112q-174 0 -303.5 -114.5
t-161.5 -299.5q-34 -182 53.5 -293.5t260.5 -111.5z" />
    <glyph glyph-name="P" unicode="P" horiz-adv-x="1464" 
d="M25 0l258 1466h680q288 0 431.5 -142.5t102.5 -381.5q-43 -236 -236.5 -376t-482.5 -140h-248l-75 -426h-430zM586 737h198q110 0 187 58t94 155q15 93 -40 149t-163 56h-203z" />
    <glyph glyph-name="Q" unicode="Q" horiz-adv-x="1767" 
d="M786 -37q-370 0 -560.5 212t-129.5 562q40 229 173.5 401.5t335.5 264.5t444 92q184 0 328 -54t234.5 -152.5t125 -242t4.5 -317.5q-56 -307 -268 -510l198 -219h-362l-64 74q-185 -111 -459 -111zM842 317q93 0 168 35l-320 332h363l161 -174q72 99 95 227
q32 179 -57 292.5t-259 113.5q-174 0 -303.5 -114.5t-161.5 -299.5q-32 -183 55 -297.5t259 -114.5z" />
    <glyph glyph-name="R" unicode="R" horiz-adv-x="1519" 
d="M25 0l258 1466h737q268 0 408 -138.5t100 -364.5q-30 -175 -153 -294t-292 -149l-18 -4l342 -516h-481l-281 483h-104l-84 -483h-432zM592 764h227q106 0 184 54.5t95 146.5q15 88 -42.5 139t-162.5 51h-234z" />
    <glyph glyph-name="S" unicode="S" horiz-adv-x="1476" 
d="M639 -31q-300 0 -460 143.5t-122 372.5l406 -4q-15 -93 47.5 -146.5t191.5 -53.5q107 0 177 38.5t82 106.5q4 25 -1 45.5t-22 35t-36 24.5t-51.5 18t-60 13t-69.5 11q-12 2 -36 5q-102 14 -158.5 24.5t-147.5 41.5t-135.5 73.5t-72.5 120t-9 180.5q38 217 234 347
t485 130q292 0 446.5 -143t114.5 -371l-391 4q18 95 -38 148t-167 53q-102 0 -169.5 -40t-78.5 -104q-5 -31 7 -54t36.5 -37.5t61.5 -25t79.5 -17.5t92.5 -14h3.5t3 -0.5t3.5 -0.5q97 -15 155.5 -27t145 -44.5t131 -76t71 -121.5t9.5 -180q-38 -216 -245.5 -345.5
t-512.5 -129.5z" />
    <glyph glyph-name="T" unicode="T" horiz-adv-x="1390" 
d="M385 0l197 1112h-459l63 354h1348l-61 -354h-459l-197 -1112h-432z" />
    <glyph glyph-name="U" unicode="U" horiz-adv-x="1589" 
d="M700 -31q-311 0 -470.5 172.5t-110.5 462.5l153 862h433l-150 -850q-25 -134 30 -213t171 -79q117 0 202 81t107 213l152 848h432l-154 -864q-51 -290 -269 -461.5t-526 -171.5z" />
    <glyph glyph-name="V" unicode="V" horiz-adv-x="1581" 
d="M358 0l-172 1466h441l114 -1149h21l516 1149h448l-692 -1466h-676z" />
    <glyph glyph-name="W" unicode="W" horiz-adv-x="2502" 
d="M342 0l-137 1466h430l86 -1075h20l461 1075h428l84 -1075h21l460 1075h435l-656 -1466h-600l-49 889h-20l-361 -889h-602z" />
    <glyph glyph-name="X" unicode="X" horiz-adv-x="1667" 
d="M-53 0l594 774l-326 692h490l198 -467h21l360 467h504l-596 -692l342 -774h-502l-190 532h-21l-381 -532h-493z" />
    <glyph glyph-name="Y" unicode="Y" horiz-adv-x="1478" 
d="M436 0l88 500l-338 966h447l164 -589h20l352 589h457l-670 -966l-88 -500h-432z" />
    <glyph glyph-name="Z" unicode="Z" horiz-adv-x="1353" 
d="M-18 0l38 227l779 879l4 20h-617l60 340h1177l-41 -227l-757 -879l-4 -20h624l-59 -340h-1204z" />
    <glyph glyph-name="bracketleft" unicode="[" horiz-adv-x="827" 
d="M-41 -369l334 1897h704l-47 -256h-336l-243 -1387h336l-43 -254h-705z" />
    <glyph glyph-name="backslash" unicode="\" horiz-adv-x="995" 
d="M811 -471h-330l-309 1937h330z" />
    <glyph glyph-name="bracketright" unicode="]" horiz-adv-x="827" 
d="M553 -369h-705l46 254h335l246 1387h-336l43 256h705z" />
    <glyph glyph-name="asciicircum" unicode="^" horiz-adv-x="1202" 
d="M98 819l471 647h394l243 -647h-348l-121 414h-20l-266 -414h-353z" />
    <glyph glyph-name="underscore" unicode="_" horiz-adv-x="1024" 
d="M-139 -260l45 260h1024l-45 -260h-1024z" />
    <glyph glyph-name="grave" unicode="`" horiz-adv-x="632" 
d="M434 1208l-211 320h328l156 -320h-273z" />
    <glyph glyph-name="a" unicode="a" horiz-adv-x="1333" 
d="M418 -27q-214 0 -315.5 151.5t-55.5 407.5q43 250 197 400.5t364 150.5q111 0 181 -48t112 -140l23 2l28 160h383l-186 -1057h-385l29 156l-21 -2q-143 -181 -354 -181zM598 295q95 0 168 67t90 170q19 100 -29 165t-139 65q-95 0 -168 -67.5t-90 -170.5
q-19 -100 28.5 -164.5t139.5 -64.5z" />
    <glyph glyph-name="b" unicode="b" horiz-adv-x="1314" 
d="M705 -27q-200 0 -281 152l-23 -2l-22 -123h-383l268 1528h385l-104 -594l20 2q132 147 330 147q210 0 312.5 -153t58.5 -406q-44 -252 -197.5 -401.5t-363.5 -149.5zM625 295q95 0 168 67.5t92 169.5q17 98 -31 164t-139 66q-93 0 -167 -68t-91 -170q-17 -99 30.5 -164
t137.5 -65z" />
    <glyph glyph-name="c" unicode="c" horiz-adv-x="1239" 
d="M541 -27q-263 0 -400.5 153.5t-93.5 405.5t231 401.5t451 149.5q231 0 363 -114t122 -310l-360 -41q-3 70 -50.5 114t-117.5 44q-90 0 -163 -71t-95 -181q-19 -107 27.5 -175t136.5 -68q73 0 137.5 44.5t93.5 114.5l346 -47q-61 -196 -230.5 -308t-397.5 -112z" />
    <glyph glyph-name="d" unicode="d" horiz-adv-x="1314" 
d="M420 -27q-212 0 -314.5 152t-58.5 407q44 249 199.5 400t363.5 151q201 0 281 -151l22 2l103 594h385l-268 -1528h-385l22 123l-20 -2q-136 -148 -330 -148zM600 295q94 0 167.5 68t90.5 169q17 98 -31 164t-139 66q-93 0 -166 -68t-92 -170q-17 -99 30.5 -164t139.5 -65
z" />
    <glyph glyph-name="e" unicode="e" horiz-adv-x="1265" 
d="M545 -27q-266 0 -403.5 154.5t-92.5 409.5q28 164 125.5 289t243.5 191t319 66q263 0 395.5 -152.5t86.5 -406.5q-9 -68 -23 -102h-772q3 -87 49.5 -135.5t130.5 -48.5q70 0 124.5 31.5t88.5 84.5l322 -63q-64 -146 -227 -232t-367 -86zM457 627l393 4q8 80 -36 134
t-124 54q-79 0 -140.5 -51.5t-92.5 -140.5z" />
    <glyph glyph-name="f" unicode="f" horiz-adv-x="821" 
d="M84 0l137 784h-135l47 273h135l15 76q32 190 155 305.5t289 115.5q106 0 225 -36l-49 -297q-43 12 -92 12q-56 0 -97 -30.5t-50 -78.5l-11 -67h219l-47 -273h-221l-137 -784h-383z" />
    <glyph glyph-name="g" unicode="g" horiz-adv-x="1316" 
d="M467 -498q-252 0 -391 101.5t-135 287.5l374 48q8 -66 55.5 -105t123.5 -39q99 0 170 63t88 165l20 106l-20 -2q-148 -135 -330 -135q-211 0 -314 146.5t-61 393.5q45 256 197.5 402.5t361.5 146.5q203 0 299 -157l21 2l24 131h369l-186 -1053q-41 -237 -219 -369.5
t-447 -132.5zM600 299q95 0 168 66t90 167q17 100 -30.5 165t-139.5 65q-93 0 -166 -67.5t-92 -170.5q-17 -98 30.5 -161.5t139.5 -63.5z" />
    <glyph glyph-name="h" unicode="h" horiz-adv-x="1243" 
d="M-2 0l268 1528h385l-108 -623h18q78 93 156 135.5t170 42.5q165 0 249 -120t52 -304l-117 -659h-383l105 590q14 77 -17.5 124.5t-97.5 47.5q-69 0 -124.5 -51.5t-68.5 -130.5l-104 -580h-383z" />
    <glyph glyph-name="i" unicode="i" horiz-adv-x="575" 
d="M403 1171q-96 0 -147.5 61t-34.5 154q15 90 86 147.5t164 57.5q98 0 149.5 -59.5t34.5 -153.5q-17 -91 -87.5 -149t-164.5 -58zM4 0l184 1057h383l-184 -1057h-383z" />
    <glyph glyph-name="j" unicode="j" horiz-adv-x="581" 
d="M406 1171q-97 0 -148.5 60.5t-34.5 154.5q15 90 86 147.5t164 57.5q97 0 148 -59.5t36 -153.5q-17 -91 -87 -149t-164 -58zM-84 -483q-126 0 -248 37l49 296q47 -12 115 -12q64 0 110.5 38.5t57.5 98.5l190 1082h383l-198 -1127q-32 -185 -159.5 -299t-299.5 -114z" />
    <glyph glyph-name="k" unicode="k" horiz-adv-x="1226" 
d="M-4 0l270 1528h383l-149 -858h20l340 387h453l-484 -508l301 -549h-452l-201 424h-20l-76 -424h-385z" />
    <glyph glyph-name="l" unicode="l" horiz-adv-x="563" 
d="M-4 0l268 1528h385l-270 -1528h-383z" />
    <glyph glyph-name="m" unicode="m" horiz-adv-x="1912" 
d="M-4 0l186 1057h383l-30 -170l20 2q64 91 153 142.5t187 51.5q102 0 179.5 -56.5t99.5 -147.5l20 4q59 94 150.5 146t203.5 52q168 0 256 -114.5t56 -296.5l-119 -670h-383l104 588q12 74 -19.5 122.5t-99.5 51.5q-70 0 -122 -50t-64 -128l-104 -584h-385l106 588
q12 80 -17.5 127t-92.5 47q-69 0 -118 -49t-63 -129l-104 -584h-383z" />
    <glyph glyph-name="n" unicode="n" 
d="M-4 0l188 1057h383l-26 -156l18 2q78 93 156 135.5t170 42.5q166 0 250.5 -119.5t50.5 -304.5l-115 -657h-385l105 590q14 77 -16.5 123.5t-96.5 46.5q-69 0 -125.5 -51.5t-69.5 -128.5l-102 -580h-385z" />
    <glyph glyph-name="o" unicode="o" horiz-adv-x="1284" 
d="M547 -27q-275 0 -410.5 149.5t-91.5 409.5q45 256 232 403.5t460 147.5q275 0 411.5 -150.5t90.5 -408.5q-45 -256 -232 -403.5t-460 -147.5zM598 295q95 0 167 66.5t91 170.5q17 102 -30 166t-140 64q-95 0 -167 -66.5t-91 -171.5q-17 -102 30 -165.5t140 -63.5z" />
    <glyph glyph-name="p" unicode="p" horiz-adv-x="1314" 
d="M895 1083q212 0 314 -152t57 -407q-42 -249 -197.5 -400t-363.5 -151q-200 0 -281 152l-23 -2l-104 -594h-383l268 1528h385l-22 -123l20 2q132 147 330 147zM715 762q-93 0 -167 -68t-91 -170q-17 -99 30.5 -164t137.5 -65q95 0 168 67.5t92 169.5q17 98 -31 164
t-139 66z" />
    <glyph glyph-name="q" unicode="q" horiz-adv-x="1314" 
d="M610 1083q198 0 281 -151l22 2l21 123h385l-268 -1528h-385l104 594l-20 -2q-136 -148 -330 -148q-210 0 -313 153t-60 406q44 251 198.5 401t364.5 150zM688 762q-93 0 -166 -68t-92 -170q-17 -99 30.5 -164t139.5 -65q94 0 167.5 68t90.5 169q17 98 -31 164t-139 66z
" />
    <glyph glyph-name="r" unicode="r" horiz-adv-x="890" 
d="M-4 0l188 1057h381l-26 -150l20 2q50 78 123 123t152 45q65 0 112 -26l-55 -340q-94 43 -174 43q-90 0 -157.5 -64.5t-86.5 -167.5l-92 -522h-385z" />
    <glyph glyph-name="s" unicode="s" horiz-adv-x="1157" 
d="M469 -35q-238 0 -361 103t-92 280l328 -2q-12 -66 33.5 -106.5t134.5 -40.5q70 0 118.5 28.5t57.5 77.5q3 18 -0.5 32t-16.5 23.5t-27 15.5t-40 10.5t-45 7t-53 5.5q-166 16 -236 38q-195 60 -186 242q1 24 6 50q31 167 182.5 264t376.5 97t353.5 -98.5t99.5 -258.5
l-340 4q7 55 -33 88t-113 33q-66 0 -113 -28t-54 -72q-4 -25 8.5 -41.5t42 -25.5t63.5 -14t82 -10q32 -3 49 -5q67 -7 117.5 -16.5t109.5 -32.5t94.5 -55.5t54 -88.5t5.5 -129q-31 -175 -193 -275t-413 -100z" />
    <glyph glyph-name="t" unicode="t" horiz-adv-x="819" 
d="M449 -27q-174 0 -259 113t-53 297l72 401h-137l47 273h151l127 329h301l-59 -329h223l-47 -273h-223l-70 -387q-9 -62 17.5 -98.5t83.5 -36.5q46 0 104 14l-43 -266q-107 -37 -235 -37z" />
    <glyph glyph-name="u" unicode="u" 
d="M1245 1057l-188 -1057h-383l26 156l-18 -2q-78 -93 -156 -136t-170 -43q-166 0 -250.5 119.5t-50.5 304.5l115 658h385l-104 -590q-14 -77 16.5 -124.5t95.5 -47.5q69 0 125.5 51.5t69.5 128.5l102 582h385z" />
    <glyph glyph-name="v" unicode="v" horiz-adv-x="1271" 
d="M264 0l-164 1057h408l80 -740h20l342 740h408l-537 -1057h-557z" />
    <glyph glyph-name="w" unicode="w" horiz-adv-x="1892" 
d="M225 0l-110 1057h395l47 -670h21l284 670h350l62 -680h20l287 680h381l-483 -1057h-488l-22 606h-21l-235 -606h-488z" />
    <glyph glyph-name="x" unicode="x" horiz-adv-x="1320" 
d="M-78 0l457 549l-254 508h434l131 -297h21l235 297h436l-434 -508l262 -549h-444l-131 328h-21l-245 -328h-447z" />
    <glyph glyph-name="y" unicode="y" horiz-adv-x="1267" 
d="M223 -481q-60 0 -130.5 11t-110.5 28l49 297q74 -31 162 -31q146 0 239 162l-330 1071h414l135 -584h21l286 584h396l-596 -1108q-122 -225 -247 -327.5t-288 -102.5z" />
    <glyph glyph-name="z" unicode="z" horiz-adv-x="1095" 
d="M-45 0l33 195l553 532l6 23h-441l56 307h956l-33 -197l-522 -532l-6 -21h451l-56 -307h-997z" />
    <glyph glyph-name="braceleft" unicode="{" horiz-adv-x="860" 
d="M334 -369q-123 0 -185 75.5t-40 197.5l67 379q11 63 -19.5 100t-93.5 37h-22l59 340h19q63 0 109.5 39t56.5 102l63 359q22 121 108 194.5t208 73.5h366l-45 -256h-121q-64 0 -112 -40.5t-60 -105.5l-45 -264q-22 -115 -103.5 -185.5t-197.5 -76.5l-8 -20
q116 -8 174.5 -80t36.5 -187l-51 -286q-11 -65 21.5 -103.5t96.5 -38.5h125l-47 -254h-360z" />
    <glyph glyph-name="bar" unicode="|" horiz-adv-x="573" 
d="M-57 -471l350 1999h338l-350 -1999h-338z" />
    <glyph glyph-name="braceright" unicode="}" horiz-adv-x="860" 
d="M213 -369h-365l46 254h120q65 0 112.5 41t57.5 105l52 286q20 114 101 184.5t198 78.5l8 20q-115 6 -173 78.5t-38 187.5l47 264q11 65 -21 103.5t-96 38.5h-125l45 256h361q122 0 185.5 -76t41.5 -197l-65 -358q-11 -63 20 -100t94 -37h23l-60 -340h-20
q-63 0 -108.5 -39t-57.5 -102l-68 -379q-22 -122 -108 -195.5t-207 -73.5z" />
    <glyph glyph-name="asciitilde" unicode="~" horiz-adv-x="1261" 
d="M858 346q-67 0 -142.5 33.5t-131 73t-121 73t-113.5 33.5q-49 0 -106.5 -28t-104.5 -72l-61 250q80 76 181 123t179 47q67 0 140.5 -33.5t126.5 -73t115 -73t108 -33.5q57 0 117 28.5t104 73.5l65 -252q-83 -76 -181 -123t-175 -47z" />
    <glyph glyph-name="exclamdown" unicode="&#xa1;" horiz-adv-x="636" 
d="M338 616q-95 0 -146 59.5t-36 151.5q15 89 85 147t162 58q94 0 146 -59.5t35 -151.5q-15 -89 -84.5 -147t-161.5 -58zM-53 -471l69 401l199 557h191l2 -557l-70 -401h-391z" />
    <glyph glyph-name="cent" unicode="&#xa2;" horiz-adv-x="1239" 
d="M688 776q-91 0 -164.5 -71t-93.5 -181q-19 -107 27 -175t135 -68q73 0 137.5 44.5t93.5 114.5l346 -45q-50 -162 -175 -267.5t-298 -139.5l-41 -228h-327l41 234q-182 46 -269.5 188.5t-52.5 349.5q38 209 174 349.5t336 183.5l35 199h328l-35 -195q163 -36 250.5 -142.5
t78.5 -267.5l-360 -41q-3 70 -50.5 114t-115.5 44z" />
    <glyph glyph-name="sterling" unicode="&#xa3;" horiz-adv-x="1329" 
d="M-47 0l59 348q199 53 267 273l-195 -3l41 236h205l30 182q37 201 198 330t376 129q223 0 344.5 -138.5t87.5 -352.5l-340 2q12 74 -19 122t-89 48t-103 -46.5t-57 -117.5l-27 -158h424l-43 -236h-444q-42 -114 -113 -179t-178 -111l-6 -21h870l-55 -307h-1233z" />
    <glyph glyph-name="currency" unicode="&#xa4;" horiz-adv-x="1380" 
d="M49 -96l-92 116l219 177q-78 141 -45 325q35 188 158 320l-154 174l131 117l160 -179q160 97 352 97t324 -101l225 180l90 -116l-221 -176q81 -139 47 -324q-29 -179 -158 -321l160 -173l-131 -116l-162 180q-159 -98 -356 -98q-190 0 -317 100zM627 203q133 0 236 90.5
t128 228.5q25 135 -45 223.5t-201 88.5t-233 -91t-127 -229q-23 -136 44.5 -223.5t197.5 -87.5z" />
    <glyph glyph-name="yen" unicode="&#xa5;" horiz-adv-x="1581" 
d="M487 0l29 164h-391l35 186h389l18 105h-391l35 186h303l-307 825h467l168 -618h20l369 618h475l-588 -825h299l-33 -186h-385l-16 -105h383l-35 -186h-383l-28 -164h-433z" />
    <glyph glyph-name="brokenbar" unicode="&#xa6;" horiz-adv-x="569" 
d="M141 674l150 854h338l-150 -854h-338zM-59 -471l149 854h338l-149 -854h-338z" />
    <glyph glyph-name="section" unicode="&#xa7;" horiz-adv-x="1288" 
d="M485 -317q-146 0 -255 51.5t-158 142.5t-27 203l317 -4q-8 -68 40.5 -111t132.5 -43q67 0 116.5 29.5t57.5 73.5q4 27 -6 49t-31 36.5t-53.5 27t-68 22t-79.5 20.5l-6 1.5t-5.5 1t-6.5 1.5q-92 19 -151.5 38t-126.5 55t-94 94.5t-13 138.5q15 94 88 167t180 103
q-66 36 -97.5 109t-13.5 174q31 171 183.5 276t373.5 105q217 0 338.5 -102t108.5 -281l-326 4q12 69 -31.5 111.5t-123.5 42.5q-67 0 -114.5 -29t-55.5 -72q-4 -20 2 -37t25 -30.5t38 -23.5t55.5 -20t61.5 -16t71 -16q184 -43 258 -77q172 -79 152 -233l-2 -12
q-19 -99 -101 -172.5t-202 -103.5q76 -37 112.5 -111.5t18.5 -177.5q-21 -116 -103.5 -209t-208 -144.5t-270.5 -51.5zM707 457q61 4 106 34t51 70q8 46 -29.5 70t-101.5 37q-63 13 -168 41q-52 -6 -92.5 -37t-48.5 -68q-8 -49 35.5 -77t118.5 -42q25 -4 68.5 -14.5
t60.5 -13.5z" />
    <glyph glyph-name="dieresis" unicode="&#xa8;" horiz-adv-x="1015" 
d="M348 1171q-81 0 -125 52t-30 131q12 75 73.5 124.5t139.5 49.5q83 0 127 -51t30 -131q-14 -75 -75 -125t-140 -50zM899 1171q-81 0 -125.5 52.5t-30.5 130.5q12 75 73.5 124.5t139.5 49.5q83 0 127.5 -51t30.5 -131q-14 -75 -75 -125t-140 -50z" />
    <glyph glyph-name="copyright" unicode="&#xa9;" horiz-adv-x="2064" 
d="M872 -395q-144 0 -269 31t-221.5 88.5t-170 140t-113.5 185.5t-51.5 225.5t14.5 259.5q48 270 205.5 478.5t398.5 323.5t527 115q216 0 385.5 -67.5t275.5 -188t146 -292.5t4 -376q-36 -203 -136.5 -374.5t-248 -292.5t-340 -188.5t-406.5 -67.5zM905 -174
q211 0 391.5 90t298.5 251.5t154 367.5q27 153 -1.5 282t-105.5 219.5t-201 141.5t-282 51q-322 0 -555 -195t-289 -506q-27 -154 1.5 -284.5t105.5 -222t201 -143.5t282 -52zM948 -25q-156 0 -269.5 69.5t-162.5 197t-20 290.5q43 239 223 394t416 155q202 0 327 -119
t119 -303l-264 -36q-3 96 -63 157.5t-150 61.5q-114 0 -207 -89.5t-117 -228.5q-25 -134 35.5 -222.5t173.5 -88.5q95 0 179.5 65.5t121.5 165.5l244 -49q-54 -183 -219 -301.5t-367 -118.5z" />
    <glyph glyph-name="guillemotleft" unicode="&#xab;" horiz-adv-x="1441" 
d="M311 0l-258 543l443 514h395l-459 -514l273 -543h-394zM903 0l-258 543l442 514h394l-457 -514l270 -543h-391z" />
    <glyph glyph-name="logicalnot" unicode="&#xac;" horiz-adv-x="1261" 
d="M852 143l61 346h-872l53 304h1147l-117 -650h-272z" />
    <glyph glyph-name="registered" unicode="&#xae;" horiz-adv-x="2064" 
d="M872 -395q-172 0 -317 44t-248 125t-170.5 195.5t-85 256t9.5 306.5q48 271 205.5 480t398.5 324.5t527 115.5q216 0 385.5 -67.5t275.5 -188.5t146 -294t4 -378q-48 -269 -205.5 -478t-399 -325t-526.5 -116zM905 -174q320 0 555 197.5t289 508.5q37 205 -24 363.5
t-208 246t-358 87.5q-322 0 -555 -195.5t-289 -509.5q-37 -203 24 -362t208.5 -247.5t357.5 -88.5zM522 20l183 1037h497q175 0 269.5 -91t68.5 -237q-20 -114 -110 -195.5t-216 -101.5l-16 -2l201 -410h-312l-155 379h-72l-67 -379h-271zM893 592h186q69 0 121.5 39.5
t61.5 101.5q10 58 -27 93.5t-105 35.5h-188z" />
    <glyph glyph-name="macron" unicode="&#xaf;" horiz-adv-x="815" 
d="M174 1257l41 230h725l-41 -230h-725z" />
    <glyph glyph-name="degree" unicode="&#xb0;" horiz-adv-x="1056" 
d="M557 666q-218 0 -329 124t-76 328q35 200 188 322.5t369 122.5q218 0 329 -124.5t74 -328.5q-35 -200 -187.5 -322t-367.5 -122zM592 903q95 0 165 59t87 156q15 94 -31.5 150.5t-138.5 56.5q-96 0 -165.5 -59t-88.5 -156q-15 -94 31.5 -150.5t140.5 -56.5z" />
    <glyph glyph-name="plusminus" unicode="&#xb1;" horiz-adv-x="1056" 
d="M387 578l35 202h-332l45 252h332l35 201h301l-35 -201h330l-45 -252h-330l-35 -202h-301zM-8 211l43 252h962l-43 -252h-962z" />
    <glyph glyph-name="acute" unicode="&#xb4;" horiz-adv-x="630" 
d="M438 1208h-274l266 320h332z" />
    <glyph glyph-name="uni00B5" unicode="&#xb5;" horiz-adv-x="1277" 
d="M-84 -446l266 1503h381l-100 -568q-15 -90 20.5 -138t110.5 -48q73 0 130.5 51t74.5 138l98 565h385l-186 -1057h-369l16 86q-38 -49 -92.5 -75.5t-113.5 -26.5q-49 0 -88.5 18.5t-59.5 54.5l-92 -503h-381z" />
    <glyph glyph-name="paragraph" unicode="&#xb6;" horiz-adv-x="1652" 
d="M346 -422l182 1022q-212 0 -320 120t-71 316q35 194 183.5 312t357.5 118h1046l-47 -270h-200l-285 -1618h-336l285 1618h-174l-285 -1618h-336z" />
    <glyph glyph-name="periodcentered" unicode="&#xb7;" horiz-adv-x="524" 
d="M246 426q-94 0 -144.5 60t-33.5 151q15 89 84.5 146t160.5 57q95 0 146.5 -59t36.5 -150q-17 -90 -87 -147.5t-163 -57.5z" />
    <glyph glyph-name="cedilla" unicode="&#xb8;" horiz-adv-x="583" 
d="M127 -457q-95 0 -156.5 42.5t-70.5 109.5l149 63q6 -32 30 -52.5t58 -20.5t58.5 20t29.5 49q6 32 -20.5 53t-73.5 21h-104l73 215h170l-45 -129q88 -6 135.5 -59t34.5 -129q-14 -80 -88.5 -131.5t-179.5 -51.5z" />
    <glyph glyph-name="guillemotright" unicode="&#xbb;" horiz-adv-x="1439" 
d="M-35 0l463 543l-276 514h391l262 -514l-445 -543h-395zM557 0l461 543l-275 514h392l262 -514l-447 -543h-393z" />
    <glyph glyph-name="questiondown" unicode="&#xbf;" horiz-adv-x="1232" 
d="M664 618q-95 0 -145.5 59t-35.5 152q17 90 86.5 147.5t161.5 57.5q95 0 146 -60.5t34 -152.5q-15 -89 -84.5 -146t-162.5 -57zM410 -485q-237 0 -370 120.5t-101 307.5q42 225 307 356q103 47 135 72q66 52 86 155l342 -4q-18 -101 -53 -169t-83.5 -113t-133.5 -95
q-75 -41 -121.5 -81.5t-57.5 -94.5q-10 -55 25 -92t98 -37q77 0 132.5 55.5t70.5 143.5l418 -2q-40 -228 -235.5 -375t-458.5 -147z" />
    <glyph glyph-name="Agrave" unicode="&#xc0;" horiz-adv-x="1595" 
d="M1143 1589h-287l-250 258h350zM-74 0l721 1466h633l203 -1466h-447l-28 223h-527l-108 -223h-447zM621 530h358l-70 570h-20z" />
    <glyph glyph-name="Aacute" unicode="&#xc1;" horiz-adv-x="1595" 
d="M823 1589l277 258h352l-340 -258h-289zM-74 0l721 1466h633l203 -1466h-447l-28 223h-527l-108 -223h-447zM621 530h358l-70 570h-20z" />
    <glyph glyph-name="Acircumflex" unicode="&#xc2;" horiz-adv-x="1595" 
d="M838 1847h379l155 -258h-254l-102 121h-23l-145 -121h-256zM-74 0l721 1466h633l203 -1466h-447l-28 223h-527l-108 -223h-447zM621 530h358l-70 570h-20z" />
    <glyph glyph-name="Atilde" unicode="&#xc3;" horiz-adv-x="1595" 
d="M1137 1624q-51 0 -96.5 16.5t-72.5 37t-58 37t-58 16.5q-37 0 -78.5 -25t-73.5 -64l-129 119q144 164 306 164q51 0 96 -17t71.5 -37t59 -37t61.5 -17q40 0 80.5 25t67.5 63l135 -103q-79 -89 -153 -133.5t-158 -44.5zM-74 0l721 1466h633l203 -1466h-447l-28 223h-527
l-108 -223h-447zM621 530h358l-70 570h-20z" />
    <glyph glyph-name="Adieresis" unicode="&#xc4;" horiz-adv-x="1595" 
d="M723 1561q-77 0 -119 48.5t-29 123.5q12 70 68.5 115.5t130.5 45.5q78 0 120 -48t30 -122q-12 -70 -69.5 -116.5t-131.5 -46.5zM1239 1561q-77 0 -118.5 48.5t-28.5 123.5q12 70 69 115.5t131 45.5q76 0 118 -48t30 -122q-12 -71 -69 -117t-132 -46zM-74 0l721 1466h633
l203 -1466h-447l-28 223h-527l-108 -223h-447zM621 530h358l-70 570h-20z" />
    <glyph glyph-name="Aring" unicode="&#xc5;" horiz-adv-x="1595" 
d="M985 1577q-109 0 -167.5 55.5t-43.5 143.5q15 86 89.5 138t180.5 52q109 0 167.5 -55t43.5 -144q-15 -85 -89.5 -137.5t-180.5 -52.5zM997 1688q44 0 76.5 25t40.5 63q5 35 -17 57t-63 22q-45 0 -77.5 -24.5t-38.5 -63.5q-6 -35 16 -57t63 -22zM-74 0l721 1466h633
l203 -1466h-447l-28 223h-527l-108 -223h-447zM621 530h358l-70 570h-20z" />
    <glyph glyph-name="AE" unicode="&#xc6;" horiz-adv-x="2064" 
d="M-74 0l967 1466h1264l-60 -340h-543l-43 -233h461l-51 -293h-461l-45 -260h563l-59 -340h-952l37 215h-455l-141 -215h-482zM735 508h320l119 666h-21z" />
    <glyph glyph-name="Ccedilla" unicode="&#xc7;" horiz-adv-x="1671" 
d="M983 1143q-171 0 -297 -114t-158 -300q-32 -182 51.5 -293.5t249.5 -111.5q120 0 230.5 75.5t157.5 190.5l395 -51q-69 -238 -282.5 -393t-493.5 -175l-21 -57q88 -6 136.5 -59t35.5 -129q-14 -80 -89 -131.5t-181 -51.5q-94 0 -155.5 42.5t-72.5 109.5l152 63
q6 -32 30 -52.5t56 -20.5q33 0 58.5 19.5t31.5 49.5q6 32 -20.5 53t-73.5 21h-107l54 145q-153 15 -273 76t-195 160.5t-104.5 233.5t0.5 294q29 167 113 309t206.5 240.5t279.5 153.5t329 55q146 0 269 -42.5t208 -118t130.5 -184t39.5 -235.5l-405 -38q-4 116 -85 191
t-200 75z" />
    <glyph glyph-name="Egrave" unicode="&#xc8;" horiz-adv-x="1325" 
d="M1040 1589h-286l-250 258h350zM23 0l260 1466h1128l-59 -340h-711l-43 -245h672l-49 -281h-674l-45 -260h731l-59 -340h-1151z" />
    <glyph glyph-name="Eacute" unicode="&#xc9;" horiz-adv-x="1325" 
d="M723 1589l276 258h353l-340 -258h-289zM23 0l260 1466h1128l-59 -340h-711l-43 -245h672l-49 -281h-674l-45 -260h731l-59 -340h-1151z" />
    <glyph glyph-name="Ecircumflex" unicode="&#xca;" horiz-adv-x="1325" 
d="M737 1847h379l156 -258h-254l-103 121h-22l-145 -121h-259zM23 0l260 1466h1128l-59 -340h-711l-43 -245h672l-49 -281h-674l-45 -260h731l-59 -340h-1151z" />
    <glyph glyph-name="Edieresis" unicode="&#xcb;" horiz-adv-x="1325" 
d="M621 1561q-75 0 -117.5 48.5t-30.5 123.5q12 70 69.5 115.5t131.5 45.5q78 0 119.5 -48t27.5 -122q-12 -71 -68.5 -117t-131.5 -46zM1139 1561q-77 0 -119 48.5t-29 123.5q12 70 68.5 115.5t130.5 45.5q78 0 119.5 -48t29.5 -122q-12 -70 -69 -116.5t-131 -46.5zM23 0
l260 1466h1128l-59 -340h-711l-43 -245h672l-49 -281h-674l-45 -260h731l-59 -340h-1151z" />
    <glyph glyph-name="Igrave" unicode="&#xcc;" horiz-adv-x="665" 
d="M680 1589h-287l-250 258h349zM25 0l258 1466h432l-258 -1466h-432z" />
    <glyph glyph-name="Iacute" unicode="&#xcd;" horiz-adv-x="665" 
d="M360 1589l277 258h352l-340 -258h-289zM25 0l258 1466h432l-258 -1466h-432z" />
    <glyph glyph-name="Icircumflex" unicode="&#xce;" horiz-adv-x="665" 
d="M375 1847h379l155 -258h-254l-102 121h-23l-145 -121h-258zM25 0l258 1466h432l-258 -1466h-432z" />
    <glyph glyph-name="Idieresis" unicode="&#xcf;" horiz-adv-x="665" 
d="M260 1561q-77 0 -118.5 48.5t-28.5 123.5q12 70 68 115.5t130 45.5q78 0 120 -48t30 -122q-12 -70 -69.5 -116.5t-131.5 -46.5zM776 1561q-77 0 -118.5 48.5t-28.5 123.5q12 70 68 115.5t130 45.5q78 0 120 -48t30 -122q-12 -70 -69.5 -116.5t-131.5 -46.5zM25 0
l258 1466h432l-258 -1466h-432z" />
    <glyph glyph-name="Ntilde" unicode="&#xd1;" horiz-adv-x="1601" 
d="M1161 1624q-52 0 -98 16.5t-73 37t-58 37t-58 16.5q-36 0 -76.5 -25t-72.5 -64l-129 119q144 164 303 164q51 0 96.5 -17t72.5 -37t60 -37t62 -17q40 0 80 25t67 63l133 -103q-154 -178 -309 -178zM23 0l260 1466h460l322 -909h20l160 909h406l-260 -1466h-461l-322 907
h-20l-162 -907h-403z" />
    <glyph glyph-name="Ograve" unicode="&#xd2;" horiz-adv-x="1765" 
d="M1229 1589h-287l-250 258h350zM786 -31q-244 0 -414.5 93.5t-243 268.5t-32.5 406q40 229 173.5 401.5t335.5 264.5t444 92q371 0 562 -208.5t130 -557.5q-41 -230 -174.5 -402.5t-335.5 -265t-445 -92.5zM842 324q176 0 304.5 113t162.5 300q32 182 -56 294t-260 112
q-174 0 -303.5 -114.5t-161.5 -299.5q-34 -182 53.5 -293.5t260.5 -111.5z" />
    <glyph glyph-name="Oacute" unicode="&#xd3;" horiz-adv-x="1765" 
d="M911 1589l277 258h352l-340 -258h-289zM786 -31q-244 0 -414.5 93.5t-243 268.5t-32.5 406q40 229 173.5 401.5t335.5 264.5t444 92q371 0 562 -208.5t130 -557.5q-41 -230 -174.5 -402.5t-335.5 -265t-445 -92.5zM842 324q176 0 304.5 113t162.5 300q32 182 -56 294
t-260 112q-174 0 -303.5 -114.5t-161.5 -299.5q-34 -182 53.5 -293.5t260.5 -111.5z" />
    <glyph glyph-name="Ocircumflex" unicode="&#xd4;" horiz-adv-x="1765" 
d="M926 1847h379l155 -258h-254l-102 121h-23l-145 -121h-258zM786 -31q-244 0 -414.5 93.5t-243 268.5t-32.5 406q40 229 173.5 401.5t335.5 264.5t444 92q371 0 562 -208.5t130 -557.5q-41 -230 -174.5 -402.5t-335.5 -265t-445 -92.5zM842 324q176 0 304.5 113t162.5 300
q32 182 -56 294t-260 112q-174 0 -303.5 -114.5t-161.5 -299.5q-34 -182 53.5 -293.5t260.5 -111.5z" />
    <glyph glyph-name="Otilde" unicode="&#xd5;" horiz-adv-x="1765" 
d="M1225 1624q-52 0 -98 16.5t-72.5 37t-57.5 37t-57 16.5q-37 0 -78.5 -25t-73.5 -64l-129 119q144 164 304 164q51 0 96.5 -17t72 -37t59.5 -37t62 -17q40 0 80.5 25t67.5 63l133 -103q-154 -178 -309 -178zM786 -31q-244 0 -414.5 93.5t-243 268.5t-32.5 406
q40 229 173.5 401.5t335.5 264.5t444 92q371 0 562 -208.5t130 -557.5q-41 -230 -174.5 -402.5t-335.5 -265t-445 -92.5zM842 324q176 0 304.5 113t162.5 300q32 182 -56 294t-260 112q-174 0 -303.5 -114.5t-161.5 -299.5q-34 -182 53.5 -293.5t260.5 -111.5z" />
    <glyph glyph-name="Odieresis" unicode="&#xd6;" horiz-adv-x="1765" 
d="M809 1561q-75 0 -117 48.5t-30 123.5q12 70 69 115.5t131 45.5q78 0 120 -48t28 -122q-12 -71 -69 -117t-132 -46zM1327 1561q-77 0 -118.5 48.5t-28.5 123.5q12 70 68 115.5t130 45.5q78 0 120 -48t30 -122q-12 -70 -69.5 -116.5t-131.5 -46.5zM786 -31
q-244 0 -414.5 93.5t-243 268.5t-32.5 406q40 229 173.5 401.5t335.5 264.5t444 92q371 0 562 -208.5t130 -557.5q-41 -230 -174.5 -402.5t-335.5 -265t-445 -92.5zM842 324q176 0 304.5 113t162.5 300q32 182 -56 294t-260 112q-174 0 -303.5 -114.5t-161.5 -299.5
q-34 -182 53.5 -293.5t260.5 -111.5z" />
    <glyph glyph-name="multiply" unicode="&#xd7;" horiz-adv-x="909" 
d="M231 322l-182 219l225 192l-155 195l254 219l155 -193l222 193l184 -219l-225 -195l155 -192l-256 -219l-155 192z" />
    <glyph glyph-name="Oslash" unicode="&#xd8;" horiz-adv-x="1724" 
d="M76 -287l264 377q-150 95 -216 264.5t-28 382.5q39 223 172.5 396.5t331.5 267.5t428 94q155 0 258 -41l215 307h238l-275 -391q145 -99 208.5 -265.5t27.5 -375.5q-40 -223 -174 -396.5t-332 -268.5t-428 -95q-141 0 -244 41l-209 -297h-237zM582 442l483 693
q-38 14 -90 14q-162 0 -288.5 -118.5t-158.5 -301.5q-30 -176 54 -287zM821 317q163 0 289 118t158 302q29 166 -49 281l-480 -692q40 -9 82 -9z" />
    <glyph glyph-name="Ugrave" unicode="&#xd9;" horiz-adv-x="1589" 
d="M1145 1589h-287l-250 258h350zM700 -31q-205 0 -347.5 77t-204 221.5t-27.5 336.5l151 862h433l-150 -850q-23 -135 31 -213.5t170 -78.5q117 0 202.5 81t108.5 213l150 848h432l-154 -864q-51 -290 -269 -461.5t-526 -171.5z" />
    <glyph glyph-name="Uacute" unicode="&#xda;" horiz-adv-x="1589" 
d="M825 1589l277 258h352l-340 -258h-289zM700 -31q-205 0 -347.5 77t-204 221.5t-27.5 336.5l151 862h433l-150 -850q-23 -135 31 -213.5t170 -78.5q117 0 202.5 81t108.5 213l150 848h432l-154 -864q-51 -290 -269 -461.5t-526 -171.5z" />
    <glyph glyph-name="Ucircumflex" unicode="&#xdb;" horiz-adv-x="1589" 
d="M840 1847h379l155 -258h-254l-102 121h-23l-145 -121h-256zM700 -31q-205 0 -347.5 77t-204 221.5t-27.5 336.5l151 862h433l-150 -850q-23 -135 31 -213.5t170 -78.5q117 0 202.5 81t108.5 213l150 848h432l-154 -864q-51 -290 -269 -461.5t-526 -171.5z" />
    <glyph glyph-name="Udieresis" unicode="&#xdc;" horiz-adv-x="1589" 
d="M725 1561q-77 0 -118.5 48.5t-28.5 123.5q12 70 68 115.5t130 45.5q78 0 120 -48t30 -122q-12 -70 -69.5 -116.5t-131.5 -46.5zM1241 1561q-77 0 -118.5 48.5t-28.5 123.5q12 70 69 115.5t131 45.5q76 0 118 -48t30 -122q-12 -71 -69 -117t-132 -46zM700 -31
q-205 0 -347.5 77t-204 221.5t-27.5 336.5l151 862h433l-150 -850q-23 -135 31 -213.5t170 -78.5q117 0 202.5 81t108.5 213l150 848h432l-154 -864q-51 -290 -269 -461.5t-526 -171.5z" />
    <glyph glyph-name="Yacute" unicode="&#xdd;" horiz-adv-x="1478" 
d="M768 1589l279 258h352l-340 -258h-291zM436 0l88 500l-338 966h447l164 -589h20l352 589h457l-670 -966l-88 -500h-432z" />
    <glyph glyph-name="germandbls" unicode="&#xdf;" horiz-adv-x="1501" 
d="M883 -31q-83 0 -173 13.5t-147 33.5l47 279q85 -37 183 -37q85 0 144.5 49.5t74.5 132.5q15 90 -39 139.5t-172 49.5h-94l43 235h96q70 0 123 43t65 111q13 82 -34 130t-140 48q-96 0 -166.5 -62t-87.5 -165l-172 -969h-432l170 963q41 236 246 382t495 146
q266 0 409 -120.5t110 -309.5q-33 -194 -228 -268l-8 -21q127 -36 196 -139t44 -252q-32 -177 -190 -294.5t-363 -117.5z" />
    <glyph glyph-name="agrave" unicode="&#xe0;" horiz-adv-x="1333" 
d="M641 1208l-211 320h330l153 -320h-272zM418 -27q-214 0 -315.5 151.5t-55.5 407.5q43 250 197 400.5t364 150.5q111 0 181 -48t112 -140l23 2l28 160h383l-186 -1057h-385l29 156l-21 -2q-143 -181 -354 -181zM598 295q95 0 168 67t90 170q19 100 -29 165t-139 65
q-95 0 -168 -67.5t-90 -170.5q-19 -100 28.5 -164.5t139.5 -64.5z" />
    <glyph glyph-name="aacute" unicode="&#xe1;" horiz-adv-x="1333" 
d="M903 1208h-274l266 320h330zM418 -27q-214 0 -315.5 151.5t-55.5 407.5q43 250 197 400.5t364 150.5q111 0 181 -48t112 -140l23 2l28 160h383l-186 -1057h-385l29 156l-21 -2q-143 -181 -354 -181zM598 295q95 0 168 67t90 170q19 100 -29 165t-139 65q-95 0 -168 -67.5
t-90 -170.5q-19 -100 28.5 -164.5t139.5 -64.5z" />
    <glyph glyph-name="acircumflex" unicode="&#xe2;" horiz-adv-x="1333" 
d="M385 1180l250 319h377l141 -319h-266l-80 155h-21l-135 -155h-266zM418 -27q-214 0 -315.5 151.5t-55.5 407.5q43 250 197 400.5t364 150.5q111 0 181 -48t112 -140l23 2l28 160h383l-186 -1057h-385l29 156l-21 -2q-143 -181 -354 -181zM598 295q95 0 168 67t90 170
q19 100 -29 165t-139 65q-95 0 -168 -67.5t-90 -170.5q-19 -100 28.5 -164.5t139.5 -64.5z" />
    <glyph glyph-name="atilde" unicode="&#xe3;" horiz-adv-x="1333" 
d="M932 1194q-51 0 -96.5 16.5t-72.5 36.5t-59 36.5t-59 16.5q-37 0 -77 -22.5t-70 -58.5l-129 118q144 164 305 164q51 0 96.5 -17t72 -37t59.5 -37t63 -17q40 0 79.5 24t65.5 60l133 -105q-79 -89 -153 -133.5t-158 -44.5zM418 -27q-214 0 -315.5 151.5t-55.5 407.5
q43 250 197 400.5t364 150.5q111 0 181 -48t112 -140l23 2l28 160h383l-186 -1057h-385l29 156l-21 -2q-143 -181 -354 -181zM598 295q95 0 168 67t90 170q19 100 -29 165t-139 65q-95 0 -168 -67.5t-90 -170.5q-19 -100 28.5 -164.5t139.5 -64.5z" />
    <glyph glyph-name="adieresis" unicode="&#xe4;" horiz-adv-x="1333" 
d="M494 1171q-82 0 -127 52.5t-31 130.5q13 75 74 124.5t139 49.5q83 0 127.5 -51t30.5 -131q-14 -75 -74 -125t-139 -50zM1044 1171q-81 0 -126 52.5t-31 130.5q13 75 74 124.5t139 49.5q83 0 128 -51.5t32 -130.5q-15 -75 -76 -125t-140 -50zM418 -27q-214 0 -315.5 151.5
t-55.5 407.5q43 250 197 400.5t364 150.5q111 0 181 -48t112 -140l23 2l28 160h383l-186 -1057h-385l29 156l-21 -2q-143 -181 -354 -181zM598 295q95 0 168 67t90 170q19 100 -29 165t-139 65q-95 0 -168 -67.5t-90 -170.5q-19 -100 28.5 -164.5t139.5 -64.5z" />
    <glyph glyph-name="aring" unicode="&#xe5;" horiz-adv-x="1333" 
d="M772 1188q-116 0 -175.5 66t-39.5 173q17 104 97.5 168t193.5 64q115 0 174.5 -66.5t40.5 -173.5q-19 -104 -98.5 -167.5t-192.5 -63.5zM786 1313q52 0 90.5 32t45.5 82q9 47 -16 77t-72 30q-50 0 -88.5 -32t-47.5 -83q-8 -46 17 -76t71 -30zM418 -27
q-214 0 -315.5 151.5t-55.5 407.5q43 250 197 400.5t364 150.5q111 0 181 -48t112 -140l23 2l28 160h383l-186 -1057h-385l29 156l-21 -2q-143 -181 -354 -181zM598 295q95 0 168 67t90 170q19 100 -29 165t-139 65q-95 0 -168 -67.5t-90 -170.5q-19 -100 28.5 -164.5
t139.5 -64.5z" />
    <glyph glyph-name="ae" unicode="&#xe6;" horiz-adv-x="1875" 
d="M641 1083q123 0 216 -40t144 -109q176 149 404 149q229 0 349 -153.5t75 -405.5q-3 -42 -21 -102h-749q0 -83 46.5 -133.5t121.5 -50.5q59 0 113 31t87 83l322 -61q-61 -139 -212.5 -228.5t-324.5 -89.5q-129 0 -223.5 53.5t-142.5 147.5q-77 -93 -208 -146t-280 -53
q-189 0 -290 82.5t-76 221.5q24 140 170 236.5t405 129.5l191 25l6 30q9 54 -24 86.5t-97 32.5q-63 0 -109 -33t-53 -84l-370 5q30 167 179.5 271.5t350.5 104.5zM1317 819q-74 0 -135.5 -53t-89.5 -139l370 4q9 85 -31 136.5t-114 51.5zM551 446q-162 -20 -182 -120
q-6 -44 23 -67t87 -23q88 0 154.5 47t77.5 116l12 70z" />
    <glyph glyph-name="ccedilla" unicode="&#xe7;" horiz-adv-x="1239" 
d="M688 776q-91 0 -164.5 -71t-93.5 -181q-19 -107 27 -175t135 -68q73 0 137.5 44.5t93.5 114.5l346 -45q-55 -179 -201 -289t-347 -129l-23 -63q87 -6 136 -59t34 -129q-14 -80 -89 -131.5t-181 -51.5q-94 0 -155.5 42.5t-70.5 109.5l152 63q4 -32 28 -52.5t56 -20.5
q35 0 60 19.5t30 49.5q6 32 -20.5 53t-73.5 21h-105l54 149q-222 27 -333.5 176.5t-72.5 378.5q46 252 232.5 401.5t451.5 149.5q231 0 362 -113.5t121 -310.5l-360 -41q-3 70 -50.5 114t-115.5 44z" />
    <glyph glyph-name="egrave" unicode="&#xe8;" horiz-adv-x="1265" 
d="M633 1208l-211 320h328l153 -320h-270zM545 -27q-266 0 -403.5 154.5t-92.5 409.5q44 248 235 397t455 149q262 0 394 -152.5t86 -406.5q-4 -54 -23 -102h-772q5 -88 51 -136t131 -48q68 0 124 31.5t89 84.5l320 -63q-64 -146 -227 -232t-367 -86zM457 627l395 4
q8 80 -37 134t-125 54q-79 0 -140.5 -51.5t-92.5 -140.5z" />
    <glyph glyph-name="eacute" unicode="&#xe9;" horiz-adv-x="1265" 
d="M893 1208h-275l267 320h332zM545 -27q-266 0 -403.5 154.5t-92.5 409.5q44 248 235 397t455 149q262 0 394 -152.5t86 -406.5q-4 -54 -23 -102h-772q5 -88 51 -136t131 -48q68 0 124 31.5t89 84.5l320 -63q-64 -146 -227 -232t-367 -86zM457 627l395 4q8 80 -37 134
t-125 54q-79 0 -140.5 -51.5t-92.5 -140.5z" />
    <glyph glyph-name="ecircumflex" unicode="&#xea;" horiz-adv-x="1265" 
d="M375 1180l252 319h374l142 -319h-264l-80 155h-21l-137 -155h-266zM545 -27q-266 0 -403.5 154.5t-92.5 409.5q44 248 235 397t455 149q262 0 394 -152.5t86 -406.5q-4 -54 -23 -102h-772q5 -88 51 -136t131 -48q68 0 124 31.5t89 84.5l320 -63q-64 -146 -227 -232
t-367 -86zM457 627l395 4q8 80 -37 134t-125 54q-79 0 -140.5 -51.5t-92.5 -140.5z" />
    <glyph glyph-name="edieresis" unicode="&#xeb;" horiz-adv-x="1265" 
d="M483 1171q-82 0 -126 52.5t-29 130.5q12 75 72.5 124.5t140.5 49.5q82 0 126 -51.5t31 -130.5q-14 -75 -75 -125t-140 -50zM1036 1171q-82 0 -127 52.5t-30 130.5q14 75 74 124.5t139 49.5q82 0 126 -51.5t31 -130.5q-14 -75 -74 -125t-139 -50zM545 -27
q-266 0 -403.5 154.5t-92.5 409.5q44 248 235 397t455 149q262 0 394 -152.5t86 -406.5q-4 -54 -23 -102h-772q5 -88 51 -136t131 -48q68 0 124 31.5t89 84.5l320 -63q-64 -146 -227 -232t-367 -86zM457 627l395 4q8 80 -37 134t-125 54q-79 0 -140.5 -51.5t-92.5 -140.5z
" />
    <glyph glyph-name="igrave" unicode="&#xec;" horiz-adv-x="565" 
d="M272 1208l-211 320h330l154 -320h-273zM-2 0l186 1057h385l-188 -1057h-383z" />
    <glyph glyph-name="iacute" unicode="&#xed;" horiz-adv-x="565" 
d="M535 1208h-275l266 320h330zM-2 0l186 1057h385l-188 -1057h-383z" />
    <glyph glyph-name="icircumflex" unicode="&#xee;" horiz-adv-x="565" 
d="M16 1180l250 319h377l141 -319h-266l-80 155h-20l-135 -155h-267zM-2 0l186 1057h385l-188 -1057h-383z" />
    <glyph glyph-name="idieresis" unicode="&#xef;" horiz-adv-x="565" 
d="M125 1171q-82 0 -127 52.5t-31 130.5q13 75 74 124.5t139 49.5q83 0 128 -51.5t30 -130.5q-14 -75 -74 -125t-139 -50zM676 1171q-82 0 -126.5 52.5t-29.5 130.5q12 75 72.5 124.5t138.5 49.5q83 0 128 -51.5t32 -130.5q-15 -76 -75.5 -125.5t-139.5 -49.5zM-2 0
l186 1057h385l-188 -1057h-383z" />
    <glyph glyph-name="ntilde" unicode="&#xf1;" 
d="M918 1194q-51 0 -96.5 16.5t-72.5 36.5t-59 36.5t-59 16.5q-38 0 -79 -22.5t-69 -58.5l-129 118q144 164 305 164q51 0 96 -17t71.5 -37t60 -37t63.5 -17q39 0 79 24t65 60l135 -105q-79 -89 -153 -133.5t-158 -44.5zM-4 0l188 1057h383l-26 -156l18 2q78 93 156 135.5
t170 42.5q166 0 250.5 -119.5t50.5 -304.5l-115 -657h-385l105 590q14 77 -16.5 123.5t-96.5 46.5q-69 0 -125.5 -51.5t-69.5 -128.5l-102 -580h-385z" />
    <glyph glyph-name="ograve" unicode="&#xf2;" horiz-adv-x="1284" 
d="M633 1208l-211 320h328l153 -320h-270zM547 -27q-275 0 -410.5 149.5t-91.5 409.5q45 256 232 403.5t460 147.5q275 0 411.5 -150.5t90.5 -408.5q-45 -256 -232 -403.5t-460 -147.5zM598 295q95 0 167 66.5t91 170.5q17 102 -30 166t-140 64q-95 0 -167 -66.5t-91 -171.5
q-17 -102 30 -165.5t140 -63.5z" />
    <glyph glyph-name="oacute" unicode="&#xf3;" horiz-adv-x="1284" 
d="M893 1208h-275l267 320h332zM547 -27q-275 0 -410.5 149.5t-91.5 409.5q45 256 232 403.5t460 147.5q275 0 411.5 -150.5t90.5 -408.5q-45 -256 -232 -403.5t-460 -147.5zM598 295q95 0 167 66.5t91 170.5q17 102 -30 166t-140 64q-95 0 -167 -66.5t-91 -171.5
q-17 -102 30 -165.5t140 -63.5z" />
    <glyph glyph-name="ocircumflex" unicode="&#xf4;" horiz-adv-x="1284" 
d="M375 1180l252 319h374l142 -319h-266l-78 155h-21l-137 -155h-266zM547 -27q-275 0 -410.5 149.5t-91.5 409.5q45 256 232 403.5t460 147.5q275 0 411.5 -150.5t90.5 -408.5q-45 -256 -232 -403.5t-460 -147.5zM598 295q95 0 167 66.5t91 170.5q17 102 -30 166t-140 64
q-95 0 -167 -66.5t-91 -171.5q-17 -102 30 -165.5t140 -63.5z" />
    <glyph glyph-name="otilde" unicode="&#xf5;" horiz-adv-x="1284" 
d="M922 1194q-51 0 -96.5 16.5t-72.5 36.5t-59 36.5t-59 16.5q-36 0 -77 -22.5t-71 -58.5l-129 118q144 164 306 164q51 0 96 -17t71.5 -37t59.5 -37t63 -17q40 0 80 24t66 60l133 -105q-79 -89 -153 -133.5t-158 -44.5zM547 -27q-275 0 -410.5 149.5t-91.5 409.5
q45 256 232 403.5t460 147.5q275 0 411.5 -150.5t90.5 -408.5q-45 -256 -232 -403.5t-460 -147.5zM598 295q95 0 167 66.5t91 170.5q17 102 -30 166t-140 64q-95 0 -167 -66.5t-91 -171.5q-17 -102 30 -165.5t140 -63.5z" />
    <glyph glyph-name="odieresis" unicode="&#xf6;" horiz-adv-x="1284" 
d="M483 1171q-82 0 -126 52.5t-29 130.5q12 75 72.5 124.5t138.5 49.5q83 0 128 -51t31 -131q-15 -76 -75.5 -125.5t-139.5 -49.5zM1034 1171q-82 0 -126 52.5t-29 130.5q12 75 72.5 124.5t140.5 49.5q82 0 126 -51.5t31 -130.5q-14 -75 -75 -125t-140 -50zM547 -27
q-275 0 -410.5 149.5t-91.5 409.5q45 256 232 403.5t460 147.5q275 0 411.5 -150.5t90.5 -408.5q-45 -256 -232 -403.5t-460 -147.5zM598 295q95 0 167 66.5t91 170.5q17 102 -30 166t-140 64q-95 0 -167 -66.5t-91 -171.5q-17 -102 30 -165.5t140 -63.5z" />
    <glyph glyph-name="divide" unicode="&#xf7;" horiz-adv-x="1015" 
d="M592 989q-82 0 -125.5 50t-30.5 128q14 74 72.5 122t136.5 48q81 0 125.5 -50.5t30.5 -127.5q-13 -75 -72 -122.5t-137 -47.5zM61 604l48 264h921l-47 -264h-922zM442 141q-81 0 -124 50.5t-31 127.5q14 74 72.5 122t136.5 48q82 0 125 -50t28 -128q-12 -74 -70.5 -122
t-136.5 -48z" />
    <glyph glyph-name="oslash" unicode="&#xf8;" horiz-adv-x="1318" 
d="M750 1083q97 0 190 -26l115 172h200l-165 -232q113 -68 161.5 -191t20.5 -282q-44 -252 -237.5 -401.5t-467.5 -149.5q-80 0 -176 21l-108 -158h-199l149 211q-117 71 -166 196t-20 289q44 251 236 401t467 150zM717 827q-123 0 -218 -85t-118 -218q-24 -127 39 -209
l352 504q-24 8 -55 8zM602 229q125 0 218 84.5t118 218.5q21 120 -33 199l-348 -498q14 -4 45 -4z" />
    <glyph glyph-name="ugrave" unicode="&#xf9;" 
d="M600 1208l-211 320h328l155 -320h-272zM1245 1057l-188 -1057h-383l26 156l-18 -2q-78 -93 -156 -136t-170 -43q-166 0 -250.5 119.5t-50.5 304.5l115 658h385l-104 -590q-14 -77 16.5 -124.5t95.5 -47.5q69 0 125.5 51.5t69.5 128.5l102 582h385z" />
    <glyph glyph-name="uacute" unicode="&#xfa;" 
d="M860 1208h-272l266 320h330zM1245 1057l-188 -1057h-383l26 156l-18 -2q-78 -93 -156 -136t-170 -43q-166 0 -250.5 119.5t-50.5 304.5l115 658h385l-104 -590q-14 -77 16.5 -124.5t95.5 -47.5q69 0 125.5 51.5t69.5 128.5l102 582h385z" />
    <glyph glyph-name="ucircumflex" unicode="&#xfb;" 
d="M344 1180l250 319h377l139 -319h-264l-80 155h-21l-137 -155h-264zM1245 1057l-188 -1057h-383l26 156l-18 -2q-78 -93 -156 -136t-170 -43q-166 0 -250.5 119.5t-50.5 304.5l115 658h385l-104 -590q-14 -77 16.5 -124.5t95.5 -47.5q69 0 125.5 51.5t69.5 128.5l102 582
h385z" />
    <glyph glyph-name="udieresis" unicode="&#xfc;" 
d="M453 1171q-82 0 -127.5 52.5t-30.5 130.5q14 75 74 124.5t139 49.5q82 0 126.5 -51.5t31.5 -130.5q-14 -75 -74 -125t-139 -50zM1004 1171q-82 0 -127 52.5t-31 130.5q14 75 74 124.5t139 49.5q83 0 127.5 -51t30.5 -131q-14 -75 -74 -125t-139 -50zM1245 1057
l-188 -1057h-383l26 156l-18 -2q-78 -93 -156 -136t-170 -43q-166 0 -250.5 119.5t-50.5 304.5l115 658h385l-104 -590q-14 -77 16.5 -124.5t95.5 -47.5q69 0 125.5 51.5t69.5 128.5l102 582h385z" />
    <glyph glyph-name="yacute" unicode="&#xfd;" horiz-adv-x="1267" 
d="M922 1208h-275l266 320h330zM223 -481q-60 0 -130.5 11t-110.5 28l49 297q74 -31 162 -31q146 0 239 162l-330 1071h414l135 -584h21l286 584h396l-596 -1108q-122 -225 -247 -327.5t-288 -102.5z" />
    <glyph glyph-name="ydieresis" unicode="&#xff;" horiz-adv-x="1267" 
d="M512 1171q-82 0 -127 52.5t-31 130.5q13 75 74 124.5t139 49.5q83 0 127.5 -51t30.5 -131q-14 -75 -74 -125t-139 -50zM1063 1171q-82 0 -127 52.5t-31 130.5q13 75 74 124.5t139 49.5q83 0 128 -51.5t30 -130.5q-14 -75 -74 -125t-139 -50zM223 -481q-60 0 -130.5 11
t-110.5 28l49 297q74 -31 162 -31q146 0 239 162l-330 1071h414l135 -584h21l286 584h396l-596 -1108q-122 -225 -247 -327.5t-288 -102.5z" />
    <glyph glyph-name="Amacron" unicode="&#x100;" horiz-adv-x="1595" 
d="M635 1667l41 229h723l-41 -229h-723zM-74 0l721 1466h633l203 -1466h-447l-28 223h-527l-108 -223h-447zM621 530h358l-70 570h-20z" />
    <glyph glyph-name="amacron" unicode="&#x101;" horiz-adv-x="1333" 
d="M418 1257l41 230h723l-41 -230h-723zM418 -27q-214 0 -315.5 151.5t-55.5 407.5q43 250 197 400.5t364 150.5q111 0 181 -48t112 -140l23 2l28 160h383l-186 -1057h-385l29 156l-21 -2q-143 -181 -354 -181zM598 295q95 0 168 67t90 170q19 100 -29 165t-139 65
q-95 0 -168 -67.5t-90 -170.5q-19 -100 28.5 -164.5t139.5 -64.5z" />
    <glyph glyph-name="Abreve" unicode="&#x102;" horiz-adv-x="1595" 
d="M981 1569q-155 0 -241 79t-66 201l254 -4q-7 -49 13.5 -77.5t62.5 -28.5q46 0 79.5 30.5t42.5 79.5l254 -4q-22 -121 -134 -198.5t-265 -77.5zM-74 0l721 1466h633l203 -1466h-447l-28 223h-527l-108 -223h-447zM621 530h358l-70 570h-20z" />
    <glyph glyph-name="abreve" unicode="&#x103;" horiz-adv-x="1333" 
d="M776 1214q-144 0 -220.5 89.5t-53.5 226.5l231 -4q-11 -62 7.5 -95.5t62.5 -33.5q46 0 78 35.5t43 97.5l231 -4q-25 -136 -131.5 -224t-247.5 -88zM418 -27q-214 0 -315.5 151.5t-55.5 407.5q43 250 197 400.5t364 150.5q111 0 181 -48t112 -140l23 2l28 160h383
l-186 -1057h-385l29 156l-21 -2q-143 -181 -354 -181zM598 295q95 0 168 67t90 170q19 100 -29 165t-139 65q-95 0 -168 -67.5t-90 -170.5q-19 -100 28.5 -164.5t139.5 -64.5z" />
    <glyph glyph-name="Aogonek" unicode="&#x104;" horiz-adv-x="1595" 
d="M1219 0q-99 -34 -165 -88t-75 -109q-8 -37 16.5 -59.5t71.5 -22.5q59 0 119 29l-21 -141q-68 -33 -161 -33q-100 0 -154 51t-39 133q12 68 71 131t154 113l-28 219h-527l-108 -223h-447l721 1466h633l203 -1466h-264zM621 530h358l-70 570h-20z" />
    <glyph glyph-name="aogonek" unicode="&#x105;" horiz-adv-x="1333" 
d="M952 1057h383l-186 -1057h-197q-99 -34 -164.5 -88t-74.5 -109q-8 -37 16.5 -59.5t71.5 -22.5q59 0 119 29l-21 -141q-68 -33 -162 -33q-100 0 -153 51t-39 133q24 135 219 242l29 154l-21 -2q-143 -181 -354 -181q-214 0 -315.5 151.5t-55.5 407.5q43 250 197 400.5
t364 150.5q111 0 181 -48t112 -140l23 2zM598 295q95 0 168 67t90 170q19 100 -29 165t-139 65q-95 0 -168 -67.5t-90 -170.5q-19 -100 28.5 -164.5t139.5 -64.5z" />
    <glyph glyph-name="Cacute" unicode="&#x106;" horiz-adv-x="1671" 
d="M887 1597l276 258h353l-340 -258h-289zM762 -31q-173 0 -311.5 56t-226 156t-122 243.5t-4.5 312.5q29 167 113 309t206.5 240.5t279.5 153.5t329 55q146 0 269 -42.5t208 -118t130.5 -184t39.5 -235.5l-405 -38q-4 116 -85 191t-200 75q-171 0 -297 -114t-158 -300
q-32 -182 51.5 -293.5t249.5 -111.5q120 0 230.5 75.5t157.5 190.5l395 -51q-48 -168 -173 -298t-301.5 -201t-375.5 -71z" />
    <glyph glyph-name="cacute" unicode="&#x107;" horiz-adv-x="1239" 
d="M889 1208h-273l267 320h329zM541 -27q-262 0 -399.5 153.5t-94.5 405.5q46 252 232.5 401.5t451.5 149.5q231 0 362 -113.5t121 -310.5l-360 -41q-3 70 -50.5 114t-115.5 44q-91 0 -164.5 -71t-93.5 -181q-19 -107 27 -175t135 -68q73 0 137.5 44.5t93.5 114.5l346 -45
q-61 -198 -230.5 -310t-397.5 -112z" />
    <glyph glyph-name="Ccircumflex" unicode="&#x108;" horiz-adv-x="1671" 
d="M901 1855h379l156 -258h-254l-103 121h-22l-146 -121h-256zM762 -31q-173 0 -311.5 56t-226 156t-122 243.5t-4.5 312.5q29 167 113 309t206.5 240.5t279.5 153.5t329 55q146 0 269 -42.5t208 -118t130.5 -184t39.5 -235.5l-405 -38q-4 116 -85 191t-200 75
q-171 0 -297 -114t-158 -300q-32 -182 51.5 -293.5t249.5 -111.5q120 0 230.5 75.5t157.5 190.5l395 -51q-48 -168 -173 -298t-301.5 -201t-375.5 -71z" />
    <glyph glyph-name="ccircumflex" unicode="&#x109;" horiz-adv-x="1239" 
d="M373 1180l250 319h376l140 -319h-265l-79 155h-21l-137 -155h-264zM541 -27q-262 0 -399.5 153.5t-94.5 405.5q46 252 232.5 401.5t451.5 149.5q231 0 362 -113.5t121 -310.5l-360 -41q-3 70 -50.5 114t-115.5 44q-91 0 -164.5 -71t-93.5 -181q-19 -107 27 -175t135 -68
q73 0 137.5 44.5t93.5 114.5l346 -45q-61 -198 -230.5 -310t-397.5 -112z" />
    <glyph glyph-name="Cdotaccent" unicode="&#x10a;" horiz-adv-x="1671" 
d="M1051 1597q-87 0 -135.5 49t-34.5 123q12 71 74.5 117.5t146.5 46.5q87 0 134.5 -49t35.5 -123q-12 -71 -74.5 -117.5t-146.5 -46.5zM762 -31q-173 0 -311.5 56t-226 156t-122 243.5t-4.5 312.5q29 167 113 309t206.5 240.5t279.5 153.5t329 55q146 0 269 -42.5t208 -118
t130.5 -184t39.5 -235.5l-405 -38q-4 116 -85 191t-200 75q-171 0 -297 -114t-158 -300q-32 -182 51.5 -293.5t249.5 -111.5q120 0 230.5 75.5t157.5 190.5l395 -51q-48 -168 -173 -298t-301.5 -201t-375.5 -71z" />
    <glyph glyph-name="cdotaccent" unicode="&#x10b;" horiz-adv-x="1239" 
d="M756 1171q-96 0 -148 61t-35 154q15 90 85.5 147.5t164.5 57.5q97 0 148.5 -59.5t36.5 -153.5q-17 -91 -87 -149t-165 -58zM541 -27q-262 0 -399.5 153.5t-94.5 405.5q46 252 232.5 401.5t451.5 149.5q231 0 362 -113.5t121 -310.5l-360 -41q-3 70 -50.5 114t-115.5 44
q-91 0 -164.5 -71t-93.5 -181q-19 -107 27 -175t135 -68q73 0 137.5 44.5t93.5 114.5l346 -45q-61 -198 -230.5 -310t-397.5 -112z" />
    <glyph glyph-name="Ccaron" unicode="&#x10c;" horiz-adv-x="1671" 
d="M858 1597l-156 258h254l105 -118h22l144 118h258l-248 -258h-379zM762 -31q-173 0 -311.5 56t-226 156t-122 243.5t-4.5 312.5q29 167 113 309t206.5 240.5t279.5 153.5t329 55q146 0 269 -42.5t208 -118t130.5 -184t39.5 -235.5l-405 -38q-4 116 -85 191t-200 75
q-171 0 -297 -114t-158 -300q-32 -182 51.5 -293.5t249.5 -111.5q120 0 230.5 75.5t157.5 190.5l395 -51q-48 -168 -173 -298t-301.5 -201t-375.5 -71z" />
    <glyph glyph-name="ccaron" unicode="&#x10d;" horiz-adv-x="1239" 
d="M432 1528h262l84 -156h21l133 156h268l-254 -320h-375zM541 -27q-262 0 -399.5 153.5t-94.5 405.5q46 252 232.5 401.5t451.5 149.5q231 0 362 -113.5t121 -310.5l-360 -41q-3 70 -50.5 114t-115.5 44q-91 0 -164.5 -71t-93.5 -181q-19 -107 27 -175t135 -68
q73 0 137.5 44.5t93.5 114.5l346 -45q-61 -198 -230.5 -310t-397.5 -112z" />
    <glyph glyph-name="Dcaron" unicode="&#x10e;" horiz-adv-x="1615" 
d="M745 1589l-155 258h254l104 -121h23l143 121h258l-248 -258h-379zM25 0l258 1466h598q249 0 424 -91.5t250.5 -259t37.5 -386.5q-59 -329 -324.5 -529t-643.5 -200h-600zM502 326h178q184 0 316.5 112t164.5 299q32 184 -59.5 294t-274.5 110h-182z" />
    <glyph glyph-name="dcaron" unicode="&#x10f;" horiz-adv-x="1327" 
d="M1548 1036l-75 41l118 164q-54 9 -83.5 52.5t-20.5 101.5q12 66 63 109.5t117 43.5q71 0 109 -43t26 -112q-10 -58 -78 -140zM420 -27q-212 0 -314.5 152t-58.5 407q44 249 199.5 400t363.5 151q201 0 281 -151l22 2l103 594h385l-268 -1528h-385l22 123l-20 -2
q-136 -148 -330 -148zM600 295q94 0 167.5 68t90.5 169q17 98 -31 164t-139 66q-93 0 -166 -68t-92 -170q-17 -99 30.5 -164t139.5 -65z" />
    <glyph glyph-name="Dcroat" unicode="&#x110;" horiz-adv-x="1701" 
d="M967 1466q249 0 424 -91.5t250 -259t36 -386.5q-59 -329 -323 -529t-641 -200h-602l116 668h-182l43 235h182l99 563h598zM1247 737q32 184 -59.5 294t-276.5 110h-182l-41 -238h322l-43 -235h-322l-59 -342h178q185 0 317 112t166 299z" />
    <glyph glyph-name="dcroat" unicode="&#x111;" horiz-adv-x="1312" 
d="M1530 1389l-33 -199h-158l-209 -1190h-385l23 123l-20 -2q-136 -148 -330 -148q-212 0 -314.5 152t-58.5 407q44 249 199.5 400t363.5 151q201 0 281 -151l22 2l45 256h-282l35 199h280l25 139h385l-25 -139h156zM856 532q17 98 -31 164t-139 66q-93 0 -166 -68t-92 -170
q-17 -99 30.5 -164t139.5 -65q94 0 167.5 68t90.5 169z" />
    <glyph glyph-name="Emacron" unicode="&#x112;" horiz-adv-x="1325" 
d="M535 1667l40 229h723l-41 -229h-722zM23 0l260 1466h1128l-59 -340h-711l-43 -245h672l-49 -281h-674l-45 -260h731l-59 -340h-1151z" />
    <glyph glyph-name="emacron" unicode="&#x113;" horiz-adv-x="1265" 
d="M410 1257l41 230h723l-41 -230h-723zM545 -27q-266 0 -403.5 154.5t-92.5 409.5q44 248 235 397t455 149q262 0 394 -152.5t86 -406.5q-4 -54 -23 -102h-772q5 -88 51 -136t131 -48q68 0 124 31.5t89 84.5l320 -63q-64 -146 -227 -232t-367 -86zM457 627l395 4
q8 80 -37 134t-125 54q-79 0 -140.5 -51.5t-92.5 -140.5z" />
    <glyph glyph-name="Ebreve" unicode="&#x114;" horiz-adv-x="1325" 
d="M881 1569q-155 0 -242.5 79.5t-65.5 200.5l254 -4q-9 -49 12 -77.5t64 -28.5q46 0 80 30.5t43 79.5l252 -4q-20 -121 -132 -198.5t-265 -77.5zM23 0l260 1466h1128l-59 -340h-711l-43 -245h672l-49 -281h-674l-45 -260h731l-59 -340h-1151z" />
    <glyph glyph-name="ebreve" unicode="&#x115;" horiz-adv-x="1265" 
d="M768 1214q-144 0 -221.5 89.5t-54.5 226.5l231 -4q-19 -129 70 -129q47 0 79 35.5t41 97.5l232 -4q-23 -136 -130 -224t-247 -88zM545 -27q-266 0 -403.5 154.5t-92.5 409.5q44 248 235 397t455 149q262 0 394 -152.5t86 -406.5q-4 -54 -23 -102h-772q5 -88 51 -136
t131 -48q68 0 124 31.5t89 84.5l320 -63q-64 -146 -227 -232t-367 -86zM457 627l395 4q8 80 -37 134t-125 54q-79 0 -140.5 -51.5t-92.5 -140.5z" />
    <glyph glyph-name="Edotaccent" unicode="&#x116;" horiz-adv-x="1325" 
d="M885 1589q-86 0 -133.5 48.5t-34.5 123.5q12 71 74 116.5t147 45.5q87 0 134.5 -48t35.5 -122q-12 -71 -75 -117.5t-148 -46.5zM23 0l260 1466h1128l-59 -340h-711l-43 -245h672l-49 -281h-674l-45 -260h731l-59 -340h-1151z" />
    <glyph glyph-name="edotaccent" unicode="&#x117;" horiz-adv-x="1265" 
d="M760 1171q-95 0 -147.5 60.5t-37.5 154.5q15 90 86.5 147.5t165.5 57.5q96 0 148 -60t35 -153q-15 -91 -85.5 -149t-164.5 -58zM545 -27q-266 0 -403.5 154.5t-92.5 409.5q44 248 235 397t455 149q262 0 394 -152.5t86 -406.5q-4 -54 -23 -102h-772q5 -88 51 -136
t131 -48q68 0 124 31.5t89 84.5l320 -63q-64 -146 -227 -232t-367 -86zM457 627l395 4q8 80 -37 134t-125 54q-79 0 -140.5 -51.5t-92.5 -140.5z" />
    <glyph glyph-name="Eogonek" unicode="&#x118;" horiz-adv-x="1325" 
d="M1352 1126h-711l-43 -245h672l-49 -281h-674l-45 -260h731l-59 -340h-125q-99 -34 -165.5 -88t-76.5 -109q-6 -37 18.5 -59.5t71.5 -22.5q59 0 119 29l-23 -141q-64 -33 -162 -33q-99 0 -152 51t-38 133q10 67 67 129.5t148 110.5h-833l260 1466h1128z" />
    <glyph glyph-name="eogonek" unicode="&#x119;" horiz-adv-x="1265" 
d="M739 1083q262 0 394 -152.5t86 -406.5q-4 -54 -23 -102h-772q5 -88 51 -136t131 -48q68 0 124 31.5t89 84.5l320 -63q-50 -115 -163.5 -193t-264.5 -108q-88 -36 -146 -86t-67 -101q-6 -37 18.5 -59.5t71.5 -22.5q59 0 119 29l-23 -141q-64 -33 -160 -33
q-100 0 -153.5 51t-38.5 133q18 117 172 215q-248 12 -373.5 165t-81.5 397q44 248 235 397t455 149zM852 631q8 80 -37 134t-125 54q-79 0 -140.5 -51.5t-92.5 -140.5z" />
    <glyph glyph-name="Ecaron" unicode="&#x11a;" horiz-adv-x="1325" 
d="M694 1589l-155 258h254l102 -121h23l145 121h256l-246 -258h-379zM23 0l260 1466h1128l-59 -340h-711l-43 -245h672l-49 -281h-674l-45 -260h731l-59 -340h-1151z" />
    <glyph glyph-name="ecaron" unicode="&#x11b;" horiz-adv-x="1265" 
d="M436 1528h262l84 -156h21l133 156h266l-252 -320h-377zM545 -27q-266 0 -403.5 154.5t-92.5 409.5q44 248 235 397t455 149q262 0 394 -152.5t86 -406.5q-4 -54 -23 -102h-772q5 -88 51 -136t131 -48q68 0 124 31.5t89 84.5l320 -63q-64 -146 -227 -232t-367 -86z
M457 627l395 4q8 80 -37 134t-125 54q-79 0 -140.5 -51.5t-92.5 -140.5z" />
    <glyph glyph-name="Gcircumflex" unicode="&#x11c;" horiz-adv-x="1728" 
d="M924 1847h379l157 -258h-254l-104 121h-21l-147 -121h-256zM786 -37q-237 0 -408 97.5t-245.5 274.5t-34.5 402q38 223 174 396.5t339 267.5t440 94q172 0 312 -60t223 -167t93 -242l-409 -70q-12 81 -90.5 134t-186.5 53q-171 0 -302 -115.5t-163 -298.5
q-32 -180 60.5 -296t267.5 -116q141 0 258 79t148 194h-500l45 254l911 -2q-14 -192 -91.5 -356t-200 -279t-288 -179.5t-352.5 -64.5z" />
    <glyph glyph-name="gcircumflex" unicode="&#x11d;" horiz-adv-x="1316" 
d="M373 1180l252 319h374l142 -319h-264l-80 155h-21l-137 -155h-266zM467 -498q-252 0 -391 101.5t-135 287.5l374 48q8 -66 55.5 -105t123.5 -39q99 0 170 63t88 165l20 106l-20 -2q-148 -135 -330 -135q-211 0 -314 146.5t-61 393.5q45 256 197.5 402.5t361.5 146.5
q203 0 299 -157l21 2l24 131h369l-186 -1053q-41 -237 -219 -369.5t-447 -132.5zM600 299q95 0 168 66t90 167q17 100 -30.5 165t-139.5 65q-93 0 -166 -67.5t-92 -170.5q-17 -98 30.5 -161.5t139.5 -63.5z" />
    <glyph glyph-name="Gbreve" unicode="&#x11e;" horiz-adv-x="1728" 
d="M1069 1569q-155 0 -242 79t-65 201l254 -4q-9 -49 12 -77.5t64 -28.5q45 0 79 30.5t41 79.5l254 -4q-22 -121 -134 -198.5t-263 -77.5zM786 -37q-237 0 -408 97.5t-245.5 274.5t-34.5 402q38 223 174 396.5t339 267.5t440 94q172 0 312 -60t223 -167t93 -242l-409 -70
q-12 81 -90.5 134t-186.5 53q-171 0 -302 -115.5t-163 -298.5q-32 -180 60.5 -296t267.5 -116q141 0 258 79t148 194h-500l45 254l911 -2q-14 -192 -91.5 -356t-200 -279t-288 -179.5t-352.5 -64.5z" />
    <glyph glyph-name="gbreve" unicode="&#x11f;" horiz-adv-x="1316" 
d="M766 1214q-144 0 -222 89.5t-55 226.5l232 -4q-19 -129 70 -129q47 0 79 35.5t41 97.5l232 -4q-23 -136 -130 -224t-247 -88zM467 -498q-252 0 -391 101.5t-135 287.5l374 48q8 -66 55.5 -105t123.5 -39q99 0 170 63t88 165l20 106l-20 -2q-148 -135 -330 -135
q-211 0 -314 146.5t-61 393.5q45 256 197.5 402.5t361.5 146.5q203 0 299 -157l21 2l24 131h369l-186 -1053q-41 -237 -219 -369.5t-447 -132.5zM600 299q95 0 168 66t90 167q17 100 -30.5 165t-139.5 65q-93 0 -166 -67.5t-92 -170.5q-17 -98 30.5 -161.5t139.5 -63.5z" />
    <glyph glyph-name="Gdotaccent" unicode="&#x120;" horiz-adv-x="1728" 
d="M1073 1589q-87 0 -134.5 48.5t-35.5 123.5q12 70 75 116t148 46q86 0 134 -48t34 -122q-12 -71 -74.5 -117.5t-146.5 -46.5zM786 -37q-237 0 -408 97.5t-245.5 274.5t-34.5 402q38 223 174 396.5t339 267.5t440 94q172 0 312 -60t223 -167t93 -242l-409 -70
q-12 81 -90.5 134t-186.5 53q-171 0 -302 -115.5t-163 -298.5q-32 -180 60.5 -296t267.5 -116q141 0 258 79t148 194h-500l45 254l911 -2q-14 -192 -91.5 -356t-200 -279t-288 -179.5t-352.5 -64.5z" />
    <glyph glyph-name="gdotaccent" unicode="&#x121;" horiz-adv-x="1316" 
d="M758 1171q-95 0 -147.5 60.5t-37.5 154.5q15 90 86.5 147.5t165.5 57.5q97 0 148.5 -59.5t34.5 -153.5q-15 -91 -85.5 -149t-164.5 -58zM467 -498q-252 0 -391 101.5t-135 287.5l374 48q8 -66 55.5 -105t123.5 -39q99 0 170 63t88 165l20 106l-20 -2q-148 -135 -330 -135
q-211 0 -314 146.5t-61 393.5q45 256 197.5 402.5t361.5 146.5q203 0 299 -157l21 2l24 131h369l-186 -1053q-41 -237 -219 -369.5t-447 -132.5zM600 299q95 0 168 66t90 167q17 100 -30.5 165t-139.5 65q-93 0 -166 -67.5t-92 -170.5q-17 -98 30.5 -161.5t139.5 -63.5z" />
    <glyph glyph-name="Gcommaaccent" unicode="&#x122;" horiz-adv-x="1728" 
d="M786 -37q-237 0 -408 97.5t-245.5 274.5t-34.5 402q38 223 174 396.5t339 267.5t440 94q172 0 312 -60t223 -167t93 -242l-409 -70q-12 81 -90.5 134t-186.5 53q-171 0 -302 -115.5t-163 -298.5q-32 -180 60.5 -296t267.5 -116q141 0 258 79t148 194h-500l45 254l911 -2
q-14 -192 -91.5 -356t-200 -279t-288 -179.5t-352.5 -64.5zM647 -631l-78 39l121 164q-56 11 -85 54.5t-19 101.5q12 66 63 109.5t117 43.5q71 0 108.5 -44t24.5 -111q-11 -60 -76 -140z" />
    <glyph glyph-name="gcommaaccent" unicode="&#x123;" horiz-adv-x="1316" 
d="M879 1688l77 -41l-122 -164q57 -9 87 -52t19 -102q-12 -66 -63 -109.5t-117 -43.5q-71 0 -109 43t-26 112q10 58 77 139zM467 -498q-252 0 -391 101.5t-135 287.5l374 48q8 -66 55.5 -105t123.5 -39q99 0 170 63t88 165l20 106l-20 -2q-148 -135 -330 -135
q-211 0 -314 146.5t-61 393.5q45 256 197.5 402.5t361.5 146.5q203 0 299 -157l21 2l24 131h369l-186 -1053q-41 -237 -219 -369.5t-447 -132.5zM600 299q95 0 168 66t90 167q17 100 -30.5 165t-139.5 65q-93 0 -166 -67.5t-92 -170.5q-17 -98 30.5 -161.5t139.5 -63.5z" />
    <glyph glyph-name="Itilde" unicode="&#x128;" horiz-adv-x="665" 
d="M674 1624q-52 0 -97.5 16.5t-72 37t-57.5 37t-58 16.5q-37 0 -78 -25t-73 -64l-129 119q144 164 303 164q51 0 96.5 -17t72 -37t59.5 -37t62 -17q40 0 80.5 25t67.5 63l135 -103q-79 -89 -153.5 -133.5t-157.5 -44.5zM25 0l258 1466h432l-258 -1466h-432z" />
    <glyph glyph-name="itilde" unicode="&#x129;" horiz-adv-x="565" 
d="M563 1194q-51 0 -96.5 16.5t-72.5 36.5t-59 36.5t-59 16.5q-37 0 -77 -22.5t-70 -58.5l-129 118q144 164 305 164q51 0 96.5 -17t72 -37t59.5 -37t63 -17q40 0 79.5 24t65.5 60l133 -105q-79 -89 -153 -133.5t-158 -44.5zM-2 0l186 1057h385l-188 -1057h-383z" />
    <glyph glyph-name="Imacron" unicode="&#x12a;" horiz-adv-x="665" 
d="M172 1667l41 229h723l-41 -229h-723zM25 0l258 1466h432l-258 -1466h-432z" />
    <glyph glyph-name="imacron" unicode="&#x12b;" horiz-adv-x="565" 
d="M49 1257l41 230h723l-41 -230h-723zM-2 0l186 1057h385l-188 -1057h-383z" />
    <glyph glyph-name="Iogonek" unicode="&#x12e;" horiz-adv-x="665" 
d="M283 1466h432l-258 -1466h-72q-99 -34 -165 -88t-75 -109q-8 -37 16.5 -59.5t71.5 -22.5q59 0 119 29l-20 -141q-68 -33 -162 -33q-100 0 -154 51t-39 133q12 67 69 129.5t147 110.5h-168z" />
    <glyph glyph-name="iogonek" unicode="&#x12f;" horiz-adv-x="575" 
d="M473 1591q97 0 148 -59.5t34 -153.5q-15 -91 -85 -149t-164 -58q-95 0 -147.5 60.5t-37.5 154.5q15 90 86.5 147.5t165.5 57.5zM2 0l188 1057h383l-186 -1057h-61q-99 -34 -165 -88t-75 -109q-8 -37 16.5 -59.5t71.5 -22.5q59 0 119 29l-21 -141q-68 -33 -161 -33
q-100 0 -153.5 51t-39.5 133q12 67 69 130t148 110h-133z" />
    <glyph glyph-name="Idotaccent" unicode="&#x130;" horiz-adv-x="665" 
d="M522 1589q-86 0 -133 48.5t-35 123.5q12 71 74 116.5t147 45.5q87 0 134.5 -48t35.5 -122q-12 -71 -75 -117.5t-148 -46.5zM25 0l258 1466h432l-258 -1466h-432z" />
    <glyph glyph-name="dotlessi" unicode="&#x131;" horiz-adv-x="565" 
d="M-2 0l184 1057h385l-186 -1057h-383z" />
    <glyph glyph-name="IJ" unicode="&#x132;" horiz-adv-x="1632" 
d="M25 0l258 1466h432l-258 -1466h-432zM907 -27q-176 0 -301 41l53 318q93 -19 177 -19q97 0 169 65t89 169l163 919h433l-174 -979q-39 -228 -211 -371t-398 -143z" />
    <glyph glyph-name="ij" unicode="&#x133;" horiz-adv-x="1157" 
d="M406 1171q-95 0 -147.5 60.5t-37.5 154.5q15 90 86.5 147.5t165.5 57.5q97 0 148 -59.5t34 -153.5q-15 -91 -85 -149t-164 -58zM981 1171q-96 0 -147.5 61t-34.5 154q15 90 85.5 147.5t164.5 57.5q97 0 148 -59.5t36 -153.5q-17 -91 -87 -149t-165 -58zM2 0l188 1057h383
l-186 -1057h-385zM494 -483q-130 0 -252 37l49 296q47 -12 115 -12q65 0 111.5 38t57.5 99l191 1082h385l-199 -1127q-34 -186 -160 -299.5t-298 -113.5z" />
    <glyph glyph-name="Kcommaaccent" unicode="&#x136;" horiz-adv-x="1501" 
d="M23 0l260 1466h432l-101 -571h19l506 571h510l-664 -698l410 -768h-510l-299 625h-21l-110 -625h-432zM530 -631l-77 39l120 164q-56 11 -85 54.5t-19 101.5q11 66 62 109.5t118 43.5q69 0 107 -44t26 -111q-11 -62 -75 -140z" />
    <glyph glyph-name="kcommaaccent" unicode="&#x137;" horiz-adv-x="1226" 
d="M-4 0l270 1528h383l-149 -858h20l340 387h453l-484 -508l301 -549h-452l-201 424h-20l-76 -424h-385zM385 -631l-78 39l121 164q-56 11 -85 54.5t-19 101.5q11 66 62 109.5t118 43.5q70 0 108 -44t25 -111q-11 -60 -76 -140z" />
    <glyph glyph-name="Lacute" unicode="&#x139;" horiz-adv-x="1228" 
d="M360 1589l277 258h352l-340 -258h-289zM25 0l258 1466h432l-193 -1097h631l-66 -369h-1062z" />
    <glyph glyph-name="lacute" unicode="&#x13a;" horiz-adv-x="563" 
d="M309 1589l277 258h352l-340 -258h-289zM-4 0l268 1528h385l-270 -1528h-383z" />
    <glyph glyph-name="Lcommaaccent" unicode="&#x13b;" horiz-adv-x="1228" 
d="M25 0l258 1466h432l-193 -1097h631l-66 -369h-1062zM418 -631l-78 39l123 164q-57 11 -87 54.5t-20 101.5q12 66 63.5 109.5t117.5 43.5q71 0 109 -44t26 -111q-11 -62 -78 -140z" />
    <glyph glyph-name="lcommaaccent" unicode="&#x13c;" horiz-adv-x="563" 
d="M-4 0l268 1528h385l-270 -1528h-383zM45 -631l-78 39l121 164q-56 11 -85 54.5t-19 101.5q11 66 62 109.5t118 43.5q69 0 107 -44t26 -111q-11 -60 -76 -140z" />
    <glyph glyph-name="Lcaron" unicode="&#x13d;" horiz-adv-x="1228" 
d="M868 975l-77 41l120 164q-56 9 -85 52t-19 101q12 67 62.5 110.5t117.5 43.5q69 0 107 -43.5t26 -112.5q-6 -31 -23 -61t-53 -78zM25 0l258 1466h432l-193 -1097h631l-66 -369h-1062z" />
    <glyph glyph-name="lcaron" unicode="&#x13e;" horiz-adv-x="571" 
d="M795 1022l-76 41l121 164q-56 9 -86 52t-21 101q12 66 63.5 110t118.5 44q70 0 108 -44t26 -112q-10 -55 -76 -139zM-4 0l268 1528h385l-270 -1528h-383z" />
    <glyph glyph-name="Lslash" unicode="&#x141;" horiz-adv-x="1370" 
d="M721 686l-57 -317h630l-63 -369h-1063l74 418l-236 -133l55 319l236 133l129 729h432l-82 -458l518 290l-55 -319z" />
    <glyph glyph-name="lslash" unicode="&#x142;" horiz-adv-x="954" 
d="M1059 1241l-55 -319l-297 -170l-134 -752h-383l89 506l-291 -168l55 319l293 168l123 703h385l-80 -457z" />
    <glyph glyph-name="Nacute" unicode="&#x143;" horiz-adv-x="1601" 
d="M846 1589l278 258h353l-340 -258h-291zM23 0l260 1466h460l322 -909h20l160 909h406l-260 -1466h-461l-322 907h-20l-162 -907h-403z" />
    <glyph glyph-name="nacute" unicode="&#x144;" 
d="M887 1208h-273l267 320h329zM-4 0l188 1057h383l-26 -156l18 2q78 93 156 135.5t170 42.5q166 0 250.5 -119.5t50.5 -304.5l-115 -657h-385l105 590q14 77 -16.5 123.5t-96.5 46.5q-69 0 -125.5 -51.5t-69.5 -128.5l-102 -580h-385z" />
    <glyph glyph-name="Ncommaaccent" unicode="&#x145;" horiz-adv-x="1601" 
d="M23 0l260 1466h460l322 -909h20l160 909h406l-260 -1466h-461l-322 907h-20l-162 -907h-403zM580 -631l-78 39l121 164q-56 11 -85.5 54.5t-19.5 101.5q12 66 63 109.5t117 43.5q70 0 108 -44t25 -111q-11 -62 -75 -140z" />
    <glyph glyph-name="ncommaaccent" unicode="&#x146;" 
d="M-4 0l188 1057h383l-26 -156l18 2q78 93 156 135.5t170 42.5q166 0 250.5 -119.5t50.5 -304.5l-115 -657h-385l105 590q14 77 -16.5 123.5t-96.5 46.5q-69 0 -125.5 -51.5t-69.5 -128.5l-102 -580h-385zM393 -631l-78 39l121 164q-56 11 -85 54.5t-19 101.5
q12 66 63 109.5t117 43.5q71 0 108.5 -44t24.5 -111q-11 -60 -76 -140z" />
    <glyph glyph-name="Ncaron" unicode="&#x147;" horiz-adv-x="1601" 
d="M817 1589l-155 258h253l105 -121h22l146 121h256l-246 -258h-381zM23 0l260 1466h460l322 -909h20l160 909h406l-260 -1466h-461l-322 907h-20l-162 -907h-403z" />
    <glyph glyph-name="ncaron" unicode="&#x148;" 
d="M430 1528h262l84 -156h21l133 156h268l-254 -320h-375zM-4 0l188 1057h383l-26 -156l18 2q78 93 156 135.5t170 42.5q166 0 250.5 -119.5t50.5 -304.5l-115 -657h-385l105 590q14 77 -16.5 123.5t-96.5 46.5q-69 0 -125.5 -51.5t-69.5 -128.5l-102 -580h-385z" />
    <glyph glyph-name="Omacron" unicode="&#x14c;" horiz-adv-x="1765" 
d="M723 1667l41 229h723l-41 -229h-723zM786 -31q-244 0 -414.5 93.5t-243 268.5t-32.5 406q40 229 173.5 401.5t335.5 264.5t444 92q371 0 562 -208.5t130 -557.5q-41 -230 -174.5 -402.5t-335.5 -265t-445 -92.5zM842 324q176 0 304.5 113t162.5 300q32 182 -56 294
t-260 112q-174 0 -303.5 -114.5t-161.5 -299.5q-34 -182 53.5 -293.5t260.5 -111.5z" />
    <glyph glyph-name="omacron" unicode="&#x14d;" horiz-adv-x="1284" 
d="M408 1257l41 230h725l-41 -230h-725zM547 -27q-275 0 -410.5 149.5t-91.5 409.5q45 256 232 403.5t460 147.5q275 0 411.5 -150.5t90.5 -408.5q-45 -256 -232 -403.5t-460 -147.5zM598 295q95 0 167 66.5t91 170.5q17 102 -30 166t-140 64q-95 0 -167 -66.5t-91 -171.5
q-17 -102 30 -165.5t140 -63.5z" />
    <glyph glyph-name="Obreve" unicode="&#x14e;" horiz-adv-x="1765" 
d="M1069 1569q-155 0 -242 79t-65 201l254 -4q-9 -49 12 -77.5t64 -28.5q46 0 79.5 30.5t42.5 79.5l252 -4q-20 -121 -132 -198.5t-265 -77.5zM786 -31q-244 0 -414.5 93.5t-243 268.5t-32.5 406q40 229 173.5 401.5t335.5 264.5t444 92q371 0 562 -208.5t130 -557.5
q-41 -230 -174.5 -402.5t-335.5 -265t-445 -92.5zM842 324q176 0 304.5 113t162.5 300q32 182 -56 294t-260 112q-174 0 -303.5 -114.5t-161.5 -299.5q-34 -182 53.5 -293.5t260.5 -111.5z" />
    <glyph glyph-name="obreve" unicode="&#x14f;" horiz-adv-x="1284" 
d="M766 1214q-144 0 -220.5 89.5t-53.5 226.5l231 -4q-11 -62 7.5 -95.5t62.5 -33.5q46 0 77.5 35.5t42.5 97.5l232 -4q-25 -136 -131.5 -224t-247.5 -88zM547 -27q-275 0 -410.5 149.5t-91.5 409.5q45 256 232 403.5t460 147.5q275 0 411.5 -150.5t90.5 -408.5
q-45 -256 -232 -403.5t-460 -147.5zM598 295q95 0 167 66.5t91 170.5q17 102 -30 166t-140 64q-95 0 -167 -66.5t-91 -171.5q-17 -102 30 -165.5t140 -63.5z" />
    <glyph glyph-name="Ohungarumlaut" unicode="&#x150;" horiz-adv-x="1765" 
d="M733 1589l236 258h295l-285 -258h-246zM1128 1589l254 258h295l-301 -258h-248zM786 -31q-244 0 -414.5 93.5t-243 268.5t-32.5 406q40 229 173.5 401.5t335.5 264.5t444 92q371 0 562 -208.5t130 -557.5q-41 -230 -174.5 -402.5t-335.5 -265t-445 -92.5zM842 324
q176 0 304.5 113t162.5 300q32 182 -56 294t-260 112q-174 0 -303.5 -114.5t-161.5 -299.5q-34 -182 53.5 -293.5t260.5 -111.5z" />
    <glyph glyph-name="ohungarumlaut" unicode="&#x151;" horiz-adv-x="1284" 
d="M430 1208l236 316h313l-293 -316h-256zM1085 1208l-268 2l281 314h327zM547 -27q-275 0 -410.5 149.5t-91.5 409.5q45 256 232 403.5t460 147.5q275 0 411.5 -150.5t90.5 -408.5q-45 -256 -232 -403.5t-460 -147.5zM598 295q95 0 167 66.5t91 170.5q17 102 -30 166
t-140 64q-95 0 -167 -66.5t-91 -171.5q-17 -102 30 -165.5t140 -63.5z" />
    <glyph glyph-name="OE" unicode="&#x152;" horiz-adv-x="2105" 
d="M721 -45q-235 0 -391 97.5t-215 274t-17 410.5q61 351 300 562.5t591 211.5q131 0 240 -47l966 2l-59 -340h-549l-41 -235h465l-51 -295h-465l-47 -256h567l-59 -340h-979q-119 -45 -256 -45zM819 324q131 0 217 61l125 696q-30 29 -80.5 45.5t-103.5 16.5
q-164 0 -290.5 -116t-158.5 -298q-31 -178 51.5 -291.5t239.5 -113.5z" />
    <glyph glyph-name="oe" unicode="&#x153;" horiz-adv-x="2080" 
d="M1563 1083q253 0 383 -155t86 -404q-9 -68 -23 -102h-774q0 -76 51.5 -123t134.5 -47q64 0 122 28.5t89 73.5l301 -82q-68 -138 -222.5 -218.5t-340.5 -80.5q-259 0 -379 179q-173 -179 -452 -179q-263 0 -399.5 152.5t-92.5 406.5q44 249 230.5 400t437.5 151
q137 0 239 -48.5t160 -137.5q87 89 203 137.5t246 48.5zM1665 631q7 84 -37.5 136t-122.5 52q-81 0 -145.5 -53.5t-89.5 -138.5zM858 532q17 102 -30 166t-140 64q-95 0 -167 -66.5t-91 -171.5q-17 -102 30 -165.5t140 -63.5q95 0 167 66.5t91 170.5z" />
    <glyph glyph-name="Racute" unicode="&#x154;" horiz-adv-x="1519" 
d="M786 1589l277 258h352l-340 -258h-289zM25 0l258 1466h737q269 0 409.5 -138.5t100.5 -364.5q-30 -175 -153.5 -294t-293.5 -149l-18 -4l342 -516h-481l-279 483h-104l-86 -483h-432zM592 764h229q105 0 182.5 54.5t94.5 146.5q15 88 -42.5 139t-162.5 51h-231z" />
    <glyph glyph-name="racute" unicode="&#x155;" horiz-adv-x="890" 
d="M741 1208h-274l266 320h330zM-4 0l188 1057h381l-26 -150l20 2q50 78 123 123t152 45q65 0 112 -26l-55 -340q-94 43 -174 43q-90 0 -157.5 -64.5t-86.5 -167.5l-92 -522h-385z" />
    <glyph glyph-name="Rcommaaccent" unicode="&#x156;" horiz-adv-x="1519" 
d="M25 0l258 1466h737q269 0 409.5 -138.5t100.5 -364.5q-30 -175 -153.5 -294t-293.5 -149l-18 -4l342 -516h-481l-279 483h-104l-86 -483h-432zM592 764h229q105 0 182.5 54.5t94.5 146.5q15 88 -42.5 139t-162.5 51h-231zM555 -631l-78 39l121 164q-56 11 -85 54.5
t-19 101.5q12 66 62.5 109.5t117.5 43.5q70 0 108 -44t25 -111q-11 -60 -76 -140z" />
    <glyph glyph-name="rcommaaccent" unicode="&#x157;" horiz-adv-x="890" 
d="M-4 0l188 1057h381l-26 -150l20 2q50 78 123 123t152 45q65 0 112 -26l-55 -340q-94 43 -174 43q-90 0 -157.5 -64.5t-86.5 -167.5l-92 -522h-385zM49 -631l-76 39l121 164q-56 11 -85.5 54.5t-20.5 101.5q12 66 63.5 109.5t118.5 43.5q69 0 107 -44t26 -111
q-11 -60 -76 -140z" />
    <glyph glyph-name="Rcaron" unicode="&#x158;" horiz-adv-x="1519" 
d="M758 1589l-156 258h254l105 -121h22l143 121h258l-247 -258h-379zM25 0l258 1466h737q269 0 409.5 -138.5t100.5 -364.5q-30 -175 -153.5 -294t-293.5 -149l-18 -4l342 -516h-481l-279 483h-104l-86 -483h-432zM592 764h229q105 0 182.5 54.5t94.5 146.5q15 88 -42.5 139
t-162.5 51h-231z" />
    <glyph glyph-name="rcaron" unicode="&#x159;" horiz-adv-x="890" 
d="M283 1528h264l82 -156h20l133 156h269l-254 -320h-375zM-4 0l188 1057h381l-26 -150l20 2q50 78 123 123t152 45q65 0 112 -26l-55 -340q-94 43 -174 43q-90 0 -157.5 -64.5t-86.5 -167.5l-92 -522h-385z" />
    <glyph glyph-name="Sacute" unicode="&#x15a;" horiz-adv-x="1476" 
d="M762 1589l276 258h353l-340 -258h-289zM639 -31q-300 0 -460 143.5t-122 372.5l406 -4q-15 -93 47.5 -146.5t191.5 -53.5q107 0 177 38.5t82 106.5q4 25 -1 45.5t-22 35t-36 24.5t-51.5 18t-60 13t-69.5 11q-12 2 -36 5q-102 14 -158.5 24.5t-147.5 41.5t-135.5 73.5
t-72.5 120t-9 180.5q38 217 234 347t485 130q292 0 446.5 -143t114.5 -371l-391 4q18 95 -38 148t-167 53q-102 0 -169.5 -40t-78.5 -104q-5 -31 7 -54t36.5 -37.5t61.5 -25t79.5 -17.5t92.5 -14h3.5t3 -0.5t3.5 -0.5q97 -15 155.5 -27t145 -44.5t131 -76t71 -121.5
t9.5 -180q-38 -216 -245.5 -345.5t-512.5 -129.5z" />
    <glyph glyph-name="sacute" unicode="&#x15b;" horiz-adv-x="1157" 
d="M807 1208h-275l267 320h331zM469 -35q-238 0 -361 103t-92 280l328 -2q-12 -66 33.5 -106.5t134.5 -40.5q70 0 118.5 28.5t57.5 77.5q3 18 -0.5 32t-16.5 23.5t-27 15.5t-40 10.5t-45 7t-53 5.5q-164 16 -234 38q-195 60 -186 243q2 24 6 49q29 166 180.5 263.5
t376.5 97.5t353.5 -98.5t99.5 -258.5l-340 4q7 55 -32.5 88t-113.5 33q-66 0 -113 -28t-54 -72q-4 -25 8.5 -41.5t42 -25.5t63.5 -14t82 -10q32 -3 49 -5q67 -7 117.5 -16.5t109.5 -32.5t94.5 -55.5t54 -88.5t5.5 -129q-31 -175 -192.5 -275t-413.5 -100z" />
    <glyph glyph-name="Scircumflex" unicode="&#x15c;" horiz-adv-x="1476" 
d="M776 1847h379l156 -258h-254l-103 121h-22l-146 -121h-256zM639 -31q-300 0 -460 143.5t-122 372.5l406 -4q-15 -93 47.5 -146.5t191.5 -53.5q107 0 177 38.5t82 106.5q4 25 -1 45.5t-22 35t-36 24.5t-51.5 18t-60 13t-69.5 11q-12 2 -36 5q-102 14 -158.5 24.5
t-147.5 41.5t-135.5 73.5t-72.5 120t-9 180.5q38 217 234 347t485 130q292 0 446.5 -143t114.5 -371l-391 4q18 95 -38 148t-167 53q-102 0 -169.5 -40t-78.5 -104q-5 -31 7 -54t36.5 -37.5t61.5 -25t79.5 -17.5t92.5 -14h3.5t3 -0.5t3.5 -0.5q97 -15 155.5 -27t145 -44.5
t131 -76t71 -121.5t9.5 -180q-38 -216 -245.5 -345.5t-512.5 -129.5z" />
    <glyph glyph-name="scircumflex" unicode="&#x15d;" horiz-adv-x="1157" 
d="M289 1180l252 319h374l142 -319h-266l-78 155h-21l-137 -155h-266zM469 -35q-238 0 -361 103t-92 280l328 -2q-12 -66 33.5 -106.5t134.5 -40.5q70 0 118.5 28.5t57.5 77.5q3 18 -0.5 32t-16.5 23.5t-27 15.5t-40 10.5t-45 7t-53 5.5q-164 16 -234 38q-195 60 -186 243
q2 24 6 49q29 166 180.5 263.5t376.5 97.5t353.5 -98.5t99.5 -258.5l-340 4q7 55 -32.5 88t-113.5 33q-66 0 -113 -28t-54 -72q-4 -25 8.5 -41.5t42 -25.5t63.5 -14t82 -10q32 -3 49 -5q67 -7 117.5 -16.5t109.5 -32.5t94.5 -55.5t54 -88.5t5.5 -129q-31 -175 -192.5 -275
t-413.5 -100z" />
    <glyph glyph-name="Scedilla" unicode="&#x15e;" horiz-adv-x="1476" 
d="M1442 981l-391 4q18 95 -38 148t-167 53q-102 0 -169.5 -40t-78.5 -104q-5 -31 7 -54t36.5 -37.5t61.5 -25t79.5 -17.5t92.5 -14h3.5t3 -0.5t3.5 -0.5q97 -15 155.5 -27t145 -44.5t131 -76t71 -121.5t9.5 -180q-35 -200 -219 -328t-459 -145l-21 -57q88 -6 136.5 -59
t35.5 -129q-14 -80 -89.5 -131.5t-180.5 -51.5q-94 0 -155 42.5t-72 109.5l151 63q4 -32 28.5 -52.5t57.5 -20.5t58.5 19.5t31.5 49.5q6 32 -20.5 53t-73.5 21h-106l51 145q-261 22 -395 161.5t-99 350.5l406 -4q-15 -93 47.5 -146.5t191.5 -53.5q107 0 177 38.5t82 106.5
q4 25 -1 45.5t-22 35t-36 24.5t-51.5 18t-60 13t-69.5 11q-12 2 -36 5q-102 14 -158.5 24.5t-147.5 41.5t-135.5 73.5t-72.5 120t-9 180.5q38 217 234 347t485 130q292 0 446.5 -143t114.5 -371z" />
    <glyph glyph-name="scedilla" unicode="&#x15f;" horiz-adv-x="1157" 
d="M1102 733l-340 4q7 55 -32.5 88t-113.5 33q-66 0 -113 -28t-54 -72q-4 -25 8.5 -41.5t42 -25.5t63.5 -14t82 -10q32 -3 49 -5q67 -7 117.5 -16.5t109.5 -32.5t94.5 -55.5t54 -88.5t5.5 -129q-29 -163 -171.5 -261t-368.5 -112l-19 -53q88 -6 136.5 -59t35.5 -129
q-14 -80 -89.5 -131.5t-180.5 -51.5q-94 0 -155.5 42.5t-72.5 109.5l152 63q4 -32 28.5 -52.5t57.5 -20.5t58.5 19.5t31.5 49.5q6 32 -20.5 53t-73.5 21h-107l52 143q-192 22 -286.5 121.5t-66.5 255.5l328 -2q-12 -66 33.5 -106.5t134.5 -40.5q70 0 118.5 28.5t57.5 77.5
q3 18 -0.5 32t-16.5 23.5t-27 15.5t-40 10.5t-45 7t-53 5.5q-164 16 -234 38q-195 60 -186 243q2 24 6 49q29 166 180.5 263.5t376.5 97.5t353.5 -98.5t99.5 -258.5z" />
    <glyph glyph-name="Scaron" unicode="&#x160;" horiz-adv-x="1476" 
d="M733 1589l-155 258h253l105 -121h22l144 121h258l-248 -258h-379zM639 -31q-300 0 -460 143.5t-122 372.5l406 -4q-15 -93 47.5 -146.5t191.5 -53.5q107 0 177 38.5t82 106.5q4 25 -1 45.5t-22 35t-36 24.5t-51.5 18t-60 13t-69.5 11q-12 2 -36 5q-102 14 -158.5 24.5
t-147.5 41.5t-135.5 73.5t-72.5 120t-9 180.5q38 217 234 347t485 130q292 0 446.5 -143t114.5 -371l-391 4q18 95 -38 148t-167 53q-102 0 -169.5 -40t-78.5 -104q-5 -31 7 -54t36.5 -37.5t61.5 -25t79.5 -17.5t92.5 -14h3.5t3 -0.5t3.5 -0.5q97 -15 155.5 -27t145 -44.5
t131 -76t71 -121.5t9.5 -180q-38 -216 -245.5 -345.5t-512.5 -129.5z" />
    <glyph glyph-name="scaron" unicode="&#x161;" horiz-adv-x="1157" 
d="M348 1528h264l84 -156h21l131 156h268l-252 -320h-377zM469 -35q-238 0 -361 103t-92 280l328 -2q-12 -66 33.5 -106.5t134.5 -40.5q70 0 118.5 28.5t57.5 77.5q3 18 -0.5 32t-16.5 23.5t-27 15.5t-40 10.5t-45 7t-53 5.5q-164 16 -234 38q-195 60 -186 243q2 24 6 49
q29 166 180.5 263.5t376.5 97.5t353.5 -98.5t99.5 -258.5l-340 4q7 55 -32.5 88t-113.5 33q-66 0 -113 -28t-54 -72q-4 -25 8.5 -41.5t42 -25.5t63.5 -14t82 -10q32 -3 49 -5q67 -7 117.5 -16.5t109.5 -32.5t94.5 -55.5t54 -88.5t5.5 -129q-31 -175 -192.5 -275t-413.5 -100
z" />
    <glyph glyph-name="uni0162" unicode="&#x162;" horiz-adv-x="1390" 
d="M385 0l197 1112h-457l61 354h1348l-61 -354h-459l-197 -1112h-432zM459 -631l-78 39l121 164q-56 11 -85.5 54.5t-19.5 101.5q12 66 63.5 109.5t117.5 43.5q70 0 108 -44t25 -111q-11 -60 -76 -140z" />
    <glyph glyph-name="uni0163" unicode="&#x163;" horiz-adv-x="819" 
d="M449 -27q-174 0 -259 113t-53 297l72 401h-137l49 273h149l127 329h301l-57 -329h221l-47 -273h-223l-68 -387q-11 -62 15.5 -98.5t83.5 -36.5q46 0 104 14l-43 -266q-107 -37 -235 -37zM246 -627l-78 41l121 164q-56 9 -85.5 53.5t-19.5 102.5q12 66 63.5 108.5
t117.5 42.5q71 0 108 -43t25 -110q-10 -59 -76 -140z" />
    <glyph glyph-name="Tcaron" unicode="&#x164;" horiz-adv-x="1390" 
d="M694 1589l-155 258h254l104 -121h23l143 121h258l-248 -258h-379zM385 0l197 1112h-457l61 354h1348l-61 -354h-459l-197 -1112h-432z" />
    <glyph glyph-name="tcaron" unicode="&#x165;" horiz-adv-x="819" 
d="M807 1122l-76 41l119 164q-54 9 -84 52.5t-21 101.5q10 66 62.5 109.5t120.5 43.5q70 0 107 -43.5t24 -111.5q-7 -55 -74 -140zM449 -27q-174 0 -259 113t-53 297l72 401h-137l49 273h149l127 329h301l-57 -329h221l-47 -273h-223l-68 -387q-11 -62 15.5 -98.5
t83.5 -36.5q46 0 104 14l-43 -266q-107 -37 -235 -37z" />
    <glyph glyph-name="Utilde" unicode="&#x168;" horiz-adv-x="1589" 
d="M1139 1624q-51 0 -96.5 16.5t-72.5 37t-58 37t-58 16.5q-37 0 -78.5 -25t-73.5 -64l-129 119q144 164 306 164q51 0 96 -17t71.5 -37t59 -37t61.5 -17q40 0 80.5 25t67.5 63l135 -103q-79 -89 -153 -133.5t-158 -44.5zM700 -31q-205 0 -347.5 77t-204 221.5t-27.5 336.5
l151 862h433l-150 -850q-23 -135 31 -213.5t170 -78.5q117 0 202.5 81t108.5 213l150 848h432l-154 -864q-51 -290 -269 -461.5t-526 -171.5z" />
    <glyph glyph-name="utilde" unicode="&#x169;" 
d="M891 1194q-51 0 -96.5 16.5t-72.5 36.5t-59 36.5t-59 16.5q-38 0 -78.5 -22.5t-68.5 -58.5l-129 118q144 164 303 164q51 0 96.5 -17t72.5 -37t60.5 -37t63.5 -17q39 0 78 24t65 60l135 -105q-79 -89 -153 -133.5t-158 -44.5zM1245 1057l-188 -1057h-383l26 156l-18 -2
q-78 -93 -156 -136t-170 -43q-166 0 -250.5 119.5t-50.5 304.5l115 658h385l-104 -590q-14 -77 16.5 -124.5t95.5 -47.5q69 0 125.5 51.5t69.5 128.5l102 582h385z" />
    <glyph glyph-name="Umacron" unicode="&#x16a;" horiz-adv-x="1589" 
d="M637 1667l41 229h723l-41 -229h-723zM700 -31q-205 0 -347.5 77t-204 221.5t-27.5 336.5l151 862h433l-150 -850q-23 -135 31 -213.5t170 -78.5q117 0 202.5 81t108.5 213l150 848h432l-154 -864q-51 -290 -269 -461.5t-526 -171.5z" />
    <glyph glyph-name="umacron" unicode="&#x16b;" 
d="M377 1257l41 230h723l-41 -230h-723zM1245 1057l-188 -1057h-383l26 156l-18 -2q-78 -93 -156 -136t-170 -43q-166 0 -250.5 119.5t-50.5 304.5l115 658h385l-104 -590q-14 -77 16.5 -124.5t95.5 -47.5q69 0 125.5 51.5t69.5 128.5l102 582h385z" />
    <glyph glyph-name="Ubreve" unicode="&#x16c;" horiz-adv-x="1589" 
d="M983 1569q-154 0 -240.5 79t-66.5 201l254 -4q-7 -49 13.5 -77.5t62.5 -28.5q46 0 79.5 30.5t42.5 79.5l254 -4q-22 -121 -134 -198.5t-265 -77.5zM700 -31q-205 0 -347.5 77t-204 221.5t-27.5 336.5l151 862h433l-150 -850q-23 -135 31 -213.5t170 -78.5q117 0 202.5 81
t108.5 213l150 848h432l-154 -864q-51 -290 -269 -461.5t-526 -171.5z" />
    <glyph glyph-name="ubreve" unicode="&#x16d;" 
d="M735 1214q-144 0 -221.5 89.5t-52.5 226.5l229 -4q-19 -129 70 -129q47 0 79.5 35.5t41.5 97.5l231 -4q-23 -136 -129.5 -224t-247.5 -88zM1245 1057l-188 -1057h-383l26 156l-18 -2q-78 -93 -156 -136t-170 -43q-166 0 -250.5 119.5t-50.5 304.5l115 658h385l-104 -590
q-14 -77 16.5 -124.5t95.5 -47.5q69 0 125.5 51.5t69.5 128.5l102 582h385z" />
    <glyph glyph-name="Uring" unicode="&#x16e;" horiz-adv-x="1589" 
d="M987 1577q-109 0 -167.5 55.5t-43.5 143.5q15 86 90 138t181 52q109 0 167 -55t43 -144q-15 -85 -89.5 -137.5t-180.5 -52.5zM999 1688q44 0 76.5 25t40.5 63q6 35 -16.5 57t-63.5 22q-45 0 -77.5 -24.5t-38.5 -63.5q-6 -35 16 -57t63 -22zM700 -31q-205 0 -347.5 77
t-204 221.5t-27.5 336.5l151 862h433l-150 -850q-23 -135 31 -213.5t170 -78.5q117 0 202.5 81t108.5 213l150 848h432l-154 -864q-51 -290 -269 -461.5t-526 -171.5z" />
    <glyph glyph-name="uring" unicode="&#x16f;" 
d="M731 1188q-116 0 -176 66t-41 173q19 104 99.5 168t193.5 64q115 0 174.5 -66.5t40.5 -173.5q-19 -104 -98.5 -167.5t-192.5 -63.5zM745 1313q50 0 88.5 32t47.5 82q7 47 -17.5 77t-70.5 30q-51 0 -90 -32t-46 -83q-8 -46 16.5 -76t71.5 -30zM1245 1057l-188 -1057h-383
l26 156l-18 -2q-78 -93 -156 -136t-170 -43q-166 0 -250.5 119.5t-50.5 304.5l115 658h385l-104 -590q-14 -77 16.5 -124.5t95.5 -47.5q69 0 125.5 51.5t69.5 128.5l102 582h385z" />
    <glyph glyph-name="Uhungarumlaut" unicode="&#x170;" horiz-adv-x="1589" 
d="M647 1589l236 258h295l-285 -258h-246zM1044 1589l252 258h297l-303 -258h-246zM700 -31q-205 0 -347.5 77t-204 221.5t-27.5 336.5l151 862h433l-150 -850q-23 -135 31 -213.5t170 -78.5q117 0 202.5 81t108.5 213l150 848h432l-154 -864q-51 -290 -269 -461.5
t-526 -171.5z" />
    <glyph glyph-name="uhungarumlaut" unicode="&#x171;" 
d="M397 1208l236 316h315l-295 -316h-256zM1053 1208l-267 2l281 314h326zM1245 1057l-188 -1057h-383l26 156l-18 -2q-78 -93 -156 -136t-170 -43q-166 0 -250.5 119.5t-50.5 304.5l115 658h385l-104 -590q-14 -77 16.5 -124.5t95.5 -47.5q69 0 125.5 51.5t69.5 128.5
l102 582h385z" />
    <glyph glyph-name="Uogonek" unicode="&#x172;" horiz-adv-x="1589" 
d="M1217 1466h432l-154 -864q-42 -245 -207 -407.5t-407 -208.5q-85 -34 -140.5 -83t-64.5 -100q-6 -37 18.5 -59.5t71.5 -22.5q59 0 119 29l-23 -141q-64 -33 -162 -33q-99 0 -152 51t-38 133q18 115 164 209q-298 8 -450 179.5t-103 455.5l151 862h433l-150 -850
q-23 -135 31 -213.5t170 -78.5q117 0 202.5 81t108.5 213z" />
    <glyph glyph-name="uogonek" unicode="&#x173;" 
d="M860 1057h385l-188 -1057h-211q-99 -34 -165 -88t-75 -109q-8 -37 16.5 -59.5t71.5 -22.5q59 0 119 29l-20 -141q-68 -33 -162 -33q-100 0 -153.5 51t-39.5 133q12 70 74.5 134.5t163.5 115.5l24 146l-18 -2q-78 -93 -156 -136t-170 -43q-166 0 -250.5 119.5t-50.5 304.5
l115 658h385l-104 -590q-14 -77 16.5 -124.5t95.5 -47.5q69 0 125.5 51.5t69.5 128.5z" />
    <glyph glyph-name="Wcircumflex" unicode="&#x174;" horiz-adv-x="2502" 
d="M1292 1847h379l156 -258h-254l-103 121h-22l-145 -121h-256zM342 0l-137 1466h430l86 -1075h20l461 1075h428l84 -1075h21l460 1075h435l-656 -1466h-600l-49 889h-20l-361 -889h-602z" />
    <glyph glyph-name="wcircumflex" unicode="&#x175;" horiz-adv-x="1892" 
d="M678 1180l252 319h375l141 -319h-264l-80 155h-21l-137 -155h-266zM225 0l-110 1057h395l47 -670h21l284 670h350l62 -680h20l287 680h381l-483 -1057h-488l-22 606h-21l-235 -606h-488z" />
    <glyph glyph-name="Ycircumflex" unicode="&#x176;" horiz-adv-x="1478" 
d="M784 1847h379l156 -258h-254l-102 121h-23l-145 -121h-258zM436 0l88 500l-338 966h447l164 -589h20l352 589h457l-670 -966l-88 -500h-432z" />
    <glyph glyph-name="ycircumflex" unicode="&#x177;" horiz-adv-x="1267" 
d="M403 1180l250 319h377l139 -319h-264l-80 155h-20l-137 -155h-265zM223 -481q-60 0 -130.5 11t-110.5 28l49 297q74 -31 162 -31q146 0 239 162l-330 1071h414l135 -584h21l286 584h396l-596 -1108q-122 -225 -247 -327.5t-288 -102.5z" />
    <glyph glyph-name="Ydieresis" unicode="&#x178;" horiz-adv-x="1478" 
d="M668 1561q-75 0 -117.5 48.5t-30.5 123.5q12 70 69.5 115.5t131.5 45.5q77 0 118.5 -48.5t28.5 -121.5q-12 -71 -68.5 -117t-131.5 -46zM1184 1561q-75 0 -117.5 48.5t-30.5 123.5q12 70 69.5 115.5t131.5 45.5q78 0 119.5 -48t27.5 -122q-12 -71 -68.5 -117t-131.5 -46z
M436 0l88 500l-338 966h447l164 -589h20l352 589h457l-670 -966l-88 -500h-432z" />
    <glyph glyph-name="Zacute" unicode="&#x179;" horiz-adv-x="1353" 
d="M719 1589l276 258h353l-340 -258h-289zM-18 0l38 227l779 879l4 20h-617l60 340h1177l-41 -227l-757 -879l-4 -20h624l-59 -340h-1204z" />
    <glyph glyph-name="zacute" unicode="&#x17a;" horiz-adv-x="1095" 
d="M811 1208h-274l266 320h332zM-45 0l33 195l553 532l6 23h-441l56 307h956l-33 -197l-522 -532l-6 -21h451l-56 -307h-997z" />
    <glyph glyph-name="Zdotaccent" unicode="&#x17b;" horiz-adv-x="1353" 
d="M881 1589q-86 0 -133.5 48.5t-34.5 123.5q12 71 74 116.5t147 45.5q87 0 134.5 -48t35.5 -122q-12 -71 -75 -117.5t-148 -46.5zM-18 0l38 227l779 879l4 20h-617l60 340h1177l-41 -227l-757 -879l-4 -20h624l-59 -340h-1204z" />
    <glyph glyph-name="zdotaccent" unicode="&#x17c;" horiz-adv-x="1095" 
d="M678 1171q-95 0 -147 60.5t-37 154.5q15 90 86 147.5t165 57.5q96 0 148 -60t35 -153q-15 -91 -85.5 -149t-164.5 -58zM-45 0l33 195l553 532l6 23h-441l56 307h956l-33 -197l-522 -532l-6 -21h451l-56 -307h-997z" />
    <glyph glyph-name="Zcaron" unicode="&#x17d;" horiz-adv-x="1353" 
d="M690 1589l-155 258h253l103 -121h22l146 121h256l-246 -258h-379zM-18 0l38 227l779 879l4 20h-617l60 340h1177l-41 -227l-757 -879l-4 -20h624l-59 -340h-1204z" />
    <glyph glyph-name="zcaron" unicode="&#x17e;" horiz-adv-x="1095" 
d="M352 1528h264l84 -156h21l131 156h268l-252 -320h-376zM-45 0l33 195l553 532l6 23h-441l56 307h956l-33 -197l-522 -532l-6 -21h451l-56 -307h-997z" />
    <glyph glyph-name="AEacute" unicode="&#x1fc;" horiz-adv-x="2064" 
d="M1272 1589l276 258h355l-342 -258h-289zM-74 0l967 1466h1264l-60 -340h-543l-41 -233h461l-51 -293h-461l-47 -260h563l-61 -340h-952l39 215h-455l-141 -215h-482zM735 508h320l119 666h-21z" />
    <glyph glyph-name="aeacute" unicode="&#x1fd;" horiz-adv-x="1875" 
d="M1223 1208h-273l267 320h329zM641 1083q123 0 216 -40t144 -109q176 149 404 149q229 0 349 -153.5t75 -405.5q-3 -42 -21 -102h-749q0 -83 46.5 -133.5t121.5 -50.5q59 0 113 31t87 83l322 -61q-61 -139 -212.5 -228.5t-324.5 -89.5q-129 0 -223.5 53.5t-142.5 147.5
q-77 -93 -208 -146t-280 -53q-189 0 -290 82.5t-76 221.5q24 140 170 236.5t405 129.5l191 25l6 30q9 54 -24 86.5t-97 32.5q-63 0 -109 -33t-53 -84l-370 5q30 167 179.5 271.5t350.5 104.5zM1317 819q-74 0 -135.5 -53t-89.5 -139l370 4q9 85 -31 136.5t-114 51.5z
M551 446q-162 -20 -182 -120q-6 -44 23 -67t87 -23q88 0 154.5 47t77.5 116l12 70z" />
    <glyph glyph-name="Oslashacute" unicode="&#x1fe;" horiz-adv-x="1724" 
d="M809 1589l276 258h353l-340 -258h-289zM76 -287l264 377q-150 95 -215.5 264.5t-26.5 382.5q29 167 113.5 309t207 240.5t280.5 153.5t331 55q156 0 256 -41l215 307h238l-275 -391q145 -99 208.5 -265.5t27.5 -375.5q-40 -223 -173.5 -396.5t-331.5 -268.5t-429 -95
q-141 0 -244 41l-207 -297h-239zM582 442l483 693q-38 14 -90 14q-162 0 -288.5 -118.5t-158.5 -301.5q-30 -176 54 -287zM821 317q163 0 289 118t160 302q27 167 -51 281l-480 -692q40 -9 82 -9z" />
    <glyph glyph-name="oslashacute" unicode="&#x1ff;" horiz-adv-x="1316" 
d="M891 1208h-275l267 320h331zM84 -164l147 211q-117 71 -165 196t-19 289q44 251 236 401t467 150q100 0 186 -24l119 170h200l-165 -232q112 -68 160.5 -191.5t21.5 -281.5q-44 -252 -238 -401.5t-469 -149.5q-80 0 -176 21l-108 -158h-197zM420 315l352 504q-24 8 -57 8
q-122 0 -216.5 -85t-117.5 -218q-24 -130 39 -209zM602 229q126 0 218.5 84.5t115.5 218.5q21 122 -31 201l-348 -500q14 -4 45 -4z" />
    <glyph glyph-name="Scommaaccent" unicode="&#x218;" horiz-adv-x="1476" 
d="M639 -31q-300 0 -460 143.5t-122 372.5l406 -4q-15 -93 47.5 -146.5t191.5 -53.5q107 0 177 38.5t82 106.5q4 25 -1 45.5t-22 35t-36 24.5t-51.5 18t-60 13t-69.5 11q-12 2 -36 5q-102 14 -158.5 24.5t-147.5 41.5t-135.5 73.5t-72.5 120t-9 180.5q38 217 234 347
t485 130q292 0 446.5 -143t114.5 -371l-391 4q18 95 -38 148t-167 53q-102 0 -169.5 -40t-78.5 -104q-5 -31 7 -54t36.5 -37.5t61.5 -25t79.5 -17.5t92.5 -14h3.5t3 -0.5t3.5 -0.5q97 -15 155.5 -27t145 -44.5t131 -76t71 -121.5t9.5 -180q-38 -216 -245.5 -345.5
t-512.5 -129.5zM504 -631l-78 39l121 164q-56 11 -85.5 54.5t-19.5 101.5q12 66 63 109.5t118 43.5q70 0 108 -44t25 -111q-11 -60 -76 -140z" />
    <glyph glyph-name="scommaaccent" unicode="&#x219;" horiz-adv-x="1157" 
d="M469 -35q-238 0 -361 103t-92 280l328 -2q-12 -66 33.5 -106.5t134.5 -40.5q70 0 118.5 28.5t57.5 77.5q3 18 -0.5 32t-16.5 23.5t-27 15.5t-40 10.5t-45 7t-53 5.5q-164 16 -234 38q-195 60 -186 243q2 24 6 49q29 166 180.5 263.5t376.5 97.5t353.5 -98.5t99.5 -258.5
l-340 4q7 55 -32.5 88t-113.5 33q-66 0 -113 -28t-54 -72q-4 -25 8.5 -41.5t42 -25.5t63.5 -14t82 -10q32 -3 49 -5q67 -7 117.5 -16.5t109.5 -32.5t94.5 -55.5t54 -88.5t5.5 -129q-31 -175 -192.5 -275t-413.5 -100zM322 -631l-78 39l121 164q-56 11 -85.5 54.5
t-19.5 101.5q12 66 62.5 109.5t117.5 43.5q70 0 108 -44t25 -111q-11 -62 -75 -140z" />
    <glyph glyph-name="uni021A" unicode="&#x21a;" horiz-adv-x="1390" 
d="M385 0l197 1112h-457l61 354h1348l-61 -354h-459l-197 -1112h-432zM459 -631l-78 39l121 164q-56 11 -85.5 54.5t-19.5 101.5q12 66 63.5 109.5t117.5 43.5q70 0 108 -44t25 -111q-11 -60 -76 -140z" />
    <glyph glyph-name="uni021B" unicode="&#x21b;" horiz-adv-x="819" 
d="M449 -27q-174 0 -259 113t-53 297l72 401h-137l49 273h149l127 329h301l-57 -329h221l-47 -273h-223l-68 -387q-11 -62 15.5 -98.5t83.5 -36.5q46 0 104 14l-43 -266q-107 -37 -235 -37zM246 -627l-78 41l121 164q-56 9 -85.5 53.5t-19.5 102.5q12 66 63.5 108.5
t117.5 42.5q71 0 108 -43t25 -110q-10 -59 -76 -140z" />
    <glyph glyph-name="circumflex" unicode="&#x2c6;" horiz-adv-x="860" 
d="M160 1180l252 319h374l142 -319h-266l-78 155h-21l-137 -155h-266z" />
    <glyph glyph-name="caron" unicode="&#x2c7;" horiz-adv-x="860" 
d="M223 1528h262l82 -156h21l135 156h268l-254 -320h-375z" />
    <glyph glyph-name="breve" unicode="&#x2d8;" horiz-adv-x="745" 
d="M498 1214q-144 0 -221 89.5t-54 226.5l232 -4q-22 -129 67 -129q47 0 79.5 35.5t43.5 97.5l229 -4q-23 -136 -129 -224t-247 -88z" />
    <glyph glyph-name="dotaccent" unicode="&#x2d9;" horiz-adv-x="528" 
d="M381 1171q-97 0 -148 60.5t-34 154.5q15 90 85.5 147.5t164.5 57.5q97 0 148 -59.5t36 -153.5q-17 -91 -87.5 -149t-164.5 -58z" />
    <glyph glyph-name="ring" unicode="&#x2da;" horiz-adv-x="600" 
d="M420 1188q-115 0 -174.5 66t-40.5 173q19 104 99 168t192 64q116 0 175.5 -66.5t39.5 -173.5q-17 -104 -97 -167.5t-194 -63.5zM436 1313q50 0 88 32t45 82q9 47 -16 77t-72 30q-50 0 -88 -32t-47 -83q-8 -46 16.5 -76t73.5 -30z" />
    <glyph glyph-name="ogonek" unicode="&#x2db;" horiz-adv-x="479" 
d="M104 -424q-100 0 -154 51t-40 133q17 93 116 173t253 130l40 -63q-99 -34 -165.5 -88t-75.5 -109q-6 -37 18.5 -59.5t71.5 -22.5q59 0 119 29l-23 -141q-64 -33 -160 -33z" />
    <glyph glyph-name="tilde" unicode="&#x2dc;" horiz-adv-x="960" 
d="M754 1194q-52 0 -97.5 16.5t-72.5 36.5t-58.5 36.5t-58.5 16.5q-38 0 -79 -22.5t-69 -58.5l-131 118q144 164 306 164q51 0 95.5 -17t71.5 -37t60 -37t63 -17q39 0 79 24t65 60l137 -105q-79 -89 -153.5 -133.5t-157.5 -44.5z" />
    <glyph glyph-name="hungarumlaut" unicode="&#x2dd;" horiz-adv-x="1032" 
d="M166 1208l235 316h314l-293 -316h-256zM821 1208l-266 2l281 314h325z" />
    <glyph glyph-name="uni0401" unicode="&#x401;" horiz-adv-x="1325" 
d="M621 1561q-75 0 -117.5 48.5t-30.5 123.5q12 70 69.5 115.5t131.5 45.5q78 0 119.5 -48t27.5 -122q-12 -71 -68.5 -117t-131.5 -46zM1139 1561q-77 0 -119 48.5t-29 123.5q12 70 68.5 115.5t130.5 45.5q78 0 119.5 -48t29.5 -122q-12 -70 -69 -116.5t-131 -46.5zM23 0
l260 1466h1128l-59 -340h-711l-43 -245h672l-49 -281h-674l-45 -260h731l-59 -340h-1151z" />
    <glyph glyph-name="uni0402" unicode="&#x402;" horiz-adv-x="1501" 
d="M866 -25q-105 0 -168 21l52 305q27 -6 75 -6q80 0 135 42.5t68 125.5l12 63q19 110 -29 173t-147 63q-103 0 -182.5 -67.5t-99.5 -178.5l-93 -516h-383l213 1202h-192l47 264h782l-45 -264h-209l-49 -284l19 2q59 77 167.5 120t223.5 43q207 0 310.5 -131t66.5 -344
l-35 -192q-35 -200 -183.5 -320.5t-355.5 -120.5z" />
    <glyph glyph-name="uni0403" unicode="&#x403;" horiz-adv-x="1230" 
d="M639 1589l276 258h353l-340 -258h-289zM23 0l258 1466h1069l-62 -354h-637l-196 -1112h-432z" />
    <glyph glyph-name="uni0404" unicode="&#x404;" horiz-adv-x="1683" 
d="M770 -37q-233 0 -401 97t-240.5 273t-32.5 400q38 223 171.5 397t333 269.5t431.5 95.5q150 0 277 -43.5t213 -120t129 -186t32 -236.5l-403 -39q-3 119 -84 196t-205 77q-144 0 -257.5 -79t-166.5 -212l553 2l-43 -240l-557 -2q6 -134 92 -214.5t226 -80.5
q127 0 238.5 78t154.5 195l395 -47q-42 -169 -167 -302t-305 -205.5t-384 -72.5z" />
    <glyph glyph-name="uni0405" unicode="&#x405;" horiz-adv-x="1476" 
d="M639 -31q-300 0 -460 143.5t-122 372.5l406 -4q-15 -93 47.5 -146.5t191.5 -53.5q107 0 177 38.5t82 106.5q4 25 -1 45.5t-22 35t-36 24.5t-51.5 18t-60 13t-69.5 11q-12 2 -36 5q-102 14 -158.5 24.5t-147.5 41.5t-135.5 73.5t-72.5 120t-9 180.5q38 217 234 347
t485 130q292 0 446.5 -143t114.5 -371l-391 4q18 95 -38 148t-167 53q-102 0 -169.5 -40t-78.5 -104q-5 -31 7 -54t36.5 -37.5t61.5 -25t79.5 -17.5t92.5 -14h3.5t3 -0.5t3.5 -0.5q97 -15 155.5 -27t145 -44.5t131 -76t71 -121.5t9.5 -180q-38 -216 -245.5 -345.5
t-512.5 -129.5z" />
    <glyph glyph-name="uni0406" unicode="&#x406;" horiz-adv-x="665" 
d="M25 0l258 1466h432l-258 -1466h-432z" />
    <glyph glyph-name="uni0407" unicode="&#x407;" horiz-adv-x="724" 
d="M291 1561q-77 0 -119.5 48.5t-30.5 123.5q12 70 69.5 115.5t131.5 45.5q77 0 118.5 -48.5t28.5 -121.5q-12 -70 -68 -116.5t-130 -46.5zM807 1561q-77 0 -119.5 48.5t-30.5 123.5q12 70 69.5 115.5t131.5 45.5q78 0 120 -48t28 -122q-12 -70 -68.5 -116.5t-130.5 -46.5z
M55 0l260 1466h433l-261 -1466h-432z" />
    <glyph glyph-name="uni0408" unicode="&#x408;" horiz-adv-x="993" 
d="M264 -27q-178 0 -299 41l53 322q81 -23 177 -23q97 0 169 65t89 169l163 919h433l-175 -979q-39 -228 -210.5 -371t-399.5 -143z" />
    <glyph glyph-name="uni0409" unicode="&#x409;" horiz-adv-x="2443" 
d="M-43 0l55 340q134 0 204 63t110 218l217 845h1153l-76 -424h303q259 0 390.5 -143.5t92.5 -372.5q-42 -232 -223 -379t-440 -147h-739l200 1126h-313l-146 -559q-75 -293 -267 -430t-521 -137zM1503 369h248q85 0 147 45.5t74 115.5q14 68 -31.5 114t-130.5 46h-251z" />
    <glyph glyph-name="uni040A" unicode="&#x40a;" horiz-adv-x="2314" 
d="M23 0l258 1466h432l-95 -536h420l95 536h434l-76 -424h303q258 0 389.5 -144t91.5 -372q-40 -232 -221.5 -379t-439.5 -147h-740l105 590h-420l-104 -590h-432zM1374 369h248q85 0 147 45.5t74 115.5q12 68 -33 114t-129 46h-251z" />
    <glyph glyph-name="uni040B" unicode="&#x40b;" horiz-adv-x="1501" 
d="M106 0l213 1202h-192l47 264h782l-45 -264h-209l-49 -284l19 2q59 77 167.5 120t223.5 43q207 0 310.5 -131t66.5 -344l-109 -606h-383l92 524q19 110 -29 173t-147 63q-103 0 -182.5 -67.5t-99.5 -178.5l-93 -516h-383z" />
    <glyph glyph-name="uni040C" unicode="&#x40c;" horiz-adv-x="1501" 
d="M801 1589l276 258h353l-340 -258h-289zM23 0l260 1466h432l-101 -571h19l506 571h510l-664 -698l410 -768h-510l-299 625h-21l-110 -625h-432z" />
    <glyph glyph-name="uni040E" unicode="&#x40e;" horiz-adv-x="1576" 
d="M987 1569q-154 0 -240.5 79t-66.5 201l254 -4q-7 -49 13.5 -77.5t62.5 -28.5q46 0 80 30.5t43 79.5l253 -4q-22 -121 -134 -198.5t-265 -77.5zM344 -27q-190 0 -272 37l53 318q71 -29 164 -29q171 0 268 152l21 26l-388 989h486l196 -585h21l342 585h489l-708 -1081
q-152 -228 -302.5 -320t-369.5 -92z" />
    <glyph glyph-name="uni040F" unicode="&#x40f;" horiz-adv-x="1601" 
d="M481 -307l54 307h-512l258 1466h436l-199 -1126h502l199 1126h432l-258 -1466h-512l-54 -307h-346z" />
    <glyph glyph-name="uni0410" unicode="&#x410;" horiz-adv-x="1595" 
d="M-74 0l721 1466h633l203 -1466h-447l-28 223h-527l-108 -223h-447zM621 530h358l-70 570h-20z" />
    <glyph glyph-name="uni0411" unicode="&#x411;" horiz-adv-x="1492" 
d="M23 0l258 1466h1235l-60 -340h-803l-35 -196h306q282 0 419.5 -126.5t98.5 -340.5q-37 -214 -218 -338.5t-466 -124.5h-735zM510 311h262q95 0 161 43t79 115q11 69 -37 110.5t-141 41.5h-269z" />
    <glyph glyph-name="uni0412" unicode="&#x412;" horiz-adv-x="1507" 
d="M23 0l260 1466h749q257 0 385.5 -110.5t95.5 -296.5q-21 -111 -94 -191t-172 -110l-6 -21q108 -32 163.5 -125t31.5 -221q-34 -186 -197.5 -288.5t-421.5 -102.5h-794zM610 879h236q83 0 143 39.5t72 101.5q9 60 -36 97.5t-128 37.5h-238zM510 311h264q86 0 152 44
t78 110q10 64 -39.5 105.5t-135.5 41.5h-266z" />
    <glyph glyph-name="uni0413" unicode="&#x413;" horiz-adv-x="1316" 
d="M23 0l258 1466h1069l-62 -354h-637l-196 -1112h-432z" />
    <glyph glyph-name="uni0414" unicode="&#x414;" horiz-adv-x="1822" 
d="M-104 -307l112 647h137q196 134 277 418l207 708h1112l-199 -1126h201l-115 -647h-340l53 307h-1052l-53 -307h-340zM590 340h520l139 786h-293l-133 -430q-62 -216 -227 -338z" />
    <glyph glyph-name="uni0415" unicode="&#x415;" horiz-adv-x="1325" 
d="M23 0l260 1466h1128l-59 -340h-711l-43 -245h672l-49 -281h-674l-45 -260h731l-59 -340h-1151z" />
    <glyph glyph-name="uni0416" unicode="&#x416;" horiz-adv-x="2375" 
d="M-59 0l677 768l-411 698h508l303 -565h20l101 565h432l-101 -565h21l502 565h510l-662 -698l408 -768h-508l-299 618h-21l-110 -618h-432l110 618h-20l-518 -618h-510z" />
    <glyph glyph-name="uni0417" unicode="&#x417;" horiz-adv-x="1372" 
d="M604 -31q-197 0 -334.5 73.5t-195 201.5t-29.5 291l420 -5q-15 -92 32.5 -149t147.5 -57q91 0 161 44.5t83 114.5q10 64 -38 105t-134 41h-117l43 239h117q79 0 138 39.5t69 100.5q11 60 -34.5 97.5t-131.5 37.5q-98 0 -163 -50t-79 -135l-416 5q42 235 240 383.5
t479 148.5q166 0 291 -53.5t187 -153.5t40 -229q-21 -112 -92.5 -185.5t-177.5 -103.5l-6 -20q113 -17 172.5 -111.5t36.5 -220.5q-22 -128 -124 -231.5t-256 -160.5t-329 -57z" />
    <glyph glyph-name="uni0418" unicode="&#x418;" horiz-adv-x="1601" 
d="M1393 0h-406l162 907h-21l-641 -907h-462l258 1466h403l-160 -909h21l641 909h463z" />
    <glyph glyph-name="uni0419" unicode="&#x419;" horiz-adv-x="1601" 
d="M1001 1569q-154 0 -240.5 79.5t-64.5 200.5l254 -4q-9 -49 12 -77.5t64 -28.5q45 0 79.5 30.5t41.5 79.5l254 -4q-22 -121 -134.5 -198.5t-265.5 -77.5zM283 1466h403l-160 -907h19l641 907h465l-260 -1466h-404l160 909h-19l-643 -909h-462z" />
    <glyph glyph-name="uni041A" unicode="&#x41a;" horiz-adv-x="1501" 
d="M23 0l260 1466h432l-101 -571h19l506 571h510l-664 -698l410 -768h-510l-299 625h-21l-110 -625h-432z" />
    <glyph glyph-name="uni041B" unicode="&#x41b;" horiz-adv-x="1646" 
d="M-43 0l55 340q134 0 204 63t110 218l217 845h1153l-260 -1466h-432l200 1126h-313l-146 -559q-75 -293 -267 -430t-521 -137z" />
    <glyph glyph-name="uni041C" unicode="&#x41c;" horiz-adv-x="2068" 
d="M23 0l258 1466h573l166 -950h20l492 950h584l-261 -1466h-417l155 881h-20l-467 -881h-334l-156 879h-20l-156 -879h-417z" />
    <glyph glyph-name="uni041D" unicode="&#x41d;" horiz-adv-x="1599" 
d="M23 0l258 1466h432l-95 -540h502l97 540h432l-260 -1466h-433l105 588h-502l-104 -588h-432z" />
    <glyph glyph-name="uni041E" unicode="&#x41e;" horiz-adv-x="1765" 
d="M786 -31q-244 0 -414.5 93.5t-243 268.5t-32.5 406q40 229 173.5 401.5t335.5 264.5t444 92q371 0 562 -208.5t130 -557.5q-41 -230 -174.5 -402.5t-335.5 -265t-445 -92.5zM842 324q176 0 304.5 113t162.5 300q32 182 -56 294t-260 112q-174 0 -303.5 -114.5
t-161.5 -299.5q-34 -182 53.5 -293.5t260.5 -111.5z" />
    <glyph glyph-name="uni041F" unicode="&#x41f;" horiz-adv-x="1583" 
d="M23 0l258 1466h1351l-260 -1466h-432l201 1130h-486l-200 -1130h-432z" />
    <glyph glyph-name="uni0420" unicode="&#x420;" horiz-adv-x="1464" 
d="M25 0l258 1466h680q288 0 431.5 -142.5t102.5 -381.5q-43 -236 -236.5 -376t-482.5 -140h-248l-75 -426h-430zM586 737h198q110 0 187 58t94 155q15 93 -40 149t-163 56h-203z" />
    <glyph glyph-name="uni0421" unicode="&#x421;" horiz-adv-x="1671" 
d="M762 -31q-173 0 -311.5 56t-226 156t-122 243.5t-4.5 312.5q29 167 113 309t206.5 240.5t279.5 153.5t329 55q146 0 269 -42.5t208 -118t130.5 -184t39.5 -235.5l-405 -38q-4 116 -85 191t-200 75q-171 0 -297 -114t-158 -300q-32 -182 51.5 -293.5t249.5 -111.5
q120 0 230.5 75.5t157.5 190.5l395 -51q-48 -168 -173 -298t-301.5 -201t-375.5 -71z" />
    <glyph glyph-name="uni0422" unicode="&#x422;" horiz-adv-x="1390" 
d="M385 0l197 1112h-457l61 354h1348l-61 -354h-459l-197 -1112h-432z" />
    <glyph glyph-name="uni0423" unicode="&#x423;" horiz-adv-x="1576" 
d="M344 -27q-190 0 -272 37l53 318q71 -29 164 -29q171 0 268 152l21 26l-388 989h486l196 -585h21l342 585h489l-708 -1081q-152 -228 -302.5 -320t-369.5 -92z" />
    <glyph glyph-name="uni0424" unicode="&#x424;" horiz-adv-x="1908" 
d="M635 -61l31 165q-323 12 -476.5 184.5t-105.5 450.5q48 274 260.5 444t540.5 183l30 162h433l-31 -162q215 -9 357.5 -92t198.5 -222t25 -321q-48 -273 -259.5 -443.5t-540.5 -183.5l-31 -165h-432zM719 430l112 610q-120 -2 -212 -88t-115 -221q-25 -131 36 -215
t179 -86zM1151 430q120 0 212.5 86.5t117.5 224.5q23 130 -38.5 214.5t-178.5 84.5z" />
    <glyph glyph-name="uni0425" unicode="&#x425;" horiz-adv-x="1667" 
d="M-53 0l594 774l-326 692h490l198 -467h21l360 467h504l-596 -692l342 -774h-502l-190 532h-21l-381 -532h-493z" />
    <glyph glyph-name="uni0426" unicode="&#x426;" horiz-adv-x="1732" 
d="M1219 -307l53 307h-1249l258 1466h432l-199 -1128h502l201 1128h432l-199 -1128h227l-112 -645h-346z" />
    <glyph glyph-name="uni0427" unicode="&#x427;" horiz-adv-x="1531" 
d="M889 0l104 582q-59 -56 -162.5 -90.5t-205.5 -34.5q-239 0 -368 143t-87 383l86 483h432l-76 -422q-20 -117 33.5 -184t157.5 -67q67 0 137.5 35.5t110.5 89.5l96 548h434l-260 -1466h-432z" />
    <glyph glyph-name="uni0428" unicode="&#x428;" horiz-adv-x="2164" 
d="M23 0l258 1466h432l-199 -1126h317l199 1126h432l-198 -1126h319l199 1126h432l-258 -1466h-1933z" />
    <glyph glyph-name="uni0429" unicode="&#x429;" horiz-adv-x="2299" 
d="M1790 -307l53 307h-1820l258 1466h432l-199 -1126h317l199 1126h436l-198 -1126h315l199 1126h432l-199 -1130h234l-115 -643h-344z" />
    <glyph glyph-name="uni042A" unicode="&#x42a;" horiz-adv-x="1619" 
d="M174 0l197 1114h-240l62 352h673l-69 -395h295q176 0 297.5 -69.5t171 -189.5t22.5 -273q-40 -236 -226 -387.5t-450 -151.5h-733zM674 369h241q90 0 157 50.5t81 127.5q12 76 -36 124t-138 48h-244z" />
    <glyph glyph-name="uni042B" unicode="&#x42b;" horiz-adv-x="2095" 
d="M23 0l258 1466h432l-68 -393h279q176 0 297.5 -69.5t171 -189.5t22.5 -273q-40 -236 -226 -388.5t-450 -152.5h-716zM1454 0l258 1466h432l-258 -1466h-432zM520 369h228q90 0 156.5 51t80.5 127q12 76 -36 125t-138 49h-229z" />
    <glyph glyph-name="uni042C" unicode="&#x42c;" horiz-adv-x="1480" 
d="M23 0l258 1466h432l-68 -393h307q176 0 298 -69.5t171 -190t23 -272.5q-42 -236 -227 -388.5t-449 -152.5h-745zM520 369h256q90 0 156 49.5t80 126.5q14 76 -34 126t-138 50h-258z" />
    <glyph glyph-name="uni042D" unicode="&#x42d;" horiz-adv-x="1683" 
d="M721 -37q-314 0 -499 163.5t-159 420.5l406 39q3 -117 85 -193t208 -76q144 0 259.5 81.5t168.5 217.5l-555 -2l43 240h553q-6 134 -91.5 211.5t-226.5 77.5q-127 0 -237.5 -79t-155.5 -198l-387 45q69 258 307.5 421t542.5 163q232 0 400 -96.5t241.5 -272t34.5 -399.5
q-40 -223 -174.5 -397.5t-334 -270.5t-429.5 -96z" />
    <glyph glyph-name="uni042E" unicode="&#x42e;" horiz-adv-x="2199" 
d="M1315 -43q-304 0 -460 168t-136 469l-158 -2l-106 -592h-432l258 1466h432l-103 -592l158 3q86 302 299 467t514 165q222 0 370.5 -92.5t208 -269t17.5 -418.5q-64 -362 -295.5 -567t-566.5 -205zM1372 324q135 0 238 113.5t135 299.5q32 187 -27 296.5t-194 109.5
t-238 -114t-135 -300t27 -295.5t194 -109.5z" />
    <glyph glyph-name="uni042F" unicode="&#x42f;" horiz-adv-x="1519" 
d="M1309 0h-432l84 483h-103l-450 -483h-484l525 516l-13 4q-160 30 -241.5 151t-49.5 298q38 224 225 360.5t457 136.5h740zM1012 764l67 391h-227q-106 0 -184 -53.5t-95 -145.5q-15 -89 42.5 -140.5t162.5 -51.5h234z" />
    <glyph glyph-name="uni0430" unicode="&#x430;" horiz-adv-x="1333" 
d="M418 -27q-214 0 -315.5 151.5t-55.5 407.5q43 250 197 400.5t364 150.5q111 0 181 -48t112 -140l23 2l28 160h383l-186 -1057h-385l29 156l-21 -2q-143 -181 -354 -181zM598 295q95 0 168 67t90 170q19 100 -29 165t-139 65q-95 0 -168 -67.5t-90 -170.5
q-19 -100 28.5 -164.5t139.5 -64.5z" />
    <glyph glyph-name="uni0431" unicode="&#x431;" horiz-adv-x="1236" 
d="M537 -29q-269 0 -387.5 171.5t-63.5 484.5q69 392 229 571t463 205q118 11 173 41.5t65 93.5l323 -4q-32 -180 -152.5 -272t-344.5 -111q-178 -12 -263 -74.5t-114 -199.5l20 4q62 59 131 85.5t160 26.5q224 0 336 -142.5t72 -369.5q-40 -228 -219 -369t-428 -141z
M586 293q79 0 139.5 56.5t75.5 144.5q17 87 -21.5 139.5t-117.5 52.5q-81 0 -143 -54.5t-79 -144.5q-15 -86 25.5 -140t120.5 -54z" />
    <glyph glyph-name="uni0432" unicode="&#x432;" horiz-adv-x="1165" 
d="M-4 0l186 1057h606q176 0 267 -79.5t69 -203.5q-13 -77 -66.5 -138t-123.5 -83l-6 -21q187 -52 157 -237q-25 -135 -148 -215t-304 -80h-637zM465 645h170q49 0 84 25.5t43 64.5q6 39 -18.5 63.5t-73.5 24.5h-172zM393 233h168q53 0 91 29t46 72q8 42 -19 67t-81 25h-172
z" />
    <glyph glyph-name="uni0433" unicode="&#x433;" horiz-adv-x="985" 
d="M-4 0l186 1057h865l-56 -307h-479l-133 -750h-383z" />
    <glyph glyph-name="uni0434" unicode="&#x434;" horiz-adv-x="1468" 
d="M-121 -307l109 614h123q65 23 111.5 117t96.5 262l109 371h924l-133 -750h172l-109 -614h-305l53 307h-790l-54 -307h-307zM492 307h344l77 443h-213l-69 -220q-23 -72 -52.5 -118.5t-82.5 -85.5z" />
    <glyph glyph-name="uni0435" unicode="&#x435;" horiz-adv-x="1265" 
d="M545 -27q-266 0 -403.5 154.5t-92.5 409.5q44 248 235 397t455 149q262 0 394 -152.5t86 -406.5q-4 -54 -23 -102h-772q5 -88 51 -136t131 -48q68 0 124 31.5t89 84.5l320 -63q-64 -146 -227 -232t-367 -86zM457 627l395 4q8 80 -37 134t-125 54q-79 0 -140.5 -51.5
t-92.5 -140.5z" />
    <glyph glyph-name="uni0436" unicode="&#x436;" horiz-adv-x="1853" 
d="M-86 0l475 549l-276 508h438l188 -389h21l69 389h383l-67 -389h20l324 389h442l-456 -508l276 -549h-444l-185 428h-20l-76 -428h-385l78 428h-21l-336 -428h-448z" />
    <glyph glyph-name="uni0437" unicode="&#x437;" horiz-adv-x="1122" 
d="M496 -27q-252 0 -380 114t-93 312l356 -4q-12 -73 25 -115t112 -42q64 0 110 30.5t54 77.5q9 42 -24 66t-93 24h-92l37 207h90q56 0 96.5 25.5t46.5 64.5q8 38 -25 62t-93 24q-71 0 -119 -35.5t-58 -95.5l-342 4q32 181 188.5 286t387.5 105q210 0 329 -87.5t93 -231.5
q-13 -78 -65.5 -132.5t-131.5 -76.5l-8 -20q84 -23 125.5 -91.5t26.5 -158.5q-26 -141 -179.5 -226.5t-373.5 -85.5z" />
    <glyph glyph-name="uni0438" unicode="&#x438;" horiz-adv-x="1296" 
d="M-4 0l186 1057h385l-98 -555h20l416 555h395l-186 -1057h-385l98 547h-20l-414 -547h-397z" />
    <glyph glyph-name="uni0439" unicode="&#x439;" horiz-adv-x="1296" 
d="M758 1214q-144 0 -221 89.5t-54 226.5l232 -4q-11 -62 7 -95.5t62 -33.5q46 0 78 35.5t43 97.5l232 -4q-25 -136 -131.5 -224t-247.5 -88zM-4 0l186 1057h385l-98 -555h20l416 555h395l-186 -1057h-385l98 547h-20l-414 -547h-397z" />
    <glyph glyph-name="uni043A" unicode="&#x43a;" horiz-adv-x="1253" 
d="M-4 0l188 1057h383l-67 -387h20l340 387h453l-484 -508l301 -549h-452l-201 424h-20l-76 -424h-385z" />
    <glyph glyph-name="uni043B" unicode="&#x43b;" horiz-adv-x="1277" 
d="M-70 0l47 287q106 0 154 52t90 202l146 516h915l-186 -1057h-385l133 750h-203l-133 -441q-14 -46 -33.5 -84.5t-42.5 -67.5t-50 -52.5t-56.5 -39t-61 -28t-63 -19t-64 -11.5t-63 -5.5t-60.5 -1.5t-57 0h-27z" />
    <glyph glyph-name="uni043C" unicode="&#x43c;" horiz-adv-x="1693" 
d="M-4 0l186 1057h486l137 -697h20l387 697h486l-187 -1057h-385l105 592h-19l-327 -592h-262l-117 590h-21l-106 -590h-383z" />
    <glyph glyph-name="uni043D" unicode="&#x43d;" horiz-adv-x="1253" 
d="M-4 0l186 1055h385l-65 -371h305l65 371h385l-188 -1055h-383l66 377h-306l-67 -377h-383z" />
    <glyph glyph-name="uni043E" unicode="&#x43e;" horiz-adv-x="1284" 
d="M547 -27q-275 0 -410.5 149.5t-91.5 409.5q45 256 232 403.5t460 147.5q275 0 411.5 -150.5t90.5 -408.5q-45 -256 -232 -403.5t-460 -147.5zM598 295q95 0 167 66.5t91 170.5q17 102 -30 166t-140 64q-95 0 -167 -66.5t-91 -171.5q-17 -102 30 -165.5t140 -63.5z" />
    <glyph glyph-name="uni043F" unicode="&#x43f;" horiz-adv-x="1257" 
d="M-4 0l186 1057h1080l-187 -1057h-385l133 750h-311l-133 -750h-383z" />
    <glyph glyph-name="uni0440" unicode="&#x440;" horiz-adv-x="1314" 
d="M895 1083q212 0 314 -152t57 -407q-42 -249 -197.5 -400t-363.5 -151q-200 0 -281 152l-23 -2l-104 -594h-383l268 1528h385l-22 -123l20 2q132 147 330 147zM715 762q-93 0 -167 -68t-91 -170q-17 -99 30.5 -164t137.5 -65q95 0 168 67.5t92 169.5q17 98 -31 164
t-139 66z" />
    <glyph glyph-name="uni0441" unicode="&#x441;" horiz-adv-x="1239" 
d="M541 -27q-262 0 -399.5 153.5t-94.5 405.5q46 252 232.5 401.5t451.5 149.5q231 0 362 -113.5t121 -310.5l-360 -41q-3 70 -50.5 114t-115.5 44q-91 0 -164.5 -71t-93.5 -181q-19 -107 27 -175t135 -68q73 0 137.5 44.5t93.5 114.5l346 -45q-61 -198 -230.5 -310
t-397.5 -112z" />
    <glyph glyph-name="uni0442" unicode="&#x442;" horiz-adv-x="1103" 
d="M266 0l133 750h-333l55 307h1050l-55 -307h-332l-133 -750h-385z" />
    <glyph glyph-name="uni0443" unicode="&#x443;" horiz-adv-x="1267" 
d="M223 -481q-60 0 -130.5 11t-110.5 28l49 297q74 -31 162 -31q146 0 239 162l-330 1071h414l135 -584h21l286 584h396l-596 -1108q-122 -225 -247 -327.5t-288 -102.5z" />
    <glyph glyph-name="uni0444" unicode="&#x444;" horiz-adv-x="1699" 
d="M498 -471l82 459q-178 7 -309 80t-190.5 196.5t-33.5 272.5q25 145 126.5 264t257.5 190.5t337 79.5l82 457h354l-82 -459q177 -9 307.5 -82t190.5 -193.5t35 -265.5q-40 -223 -242.5 -374.5t-476.5 -165.5l-82 -459h-356zM629 285l90 489q-105 -3 -188.5 -73.5
t-102.5 -174.5q-17 -104 39.5 -171.5t161.5 -69.5zM983 287q105 3 187.5 72.5t101.5 172.5q17 100 -40 167.5t-161 68.5z" />
    <glyph glyph-name="uni0445" unicode="&#x445;" horiz-adv-x="1320" 
d="M-78 0l457 549l-254 508h434l131 -297h21l235 297h436l-434 -508l262 -549h-444l-131 328h-21l-245 -328h-447z" />
    <glyph glyph-name="uni0446" unicode="&#x446;" horiz-adv-x="1374" 
d="M901 -307l53 307h-958l186 1057h385l-133 -750h342l133 750h383l-133 -750h156l-107 -614h-307z" />
    <glyph glyph-name="uni0447" unicode="&#x447;" horiz-adv-x="1218" 
d="M668 0l69 385q-58 -65 -153.5 -104t-190.5 -39q-167 0 -251 115.5t-52 297.5l72 402h383l-62 -348q-12 -74 18.5 -117t94.5 -43q45 0 91.5 21.5t74.5 54.5l78 432h383l-187 -1057h-368z" />
    <glyph glyph-name="uni0448" unicode="&#x448;" horiz-adv-x="1767" 
d="M-4 0l186 1057h385l-133 -750h219l131 750h385l-133 -750h219l134 750h383l-187 -1057h-1589z" />
    <glyph glyph-name="uni0449" unicode="&#x449;" horiz-adv-x="1867" 
d="M1395 -307l53 307h-1452l186 1057h385l-133 -750h219l131 750h385l-133 -750h219l134 750h383l-134 -748h170l-106 -616h-307z" />
    <glyph glyph-name="uni044A" unicode="&#x44a;" horiz-adv-x="1298" 
d="M145 0l134 752h-232l55 305h613l-45 -260h192q110 0 192.5 -32t129 -87t64 -126.5t3.5 -152.5q-13 -79 -55.5 -150t-108 -127t-159.5 -89t-203 -33h-580zM567 289h152q60 0 101 30t50 80q8 50 -22 79.5t-88 29.5h-156z" />
    <glyph glyph-name="uni044B" unicode="&#x44b;" horiz-adv-x="1644" 
d="M-4 0l186 1057h385l-47 -260h166q110 0 192.5 -32t129 -87t64 -126.5t3.5 -152.5q-19 -106 -85 -195t-181.5 -146.5t-259.5 -57.5h-553zM1079 0l187 1055h383l-187 -1055h-383zM418 289h125q58 0 99 30t50 80q8 50 -21 79.5t-87 29.5h-129z" />
    <glyph glyph-name="uni044C" unicode="&#x44c;" horiz-adv-x="1163" 
d="M-4 0l186 1057h385l-47 -262h199q109 0 191.5 -32t129.5 -86.5t64.5 -125.5t3.5 -152q-19 -106 -85 -195t-181.5 -146.5t-259.5 -57.5h-586zM432 289h143q59 0 100 30.5t50 79.5q8 50 -21.5 79.5t-87.5 29.5h-147z" />
    <glyph glyph-name="uni044D" unicode="&#x44d;" horiz-adv-x="1234" 
d="M504 -41q-207 0 -343.5 116t-142.5 296l349 49q3 -72 54 -117t126 -45q79 0 147 50t94 128l-311 -2l35 189l313 2q-3 78 -51.5 126t-124.5 48q-75 0 -144.5 -47t-98.5 -119l-332 51q63 181 238 297.5t384 116.5q169 0 291.5 -74t176 -205t24.5 -295q-43 -245 -237 -405
t-447 -160z" />
    <glyph glyph-name="uni044E" unicode="&#x44e;" horiz-adv-x="1716" 
d="M1012 -41q-210 0 -331 115.5t-124 310.5h-111l-67 -385h-383l186 1057h385l-69 -395l106 2q73 200 232 317t370 117q254 0 381.5 -160t83.5 -416q-44 -253 -225 -408t-434 -155zM1063 295q91 0 156 64t84 171q19 105 -22 168.5t-128 63.5q-91 0 -157 -66.5t-83 -173.5
q-19 -103 22 -165t128 -62z" />
    <glyph glyph-name="uni044F" unicode="&#x44f;" horiz-adv-x="1191" 
d="M-63 0l301 324q-98 45 -142.5 138t-25.5 204q31 171 177 281t345 110h604l-188 -1057h-398l49 285h-67l-230 -285h-425zM573 549h148l41 229h-146q-62 0 -108 -33.5t-55 -85.5q-9 -49 24 -79.5t96 -30.5z" />
    <glyph glyph-name="uni0451" unicode="&#x451;" horiz-adv-x="1265" 
d="M483 1171q-82 0 -126 52.5t-29 130.5q12 75 72.5 124.5t140.5 49.5q82 0 126 -51.5t31 -130.5q-14 -75 -75 -125t-140 -50zM1036 1171q-82 0 -127 52.5t-30 130.5q14 75 74 124.5t139 49.5q82 0 126 -51.5t31 -130.5q-14 -75 -74 -125t-139 -50zM545 -27
q-266 0 -403.5 154.5t-92.5 409.5q44 248 235 397t455 149q262 0 394 -152.5t86 -406.5q-4 -54 -23 -102h-772q5 -88 51 -136t131 -48q68 0 124 31.5t89 84.5l320 -63q-64 -146 -227 -232t-367 -86zM457 627l395 4q8 80 -37 134t-125 54q-79 0 -140.5 -51.5t-92.5 -140.5z
" />
    <glyph glyph-name="uni0452" unicode="&#x452;" horiz-adv-x="1239" 
d="M557 -428q-131 0 -238 35l46 282q49 -12 104 -12q89 0 151 51t76 133l80 445q12 76 -18.5 123t-95.5 47q-70 0 -126 -51.5t-69 -130.5l-88 -494h-383l203 1149h-193l49 264h191l18 115h385l-18 -115h258l-47 -264h-260l-52 -291l21 2q134 152 315 152q170 0 256 -114
t54 -296l-103 -582q-37 -206 -176.5 -327t-339.5 -121z" />
    <glyph glyph-name="uni0453" unicode="&#x453;" horiz-adv-x="962" 
d="M440 1208l281 320h344l-350 -320h-275zM-4 0l186 1057h867l-54 -307h-483l-133 -750h-383z" />
    <glyph glyph-name="uni0454" unicode="&#x454;" horiz-adv-x="1234" 
d="M537 -41q-167 0 -289.5 73.5t-176.5 204.5t-26 295q29 162 127 291.5t244.5 202t314.5 72.5q211 0 347 -118t136 -300l-348 -45q-3 72 -54 118t-124 46q-79 0 -147.5 -50t-96.5 -128l314 2l-35 -189l-311 -2q-1 -76 47 -125t125 -49q78 0 147 47t98 119l330 -57
q-68 -179 -242.5 -293.5t-379.5 -114.5z" />
    <glyph glyph-name="uni0455" unicode="&#x455;" horiz-adv-x="1157" 
d="M469 -35q-238 0 -361 103t-92 280l328 -2q-12 -66 33.5 -106.5t134.5 -40.5q70 0 118.5 28.5t57.5 77.5q3 18 -0.5 32t-16.5 23.5t-27 15.5t-40 10.5t-45 7t-53 5.5q-164 16 -234 38q-195 60 -186 243q2 24 6 49q29 166 180.5 263.5t376.5 97.5t353.5 -98.5t99.5 -258.5
l-340 4q7 55 -32.5 88t-113.5 33q-66 0 -113 -28t-54 -72q-4 -25 8.5 -41.5t42 -25.5t63.5 -14t82 -10q32 -3 49 -5q67 -7 117.5 -16.5t109.5 -32.5t94.5 -55.5t54 -88.5t5.5 -129q-31 -175 -192.5 -275t-413.5 -100z" />
    <glyph glyph-name="uni0456" unicode="&#x456;" horiz-adv-x="587" 
d="M410 1171q-96 0 -148 61t-35 154q15 90 86 147.5t164 57.5q98 0 150 -59.5t35 -153.5q-17 -91 -87.5 -149t-164.5 -58zM10 0l185 1057h383l-185 -1057h-383z" />
    <glyph glyph-name="uni0457" unicode="&#x457;" horiz-adv-x="565" 
d="M123 1171q-82 0 -126.5 52.5t-29.5 130.5q12 75 72.5 124.5t140.5 49.5q82 0 126.5 -51.5t31.5 -130.5q-14 -75 -75 -125t-140 -50zM676 1171q-83 0 -128 52.5t-30 130.5q14 75 74 124.5t139 49.5q82 0 126.5 -51.5t31.5 -130.5q-14 -75 -74 -125t-139 -50zM-2 0
l184 1057h385l-186 -1057h-383z" />
    <glyph glyph-name="uni0458" unicode="&#x458;" horiz-adv-x="581" 
d="M406 1171q-97 0 -148.5 60.5t-34.5 154.5q15 90 86 147.5t164 57.5q97 0 148 -59.5t36 -153.5q-17 -91 -87 -149t-164 -58zM-84 -483q-126 0 -248 37l49 296q47 -12 115 -12q64 0 110.5 38.5t57.5 98.5l190 1082h383l-198 -1127q-32 -185 -159.5 -299t-299.5 -114z" />
    <glyph glyph-name="uni0459" unicode="&#x459;" horiz-adv-x="1802" 
d="M-70 0l47 287q106 0 154 52t90 202l146 516h870l-51 -295h190q104 0 184 -31t125 -84t62 -121t4 -143t-54 -143t-104 -122t-153.5 -86t-194.5 -32h-579l133 754h-158l-133 -445q-14 -46 -33.5 -84.5t-42.5 -67.5t-50 -52.5t-56.5 -39t-61 -28t-63 -19t-64 -11.5t-63 -5.5
t-60.5 -1.5t-57 0h-27zM1102 289h137q49 0 85 26.5t44 67.5q6 40 -19.5 65t-74.5 25h-139z" />
    <glyph glyph-name="uni045A" unicode="&#x45a;" horiz-adv-x="1757" 
d="M-4 0l186 1057h385l-65 -373h241l66 373h385l-53 -295h190q105 0 185 -31t124.5 -84t61.5 -120.5t4 -143.5q-26 -157 -163.5 -270t-342.5 -113h-577l65 377h-242l-67 -377h-383zM1057 289h137q50 0 86 26t45 68q6 40 -20 65t-76 25h-139z" />
    <glyph glyph-name="uni045B" unicode="&#x45b;" horiz-adv-x="1239" 
d="M-4 0l203 1149h-193l49 264h191l18 115h385l-18 -115h258l-47 -264h-260l-47 -277l18 2q131 152 315 152q171 0 257 -114t55 -296l-111 -616h-383l92 520q12 76 -18.5 123t-95.5 47q-70 0 -125.5 -51.5t-67.5 -130.5l-92 -508h-383z" />
    <glyph glyph-name="uni045C" unicode="&#x45c;" horiz-adv-x="1224" 
d="M608 1208l281 320h344l-350 -320h-275zM-4 0l186 1057h385l-67 -387h18l342 387h451l-482 -508l299 -549h-452l-199 424h-22l-76 -424h-383z" />
    <glyph glyph-name="uni045E" unicode="&#x45e;" horiz-adv-x="1267" 
d="M795 1214q-144 0 -222 89.5t-53 226.5l232 -4q-11 -62 7 -95.5t62 -33.5q46 0 78 35.5t43 97.5l229 -4q-23 -136 -129 -224t-247 -88zM223 -481q-60 0 -130.5 11t-110.5 28l49 297q74 -31 162 -31q146 0 239 162l-330 1071h414l135 -584h21l286 584h396l-596 -1108
q-122 -225 -247 -327.5t-288 -102.5z" />
    <glyph glyph-name="uni045F" unicode="&#x45f;" horiz-adv-x="1298" 
d="M346 -307l53 307h-403l186 1057h385l-133 -750h352l134 750h383l-187 -1057h-405l-54 -307h-311z" />
    <glyph glyph-name="uni0490" unicode="&#x490;" horiz-adv-x="1335" 
d="M23 0l258 1466h817l51 277h354l-108 -613h-740l-200 -1130h-432z" />
    <glyph glyph-name="uni0491" unicode="&#x491;" horiz-adv-x="960" 
d="M-4 0l186 1057h557l31 174h307l-86 -481h-479l-133 -750h-383z" />
    <glyph glyph-name="Wgrave" unicode="&#x1e80;" horiz-adv-x="2502" 
d="M1597 1589h-286l-250 258h350zM342 0l-137 1466h430l86 -1075h20l461 1075h428l84 -1075h21l460 1075h435l-656 -1466h-600l-49 889h-20l-361 -889h-602z" />
    <glyph glyph-name="wgrave" unicode="&#x1e81;" horiz-adv-x="1892" 
d="M936 1208l-211 320h328l153 -320h-270zM225 0l-110 1057h395l47 -670h21l284 670h350l62 -680h20l287 680h381l-483 -1057h-488l-22 606h-21l-235 -606h-488z" />
    <glyph glyph-name="Wacute" unicode="&#x1e82;" horiz-adv-x="2502" 
d="M1278 1589l276 258h353l-340 -258h-289zM342 0l-137 1466h430l86 -1075h20l461 1075h428l84 -1075h21l460 1075h435l-656 -1466h-600l-49 889h-20l-361 -889h-602z" />
    <glyph glyph-name="wacute" unicode="&#x1e83;" horiz-adv-x="1892" 
d="M1196 1208h-274l266 320h332zM225 0l-110 1057h395l47 -670h21l284 670h350l62 -680h20l287 680h381l-483 -1057h-488l-22 606h-21l-235 -606h-488z" />
    <glyph glyph-name="Wdieresis" unicode="&#x1e84;" horiz-adv-x="2502" 
d="M1178 1561q-77 0 -119 48.5t-29 123.5q12 70 69 115.5t130 45.5q78 0 119.5 -48t29.5 -122q-12 -70 -69 -116.5t-131 -46.5zM1694 1561q-77 0 -118.5 48.5t-29.5 123.5q12 70 69.5 115.5t131.5 45.5q76 0 117.5 -48t29.5 -122q-12 -71 -68.5 -117t-131.5 -46zM342 0
l-137 1466h430l86 -1075h20l461 1075h428l84 -1075h21l460 1075h435l-656 -1466h-600l-49 889h-20l-361 -889h-602z" />
    <glyph glyph-name="wdieresis" unicode="&#x1e85;" horiz-adv-x="1892" 
d="M786 1171q-82 0 -126 52.5t-29 130.5q14 75 74 124.5t139 49.5q82 0 126 -51.5t31 -130.5q-14 -75 -75 -125t-140 -50zM1339 1171q-82 0 -127 52.5t-30 130.5q14 75 74 124.5t139 49.5q82 0 126 -51.5t31 -130.5q-14 -75 -74 -125t-139 -50zM225 0l-110 1057h395l47 -670
h21l284 670h350l62 -680h20l287 680h381l-483 -1057h-488l-22 606h-21l-235 -606h-488z" />
    <glyph glyph-name="uni1E9E" unicode="&#x1e9e;" horiz-adv-x="1501" 
d="M883 -31q-83 0 -173 13.5t-147 33.5l47 279q85 -37 183 -37q85 0 144.5 49.5t74.5 132.5q15 90 -39 139.5t-172 49.5h-94l43 235h96q70 0 123 43t65 111q13 82 -34 130t-140 48q-96 0 -166.5 -62t-87.5 -165l-172 -969h-432l170 963q41 236 246 382t495 146
q266 0 409 -120.5t110 -309.5q-33 -194 -228 -268l-8 -21q127 -36 196 -139t44 -252q-32 -177 -190 -294.5t-363 -117.5z" />
    <glyph glyph-name="Ygrave" unicode="&#x1ef2;" horiz-adv-x="1478" 
d="M1087 1589h-286l-250 258h350zM436 0l88 500l-338 966h447l164 -589h20l352 589h457l-670 -966l-88 -500h-432z" />
    <glyph glyph-name="ygrave" unicode="&#x1ef3;" horiz-adv-x="1267" 
d="M659 1208l-210 320h327l156 -320h-273zM223 -481q-60 0 -130.5 11t-110.5 28l49 297q74 -31 162 -31q146 0 239 162l-330 1071h414l135 -584h21l286 584h396l-596 -1108q-122 -225 -247 -327.5t-288 -102.5z" />
    <glyph glyph-name="endash" unicode="&#x2013;" horiz-adv-x="1257" 
d="M37 481l55 307h1168l-56 -307h-1167z" />
    <glyph glyph-name="emdash" unicode="&#x2014;" horiz-adv-x="1667" 
d="M37 481l55 307h1577l-55 -307h-1577z" />
    <glyph glyph-name="quoteleft" unicode="&#x2018;" horiz-adv-x="520" 
d="M485 1546l119 -49l-178 -293q72 -15 108 -71.5t23 -135.5q-15 -89 -85 -145.5t-163 -56.5q-95 0 -145 59t-35 152q15 76 82 170z" />
    <glyph glyph-name="quoteright" unicode="&#x2019;" horiz-adv-x="522" 
d="M264 795l-121 49l181 291q-73 15 -110 71t-24 135q15 89 85 146t163 57q95 0 146 -59.5t34 -151.5q-12 -79 -81 -168z" />
    <glyph glyph-name="quotesinglbase" unicode="&#x201a;" horiz-adv-x="522" 
d="M61 -358l-120 49l180 293q-72 14 -109 70t-24 134q17 89 86.5 146t161.5 57q95 0 146 -59t34 -150q-11 -74 -82 -170z" />
    <glyph glyph-name="quotedblleft" unicode="&#x201c;" horiz-adv-x="1026" 
d="M485 1546l119 -49l-178 -293q72 -15 108 -71.5t23 -135.5q-15 -89 -85 -145.5t-163 -56.5q-95 0 -145 59t-35 152q15 76 82 170zM989 1546l121 -49l-178 -293q72 -15 108 -71.5t23 -135.5q-15 -89 -85 -145.5t-163 -56.5q-95 0 -146 59.5t-34 151.5q15 76 82 170z" />
    <glyph glyph-name="quotedblright" unicode="&#x201d;" horiz-adv-x="1028" 
d="M264 795l-121 49l181 291q-73 15 -110 71t-24 135q15 89 85 146t163 57q95 0 146 -59.5t34 -151.5q-12 -79 -81 -168zM768 795l-119 49l180 291q-73 15 -109.5 71t-23.5 135q17 89 86 146t160 57q96 0 147.5 -59.5t34.5 -151.5q-11 -72 -82 -168z" />
    <glyph glyph-name="quotedblbase" unicode="&#x201e;" horiz-adv-x="1028" 
d="M61 -358l-120 49l180 293q-72 14 -109 70t-24 134q17 89 86.5 146t161.5 57q95 0 146 -59t34 -150q-11 -74 -82 -170zM567 -358l-121 49l179 293q-72 14 -108 70t-23 134q15 89 84.5 146t162.5 57q95 0 146.5 -59t34.5 -150q-16 -84 -82 -170z" />
    <glyph glyph-name="dagger" unicode="&#x2020;" horiz-adv-x="929" 
d="M123 -467l166 952h-252l55 303h252l129 738h334l-127 -738h252l-55 -303h-252l-166 -952h-336z" />
    <glyph glyph-name="daggerdbl" unicode="&#x2021;" horiz-adv-x="1052" 
d="M182 -471l123 692h-313l51 289h313l41 242h-313l51 286h314l86 490h335l-86 -490h314l-51 -286h-314l-43 -242h316l-52 -289h-313l-123 -692h-336z" />
    <glyph glyph-name="bullet" unicode="&#x2022;" horiz-adv-x="653" 
d="M301 365q-123 0 -189 77t-44 197q20 117 110.5 191.5t210.5 74.5q123 0 189.5 -77t46.5 -197q-22 -117 -112.5 -191.5t-211.5 -74.5z" />
    <glyph glyph-name="ellipsis" unicode="&#x2026;" horiz-adv-x="1538" 
d="M164 -23q-94 0 -145.5 59.5t-34.5 151.5q17 89 86 146t161 57q95 0 146.5 -59t34.5 -150q-15 -91 -84.5 -148t-163.5 -57zM674 -23q-95 0 -146 59.5t-34 151.5q15 89 84.5 146t162.5 57q95 0 145.5 -59t35.5 -150q-17 -91 -86.5 -148t-161.5 -57zM1184 -23
q-95 0 -146 59.5t-34 151.5q15 89 84.5 146t160.5 57q95 0 146.5 -59t36.5 -150q-17 -91 -86.5 -148t-161.5 -57z" />
    <glyph glyph-name="perthousand" unicode="&#x2030;" horiz-adv-x="3205" 
d="M524 641q-200 0 -306 129t-71 328q35 197 184 323.5t347 126.5t304.5 -129t72.5 -329q-35 -196 -184.5 -322.5t-346.5 -126.5zM332 0l1300 1528h336l-1300 -1528h-336zM569 940q70 0 121.5 44t65.5 114q11 66 -24 107.5t-101 41.5q-71 0 -122 -43.5t-63 -113.5
q-12 -66 22.5 -108t100.5 -42zM1624 -20q-200 0 -306 128.5t-69 327.5q34 198 183 324.5t346 126.5q199 0 305 -128.5t71 -328.5q-35 -197 -184.5 -323.5t-345.5 -126.5zM2609 -20q-200 0 -306 128.5t-69 327.5q34 198 183 324.5t346 126.5q200 0 306 -129t71 -328
q-35 -196 -184.5 -323t-346.5 -127zM1669 279q70 0 122 44t64 113q12 68 -21.5 110t-100.5 42q-69 0 -122 -44.5t-65 -113.5q-11 -68 23 -109.5t100 -41.5zM2654 279q70 0 122.5 44t64.5 113q12 68 -22 110t-101 42q-69 0 -122 -44.5t-65 -113.5q-11 -68 23 -109.5
t100 -41.5z" />
    <glyph glyph-name="guilsinglleft" unicode="&#x2039;" horiz-adv-x="804" 
d="M272 0l-256 543l443 514h393l-457 -514l269 -543h-392z" />
    <glyph glyph-name="guilsinglright" unicode="&#x203a;" horiz-adv-x="802" 
d="M346 0h-395l463 543l-275 514h391l263 -514z" />
    <glyph glyph-name="lira" unicode="&#x20a4;" horiz-adv-x="1329" 
d="M-47 0l59 344q121 28 183 143l-152 -2l29 164l221 2q3 13 8 39.5t8 40.5l-221 -2l31 180h221l20 127q37 200 199 329.5t381 129.5q220 0 341.5 -133.5t88.5 -345.5l-369 4q9 69 -17 112.5t-77 43.5q-53 0 -93.5 -42.5t-51.5 -107.5l-23 -117h424l-30 -180l-424 -2
l-19 -80l428 2l-33 -180l-499 -2q-44 -68 -99 -108t-141 -68l-6 -21h893l-47 -270h-1233z" />
    <glyph glyph-name="Euro" unicode="&#x20ac;" horiz-adv-x="1820" 
d="M1133 1143q-108 0 -201 -47.5t-156 -134.5h344l-33 -183h-397q-8 -31 -10 -49l-6 -37h399l-33 -182h-350q31 -88 106.5 -137t182.5 -49q122 0 231.5 75.5t155.5 190.5l395 -51q-72 -253 -309.5 -411.5t-538.5 -158.5q-286 0 -468 146.5t-207 394.5h-195l31 182h168l6 45
q1 7 4 20.5t4 20.5h-166l31 183h196q110 246 341.5 390t517.5 144q297 0 478.5 -161.5t168.5 -418.5l-406 -38q-3 117 -83.5 191.5t-200.5 74.5z" />
    <glyph glyph-name="uni20BD" unicode="&#x20bd;" horiz-adv-x="1556" 
d="M1055 1466q294 0 438.5 -123.5t103.5 -357.5q-42 -231 -229 -352t-481 -121h-250l-19 -100h314l-47 -265h-312l-26 -147h-430l26 147h-166l48 265h163l19 102h-164l49 279h164l119 673h680zM1165 993q15 91 -39.5 141t-164.5 50h-203l-70 -389h199q109 0 186 55.5
t92 142.5z" />
    <glyph glyph-name="uni2116" unicode="&#x2116;" horiz-adv-x="2271" 
d="M53 0l258 1466h439l237 -876h21l155 876h371l-258 -1466h-438l-238 872h-20l-156 -872h-371zM1812 539q-146 0 -225.5 89t-56.5 226q25 134 133 220.5t252 86.5q147 0 226.5 -89.5t53.5 -225.5q-23 -134 -131 -220.5t-252 -86.5zM1839 723q57 0 101 37t53 94q9 53 -20 88
t-83 35q-57 0 -100.5 -37.5t-54.5 -93.5q-8 -53 21 -88t83 -35zM1407 219l37 209h708l-36 -209h-709z" />
    <glyph glyph-name="trademark" unicode="&#x2122;" horiz-adv-x="2418" 
d="M248 307l155 889h-262l47 270h846l-47 -270h-264l-156 -889h-319zM934 307l203 1159h391l133 -745h20l390 745h401l-203 -1159h-303l121 692h-21l-350 -692h-229l-109 692h-20l-121 -692h-303z" />
    <glyph glyph-name="arrowleft" unicode="&#x2190;" horiz-adv-x="1196" 
d="M322 102l-279 416l424 416h305l-311 -291l-2 -8h710l-41 -234h-712v-8l207 -291h-301z" />
    <glyph glyph-name="arrowup" unicode="&#x2191;" horiz-adv-x="921" 
d="M250 0l125 713h-6l-336 -260l51 303l477 350l354 -350l-51 -303l-246 260h-8l-125 -713h-235z" />
    <glyph glyph-name="arrowright" unicode="&#x2192;" horiz-adv-x="1196" 
d="M422 102l311 291v8h-710l40 234h713l2 8l-209 291h303l277 -416l-422 -416h-305z" />
    <glyph glyph-name="arrowdown" unicode="&#x2193;" horiz-adv-x="921" 
d="M369 0l-355 350l54 303l243 -258h8l125 711h236l-125 -711h8l336 258l-53 -303z" />
    <glyph glyph-name="uni2196" unicode="&#x2196;" horiz-adv-x="1003" 
d="M713 80l-414 502l-8 -4l-90 -390l-178 215l143 541l549 47l178 -213l-391 -22l-8 -6l413 -504z" />
    <glyph glyph-name="uni2197" unicode="&#x2197;" horiz-adv-x="1003" 
d="M133 78l-139 168l592 504l-2 6l-387 20l252 215l534 -47l-47 -541l-254 -215l49 390l-6 4z" />
    <glyph glyph-name="uni2198" unicode="&#x2198;" horiz-adv-x="1003" 
d="M297 115l-178 215l391 20l6 6l-412 504l195 168l412 -504l10 6l90 390l176 -218l-141 -540z" />
    <glyph glyph-name="uni2199" unicode="&#x2199;" horiz-adv-x="1003" 
d="M563 115l-534 47l47 540l254 218l-47 -390l2 -6l594 504l137 -168l-592 -504l4 -6l387 -20z" />
    <glyph glyph-name="minus" unicode="&#x2212;" horiz-adv-x="933" 
d="M57 586l49 278h840l-49 -278h-840z" />
    <glyph glyph-name="notequal" unicode="&#x2260;" horiz-adv-x="1056" 
d="M100 14l154 301h-244l51 293h334l121 234h-414l54 293h506l141 284h227l-139 -284h227l-53 -293h-317l-119 -234h395l-51 -293h-488l-151 -301h-234z" />
    <glyph glyph-name="lessequal" unicode="&#x2264;" horiz-adv-x="868" 
d="M817 496l-745 180l69 403l809 181l-45 -269l-571 -102l-4 -21l532 -104zM-14 193l43 235h776l-41 -235h-778z" />
    <glyph glyph-name="greaterequal" unicode="&#x2265;" horiz-adv-x="868" 
d="M39 496l47 268l571 104l7 21l-537 102l45 269l748 -181l-70 -403zM764 193h-778l43 235h776z" />
    <glyph glyph-name="uniF6C3" unicode="&#xf6c3;" horiz-adv-x="0" 
d="M-440 -631l-78 39l119 164q-55 11 -84 54.5t-19 101.5q11 66 62 109.5t118 43.5q69 0 107.5 -44t26.5 -111q-11 -60 -76 -140z" />
    <glyph glyph-name="a.alt1" horiz-adv-x="1196" 
d="M293 -25q-159 0 -243 82.5t-58 225.5q27 151 166 235.5t409 120.5l189 23l10 49q9 60 -20.5 94.5t-92.5 34.5q-66 0 -114 -39t-60 -107l-368 2q31 177 189 282t394 105t360.5 -106.5t92.5 -284.5l-123 -692h-385l23 125l-19 -2q-57 -72 -150 -110t-200 -38zM477 207
q87 0 153 54t81 136l10 62l-174 -25q-162 -20 -178 -123q-9 -48 19.5 -76t88.5 -28z" />
    <glyph glyph-name="agrave.alt1" horiz-adv-x="1196" 
d="M592 1208l-211 320h330l153 -320h-272zM293 -25q-159 0 -243 82.5t-58 225.5q27 151 166 235.5t409 120.5l189 23l10 49q9 60 -20.5 94.5t-92.5 34.5q-66 0 -114 -39t-60 -107l-368 2q31 177 189 282t394 105t360.5 -106.5t92.5 -284.5l-123 -692h-385l23 125l-19 -2
q-57 -72 -150 -110t-200 -38zM477 207q87 0 153 54t81 136l10 62l-174 -25q-162 -20 -178 -123q-9 -48 19.5 -76t88.5 -28z" />
    <glyph glyph-name="aacute.alt1" horiz-adv-x="1196" 
d="M854 1208h-274l266 320h330zM293 -25q-159 0 -243 82.5t-58 225.5q27 151 166 235.5t409 120.5l189 23l10 49q9 60 -20.5 94.5t-92.5 34.5q-66 0 -114 -39t-60 -107l-368 2q31 177 189 282t394 105t360.5 -106.5t92.5 -284.5l-123 -692h-385l23 125l-19 -2
q-57 -72 -150 -110t-200 -38zM477 207q87 0 153 54t81 136l10 62l-174 -25q-162 -20 -178 -123q-9 -48 19.5 -76t88.5 -28z" />
    <glyph glyph-name="atilde.alt1" horiz-adv-x="1196" 
d="M883 1194q-51 0 -96.5 16.5t-72.5 36.5t-59 36.5t-59 16.5q-37 0 -77 -22.5t-70 -58.5l-130 118q144 164 306 164q51 0 95.5 -17t71.5 -37t60 -37t63 -17q39 0 79 24t67 60l133 -105q-79 -89 -153 -133.5t-158 -44.5zM293 -25q-159 0 -243 82.5t-58 225.5
q27 151 166 235.5t409 120.5l189 23l10 49q9 60 -20.5 94.5t-92.5 34.5q-66 0 -114 -39t-60 -107l-368 2q31 177 189 282t394 105t360.5 -106.5t92.5 -284.5l-123 -692h-385l23 125l-19 -2q-57 -72 -150 -110t-200 -38zM477 207q87 0 153 54t81 136l10 62l-174 -25
q-162 -20 -178 -123q-9 -48 19.5 -76t88.5 -28z" />
    <glyph glyph-name="adieresis.alt1" horiz-adv-x="1196" 
d="M444 1171q-81 0 -126 52.5t-31 130.5q13 75 74 124.5t139 49.5q83 0 127 -51t30 -131q-14 -75 -74 -125t-139 -50zM995 1171q-81 0 -126 52.5t-31 130.5q13 75 74 124.5t139 49.5q83 0 127.5 -51.5t29.5 -130.5q-14 -75 -74 -125t-139 -50zM293 -25q-159 0 -243 82.5
t-58 225.5q27 151 166 235.5t409 120.5l189 23l10 49q9 60 -20.5 94.5t-92.5 34.5q-66 0 -114 -39t-60 -107l-368 2q31 177 189 282t394 105t360.5 -106.5t92.5 -284.5l-123 -692h-385l23 125l-19 -2q-57 -72 -150 -110t-200 -38zM477 207q87 0 153 54t81 136l10 62
l-174 -25q-162 -20 -178 -123q-9 -48 19.5 -76t88.5 -28z" />
    <glyph glyph-name="aring.alt1" horiz-adv-x="1196" 
d="M723 1188q-116 0 -175.5 66t-39.5 173q17 104 97.5 168t193.5 64q115 0 174.5 -66.5t40.5 -173.5q-19 -104 -98.5 -167.5t-192.5 -63.5zM737 1313q51 0 89.5 31.5t45.5 82.5q8 47 -16.5 77t-71.5 30q-51 0 -88.5 -32t-46.5 -83q-8 -46 16.5 -76t71.5 -30zM293 -25
q-159 0 -243 82.5t-58 225.5q27 151 166 235.5t409 120.5l189 23l10 49q9 60 -20.5 94.5t-92.5 34.5q-66 0 -114 -39t-60 -107l-368 2q31 177 189 282t394 105t360.5 -106.5t92.5 -284.5l-123 -692h-385l23 125l-19 -2q-57 -72 -150 -110t-200 -38zM477 207q87 0 153 54
t81 136l10 62l-174 -25q-162 -20 -178 -123q-9 -48 19.5 -76t88.5 -28z" />
    <glyph glyph-name="amacron.alt1" horiz-adv-x="1196" 
d="M369 1257l41 230h723l-41 -230h-723zM293 -25q-159 0 -243 82.5t-58 225.5q27 151 166 235.5t409 120.5l189 23l10 49q9 60 -20.5 94.5t-92.5 34.5q-66 0 -114 -39t-60 -107l-368 2q31 177 189 282t394 105t360.5 -106.5t92.5 -284.5l-123 -692h-385l23 125l-19 -2
q-57 -72 -150 -110t-200 -38zM477 207q87 0 153 54t81 136l10 62l-174 -25q-162 -20 -178 -123q-9 -48 19.5 -76t88.5 -28z" />
    <glyph glyph-name="abreve.alt1" horiz-adv-x="1196" 
d="M727 1214q-144 0 -220.5 89.5t-53.5 226.5l231 -4q-11 -62 7.5 -95.5t62.5 -33.5q46 0 77.5 35.5t42.5 97.5l232 -4q-25 -136 -131.5 -224t-247.5 -88zM293 -25q-159 0 -243 82.5t-58 225.5q27 151 166 235.5t409 120.5l189 23l10 49q9 60 -20.5 94.5t-92.5 34.5
q-66 0 -114 -39t-60 -107l-368 2q31 177 189 282t394 105t360.5 -106.5t92.5 -284.5l-123 -692h-385l23 125l-19 -2q-57 -72 -150 -110t-200 -38zM477 207q87 0 153 54t81 136l10 62l-174 -25q-162 -20 -178 -123q-9 -48 19.5 -76t88.5 -28z" />
    <glyph glyph-name="aogonek.alt1" horiz-adv-x="1196" 
d="M694 1083q236 0 360.5 -106.5t92.5 -284.5l-123 -692h-190q-99 -34 -166 -88t-76 -109q-7 -37 18 -59.5t72 -22.5q61 0 117 29l-21 -141q-64 -33 -162 -33q-100 0 -152.5 51t-37.5 133q10 67 67 129.5t148 110.5h-2l23 125l-19 -2q-57 -72 -150 -110t-200 -38
q-159 0 -243 82.5t-58 225.5q27 151 166 235.5t409 120.5l189 23l10 49q9 60 -20.5 94.5t-92.5 34.5q-66 0 -114 -39t-60 -107l-368 2q31 177 189 282t394 105zM477 207q87 0 153 54t81 136l10 62l-174 -25q-162 -20 -178 -123q-9 -48 19.5 -76t88.5 -28z" />
    <glyph glyph-name="acircumflex.alt1" horiz-adv-x="1196" 
d="M336 1180l250 319h377l141 -319h-266l-80 155h-21l-135 -155h-266zM293 -25q-159 0 -243 82.5t-58 225.5q27 151 166 235.5t409 120.5l189 23l10 49q9 60 -20.5 94.5t-92.5 34.5q-66 0 -114 -39t-60 -107l-368 2q31 177 189 282t394 105t360.5 -106.5t92.5 -284.5
l-123 -692h-385l23 125l-19 -2q-57 -72 -150 -110t-200 -38zM477 207q87 0 153 54t81 136l10 62l-174 -25q-162 -20 -178 -123q-9 -48 19.5 -76t88.5 -28z" />
    <glyph glyph-name="IJacute" horiz-adv-x="1640" 
d="M356 1589l277 258h352l-340 -258h-289zM1331 1589l277 258h352l-340 -258h-289zM23 0l258 1466h432l-258 -1466h-432zM911 -27q-180 0 -301 41l52 318q97 -19 178 -19q96 0 168 64.5t92 169.5l162 919h432l-172 -979q-41 -229 -212.5 -371.5t-398.5 -142.5z" />
    <glyph glyph-name="ijacute" horiz-adv-x="1128" 
d="M233 1208l281 320h344l-350 -320h-275zM788 1208l281 320h346l-352 -320h-275zM-12 0l186 1057h383l-186 -1057h-383zM475 -451q-145 0 -246 37l41 262q50 -12 115 -12q66 0 112.5 38.5t57.5 98.5l190 1084h383l-194 -1102q-32 -183 -158 -294.5t-301 -111.5z" />
    <glyph glyph-name="acute.case" horiz-adv-x="675" 
d="M231 1589l279 258h352l-342 -258h-289z" />
    <glyph glyph-name="breve.case" horiz-adv-x="798" 
d="M588 1569q-155 0 -242 79t-67 201l253 -4q-7 -49 14 -77.5t64 -28.5q46 0 79 30t42 80l254 -4q-22 -121 -133.5 -198.5t-263.5 -77.5z" />
    <glyph glyph-name="caron.case" horiz-adv-x="874" 
d="M436 1589l-155 258h254l104 -121h23l143 121h258l-248 -258h-379z" />
    <glyph glyph-name="caron.alt1" horiz-adv-x="407" 
d="M250 975l-78 41l121 164q-56 9 -85.5 52t-19.5 101q11 66 62.5 110t118.5 44q69 0 107 -43.5t26 -112.5q-10 -55 -76 -139z" />
    <glyph glyph-name="circumflex.case" horiz-adv-x="874" 
d="M479 1847h379l156 -258h-254l-103 121h-22l-148 -121h-256z" />
    <glyph glyph-name="dieresis.case" horiz-adv-x="958" 
d="M408 1561q-77 0 -119.5 48.5t-30.5 123.5q12 70 69.5 115.5t131.5 45.5q77 0 118.5 -48.5t28.5 -121.5q-12 -70 -68 -116.5t-130 -46.5zM924 1561q-77 0 -119.5 48.5t-30.5 123.5q13 70 70 115.5t131 45.5q78 0 119.5 -48t29.5 -122q-14 -71 -70.5 -117t-129.5 -46z" />
    <glyph glyph-name="dotaccent.case" horiz-adv-x="485" 
d="M432 1589q-87 0 -134.5 48.5t-35.5 123.5q12 70 75 116t148 46q86 0 134 -48t34 -122q-12 -71 -74.5 -117.5t-146.5 -46.5z" />
    <glyph glyph-name="grave.case" horiz-adv-x="673" 
d="M815 1589h-287l-249 258h350z" />
    <glyph glyph-name="hungarumlaut.case" horiz-adv-x="991" 
d="M231 1589l238 258h295l-285 -258h-248zM629 1589l254 258h295l-304 -258h-245z" />
    <glyph glyph-name="ring.case" horiz-adv-x="573" 
d="M475 1577q-108 0 -166 55.5t-43 143.5q15 86 90 138t183 52t165.5 -55t40.5 -144q-13 -85 -88.5 -137.5t-181.5 -52.5zM487 1688q46 0 78.5 25t38.5 63q7 35 -15.5 57t-64.5 22q-44 0 -76 -24.5t-40 -63.5q-6 -35 16 -57t63 -22z" />
    <glyph glyph-name="tilde.case" horiz-adv-x="960" 
d="M829 1624q-43 0 -80.5 11t-63.5 27t-48.5 31.5t-46 26.5t-45.5 11q-37 0 -78.5 -25t-73.5 -64l-129 119q144 164 303 164q51 0 96.5 -17t72.5 -37t60 -37t62 -17q40 0 80.5 25t67.5 63l133 -103q-154 -178 -310 -178z" />
    <glyph glyph-name="uni0430.alt1" horiz-adv-x="1196" 
d="M293 -25q-159 0 -243 82.5t-58 225.5q27 151 166 235.5t409 120.5l189 23l10 49q9 60 -20.5 94.5t-92.5 34.5q-66 0 -114 -39t-60 -107l-368 2q31 177 189 282t394 105t360.5 -106.5t92.5 -284.5l-123 -692h-385l23 125l-19 -2q-57 -72 -150 -110t-200 -38zM477 207
q87 0 153 54t81 136l10 62l-174 -25q-162 -20 -178 -123q-9 -48 19.5 -76t88.5 -28z" />
    <glyph glyph-name="uni0432.alt1" 
d="M545 -61q-253 0 -383.5 146t-89.5 378l92 526q43 240 220 394.5t411 154.5q131 0 227.5 -49.5t141 -137.5t24.5 -198q-15 -90 -70.5 -170t-132.5 -129q109 -41 163.5 -159.5t27.5 -272.5q-37 -215 -212 -349t-419 -134zM524 864q127 40 209 108.5t94 143.5q9 53 -16.5 85
t-77.5 32q-64 0 -111 -46t-59 -116zM592 276q76 0 136 53t73 134q12 76 -22 131.5t-99 64.5q-68 -28 -201 -75l-24 -125q-14 -80 25 -131.5t112 -51.5z" />
    <glyph glyph-name="uni0433.alt" horiz-adv-x="1157" 
d="M496 -35q-253 0 -382 102.5t-98 280.5q9 52 31.5 94.5t50.5 72.5t68 54t77.5 39t86 26.5t86.5 17t86 10.5q13 1 37 4q43 4 64 7t55 8.5t52 12t38 16.5t30 24t13 32q6 41 -28.5 66.5t-98.5 25.5q-76 0 -131 -35t-64 -90l-342 4q29 160 188 256.5t381 96.5
q229 0 349.5 -99.5t89.5 -267.5q-10 -58 -35 -105.5t-51 -78.5t-74 -55.5t-78.5 -37t-92 -23.5t-86 -13.5t-88.5 -8.5q-13 -1 -20 -2q-50 -4 -81.5 -9.5t-65 -16t-51.5 -29.5t-23 -47q-9 -44 27.5 -71t103.5 -27q92 0 155 41.5t75 107.5l325 -2q-31 -177 -186.5 -279
t-392.5 -102z" />
    <glyph glyph-name="uni0414.alt1" horiz-adv-x="1822" 
d="M-102 -307l112 647h187l542 1126h678l146 -1126h182l-113 -647h-342l53 307h-1052l-53 -307h-340zM635 340h487l-92 799h-20z" />
    <glyph glyph-name="uni0434.alt1" horiz-adv-x="1316" 
d="M467 -498q-252 0 -391 101.5t-135 287.5l374 48q8 -66 55.5 -105t123.5 -39q99 0 170 63t88 165l20 106l-20 -2q-148 -135 -330 -135q-211 0 -314 146.5t-61 393.5q45 256 197.5 402.5t361.5 146.5q203 0 299 -157l21 2l24 131h369l-186 -1053q-41 -237 -219 -369.5
t-447 -132.5zM600 299q95 0 168 66t90 167q17 100 -30.5 165t-139.5 65q-93 0 -166 -67.5t-92 -170.5q-17 -98 30.5 -161.5t139.5 -63.5z" />
    <glyph glyph-name="uni0437.alt1" horiz-adv-x="1206" 
d="M430 -512q-172 0 -297 67.5t-181 187t-30 269.5l369 -4q-13 -90 35.5 -144t140.5 -54q91 0 156 52.5t79 135.5q15 76 -27.5 123t-121.5 47h-164l51 278h158q76 0 134.5 47.5t72.5 118.5q12 72 -31.5 118t-124.5 46q-86 0 -150.5 -50.5t-78.5 -127.5l-354 4
q37 214 219.5 355t425.5 141q151 0 263 -57.5t163.5 -159.5t29.5 -228q-22 -122 -102.5 -211.5t-190.5 -115.5l-6 -21q112 -26 169 -129.5t34 -238.5q-35 -196 -218 -322.5t-423 -126.5z" />
    <glyph glyph-name="uni0436.alt" horiz-adv-x="1853" 
d="M-86 0l475 549l-276 508h438l188 -389h21l151 860h383l-149 -860h20l324 389h442l-456 -508l276 -549h-444l-185 428h-20l-76 -428h-385l78 428h-21l-336 -428h-448z" />
    <glyph glyph-name="uni0438.alt1" 
d="M1245 1057l-188 -1057h-383l26 156l-18 -2q-78 -93 -156 -136t-170 -43q-166 0 -250.5 119.5t-50.5 304.5l115 658h385l-104 -590q-14 -77 16.5 -124.5t95.5 -47.5q69 0 125.5 51.5t69.5 128.5l102 582h385z" />
    <glyph glyph-name="uni0439.alt1" 
d="M735 1214q-144 0 -221.5 89.5t-52.5 226.5l229 -4q-19 -129 70 -129q47 0 79.5 35.5t41.5 97.5l231 -4q-23 -136 -129.5 -224t-247.5 -88zM1245 1057l-188 -1057h-383l26 156l-18 -2q-78 -93 -156 -136t-170 -43q-166 0 -250.5 119.5t-50.5 304.5l115 658h385l-104 -590
q-14 -77 16.5 -124.5t95.5 -47.5q69 0 125.5 51.5t69.5 128.5l102 582h385z" />
    <glyph glyph-name="uni043A.alt1" horiz-adv-x="1226" 
d="M-4 0l270 1528h383l-149 -858h20l340 387h453l-484 -508l301 -549h-452l-201 424h-20l-76 -424h-385z" />
    <glyph glyph-name="uni041B.alt1" horiz-adv-x="1587" 
d="M-74 0l695 1466h677l177 -1466h-449l-113 1139h-20l-518 -1139h-449z" />
    <glyph glyph-name="uni043B.alt1" horiz-adv-x="1286" 
d="M-86 0l537 1057h571l164 -1057h-410l-80 768h-20l-350 -768h-412z" />
    <glyph glyph-name="uni0442.alt1" horiz-adv-x="1912" 
d="M-4 0l186 1057h383l-30 -170l20 2q64 91 153 142.5t187 51.5q102 0 179.5 -56.5t99.5 -147.5l20 4q59 94 150.5 146t203.5 52q168 0 256 -114.5t56 -296.5l-119 -670h-383l104 588q12 74 -19.5 122.5t-99.5 51.5q-70 0 -122 -50t-64 -128l-104 -584h-385l106 588
q12 80 -17.5 127t-92.5 47q-69 0 -118 -49t-63 -129l-104 -584h-383z" />
    <glyph glyph-name="uni043F.alt1" 
d="M-4 0l188 1057h383l-26 -156l18 2q78 93 156 135.5t170 42.5q166 0 250.5 -119.5t50.5 -304.5l-115 -657h-385l105 590q14 77 -16.5 123.5t-96.5 46.5q-69 0 -125.5 -51.5t-69.5 -128.5l-102 -580h-385z" />
    <glyph glyph-name="uni0446.alt1" horiz-adv-x="1327" 
d="M866 -307l54 307h-248l28 154l-14 -2q-152 -177 -332 -177q-165 0 -249 119.5t-52 304.5l117 658h383l-104 -590q-14 -77 16.5 -124.5t97.5 -47.5q68 0 124 51.5t69 128.5l104 582h383l-133 -748h170l-109 -616h-305z" />
    <glyph glyph-name="uni0448.alt1" horiz-adv-x="1912" 
d="M1917 1057l-186 -1057h-383l30 170l-22 -2q-62 -90 -151.5 -142.5t-186.5 -52.5q-102 0 -179.5 56.5t-99.5 146.5l-20 -2q-59 -95 -151.5 -148t-202.5 -53q-168 0 -256 116t-56 298l119 670h383l-104 -588q-12 -74 19 -122.5t99 -51.5q70 0 121.5 49.5t65.5 126.5
l104 586h385l-106 -588q-12 -80 17.5 -127t92.5 -47q68 0 117.5 48.5t63.5 127.5l104 586h383z" />
    <glyph glyph-name="uni0449.alt1" horiz-adv-x="1998" 
d="M1536 -307l53 307h-243l30 170l-20 -2q-60 -90 -147 -142.5t-185 -52.5q-105 0 -187 56.5t-102 146.5l-22 -2q-59 -96 -150 -148.5t-201 -52.5q-168 0 -255.5 116t-55.5 298l119 670h383l-104 -588q-12 -74 19 -122.5t99 -51.5q70 0 121.5 49.5t65.5 126.5l104 586h385
l-106 -588q-12 -80 17.5 -127t92.5 -47q68 0 117 48.5t63 127.5l105 586h383l-133 -750h170l-109 -614h-307z" />
    <glyph glyph-name="uni044A.alt1" horiz-adv-x="1257" 
d="M639 0q-222 0 -335.5 108.5t-82.5 290.5l66 363h-236l51 295h621l-49 -262h157q208 0 313 -107.5t73 -288.5q-32 -180 -190.5 -289.5t-387.5 -109.5zM688 289q55 0 96 31t50 79q8 48 -20 78.5t-83 30.5h-121l-18 -113q-9 -47 18 -76.5t78 -29.5z" />
    <glyph glyph-name="uni044C.alt1" horiz-adv-x="1097" 
d="M471 0q-223 0 -336.5 108.5t-81.5 290.5l117 658h383l-47 -262h158q207 0 312 -107.5t73 -288.5q-32 -180 -190.5 -289.5t-387.5 -109.5zM518 289q55 0 97 31.5t51 78.5q8 48 -21 78.5t-84 30.5h-119l-20 -113q-7 -47 19.5 -76.5t76.5 -29.5z" />
    <glyph glyph-name="uni044E.alt1" horiz-adv-x="1708" 
d="M1008 -41q-206 0 -332 112.5t-135 301.5l-95 -2l-67 -375h-383l270 1532h383l-151 -852h92q75 191 239.5 304.5t370.5 113.5q251 0 378.5 -158t84.5 -414q-44 -252 -225 -407.5t-430 -155.5zM1059 293q93 0 161 65t85 172q19 104 -24 167t-132 63q-91 0 -158 -65.5
t-86 -172.5q-19 -103 23.5 -166t130.5 -63z" />
    <glyph glyph-name="uni0424.alt1" horiz-adv-x="2004" 
d="M672 -123l22 123q-325 15 -489 216.5t-109 520.5q55 314 288.5 513t565.5 216l25 117h432l-25 -117q215 -11 363.5 -106t210 -258.5t24.5 -372.5q-37 -208 -154.5 -369.5t-298.5 -255t-401 -104.5l-20 -123h-434zM750 326l147 815q-135 -5 -243 -120t-138 -292
q-31 -174 35.5 -287t198.5 -116zM1184 326q134 2 241.5 117.5t139.5 293.5q31 176 -35 289t-199 115z" />
    </font>
</defs>
</svg>
