<?xml version="1.0" encoding="utf-8"?>
<!-- Generator: Adobe Illustrator 19.0.0, SVG Export Plug-In . SVG Version: 6.00 Build 0)  -->
<svg version="1.1" id="Layer_1" xmlns="http://www.w3.org/2000/svg" xmlns:xlink="http://www.w3.org/1999/xlink" x="0px" y="0px"
	 viewBox="200 -131.3 500 382.7" style="enable-background:new 200 -131.3 500 382.7;" xml:space="preserve">
<style type="text/css">
	.st0{fill:#B19039;}
	.st1{opacity:0.8;fill:#B19039;enable-background:new    ;}
	.st2{opacity:0.8;fill:#FFFFFF;enable-background:new    ;}
	.st3{fill:#FFFFFF;}
	.st4{opacity:0.5;fill:#FFFFFF;enable-background:new    ;}
	.st5{fill:none;stroke:#775C22;stroke-width:1.252;stroke-linecap:round;stroke-linejoin:round;}
	.st6{fill:#92E3A9;stroke:#263238;stroke-linecap:round;stroke-linejoin:round;}
	.st7{opacity:0.3;fill:#B19039;enable-background:new    ;}
	.st8{opacity:0.5;fill:#B19039;enable-background:new    ;}
	.st9{fill:#263238;stroke:#263238;stroke-miterlimit:10;}
	.st10{clip-path:url(#SVGID_2_);}
	.st11{opacity:0.1;fill:#263238;enable-background:new    ;}
	.st12{fill:none;stroke:#263238;stroke-miterlimit:10;}
	.st13{fill:#92E3A9;}
	.st14{clip-path:url(#SVGID_4_);}
	.st15{opacity:0.2;fill:#FFFFFF;enable-background:new    ;}
	.st16{fill:#FFFFFF;stroke:#263238;stroke-miterlimit:10;}
</style>
<g>
	<path class="st0" d="M578.1-112.6c-49.5-28.3-93.3-5-115.3,19.8S424.5-42.9,397-38.3s-69.3-7.1-100.4,14.9s-31,80.1-6.4,113.1
		s88.4,48.8,161.9,59.4c26.4,4,53.3,2.5,79.1-4.4l33.4-12.1c16.3-7.5,30-15.8,41.6-22.6c17.6-10.4,23.8-35.8,27.2-54.3
		c4.9-27.8,4.5-56.3-1.3-84C624.8-63.3,608-95.5,578.1-112.6z"/>
	<path class="st1" d="M653.7-77.9c-1.1-18.5-13.7-24.5-21.7-15.7c-3.9,4.4-5,10.5-2.9,16c2.8,7.6,7.6,21.1,10.5,31.6
		c4.2,15.6,2.8,27.6,7.8,21.2S655.2-54.6,653.7-77.9z"/>
	<path class="st0" d="M440.2-80.7c7.8-1.4,17.7-19.8,30.4-27.6s1.4-13.4-10.6-7.8c0,0-9.2,2.1-16.3,16.3S432.4-79.3,440.2-80.7z"/>
	<path class="st0" d="M427.5-90.6c6.3-2.5,13.2-19.7,6-18.8c-1.8,0.3-3.4,1.5-4.2,3.2C427-101.2,421.8-88.4,427.5-90.6z"/>
</g>
<g>
	<path class="st2" d="M578.1-112.6c-49.5-28.3-93.3-5-115.3,19.8S424.5-42.9,397-38.3s-69.3-7.1-100.4,14.9s-31,80.1-6.4,113.1
		c24.6,33,88.4,48.8,161.9,59.4c26.4,4,53.3,2.5,79.1-4.4l33.4-12.1c16.3-7.5,30-15.8,41.6-22.6c17.6-10.4,23.8-35.8,27.2-54.3
		c4.9-27.8,4.5-56.3-1.3-84C624.8-63.3,608-95.5,578.1-112.6z"/>
	<path class="st2" d="M653.7-77.9c-1.1-18.5-13.7-24.5-21.7-15.7c-3.9,4.4-5,10.5-2.9,16c2.8,7.6,7.6,21.1,10.5,31.6
		c4.2,15.6,2.8,27.6,7.8,21.2C652.4-31.2,655.1-54.6,653.7-77.9z"/>
	<path class="st2" d="M440.2-80.7c7.8-1.4,17.7-19.8,30.4-27.6s1.4-13.4-10.6-7.8c0,0-9.2,2.1-16.3,16.3S432.4-79.3,440.2-80.7z"/>
	<path class="st2" d="M427.4-90.6c6.3-2.5,13.2-19.7,6-18.8c-1.8,0.3-3.4,1.5-4.1,3.2C427-101.2,421.8-88.4,427.4-90.6z"/>
</g>
<g>
	<ellipse class="st0" cx="447.1" cy="220.8" rx="202.3" ry="7.5"/>
	<ellipse class="st2" cx="447.1" cy="220.8" rx="202.3" ry="7.5"/>
</g>
<g id="freepik--Ladder--inject-1--inject-5">
	<path class="st3" d="M563.2-61c-0.8,0-1.5,0.7-1.5,1.5v7.7h-27.4v-7.7c0-0.8-0.7-1.5-1.5-1.5s-1.5,0.7-1.5,1.5v193.7
		c0,0.8,0.7,1.5,1.5,1.5s1.5-0.7,1.5-1.5V90.9h27.4v43.3c0,0.8,0.7,1.5,1.5,1.5c0.8,0,1.5-0.7,1.5-1.5V-59.5
		C564.7-60.3,564-61,563.2-61z M561.7,87.9h-27.4v-9.7h27.4V87.9z M561.7,75.2h-27.4v-9.7h27.4V75.2z M561.7,62.4h-27.4v-9.7h27.4
		V62.4z M561.7,49.7h-27.4v-9.6h27.4V49.7z M561.7,37h-27.4v-9.5h27.4V37z M561.7,24.4h-27.4v-9.6h27.4V24.4z M561.7,11.8h-27.4V2.1
		h27.4V11.8z M561.7-0.9h-27.4v-9.7h27.4V-0.9z M561.7-13.6h-27.4v-9.7h27.4V-13.6z M561.7-26.4h-27.4v-9.7h27.4V-26.4z M561.7-39.1
		h-27.4v-9.7h27.4V-39.1z"/>
</g>
<g>
	<path class="st0" d="M299.5,92.1c0,0,22.4-30.7,11.5-38c-11.4-7.5-16.7,15.2-19.2,26.4c-5.1,23.8-3.7,28.9-0.2,23.7L299.5,92.1z"/>
	<path class="st4" d="M299.2,92.4c0,0,22.4-30.7,11.5-38c-11.4-7.5-16.7,15.2-19.1,26.4c-5.1,23.8-3.7,28.9-0.2,23.7L299.2,92.4z"/>
	<path class="st0" d="M307.9,111c0,0,31.2-21.8,23.2-32.2c-8.3-10.8-20.8,9-26.7,18.8c-12.6,20.9-12.9,26.1-7.9,22.3L307.9,111z"/>
	<path class="st4" d="M307.6,111.3c0,0,31.2-21.8,23.2-32.2c-8.3-10.8-20.8,9-26.7,18.8c-12.6,20.9-12.9,26.1-7.9,22.3L307.6,111.3z
		"/>
	<path class="st0" d="M308.6,136.3c0,0,27-12.1,22.4-21.2c-4.8-9.5-17.2,3.9-23.1,10.5c-12.7,14.1-13.6,18.1-9.3,15.9L308.6,136.3z"
		/>
	<path class="st4" d="M308.3,136.5c0,0,27-12.1,22.4-21.2c-4.8-9.5-17.2,3.9-23.1,10.5c-12.7,14.1-13.6,18.1-9.3,15.9L308.3,136.5z"
		/>
	<path class="st0" d="M310.2,161.7c0,0,27-12.1,22.4-21.2c-4.8-9.5-17.2,3.9-23.1,10.5c-12.7,14.1-13.6,18.1-9.3,15.9L310.2,161.7z"
		/>
	<path class="st4" d="M309.9,161.9c0,0,27-12.1,22.4-21.2c-4.8-9.5-17.2,3.9-23.1,10.5c-12.7,14.1-13.6,18.1-9.3,15.9L309.9,161.9z"
		/>
	<path class="st0" d="M278.5,105c0,0-29.7-23.8-37.4-13.2c-8,11,14.5,17.4,25.5,20.4c23.6,6.2,28.7,5,23.6,1.3L278.5,105z"/>
	<path class="st4" d="M278.2,105.2c0,0-29.7-23.8-37.4-13.2c-8,11,14.5,17.4,25.5,20.4c23.6,6.2,28.7,5,23.6,1.3L278.2,105.2z"/>
	<path class="st0" d="M279.4,124.9c0,0-33.8-17.5-39.3-5.5c-5.7,12.4,17.6,14.2,29,14.9c24.4,1.4,29.1-0.8,23.4-3.4L279.4,124.9z"/>
	<path class="st4" d="M279.1,125.1c0,0-33.8-17.5-39.3-5.5c-5.7,12.4,17.6,14.2,29,14.9c24.4,1.4,29.1-0.8,23.4-3.4L279.1,125.1z"/>
	<path class="st0" d="M283.5,147.2c0,0-29-14-33.3-3.8c-4.5,10.6,15.2,11.6,24.9,11.9c20.6,0.6,24.6-1.4,19.7-3.4L283.5,147.2z"/>
	<path class="st4" d="M283.2,147.5c0,0-29-14-33.3-3.8c-4.5,10.6,15.2,11.6,24.9,11.9c20.6,0.6,24.6-1.4,19.7-3.4L283.2,147.5z"/>
	<path class="st0" d="M284.9,165.2c0,0-27.4-17-32.8-7.3c-5.6,10.1,13.9,13.2,23.5,14.5c20.4,2.8,24.6,1.3,20-1.3L284.9,165.2z"/>
	<path class="st4" d="M284.6,165.5c0,0-27.4-17-32.8-7.3c-5.6,10.1,13.9,13.2,23.5,14.5c20.4,2.8,24.6,1.3,20-1.3L284.6,165.5z"/>
	<path class="st0" d="M282.3,74.8c0,0-5.1-44.6-22-40.1c-17.5,4.8-2.9,27.3,4.6,38.3c15.8,23.2,21.6,25.8,20.4,18.5L282.3,74.8z"/>
	<path class="st4" d="M282,75c0,0-5.1-44.6-22-40.1c-17.5,4.8-2.8,27.3,4.6,38.3C280.4,96.5,286.2,99,285,91.8L282,75z"/>
	<path class="st5" d="M263.8,51c0,0,25.7,48.1,29.6,70.4c4.6,25.6,5.3,54.3,2.2,76.7"/>
	<line class="st5" x1="289.4" y1="106.5" x2="301.9" y2="68"/>
	<line class="st5" x1="293.4" y1="121.4" x2="317.1" y2="91.6"/>
	<line class="st5" x1="291.9" y1="116" x2="257.6" y2="101.6"/>
	<line class="st5" x1="296.4" y1="141.5" x2="322.1" y2="121.8"/>
	<line class="st5" x1="295" y1="133" x2="268.1" y2="127.4"/>
	<line class="st5" x1="296.3" y1="153.7" x2="275.5" y2="150.4"/>
	<line class="st5" x1="298.1" y1="167" x2="312.1" y2="154.4"/>
	<line class="st5" x1="297.8" y1="172.6" x2="273.8" y2="166.6"/>
	<polygon class="st0" points="280,180 308.3,180 308.3,185.8 305.9,185.8 300.8,217.8 287.6,217.8 282.5,185.8 280,185.8 	"/>
	<polygon class="st4" points="279.7,180.2 308,180.2 308,186.1 305.6,186.1 300.5,218.1 287.3,218.1 282.2,186.1 279.7,186.1 	"/>
</g>
<path class="st6" d="M359.1-60.9c-6.1,6.1-14.5,9.1-23.1,8.3l-2.9,12.1l5.5,27.5l35.9-18.6l-8.1-21L359.1-60.9z"/>
<path class="st7" d="M359.1-60.9c-6.1,6.1-14.5,9.1-23.1,8.3l-2.9,12.1l5.5,27.5l35.9-18.6l-8.1-21L359.1-60.9z"/>
<path class="st8" d="M337.2-62.5c0,0,11.5-8.5,10.4-6s-9,8.8-11.1,9S337.2-62.5,337.2-62.5z"/>
<path class="st9" d="M582.3,133L325.8,95.4c-1.7-0.3-2.9-1.8-2.6-3.5l21.4-145.7c0.2-1.7,1.8-2.9,3.5-2.6c0,0,0,0,0,0l4.9,0.7
	c1.3,0.2,2.5-0.4,3.1-1.5l6.5-11.1c0.2-0.4,0.5-0.7,0.8-0.9c1.5-1.1,3.4-1.6,5.2-1.3l64.6,9.5c1.5,0.2,2.8,0.9,3.9,1.9
	c0.3,0.3,0.5,0.6,0.7,1l5.8,14.2c0.4,1,1.3,1.8,2.4,1.9l158.6,23.3c1.7,0.2,2.9,1.8,2.6,3.5l-21.4,145.7
	C585.5,132.1,584,133.3,582.3,133z"/>
<path class="st0" d="M585,132.3H330.8c-3.1,0-5.6-2.5-5.6-5.6V-15.6c0-3.1,2.5-5.6,5.6-5.6h0.7c2.3,0,4.4-1.4,5.2-3.5l3.9-9.7
	c0.4-1.1,1.2-2.1,2.3-2.7c1.1-0.7,2.4-1,3.6-1h65.3c0.9,0,1.7,0.2,2.6,0.5c1.1,0.5,2.1,1.3,2.7,2.4l6.6,11.3c1,1.7,2.9,2.8,4.9,2.8
	H585c3.1,0,5.6,2.5,5.6,5.6v142.3C590.6,129.8,588.1,132.3,585,132.3z"/>
<g>
	<defs>
		<path id="SVGID_1_" d="M585,132.3H330.8c-3.1,0-5.6-2.5-5.6-5.6V-15.6c0-3.1,2.5-5.6,5.6-5.6h0.7c2.3,0,4.4-1.4,5.2-3.5l3.9-9.7
			c0.4-1.1,1.2-2.1,2.3-2.7c1.1-0.7,2.4-1,3.6-1h65.3c0.9,0,1.7,0.2,2.6,0.5c1.1,0.5,2.1,1.3,2.7,2.4l6.6,11.3
			c1,1.7,2.9,2.8,4.9,2.8H585c3.1,0,5.6,2.5,5.6,5.6v142.3C590.6,129.8,588.1,132.3,585,132.3z"/>
	</defs>
	<clipPath id="SVGID_2_">
		<use xlink:href="#SVGID_1_"  style="overflow:visible;"/>
	</clipPath>
	<g class="st10">
		<path class="st11" d="M585.3,133.3H331.1c-3.1,0-5.6-2.5-5.6-5.6V-14.6c0-3.1,2.5-5.6,5.6-5.6h0.7c2.3,0,4.4-1.4,5.2-3.5l3.9-9.7
			c0.4-1.1,1.2-2.1,2.3-2.7c1.1-0.7,2.4-1,3.6-1h65.3c0.9,0,1.7,0.2,2.6,0.5c1.1,0.5,2.1,1.3,2.7,2.4l6.6,11.3
			c1,1.7,2.9,2.8,4.9,2.8h156.4c3.1,0,5.6,2.5,5.6,5.6v142.3C591,130.7,588.4,133.3,585.3,133.3z"/>
	</g>
</g>
<path class="st12" d="M585,132.3H330.8c-3.1,0-5.6-2.5-5.6-5.6V-15.6c0-3.1,2.5-5.6,5.6-5.6h0.7c2.3,0,4.4-1.4,5.2-3.5l3.9-9.7
	c0.4-1.1,1.2-2.1,2.3-2.7c1.1-0.7,2.4-1,3.6-1h65.3c0.9,0,1.7,0.2,2.6,0.5c1.1,0.5,2.1,1.3,2.7,2.4l6.6,11.3c1,1.7,2.9,2.8,4.9,2.8
	H585c3.1,0,5.6,2.5,5.6,5.6v142.3C590.6,129.8,588.1,132.3,585,132.3z"/>
<path class="st3" d="M397-21.7h-40.7c-2,0-3.7-1.6-3.7-3.7l0,0l0,0c0-2,1.6-3.7,3.6-3.7c0,0,0,0,0,0H397c2,0,3.7,1.6,3.7,3.7l0,0
	C400.7-23.3,399-21.7,397-21.7C397-21.7,397-21.7,397-21.7z"/>
<path class="st9" d="M585,157.1H330.8c-3.1,0-5.6-2.5-5.6-5.6V9.3c0-3.1,2.5-5.6,5.6-5.6h0.7c2.3,0,4.4-1.4,5.2-3.5l3.9-9.7
	c0.4-1.1,1.2-2.1,2.3-2.7c1.1-0.7,2.4-1,3.6-1h65.3c0.9,0,1.7,0.2,2.6,0.5c1.1,0.5,2.1,1.3,2.7,2.4l6.6,11.3c1,1.7,2.9,2.8,4.9,2.8
	H585c3.1,0,5.6,2.5,5.6,5.6v142.2C590.6,154.6,588.1,157.1,585,157.1z"/>
<path class="st13" d="M416.5-51l-40.4-5c-2-0.3-3.4-2.1-3.2-4.1l0,0c0.3-2,2.1-3.4,4.1-3.2l40.4,5c2,0.2,3.4,2.1,3.2,4.1l0,0
	C420.3-52.2,418.5-50.7,416.5-51C416.5-51,416.5-51,416.5-51z"/>
<path class="st8" d="M416.5-51l-40.4-5c-2-0.3-3.4-2.1-3.2-4.1l0,0c0.3-2,2.1-3.4,4.1-3.2l40.4,5c2,0.2,3.4,2.1,3.2,4.1l0,0
	C420.3-52.2,418.5-50.7,416.5-51C416.5-51,416.5-51,416.5-51z"/>
<path class="st13" d="M397,3.2h-40.7c-2,0-3.7-1.6-3.7-3.7c0,0,0,0,0,0l0,0c0-2,1.6-3.7,3.7-3.7H397c2,0,3.7,1.6,3.7,3.7l0,0
	C400.7,1.5,399,3.2,397,3.2z"/>
<path class="st8" d="M397,3.2h-40.7c-2,0-3.7-1.6-3.7-3.7c0,0,0,0,0,0l0,0c0-2,1.6-3.7,3.7-3.7H397c2,0,3.7,1.6,3.7,3.7l0,0
	C400.7,1.5,399,3.2,397,3.2z"/>
<path class="st3" d="M322.5,46.4h270.8c2.9,0,5.3,2.4,5.3,5.3v163.9c0,2.9-2.4,5.3-5.3,5.3H322.5c-2.9,0-5.3-2.4-5.3-5.3V51.7
	C317.2,48.8,319.6,46.4,322.5,46.4z"/>
<g>
	<defs>
		<path id="SVGID_3_" d="M322.5,46.4h270.8c2.9,0,5.3,2.4,5.3,5.3v163.9c0,2.9-2.4,5.3-5.3,5.3H322.5c-2.9,0-5.3-2.4-5.3-5.3V51.7
			C317.2,48.8,319.6,46.4,322.5,46.4z"/>
	</defs>
	<clipPath id="SVGID_4_">
		<use xlink:href="#SVGID_3_"  style="overflow:visible;"/>
	</clipPath>
	<g class="st14">
		<path class="st0" d="M598.6,93.4c-31.2,29.2-66.6,53.4-105.1,71.9c-56.9,27.2-121.8,45.9-159.7,55.6h259.5c2.9,0,5.3-2.3,5.3-5.3
			c0,0,0,0,0,0V93.4z"/>
		<path class="st15" d="M598.6,93.4c-31.2,29.2-66.6,53.4-105.1,71.9c-56.9,27.2-121.8,45.9-159.7,55.6h259.5c2.9,0,5.3-2.3,5.3-5.3
			c0,0,0,0,0,0V93.4z"/>
	</g>
</g>
<path class="st12" d="M322.5,46.4h270.8c2.9,0,5.3,2.4,5.3,5.3v163.9c0,2.9-2.4,5.3-5.3,5.3H322.5c-2.9,0-5.3-2.4-5.3-5.3V51.7
	C317.2,48.8,319.6,46.4,322.5,46.4z"/>
<path class="st12" d="M321.3,61.7v-7c0-2.9,2.4-5.3,5.3-5.3H338"/>
<line class="st12" x1="321.3" y1="168" x2="321.3" y2="70.3"/>
<path class="st12" d="M594.5,201.4v11.1c0,2.9-2.3,5.3-5.3,5.3c0,0,0,0,0,0H580"/>
<line class="st12" x1="594.5" y1="59.3" x2="594.5" y2="193.2"/>
<path class="st9" d="M416,110.2h83.7c1.5,0,2.7,1.2,2.7,2.7v42.7c0,1.5-1.2,2.7-2.7,2.7H416c-1.5,0-2.7-1.2-2.7-2.7v-42.7
	C413.3,111.4,414.5,110.2,416,110.2z"/>
<path class="st16" d="M416,110.2h83.7c1.5,0,2.7,1.2,2.7,2.7v9.2c0,1.5-1.2,2.7-2.7,2.7H416c-1.5,0-2.7-1.2-2.7-2.7v-9.2
	C413.3,111.4,414.5,110.2,416,110.2z"/>
</svg>
